G04 #@! TF.GenerationSoftware,KiCad,Pcbnew,(5.1.5)-3*
G04 #@! TF.CreationDate,2022-05-11T11:14:05-04:00*
G04 #@! TF.ProjectId,FuzzFace,46757a7a-4661-4636-952e-6b696361645f,rev?*
G04 #@! TF.SameCoordinates,Original*
G04 #@! TF.FileFunction,Soldermask,Bot*
G04 #@! TF.FilePolarity,Negative*
%FSLAX46Y46*%
G04 Gerber Fmt 4.6, Leading zero omitted, Abs format (unit mm)*
G04 Created by KiCad (PCBNEW (5.1.5)-3) date 2022-05-11 11:14:05*
%MOMM*%
%LPD*%
G04 APERTURE LIST*
%ADD10C,0.100000*%
G04 APERTURE END LIST*
D10*
G36*
X99948239Y-77837467D02*
G01*
X100262282Y-77899934D01*
X100853926Y-78145001D01*
X101386392Y-78500784D01*
X101839216Y-78953608D01*
X102194999Y-79486074D01*
X102440066Y-80077718D01*
X102565000Y-80705804D01*
X102565000Y-81346196D01*
X102440066Y-81974282D01*
X102194999Y-82565926D01*
X101839216Y-83098392D01*
X101386392Y-83551216D01*
X100853926Y-83906999D01*
X100262282Y-84152066D01*
X99948239Y-84214533D01*
X99634197Y-84277000D01*
X98993803Y-84277000D01*
X98679761Y-84214533D01*
X98365718Y-84152066D01*
X97774074Y-83906999D01*
X97241608Y-83551216D01*
X96788784Y-83098392D01*
X96433001Y-82565926D01*
X96187934Y-81974282D01*
X96063000Y-81346196D01*
X96063000Y-80705804D01*
X96187934Y-80077718D01*
X96433001Y-79486074D01*
X96788784Y-78953608D01*
X97241608Y-78500784D01*
X97774074Y-78145001D01*
X98365718Y-77899934D01*
X98679761Y-77837467D01*
X98993803Y-77775000D01*
X99634197Y-77775000D01*
X99948239Y-77837467D01*
G37*
G36*
X56514239Y-77837467D02*
G01*
X56828282Y-77899934D01*
X57419926Y-78145001D01*
X57952392Y-78500784D01*
X58405216Y-78953608D01*
X58760999Y-79486074D01*
X59006066Y-80077718D01*
X59131000Y-80705804D01*
X59131000Y-81346196D01*
X59006066Y-81974282D01*
X58760999Y-82565926D01*
X58405216Y-83098392D01*
X57952392Y-83551216D01*
X57419926Y-83906999D01*
X56828282Y-84152066D01*
X56514239Y-84214533D01*
X56200197Y-84277000D01*
X55559803Y-84277000D01*
X55245761Y-84214533D01*
X54931718Y-84152066D01*
X54340074Y-83906999D01*
X53807608Y-83551216D01*
X53354784Y-83098392D01*
X52999001Y-82565926D01*
X52753934Y-81974282D01*
X52629000Y-81346196D01*
X52629000Y-80705804D01*
X52753934Y-80077718D01*
X52999001Y-79486074D01*
X53354784Y-78953608D01*
X53807608Y-78500784D01*
X54340074Y-78145001D01*
X54931718Y-77899934D01*
X55245761Y-77837467D01*
X55559803Y-77775000D01*
X56200197Y-77775000D01*
X56514239Y-77837467D01*
G37*
G36*
X56106905Y-71868789D02*
G01*
X56405350Y-71928153D01*
X56733122Y-72063921D01*
X57028109Y-72261025D01*
X57278975Y-72511891D01*
X57476079Y-72806878D01*
X57611847Y-73134650D01*
X57681060Y-73482611D01*
X57681060Y-73837389D01*
X57611847Y-74185350D01*
X57476079Y-74513122D01*
X57278975Y-74808109D01*
X57028109Y-75058975D01*
X56733122Y-75256079D01*
X56405350Y-75391847D01*
X56106905Y-75451211D01*
X56057390Y-75461060D01*
X55702610Y-75461060D01*
X55653095Y-75451211D01*
X55354650Y-75391847D01*
X55026878Y-75256079D01*
X54731891Y-75058975D01*
X54481025Y-74808109D01*
X54283921Y-74513122D01*
X54148153Y-74185350D01*
X54078940Y-73837389D01*
X54078940Y-73482611D01*
X54148153Y-73134650D01*
X54283921Y-72806878D01*
X54481025Y-72511891D01*
X54731891Y-72261025D01*
X55026878Y-72063921D01*
X55354650Y-71928153D01*
X55653095Y-71868789D01*
X55702610Y-71858940D01*
X56057390Y-71858940D01*
X56106905Y-71868789D01*
G37*
G36*
X56106905Y-66788789D02*
G01*
X56405350Y-66848153D01*
X56733122Y-66983921D01*
X57028109Y-67181025D01*
X57278975Y-67431891D01*
X57476079Y-67726878D01*
X57611847Y-68054650D01*
X57681060Y-68402611D01*
X57681060Y-68757389D01*
X57611847Y-69105350D01*
X57476079Y-69433122D01*
X57278975Y-69728109D01*
X57028109Y-69978975D01*
X56733122Y-70176079D01*
X56405350Y-70311847D01*
X56106905Y-70371211D01*
X56057390Y-70381060D01*
X55702610Y-70381060D01*
X55653095Y-70371211D01*
X55354650Y-70311847D01*
X55026878Y-70176079D01*
X54731891Y-69978975D01*
X54481025Y-69728109D01*
X54283921Y-69433122D01*
X54148153Y-69105350D01*
X54078940Y-68757389D01*
X54078940Y-68402611D01*
X54148153Y-68054650D01*
X54283921Y-67726878D01*
X54481025Y-67431891D01*
X54731891Y-67181025D01*
X55026878Y-66983921D01*
X55354650Y-66848153D01*
X55653095Y-66788789D01*
X55702610Y-66778940D01*
X56057390Y-66778940D01*
X56106905Y-66788789D01*
G37*
G36*
X56106905Y-61708789D02*
G01*
X56405350Y-61768153D01*
X56733122Y-61903921D01*
X57028109Y-62101025D01*
X57278975Y-62351891D01*
X57476079Y-62646878D01*
X57611847Y-62974650D01*
X57681060Y-63322611D01*
X57681060Y-63677389D01*
X57611847Y-64025350D01*
X57476079Y-64353122D01*
X57278975Y-64648109D01*
X57028109Y-64898975D01*
X56733122Y-65096079D01*
X56405350Y-65231847D01*
X56106905Y-65291211D01*
X56057390Y-65301060D01*
X55702610Y-65301060D01*
X55653095Y-65291211D01*
X55354650Y-65231847D01*
X55026878Y-65096079D01*
X54731891Y-64898975D01*
X54481025Y-64648109D01*
X54283921Y-64353122D01*
X54148153Y-64025350D01*
X54078940Y-63677389D01*
X54078940Y-63322611D01*
X54148153Y-62974650D01*
X54283921Y-62646878D01*
X54481025Y-62351891D01*
X54731891Y-62101025D01*
X55026878Y-61903921D01*
X55354650Y-61768153D01*
X55653095Y-61708789D01*
X55702610Y-61698940D01*
X56057390Y-61698940D01*
X56106905Y-61708789D01*
G37*
G36*
X56106905Y-56628789D02*
G01*
X56405350Y-56688153D01*
X56733122Y-56823921D01*
X57028109Y-57021025D01*
X57278975Y-57271891D01*
X57476079Y-57566878D01*
X57611847Y-57894650D01*
X57681060Y-58242611D01*
X57681060Y-58597389D01*
X57611847Y-58945350D01*
X57476079Y-59273122D01*
X57278975Y-59568109D01*
X57028109Y-59818975D01*
X56733122Y-60016079D01*
X56405350Y-60151847D01*
X56106905Y-60211211D01*
X56057390Y-60221060D01*
X55702610Y-60221060D01*
X55653095Y-60211211D01*
X55354650Y-60151847D01*
X55026878Y-60016079D01*
X54731891Y-59818975D01*
X54481025Y-59568109D01*
X54283921Y-59273122D01*
X54148153Y-58945350D01*
X54078940Y-58597389D01*
X54078940Y-58242611D01*
X54148153Y-57894650D01*
X54283921Y-57566878D01*
X54481025Y-57271891D01*
X54731891Y-57021025D01*
X55026878Y-56823921D01*
X55354650Y-56688153D01*
X55653095Y-56628789D01*
X55702610Y-56618940D01*
X56057390Y-56618940D01*
X56106905Y-56628789D01*
G37*
G36*
X56106905Y-51548789D02*
G01*
X56405350Y-51608153D01*
X56733122Y-51743921D01*
X57028109Y-51941025D01*
X57278975Y-52191891D01*
X57476079Y-52486878D01*
X57611847Y-52814650D01*
X57681060Y-53162611D01*
X57681060Y-53517389D01*
X57611847Y-53865350D01*
X57476079Y-54193122D01*
X57278975Y-54488109D01*
X57028109Y-54738975D01*
X56733122Y-54936079D01*
X56405350Y-55071847D01*
X56106905Y-55131211D01*
X56057390Y-55141060D01*
X55702610Y-55141060D01*
X55653095Y-55131211D01*
X55354650Y-55071847D01*
X55026878Y-54936079D01*
X54731891Y-54738975D01*
X54481025Y-54488109D01*
X54283921Y-54193122D01*
X54148153Y-53865350D01*
X54078940Y-53517389D01*
X54078940Y-53162611D01*
X54148153Y-52814650D01*
X54283921Y-52486878D01*
X54481025Y-52191891D01*
X54731891Y-51941025D01*
X55026878Y-51743921D01*
X55354650Y-51608153D01*
X55653095Y-51548789D01*
X55702610Y-51538940D01*
X56057390Y-51538940D01*
X56106905Y-51548789D01*
G37*
G36*
X72007589Y-51054876D02*
G01*
X72106893Y-51074629D01*
X72247206Y-51132748D01*
X72373484Y-51217125D01*
X72480875Y-51324516D01*
X72565252Y-51450794D01*
X72623371Y-51591107D01*
X72653000Y-51740063D01*
X72653000Y-51891937D01*
X72623371Y-52040893D01*
X72565252Y-52181206D01*
X72480875Y-52307484D01*
X72373484Y-52414875D01*
X72247206Y-52499252D01*
X72106893Y-52557371D01*
X72007589Y-52577124D01*
X71957938Y-52587000D01*
X71806062Y-52587000D01*
X71756411Y-52577124D01*
X71657107Y-52557371D01*
X71516794Y-52499252D01*
X71390516Y-52414875D01*
X71283125Y-52307484D01*
X71198748Y-52181206D01*
X71140629Y-52040893D01*
X71111000Y-51891937D01*
X71111000Y-51740063D01*
X71140629Y-51591107D01*
X71198748Y-51450794D01*
X71283125Y-51324516D01*
X71390516Y-51217125D01*
X71516794Y-51132748D01*
X71657107Y-51074629D01*
X71756411Y-51054876D01*
X71806062Y-51045000D01*
X71957938Y-51045000D01*
X72007589Y-51054876D01*
G37*
G36*
X56106905Y-46468789D02*
G01*
X56405350Y-46528153D01*
X56733122Y-46663921D01*
X57028109Y-46861025D01*
X57278975Y-47111891D01*
X57476079Y-47406878D01*
X57611847Y-47734650D01*
X57681060Y-48082611D01*
X57681060Y-48437389D01*
X57611847Y-48785350D01*
X57476079Y-49113122D01*
X57278975Y-49408109D01*
X57028109Y-49658975D01*
X56733122Y-49856079D01*
X56405350Y-49991847D01*
X56128074Y-50047000D01*
X56057390Y-50061060D01*
X55702610Y-50061060D01*
X55631926Y-50047000D01*
X55354650Y-49991847D01*
X55026878Y-49856079D01*
X54731891Y-49658975D01*
X54481025Y-49408109D01*
X54283921Y-49113122D01*
X54148153Y-48785350D01*
X54078940Y-48437389D01*
X54078940Y-48082611D01*
X54148153Y-47734650D01*
X54283921Y-47406878D01*
X54481025Y-47111891D01*
X54731891Y-46861025D01*
X55026878Y-46663921D01*
X55354650Y-46528153D01*
X55653095Y-46468789D01*
X55702610Y-46458940D01*
X56057390Y-46458940D01*
X56106905Y-46468789D01*
G37*
G36*
X72007589Y-48514876D02*
G01*
X72106893Y-48534629D01*
X72247206Y-48592748D01*
X72373484Y-48677125D01*
X72480875Y-48784516D01*
X72565252Y-48910794D01*
X72623371Y-49051107D01*
X72653000Y-49200063D01*
X72653000Y-49351937D01*
X72623371Y-49500893D01*
X72565252Y-49641206D01*
X72480875Y-49767484D01*
X72373484Y-49874875D01*
X72247206Y-49959252D01*
X72106893Y-50017371D01*
X72007589Y-50037124D01*
X71957938Y-50047000D01*
X71806062Y-50047000D01*
X71756411Y-50037124D01*
X71657107Y-50017371D01*
X71516794Y-49959252D01*
X71390516Y-49874875D01*
X71283125Y-49767484D01*
X71198748Y-49641206D01*
X71140629Y-49500893D01*
X71111000Y-49351937D01*
X71111000Y-49200063D01*
X71140629Y-49051107D01*
X71198748Y-48910794D01*
X71283125Y-48784516D01*
X71390516Y-48677125D01*
X71516794Y-48592748D01*
X71657107Y-48534629D01*
X71756411Y-48514876D01*
X71806062Y-48505000D01*
X71957938Y-48505000D01*
X72007589Y-48514876D01*
G37*
G36*
X72007589Y-45974876D02*
G01*
X72106893Y-45994629D01*
X72247206Y-46052748D01*
X72373484Y-46137125D01*
X72480875Y-46244516D01*
X72565252Y-46370794D01*
X72623371Y-46511107D01*
X72653000Y-46660063D01*
X72653000Y-46811937D01*
X72623371Y-46960893D01*
X72565252Y-47101206D01*
X72480875Y-47227484D01*
X72373484Y-47334875D01*
X72247206Y-47419252D01*
X72106893Y-47477371D01*
X72007589Y-47497124D01*
X71957938Y-47507000D01*
X71806062Y-47507000D01*
X71756411Y-47497124D01*
X71657107Y-47477371D01*
X71516794Y-47419252D01*
X71390516Y-47334875D01*
X71283125Y-47227484D01*
X71198748Y-47101206D01*
X71140629Y-46960893D01*
X71111000Y-46811937D01*
X71111000Y-46660063D01*
X71140629Y-46511107D01*
X71198748Y-46370794D01*
X71283125Y-46244516D01*
X71390516Y-46137125D01*
X71516794Y-46052748D01*
X71657107Y-45994629D01*
X71756411Y-45974876D01*
X71806062Y-45965000D01*
X71957938Y-45965000D01*
X72007589Y-45974876D01*
G37*
G36*
X56106905Y-41388789D02*
G01*
X56405350Y-41448153D01*
X56733122Y-41583921D01*
X57028109Y-41781025D01*
X57278975Y-42031891D01*
X57476079Y-42326878D01*
X57611847Y-42654650D01*
X57681060Y-43002611D01*
X57681060Y-43357389D01*
X57611847Y-43705350D01*
X57476079Y-44033122D01*
X57278975Y-44328109D01*
X57028109Y-44578975D01*
X56733122Y-44776079D01*
X56405350Y-44911847D01*
X56106905Y-44971211D01*
X56057390Y-44981060D01*
X55702610Y-44981060D01*
X55653095Y-44971211D01*
X55354650Y-44911847D01*
X55026878Y-44776079D01*
X54731891Y-44578975D01*
X54481025Y-44328109D01*
X54283921Y-44033122D01*
X54148153Y-43705350D01*
X54078940Y-43357389D01*
X54078940Y-43002611D01*
X54148153Y-42654650D01*
X54283921Y-42326878D01*
X54481025Y-42031891D01*
X54731891Y-41781025D01*
X55026878Y-41583921D01*
X55354650Y-41448153D01*
X55653095Y-41388789D01*
X55702610Y-41378940D01*
X56057390Y-41378940D01*
X56106905Y-41388789D01*
G37*
G36*
X88009589Y-41402876D02*
G01*
X88108893Y-41422629D01*
X88249206Y-41480748D01*
X88375484Y-41565125D01*
X88482875Y-41672516D01*
X88567252Y-41798794D01*
X88625371Y-41939107D01*
X88655000Y-42088063D01*
X88655000Y-42239937D01*
X88625371Y-42388893D01*
X88567252Y-42529206D01*
X88482875Y-42655484D01*
X88375484Y-42762875D01*
X88249206Y-42847252D01*
X88108893Y-42905371D01*
X88009589Y-42925124D01*
X87959938Y-42935000D01*
X87808062Y-42935000D01*
X87758411Y-42925124D01*
X87659107Y-42905371D01*
X87518794Y-42847252D01*
X87392516Y-42762875D01*
X87285125Y-42655484D01*
X87200748Y-42529206D01*
X87142629Y-42388893D01*
X87113000Y-42239937D01*
X87113000Y-42088063D01*
X87142629Y-41939107D01*
X87200748Y-41798794D01*
X87285125Y-41672516D01*
X87392516Y-41565125D01*
X87518794Y-41480748D01*
X87659107Y-41422629D01*
X87758411Y-41402876D01*
X87808062Y-41393000D01*
X87959938Y-41393000D01*
X88009589Y-41402876D01*
G37*
G36*
X88009589Y-38862876D02*
G01*
X88108893Y-38882629D01*
X88249206Y-38940748D01*
X88375484Y-39025125D01*
X88482875Y-39132516D01*
X88567252Y-39258794D01*
X88625371Y-39399107D01*
X88655000Y-39548063D01*
X88655000Y-39699937D01*
X88625371Y-39848893D01*
X88567252Y-39989206D01*
X88482875Y-40115484D01*
X88375484Y-40222875D01*
X88249206Y-40307252D01*
X88108893Y-40365371D01*
X88009589Y-40385124D01*
X87959938Y-40395000D01*
X87808062Y-40395000D01*
X87758411Y-40385124D01*
X87659107Y-40365371D01*
X87518794Y-40307252D01*
X87392516Y-40222875D01*
X87285125Y-40115484D01*
X87200748Y-39989206D01*
X87142629Y-39848893D01*
X87113000Y-39699937D01*
X87113000Y-39548063D01*
X87142629Y-39399107D01*
X87200748Y-39258794D01*
X87285125Y-39132516D01*
X87392516Y-39025125D01*
X87518794Y-38940748D01*
X87659107Y-38882629D01*
X87758411Y-38862876D01*
X87808062Y-38853000D01*
X87959938Y-38853000D01*
X88009589Y-38862876D01*
G37*
G36*
X56106905Y-36308789D02*
G01*
X56405350Y-36368153D01*
X56733122Y-36503921D01*
X57028109Y-36701025D01*
X57278975Y-36951891D01*
X57476079Y-37246878D01*
X57611847Y-37574650D01*
X57681060Y-37922611D01*
X57681060Y-38277389D01*
X57611847Y-38625350D01*
X57476079Y-38953122D01*
X57278975Y-39248109D01*
X57028109Y-39498975D01*
X56733122Y-39696079D01*
X56405350Y-39831847D01*
X56106905Y-39891211D01*
X56057390Y-39901060D01*
X55702610Y-39901060D01*
X55653095Y-39891211D01*
X55354650Y-39831847D01*
X55026878Y-39696079D01*
X54731891Y-39498975D01*
X54481025Y-39248109D01*
X54283921Y-38953122D01*
X54148153Y-38625350D01*
X54078940Y-38277389D01*
X54078940Y-37922611D01*
X54148153Y-37574650D01*
X54283921Y-37246878D01*
X54481025Y-36951891D01*
X54731891Y-36701025D01*
X55026878Y-36503921D01*
X55354650Y-36368153D01*
X55653095Y-36308789D01*
X55702610Y-36298940D01*
X56057390Y-36298940D01*
X56106905Y-36308789D01*
G37*
G36*
X88009589Y-36322876D02*
G01*
X88108893Y-36342629D01*
X88249206Y-36400748D01*
X88375484Y-36485125D01*
X88482875Y-36592516D01*
X88567252Y-36718794D01*
X88625371Y-36859107D01*
X88655000Y-37008063D01*
X88655000Y-37159937D01*
X88625371Y-37308893D01*
X88567252Y-37449206D01*
X88482875Y-37575484D01*
X88375484Y-37682875D01*
X88249206Y-37767252D01*
X88108893Y-37825371D01*
X88009589Y-37845124D01*
X87959938Y-37855000D01*
X87808062Y-37855000D01*
X87758411Y-37845124D01*
X87659107Y-37825371D01*
X87518794Y-37767252D01*
X87392516Y-37682875D01*
X87285125Y-37575484D01*
X87200748Y-37449206D01*
X87142629Y-37308893D01*
X87113000Y-37159937D01*
X87113000Y-37008063D01*
X87142629Y-36859107D01*
X87200748Y-36718794D01*
X87285125Y-36592516D01*
X87392516Y-36485125D01*
X87518794Y-36400748D01*
X87659107Y-36342629D01*
X87758411Y-36322876D01*
X87808062Y-36313000D01*
X87959938Y-36313000D01*
X88009589Y-36322876D01*
G37*
G36*
X99694239Y-27545467D02*
G01*
X100008282Y-27607934D01*
X100599926Y-27853001D01*
X101132392Y-28208784D01*
X101585216Y-28661608D01*
X101940999Y-29194074D01*
X102186066Y-29785718D01*
X102311000Y-30413804D01*
X102311000Y-31054196D01*
X102186066Y-31682282D01*
X101940999Y-32273926D01*
X101585216Y-32806392D01*
X101132392Y-33259216D01*
X100599926Y-33614999D01*
X100008282Y-33860066D01*
X99694239Y-33922533D01*
X99380197Y-33985000D01*
X98739803Y-33985000D01*
X98425761Y-33922533D01*
X98111718Y-33860066D01*
X97520074Y-33614999D01*
X96987608Y-33259216D01*
X96534784Y-32806392D01*
X96179001Y-32273926D01*
X95933934Y-31682282D01*
X95809000Y-31054196D01*
X95809000Y-30413804D01*
X95933934Y-29785718D01*
X96179001Y-29194074D01*
X96534784Y-28661608D01*
X96987608Y-28208784D01*
X97520074Y-27853001D01*
X98111718Y-27607934D01*
X98425761Y-27545467D01*
X98739803Y-27483000D01*
X99380197Y-27483000D01*
X99694239Y-27545467D01*
G37*
G36*
X56514239Y-27545467D02*
G01*
X56828282Y-27607934D01*
X57419926Y-27853001D01*
X57952392Y-28208784D01*
X58405216Y-28661608D01*
X58760999Y-29194074D01*
X59006066Y-29785718D01*
X59131000Y-30413804D01*
X59131000Y-31054196D01*
X59006066Y-31682282D01*
X58760999Y-32273926D01*
X58405216Y-32806392D01*
X57952392Y-33259216D01*
X57419926Y-33614999D01*
X56828282Y-33860066D01*
X56514239Y-33922533D01*
X56200197Y-33985000D01*
X55559803Y-33985000D01*
X55245761Y-33922533D01*
X54931718Y-33860066D01*
X54340074Y-33614999D01*
X53807608Y-33259216D01*
X53354784Y-32806392D01*
X52999001Y-32273926D01*
X52753934Y-31682282D01*
X52629000Y-31054196D01*
X52629000Y-30413804D01*
X52753934Y-29785718D01*
X52999001Y-29194074D01*
X53354784Y-28661608D01*
X53807608Y-28208784D01*
X54340074Y-27853001D01*
X54931718Y-27607934D01*
X55245761Y-27545467D01*
X55559803Y-27483000D01*
X56200197Y-27483000D01*
X56514239Y-27545467D01*
G37*
M02*
