G04 #@! TF.GenerationSoftware,KiCad,Pcbnew,(5.1.5)-3*
G04 #@! TF.CreationDate,2022-05-11T11:14:05-04:00*
G04 #@! TF.ProjectId,FuzzFace,46757a7a-4661-4636-952e-6b696361645f,rev?*
G04 #@! TF.SameCoordinates,Original*
G04 #@! TF.FileFunction,Soldermask,Top*
G04 #@! TF.FilePolarity,Negative*
%FSLAX46Y46*%
G04 Gerber Fmt 4.6, Leading zero omitted, Abs format (unit mm)*
G04 Created by KiCad (PCBNEW (5.1.5)-3) date 2022-05-11 11:14:05*
%MOMM*%
%LPD*%
G04 APERTURE LIST*
%ADD10C,0.100000*%
G04 APERTURE END LIST*
D10*
G36*
X99948239Y-77837467D02*
G01*
X100262282Y-77899934D01*
X100853926Y-78145001D01*
X101386392Y-78500784D01*
X101839216Y-78953608D01*
X102194999Y-79486074D01*
X102440066Y-80077718D01*
X102565000Y-80705804D01*
X102565000Y-81346196D01*
X102440066Y-81974282D01*
X102194999Y-82565926D01*
X101839216Y-83098392D01*
X101386392Y-83551216D01*
X100853926Y-83906999D01*
X100262282Y-84152066D01*
X99948239Y-84214533D01*
X99634197Y-84277000D01*
X98993803Y-84277000D01*
X98679761Y-84214533D01*
X98365718Y-84152066D01*
X97774074Y-83906999D01*
X97241608Y-83551216D01*
X96788784Y-83098392D01*
X96433001Y-82565926D01*
X96187934Y-81974282D01*
X96063000Y-81346196D01*
X96063000Y-80705804D01*
X96187934Y-80077718D01*
X96433001Y-79486074D01*
X96788784Y-78953608D01*
X97241608Y-78500784D01*
X97774074Y-78145001D01*
X98365718Y-77899934D01*
X98679761Y-77837467D01*
X98993803Y-77775000D01*
X99634197Y-77775000D01*
X99948239Y-77837467D01*
G37*
G36*
X56514239Y-77837467D02*
G01*
X56828282Y-77899934D01*
X57419926Y-78145001D01*
X57952392Y-78500784D01*
X58405216Y-78953608D01*
X58760999Y-79486074D01*
X59006066Y-80077718D01*
X59131000Y-80705804D01*
X59131000Y-81346196D01*
X59006066Y-81974282D01*
X58760999Y-82565926D01*
X58405216Y-83098392D01*
X57952392Y-83551216D01*
X57419926Y-83906999D01*
X56828282Y-84152066D01*
X56514239Y-84214533D01*
X56200197Y-84277000D01*
X55559803Y-84277000D01*
X55245761Y-84214533D01*
X54931718Y-84152066D01*
X54340074Y-83906999D01*
X53807608Y-83551216D01*
X53354784Y-83098392D01*
X52999001Y-82565926D01*
X52753934Y-81974282D01*
X52629000Y-81346196D01*
X52629000Y-80705804D01*
X52753934Y-80077718D01*
X52999001Y-79486074D01*
X53354784Y-78953608D01*
X53807608Y-78500784D01*
X54340074Y-78145001D01*
X54931718Y-77899934D01*
X55245761Y-77837467D01*
X55559803Y-77775000D01*
X56200197Y-77775000D01*
X56514239Y-77837467D01*
G37*
G36*
X56106905Y-71868789D02*
G01*
X56405350Y-71928153D01*
X56733122Y-72063921D01*
X57028109Y-72261025D01*
X57278975Y-72511891D01*
X57476079Y-72806878D01*
X57611847Y-73134650D01*
X57681060Y-73482611D01*
X57681060Y-73837389D01*
X57611847Y-74185350D01*
X57476079Y-74513122D01*
X57278975Y-74808109D01*
X57028109Y-75058975D01*
X56733122Y-75256079D01*
X56405350Y-75391847D01*
X56106905Y-75451211D01*
X56057390Y-75461060D01*
X55702610Y-75461060D01*
X55653095Y-75451211D01*
X55354650Y-75391847D01*
X55026878Y-75256079D01*
X54731891Y-75058975D01*
X54481025Y-74808109D01*
X54283921Y-74513122D01*
X54148153Y-74185350D01*
X54078940Y-73837389D01*
X54078940Y-73482611D01*
X54148153Y-73134650D01*
X54283921Y-72806878D01*
X54481025Y-72511891D01*
X54731891Y-72261025D01*
X55026878Y-72063921D01*
X55354650Y-71928153D01*
X55653095Y-71868789D01*
X55702610Y-71858940D01*
X56057390Y-71858940D01*
X56106905Y-71868789D01*
G37*
G36*
X56106905Y-66788789D02*
G01*
X56405350Y-66848153D01*
X56733122Y-66983921D01*
X57028109Y-67181025D01*
X57278975Y-67431891D01*
X57476079Y-67726878D01*
X57611847Y-68054650D01*
X57681060Y-68402611D01*
X57681060Y-68757389D01*
X57611847Y-69105350D01*
X57476079Y-69433122D01*
X57278975Y-69728109D01*
X57028109Y-69978975D01*
X56733122Y-70176079D01*
X56405350Y-70311847D01*
X56106905Y-70371211D01*
X56057390Y-70381060D01*
X55702610Y-70381060D01*
X55653095Y-70371211D01*
X55354650Y-70311847D01*
X55026878Y-70176079D01*
X54731891Y-69978975D01*
X54481025Y-69728109D01*
X54283921Y-69433122D01*
X54148153Y-69105350D01*
X54078940Y-68757389D01*
X54078940Y-68402611D01*
X54148153Y-68054650D01*
X54283921Y-67726878D01*
X54481025Y-67431891D01*
X54731891Y-67181025D01*
X55026878Y-66983921D01*
X55354650Y-66848153D01*
X55653095Y-66788789D01*
X55702610Y-66778940D01*
X56057390Y-66778940D01*
X56106905Y-66788789D01*
G37*
G36*
X56104652Y-61708341D02*
G01*
X56405350Y-61768153D01*
X56733122Y-61903921D01*
X57028109Y-62101025D01*
X57278975Y-62351891D01*
X57476079Y-62646878D01*
X57611847Y-62974650D01*
X57681060Y-63322611D01*
X57681060Y-63677389D01*
X57611847Y-64025350D01*
X57476079Y-64353122D01*
X57278975Y-64648109D01*
X57028109Y-64898975D01*
X56733122Y-65096079D01*
X56405350Y-65231847D01*
X56106905Y-65291211D01*
X56057390Y-65301060D01*
X55702610Y-65301060D01*
X55653095Y-65291211D01*
X55354650Y-65231847D01*
X55026878Y-65096079D01*
X54731891Y-64898975D01*
X54481025Y-64648109D01*
X54283921Y-64353122D01*
X54148153Y-64025350D01*
X54078940Y-63677389D01*
X54078940Y-63322611D01*
X54148153Y-62974650D01*
X54283921Y-62646878D01*
X54481025Y-62351891D01*
X54731891Y-62101025D01*
X55026878Y-61903921D01*
X55354650Y-61768153D01*
X55655348Y-61708341D01*
X55702610Y-61698940D01*
X56057390Y-61698940D01*
X56104652Y-61708341D01*
G37*
G36*
X71130604Y-60038347D02*
G01*
X71167144Y-60049432D01*
X71200821Y-60067433D01*
X71230341Y-60091659D01*
X71254567Y-60121179D01*
X71272568Y-60154856D01*
X71283653Y-60191396D01*
X71288000Y-60235538D01*
X71288000Y-61684462D01*
X71283653Y-61728604D01*
X71272568Y-61765144D01*
X71254567Y-61798821D01*
X71230341Y-61828341D01*
X71200821Y-61852567D01*
X71167144Y-61870568D01*
X71130604Y-61881653D01*
X71086462Y-61886000D01*
X70137538Y-61886000D01*
X70093396Y-61881653D01*
X70056856Y-61870568D01*
X70023179Y-61852567D01*
X69993659Y-61828341D01*
X69969433Y-61798821D01*
X69951432Y-61765144D01*
X69940347Y-61728604D01*
X69936000Y-61684462D01*
X69936000Y-60235538D01*
X69940347Y-60191396D01*
X69951432Y-60154856D01*
X69969433Y-60121179D01*
X69993659Y-60091659D01*
X70023179Y-60067433D01*
X70056856Y-60049432D01*
X70093396Y-60038347D01*
X70137538Y-60034000D01*
X71086462Y-60034000D01*
X71130604Y-60038347D01*
G37*
G36*
X73930604Y-60038347D02*
G01*
X73967144Y-60049432D01*
X74000821Y-60067433D01*
X74030341Y-60091659D01*
X74054567Y-60121179D01*
X74072568Y-60154856D01*
X74083653Y-60191396D01*
X74088000Y-60235538D01*
X74088000Y-61684462D01*
X74083653Y-61728604D01*
X74072568Y-61765144D01*
X74054567Y-61798821D01*
X74030341Y-61828341D01*
X74000821Y-61852567D01*
X73967144Y-61870568D01*
X73930604Y-61881653D01*
X73886462Y-61886000D01*
X72937538Y-61886000D01*
X72893396Y-61881653D01*
X72856856Y-61870568D01*
X72823179Y-61852567D01*
X72793659Y-61828341D01*
X72769433Y-61798821D01*
X72751432Y-61765144D01*
X72740347Y-61728604D01*
X72736000Y-61684462D01*
X72736000Y-60235538D01*
X72740347Y-60191396D01*
X72751432Y-60154856D01*
X72769433Y-60121179D01*
X72793659Y-60091659D01*
X72823179Y-60067433D01*
X72856856Y-60049432D01*
X72893396Y-60038347D01*
X72937538Y-60034000D01*
X73886462Y-60034000D01*
X73930604Y-60038347D01*
G37*
G36*
X79254604Y-60418347D02*
G01*
X79291144Y-60429432D01*
X79324821Y-60447433D01*
X79354341Y-60471659D01*
X79378567Y-60501179D01*
X79396568Y-60534856D01*
X79407653Y-60571396D01*
X79412000Y-60615538D01*
X79412000Y-61564462D01*
X79407653Y-61608604D01*
X79396568Y-61645144D01*
X79378567Y-61678821D01*
X79354341Y-61708341D01*
X79324821Y-61732567D01*
X79291144Y-61750568D01*
X79254604Y-61761653D01*
X79210462Y-61766000D01*
X77761538Y-61766000D01*
X77717396Y-61761653D01*
X77680856Y-61750568D01*
X77647179Y-61732567D01*
X77617659Y-61708341D01*
X77593433Y-61678821D01*
X77575432Y-61645144D01*
X77564347Y-61608604D01*
X77560000Y-61564462D01*
X77560000Y-60615538D01*
X77564347Y-60571396D01*
X77575432Y-60534856D01*
X77593433Y-60501179D01*
X77617659Y-60471659D01*
X77647179Y-60447433D01*
X77680856Y-60429432D01*
X77717396Y-60418347D01*
X77761538Y-60414000D01*
X79210462Y-60414000D01*
X79254604Y-60418347D01*
G37*
G36*
X56106905Y-56628789D02*
G01*
X56405350Y-56688153D01*
X56733122Y-56823921D01*
X57028109Y-57021025D01*
X57278975Y-57271891D01*
X57476079Y-57566878D01*
X57611847Y-57894650D01*
X57681060Y-58242611D01*
X57681060Y-58597389D01*
X57611847Y-58945350D01*
X57476079Y-59273122D01*
X57278975Y-59568109D01*
X57028109Y-59818975D01*
X56733122Y-60016079D01*
X56405350Y-60151847D01*
X56106905Y-60211211D01*
X56057390Y-60221060D01*
X55702610Y-60221060D01*
X55653095Y-60211211D01*
X55354650Y-60151847D01*
X55026878Y-60016079D01*
X54731891Y-59818975D01*
X54481025Y-59568109D01*
X54283921Y-59273122D01*
X54148153Y-58945350D01*
X54078940Y-58597389D01*
X54078940Y-58242611D01*
X54148153Y-57894650D01*
X54283921Y-57566878D01*
X54481025Y-57271891D01*
X54731891Y-57021025D01*
X55026878Y-56823921D01*
X55354650Y-56688153D01*
X55653095Y-56628789D01*
X55702610Y-56618940D01*
X56057390Y-56618940D01*
X56106905Y-56628789D01*
G37*
G36*
X71124604Y-57498347D02*
G01*
X71161144Y-57509432D01*
X71194821Y-57527433D01*
X71224341Y-57551659D01*
X71248567Y-57581179D01*
X71266568Y-57614856D01*
X71277653Y-57651396D01*
X71282000Y-57695538D01*
X71282000Y-59144462D01*
X71277653Y-59188604D01*
X71266568Y-59225144D01*
X71248567Y-59258821D01*
X71224341Y-59288341D01*
X71194821Y-59312567D01*
X71161144Y-59330568D01*
X71124604Y-59341653D01*
X71080462Y-59346000D01*
X70131538Y-59346000D01*
X70087396Y-59341653D01*
X70050856Y-59330568D01*
X70017179Y-59312567D01*
X69987659Y-59288341D01*
X69963433Y-59258821D01*
X69945432Y-59225144D01*
X69934347Y-59188604D01*
X69930000Y-59144462D01*
X69930000Y-57695538D01*
X69934347Y-57651396D01*
X69945432Y-57614856D01*
X69963433Y-57581179D01*
X69987659Y-57551659D01*
X70017179Y-57527433D01*
X70050856Y-57509432D01*
X70087396Y-57498347D01*
X70131538Y-57494000D01*
X71080462Y-57494000D01*
X71124604Y-57498347D01*
G37*
G36*
X73924604Y-57498347D02*
G01*
X73961144Y-57509432D01*
X73994821Y-57527433D01*
X74024341Y-57551659D01*
X74048567Y-57581179D01*
X74066568Y-57614856D01*
X74077653Y-57651396D01*
X74082000Y-57695538D01*
X74082000Y-59144462D01*
X74077653Y-59188604D01*
X74066568Y-59225144D01*
X74048567Y-59258821D01*
X74024341Y-59288341D01*
X73994821Y-59312567D01*
X73961144Y-59330568D01*
X73924604Y-59341653D01*
X73880462Y-59346000D01*
X72931538Y-59346000D01*
X72887396Y-59341653D01*
X72850856Y-59330568D01*
X72817179Y-59312567D01*
X72787659Y-59288341D01*
X72763433Y-59258821D01*
X72745432Y-59225144D01*
X72734347Y-59188604D01*
X72730000Y-59144462D01*
X72730000Y-57695538D01*
X72734347Y-57651396D01*
X72745432Y-57614856D01*
X72763433Y-57581179D01*
X72787659Y-57551659D01*
X72817179Y-57527433D01*
X72850856Y-57509432D01*
X72887396Y-57498347D01*
X72931538Y-57494000D01*
X73880462Y-57494000D01*
X73924604Y-57498347D01*
G37*
G36*
X79254604Y-57618347D02*
G01*
X79291144Y-57629432D01*
X79324821Y-57647433D01*
X79354341Y-57671659D01*
X79378567Y-57701179D01*
X79396568Y-57734856D01*
X79407653Y-57771396D01*
X79412000Y-57815538D01*
X79412000Y-58764462D01*
X79407653Y-58808604D01*
X79396568Y-58845144D01*
X79378567Y-58878821D01*
X79354341Y-58908341D01*
X79324821Y-58932567D01*
X79291144Y-58950568D01*
X79254604Y-58961653D01*
X79210462Y-58966000D01*
X77761538Y-58966000D01*
X77717396Y-58961653D01*
X77680856Y-58950568D01*
X77647179Y-58932567D01*
X77617659Y-58908341D01*
X77593433Y-58878821D01*
X77575432Y-58845144D01*
X77564347Y-58808604D01*
X77560000Y-58764462D01*
X77560000Y-57815538D01*
X77564347Y-57771396D01*
X77575432Y-57734856D01*
X77593433Y-57701179D01*
X77617659Y-57671659D01*
X77647179Y-57647433D01*
X77680856Y-57629432D01*
X77717396Y-57618347D01*
X77761538Y-57614000D01*
X79210462Y-57614000D01*
X79254604Y-57618347D01*
G37*
G36*
X79254604Y-55592347D02*
G01*
X79291144Y-55603432D01*
X79324821Y-55621433D01*
X79354341Y-55645659D01*
X79378567Y-55675179D01*
X79396568Y-55708856D01*
X79407653Y-55745396D01*
X79412000Y-55789538D01*
X79412000Y-56738462D01*
X79407653Y-56782604D01*
X79396568Y-56819144D01*
X79378567Y-56852821D01*
X79354341Y-56882341D01*
X79324821Y-56906567D01*
X79291144Y-56924568D01*
X79254604Y-56935653D01*
X79210462Y-56940000D01*
X77761538Y-56940000D01*
X77717396Y-56935653D01*
X77680856Y-56924568D01*
X77647179Y-56906567D01*
X77617659Y-56882341D01*
X77593433Y-56852821D01*
X77575432Y-56819144D01*
X77564347Y-56782604D01*
X77560000Y-56738462D01*
X77560000Y-55789538D01*
X77564347Y-55745396D01*
X77575432Y-55708856D01*
X77593433Y-55675179D01*
X77617659Y-55645659D01*
X77647179Y-55621433D01*
X77680856Y-55603432D01*
X77717396Y-55592347D01*
X77761538Y-55588000D01*
X79210462Y-55588000D01*
X79254604Y-55592347D01*
G37*
G36*
X84334604Y-55592347D02*
G01*
X84371144Y-55603432D01*
X84404821Y-55621433D01*
X84434341Y-55645659D01*
X84458567Y-55675179D01*
X84476568Y-55708856D01*
X84487653Y-55745396D01*
X84492000Y-55789538D01*
X84492000Y-56738462D01*
X84487653Y-56782604D01*
X84476568Y-56819144D01*
X84458567Y-56852821D01*
X84434341Y-56882341D01*
X84404821Y-56906567D01*
X84371144Y-56924568D01*
X84334604Y-56935653D01*
X84290462Y-56940000D01*
X82841538Y-56940000D01*
X82797396Y-56935653D01*
X82760856Y-56924568D01*
X82727179Y-56906567D01*
X82697659Y-56882341D01*
X82673433Y-56852821D01*
X82655432Y-56819144D01*
X82644347Y-56782604D01*
X82640000Y-56738462D01*
X82640000Y-55789538D01*
X82644347Y-55745396D01*
X82655432Y-55708856D01*
X82673433Y-55675179D01*
X82697659Y-55645659D01*
X82727179Y-55621433D01*
X82760856Y-55603432D01*
X82797396Y-55592347D01*
X82841538Y-55588000D01*
X84290462Y-55588000D01*
X84334604Y-55592347D01*
G37*
G36*
X56097910Y-51547000D02*
G01*
X56405350Y-51608153D01*
X56733122Y-51743921D01*
X57028109Y-51941025D01*
X57278975Y-52191891D01*
X57476079Y-52486878D01*
X57611847Y-52814650D01*
X57681060Y-53162611D01*
X57681060Y-53517389D01*
X57611847Y-53865350D01*
X57476079Y-54193122D01*
X57278975Y-54488109D01*
X57028109Y-54738975D01*
X56733122Y-54936079D01*
X56405350Y-55071847D01*
X56106905Y-55131211D01*
X56057390Y-55141060D01*
X55702610Y-55141060D01*
X55653095Y-55131211D01*
X55354650Y-55071847D01*
X55026878Y-54936079D01*
X54731891Y-54738975D01*
X54481025Y-54488109D01*
X54283921Y-54193122D01*
X54148153Y-53865350D01*
X54078940Y-53517389D01*
X54078940Y-53162611D01*
X54148153Y-52814650D01*
X54283921Y-52486878D01*
X54481025Y-52191891D01*
X54731891Y-51941025D01*
X55026878Y-51743921D01*
X55354650Y-51608153D01*
X55662090Y-51547000D01*
X55702610Y-51538940D01*
X56057390Y-51538940D01*
X56097910Y-51547000D01*
G37*
G36*
X79254604Y-52792347D02*
G01*
X79291144Y-52803432D01*
X79324821Y-52821433D01*
X79354341Y-52845659D01*
X79378567Y-52875179D01*
X79396568Y-52908856D01*
X79407653Y-52945396D01*
X79412000Y-52989538D01*
X79412000Y-53938462D01*
X79407653Y-53982604D01*
X79396568Y-54019144D01*
X79378567Y-54052821D01*
X79354341Y-54082341D01*
X79324821Y-54106567D01*
X79291144Y-54124568D01*
X79254604Y-54135653D01*
X79210462Y-54140000D01*
X77761538Y-54140000D01*
X77717396Y-54135653D01*
X77680856Y-54124568D01*
X77647179Y-54106567D01*
X77617659Y-54082341D01*
X77593433Y-54052821D01*
X77575432Y-54019144D01*
X77564347Y-53982604D01*
X77560000Y-53938462D01*
X77560000Y-52989538D01*
X77564347Y-52945396D01*
X77575432Y-52908856D01*
X77593433Y-52875179D01*
X77617659Y-52845659D01*
X77647179Y-52821433D01*
X77680856Y-52803432D01*
X77717396Y-52792347D01*
X77761538Y-52788000D01*
X79210462Y-52788000D01*
X79254604Y-52792347D01*
G37*
G36*
X84334604Y-52792347D02*
G01*
X84371144Y-52803432D01*
X84404821Y-52821433D01*
X84434341Y-52845659D01*
X84458567Y-52875179D01*
X84476568Y-52908856D01*
X84487653Y-52945396D01*
X84492000Y-52989538D01*
X84492000Y-53938462D01*
X84487653Y-53982604D01*
X84476568Y-54019144D01*
X84458567Y-54052821D01*
X84434341Y-54082341D01*
X84404821Y-54106567D01*
X84371144Y-54124568D01*
X84334604Y-54135653D01*
X84290462Y-54140000D01*
X82841538Y-54140000D01*
X82797396Y-54135653D01*
X82760856Y-54124568D01*
X82727179Y-54106567D01*
X82697659Y-54082341D01*
X82673433Y-54052821D01*
X82655432Y-54019144D01*
X82644347Y-53982604D01*
X82640000Y-53938462D01*
X82640000Y-52989538D01*
X82644347Y-52945396D01*
X82655432Y-52908856D01*
X82673433Y-52875179D01*
X82697659Y-52845659D01*
X82727179Y-52821433D01*
X82760856Y-52803432D01*
X82797396Y-52792347D01*
X82841538Y-52788000D01*
X84290462Y-52788000D01*
X84334604Y-52792347D01*
G37*
G36*
X72007589Y-51054876D02*
G01*
X72106893Y-51074629D01*
X72247206Y-51132748D01*
X72373484Y-51217125D01*
X72480875Y-51324516D01*
X72565252Y-51450794D01*
X72623371Y-51591107D01*
X72653000Y-51740063D01*
X72653000Y-51891937D01*
X72623371Y-52040893D01*
X72565252Y-52181206D01*
X72480875Y-52307484D01*
X72373484Y-52414875D01*
X72247206Y-52499252D01*
X72106893Y-52557371D01*
X72007589Y-52577124D01*
X71957938Y-52587000D01*
X71806062Y-52587000D01*
X71756411Y-52577124D01*
X71657107Y-52557371D01*
X71516794Y-52499252D01*
X71390516Y-52414875D01*
X71283125Y-52307484D01*
X71198748Y-52181206D01*
X71140629Y-52040893D01*
X71111000Y-51891937D01*
X71111000Y-51740063D01*
X71140629Y-51591107D01*
X71198748Y-51450794D01*
X71283125Y-51324516D01*
X71390516Y-51217125D01*
X71516794Y-51132748D01*
X71657107Y-51074629D01*
X71756411Y-51054876D01*
X71806062Y-51045000D01*
X71957938Y-51045000D01*
X72007589Y-51054876D01*
G37*
G36*
X82393000Y-51797000D02*
G01*
X81691000Y-51797000D01*
X81691000Y-51145000D01*
X82393000Y-51145000D01*
X82393000Y-51797000D01*
G37*
G36*
X77379000Y-51547000D02*
G01*
X76727000Y-51547000D01*
X76727000Y-50845000D01*
X77379000Y-50845000D01*
X77379000Y-51547000D01*
G37*
G36*
X79229000Y-50897000D02*
G01*
X78577000Y-50897000D01*
X78577000Y-50195000D01*
X79229000Y-50195000D01*
X79229000Y-50897000D01*
G37*
G36*
X77379000Y-50247000D02*
G01*
X76727000Y-50247000D01*
X76727000Y-49545000D01*
X77379000Y-49545000D01*
X77379000Y-50247000D01*
G37*
G36*
X56106905Y-46468789D02*
G01*
X56405350Y-46528153D01*
X56733122Y-46663921D01*
X57028109Y-46861025D01*
X57278975Y-47111891D01*
X57476079Y-47406878D01*
X57611847Y-47734650D01*
X57681060Y-48082611D01*
X57681060Y-48437389D01*
X57611847Y-48785350D01*
X57476079Y-49113122D01*
X57278975Y-49408109D01*
X57028109Y-49658975D01*
X56733122Y-49856079D01*
X56405350Y-49991847D01*
X56128074Y-50047000D01*
X56057390Y-50061060D01*
X55702610Y-50061060D01*
X55631926Y-50047000D01*
X55354650Y-49991847D01*
X55026878Y-49856079D01*
X54731891Y-49658975D01*
X54481025Y-49408109D01*
X54283921Y-49113122D01*
X54148153Y-48785350D01*
X54078940Y-48437389D01*
X54078940Y-48082611D01*
X54148153Y-47734650D01*
X54283921Y-47406878D01*
X54481025Y-47111891D01*
X54731891Y-46861025D01*
X55026878Y-46663921D01*
X55354650Y-46528153D01*
X55653095Y-46468789D01*
X55702610Y-46458940D01*
X56057390Y-46458940D01*
X56106905Y-46468789D01*
G37*
G36*
X72007589Y-48514876D02*
G01*
X72106893Y-48534629D01*
X72247206Y-48592748D01*
X72373484Y-48677125D01*
X72480875Y-48784516D01*
X72565252Y-48910794D01*
X72623371Y-49051107D01*
X72653000Y-49200063D01*
X72653000Y-49351937D01*
X72623371Y-49500893D01*
X72565252Y-49641206D01*
X72480875Y-49767484D01*
X72373484Y-49874875D01*
X72247206Y-49959252D01*
X72106893Y-50017371D01*
X72007589Y-50037124D01*
X71957938Y-50047000D01*
X71806062Y-50047000D01*
X71756411Y-50037124D01*
X71657107Y-50017371D01*
X71516794Y-49959252D01*
X71390516Y-49874875D01*
X71283125Y-49767484D01*
X71198748Y-49641206D01*
X71140629Y-49500893D01*
X71111000Y-49351937D01*
X71111000Y-49200063D01*
X71140629Y-49051107D01*
X71198748Y-48910794D01*
X71283125Y-48784516D01*
X71390516Y-48677125D01*
X71516794Y-48592748D01*
X71657107Y-48534629D01*
X71756411Y-48514876D01*
X71806062Y-48505000D01*
X71957938Y-48505000D01*
X72007589Y-48514876D01*
G37*
G36*
X83043000Y-49947000D02*
G01*
X82341000Y-49947000D01*
X82341000Y-49295000D01*
X83043000Y-49295000D01*
X83043000Y-49947000D01*
G37*
G36*
X81743000Y-49947000D02*
G01*
X81041000Y-49947000D01*
X81041000Y-49295000D01*
X81743000Y-49295000D01*
X81743000Y-49947000D01*
G37*
G36*
X72007589Y-45974876D02*
G01*
X72106893Y-45994629D01*
X72247206Y-46052748D01*
X72373484Y-46137125D01*
X72480875Y-46244516D01*
X72565252Y-46370794D01*
X72623371Y-46511107D01*
X72653000Y-46660063D01*
X72653000Y-46811937D01*
X72623371Y-46960893D01*
X72565252Y-47101206D01*
X72480875Y-47227484D01*
X72373484Y-47334875D01*
X72247206Y-47419252D01*
X72106893Y-47477371D01*
X72007589Y-47497124D01*
X71957938Y-47507000D01*
X71806062Y-47507000D01*
X71756411Y-47497124D01*
X71657107Y-47477371D01*
X71516794Y-47419252D01*
X71390516Y-47334875D01*
X71283125Y-47227484D01*
X71198748Y-47101206D01*
X71140629Y-46960893D01*
X71111000Y-46811937D01*
X71111000Y-46660063D01*
X71140629Y-46511107D01*
X71198748Y-46370794D01*
X71283125Y-46244516D01*
X71390516Y-46137125D01*
X71516794Y-46052748D01*
X71657107Y-45994629D01*
X71756411Y-45974876D01*
X71806062Y-45965000D01*
X71957938Y-45965000D01*
X72007589Y-45974876D01*
G37*
G36*
X81674604Y-45560347D02*
G01*
X81711144Y-45571432D01*
X81744821Y-45589433D01*
X81774341Y-45613659D01*
X81798567Y-45643179D01*
X81816568Y-45676856D01*
X81827653Y-45713396D01*
X81832000Y-45757538D01*
X81832000Y-47206462D01*
X81827653Y-47250604D01*
X81816568Y-47287144D01*
X81798567Y-47320821D01*
X81774341Y-47350341D01*
X81744821Y-47374567D01*
X81711144Y-47392568D01*
X81674604Y-47403653D01*
X81630462Y-47408000D01*
X80681538Y-47408000D01*
X80637396Y-47403653D01*
X80600856Y-47392568D01*
X80567179Y-47374567D01*
X80537659Y-47350341D01*
X80513433Y-47320821D01*
X80495432Y-47287144D01*
X80484347Y-47250604D01*
X80480000Y-47206462D01*
X80480000Y-45757538D01*
X80484347Y-45713396D01*
X80495432Y-45676856D01*
X80513433Y-45643179D01*
X80537659Y-45613659D01*
X80567179Y-45589433D01*
X80600856Y-45571432D01*
X80637396Y-45560347D01*
X80681538Y-45556000D01*
X81630462Y-45556000D01*
X81674604Y-45560347D01*
G37*
G36*
X78874604Y-45560347D02*
G01*
X78911144Y-45571432D01*
X78944821Y-45589433D01*
X78974341Y-45613659D01*
X78998567Y-45643179D01*
X79016568Y-45676856D01*
X79027653Y-45713396D01*
X79032000Y-45757538D01*
X79032000Y-47206462D01*
X79027653Y-47250604D01*
X79016568Y-47287144D01*
X78998567Y-47320821D01*
X78974341Y-47350341D01*
X78944821Y-47374567D01*
X78911144Y-47392568D01*
X78874604Y-47403653D01*
X78830462Y-47408000D01*
X77881538Y-47408000D01*
X77837396Y-47403653D01*
X77800856Y-47392568D01*
X77767179Y-47374567D01*
X77737659Y-47350341D01*
X77713433Y-47320821D01*
X77695432Y-47287144D01*
X77684347Y-47250604D01*
X77680000Y-47206462D01*
X77680000Y-45757538D01*
X77684347Y-45713396D01*
X77695432Y-45676856D01*
X77713433Y-45643179D01*
X77737659Y-45613659D01*
X77767179Y-45589433D01*
X77800856Y-45571432D01*
X77837396Y-45560347D01*
X77881538Y-45556000D01*
X78830462Y-45556000D01*
X78874604Y-45560347D01*
G37*
G36*
X56106905Y-41388789D02*
G01*
X56405350Y-41448153D01*
X56733122Y-41583921D01*
X57028109Y-41781025D01*
X57278975Y-42031891D01*
X57476079Y-42326878D01*
X57611847Y-42654650D01*
X57661718Y-42905371D01*
X57681060Y-43002610D01*
X57681060Y-43357390D01*
X57675167Y-43387017D01*
X57611847Y-43705350D01*
X57476079Y-44033122D01*
X57278975Y-44328109D01*
X57028109Y-44578975D01*
X56733122Y-44776079D01*
X56405350Y-44911847D01*
X56106905Y-44971211D01*
X56057390Y-44981060D01*
X55702610Y-44981060D01*
X55653095Y-44971211D01*
X55354650Y-44911847D01*
X55026878Y-44776079D01*
X54731891Y-44578975D01*
X54481025Y-44328109D01*
X54283921Y-44033122D01*
X54148153Y-43705350D01*
X54084833Y-43387017D01*
X54078940Y-43357390D01*
X54078940Y-43002610D01*
X54098282Y-42905371D01*
X54148153Y-42654650D01*
X54283921Y-42326878D01*
X54481025Y-42031891D01*
X54731891Y-41781025D01*
X55026878Y-41583921D01*
X55354650Y-41448153D01*
X55653095Y-41388789D01*
X55702610Y-41378940D01*
X56057390Y-41378940D01*
X56106905Y-41388789D01*
G37*
G36*
X82446273Y-40568615D02*
G01*
X82475671Y-40577533D01*
X82502754Y-40592009D01*
X82526501Y-40611499D01*
X82545991Y-40635246D01*
X82560467Y-40662329D01*
X82569385Y-40691727D01*
X82573000Y-40728434D01*
X82573000Y-43228566D01*
X82569385Y-43265273D01*
X82560467Y-43294671D01*
X82545991Y-43321754D01*
X82526501Y-43345501D01*
X82502754Y-43364991D01*
X82475671Y-43379467D01*
X82446273Y-43388385D01*
X82409566Y-43392000D01*
X79134434Y-43392000D01*
X79097727Y-43388385D01*
X79068329Y-43379467D01*
X79041246Y-43364991D01*
X79017499Y-43345501D01*
X78998009Y-43321754D01*
X78983533Y-43294671D01*
X78974615Y-43265273D01*
X78971000Y-43228566D01*
X78971000Y-40728434D01*
X78974615Y-40691727D01*
X78983533Y-40662329D01*
X78998009Y-40635246D01*
X79017499Y-40611499D01*
X79041246Y-40592009D01*
X79068329Y-40577533D01*
X79097727Y-40568615D01*
X79134434Y-40565000D01*
X82409566Y-40565000D01*
X82446273Y-40568615D01*
G37*
G36*
X75842273Y-40568615D02*
G01*
X75871671Y-40577533D01*
X75898754Y-40592009D01*
X75922501Y-40611499D01*
X75941991Y-40635246D01*
X75956467Y-40662329D01*
X75965385Y-40691727D01*
X75969000Y-40728434D01*
X75969000Y-43228566D01*
X75965385Y-43265273D01*
X75956467Y-43294671D01*
X75941991Y-43321754D01*
X75922501Y-43345501D01*
X75898754Y-43364991D01*
X75871671Y-43379467D01*
X75842273Y-43388385D01*
X75805566Y-43392000D01*
X72530434Y-43392000D01*
X72493727Y-43388385D01*
X72464329Y-43379467D01*
X72437246Y-43364991D01*
X72413499Y-43345501D01*
X72394009Y-43321754D01*
X72379533Y-43294671D01*
X72370615Y-43265273D01*
X72367000Y-43228566D01*
X72367000Y-40728434D01*
X72370615Y-40691727D01*
X72379533Y-40662329D01*
X72394009Y-40635246D01*
X72413499Y-40611499D01*
X72437246Y-40592009D01*
X72464329Y-40577533D01*
X72493727Y-40568615D01*
X72530434Y-40565000D01*
X75805566Y-40565000D01*
X75842273Y-40568615D01*
G37*
G36*
X88009589Y-41402876D02*
G01*
X88108893Y-41422629D01*
X88249206Y-41480748D01*
X88375484Y-41565125D01*
X88482875Y-41672516D01*
X88567252Y-41798794D01*
X88625371Y-41939107D01*
X88655000Y-42088063D01*
X88655000Y-42239937D01*
X88625371Y-42388893D01*
X88567252Y-42529206D01*
X88482875Y-42655484D01*
X88375484Y-42762875D01*
X88249206Y-42847252D01*
X88108893Y-42905371D01*
X88009589Y-42925124D01*
X87959938Y-42935000D01*
X87808062Y-42935000D01*
X87758411Y-42925124D01*
X87659107Y-42905371D01*
X87518794Y-42847252D01*
X87392516Y-42762875D01*
X87285125Y-42655484D01*
X87200748Y-42529206D01*
X87142629Y-42388893D01*
X87113000Y-42239937D01*
X87113000Y-42088063D01*
X87142629Y-41939107D01*
X87200748Y-41798794D01*
X87285125Y-41672516D01*
X87392516Y-41565125D01*
X87518794Y-41480748D01*
X87659107Y-41422629D01*
X87758411Y-41402876D01*
X87808062Y-41393000D01*
X87959938Y-41393000D01*
X88009589Y-41402876D01*
G37*
G36*
X88009589Y-38862876D02*
G01*
X88108893Y-38882629D01*
X88249206Y-38940748D01*
X88375484Y-39025125D01*
X88482875Y-39132516D01*
X88567252Y-39258794D01*
X88625371Y-39399107D01*
X88655000Y-39548063D01*
X88655000Y-39699937D01*
X88625371Y-39848893D01*
X88567252Y-39989206D01*
X88482875Y-40115484D01*
X88375484Y-40222875D01*
X88249206Y-40307252D01*
X88108893Y-40365371D01*
X88009589Y-40385124D01*
X87959938Y-40395000D01*
X87808062Y-40395000D01*
X87758411Y-40385124D01*
X87659107Y-40365371D01*
X87518794Y-40307252D01*
X87392516Y-40222875D01*
X87285125Y-40115484D01*
X87200748Y-39989206D01*
X87142629Y-39848893D01*
X87113000Y-39699937D01*
X87113000Y-39548063D01*
X87142629Y-39399107D01*
X87200748Y-39258794D01*
X87285125Y-39132516D01*
X87392516Y-39025125D01*
X87518794Y-38940748D01*
X87659107Y-38882629D01*
X87758411Y-38862876D01*
X87808062Y-38853000D01*
X87959938Y-38853000D01*
X88009589Y-38862876D01*
G37*
G36*
X56106905Y-36308789D02*
G01*
X56405350Y-36368153D01*
X56733122Y-36503921D01*
X57028109Y-36701025D01*
X57278975Y-36951891D01*
X57476079Y-37246878D01*
X57611847Y-37574650D01*
X57681060Y-37922611D01*
X57681060Y-38277389D01*
X57611847Y-38625350D01*
X57476079Y-38953122D01*
X57278975Y-39248109D01*
X57028109Y-39498975D01*
X56733122Y-39696079D01*
X56405350Y-39831847D01*
X56106905Y-39891211D01*
X56057390Y-39901060D01*
X55702610Y-39901060D01*
X55653095Y-39891211D01*
X55354650Y-39831847D01*
X55026878Y-39696079D01*
X54731891Y-39498975D01*
X54481025Y-39248109D01*
X54283921Y-38953122D01*
X54148153Y-38625350D01*
X54078940Y-38277389D01*
X54078940Y-37922611D01*
X54148153Y-37574650D01*
X54283921Y-37246878D01*
X54481025Y-36951891D01*
X54731891Y-36701025D01*
X55026878Y-36503921D01*
X55354650Y-36368153D01*
X55653095Y-36308789D01*
X55702610Y-36298940D01*
X56057390Y-36298940D01*
X56106905Y-36308789D01*
G37*
G36*
X88009589Y-36322876D02*
G01*
X88108893Y-36342629D01*
X88249206Y-36400748D01*
X88375484Y-36485125D01*
X88482875Y-36592516D01*
X88567252Y-36718794D01*
X88625371Y-36859107D01*
X88655000Y-37008063D01*
X88655000Y-37159937D01*
X88625371Y-37308893D01*
X88567252Y-37449206D01*
X88482875Y-37575484D01*
X88375484Y-37682875D01*
X88249206Y-37767252D01*
X88108893Y-37825371D01*
X88009589Y-37845124D01*
X87959938Y-37855000D01*
X87808062Y-37855000D01*
X87758411Y-37845124D01*
X87659107Y-37825371D01*
X87518794Y-37767252D01*
X87392516Y-37682875D01*
X87285125Y-37575484D01*
X87200748Y-37449206D01*
X87142629Y-37308893D01*
X87113000Y-37159937D01*
X87113000Y-37008063D01*
X87142629Y-36859107D01*
X87200748Y-36718794D01*
X87285125Y-36592516D01*
X87392516Y-36485125D01*
X87518794Y-36400748D01*
X87659107Y-36342629D01*
X87758411Y-36322876D01*
X87808062Y-36313000D01*
X87959938Y-36313000D01*
X88009589Y-36322876D01*
G37*
G36*
X75842273Y-34843615D02*
G01*
X75871671Y-34852533D01*
X75898754Y-34867009D01*
X75922501Y-34886499D01*
X75941991Y-34910246D01*
X75956467Y-34937329D01*
X75965385Y-34966727D01*
X75969000Y-35003434D01*
X75969000Y-37503566D01*
X75965385Y-37540273D01*
X75956467Y-37569671D01*
X75941991Y-37596754D01*
X75922501Y-37620501D01*
X75898754Y-37639991D01*
X75871671Y-37654467D01*
X75842273Y-37663385D01*
X75805566Y-37667000D01*
X72530434Y-37667000D01*
X72493727Y-37663385D01*
X72464329Y-37654467D01*
X72437246Y-37639991D01*
X72413499Y-37620501D01*
X72394009Y-37596754D01*
X72379533Y-37569671D01*
X72370615Y-37540273D01*
X72367000Y-37503566D01*
X72367000Y-35003434D01*
X72370615Y-34966727D01*
X72379533Y-34937329D01*
X72394009Y-34910246D01*
X72413499Y-34886499D01*
X72437246Y-34867009D01*
X72464329Y-34852533D01*
X72493727Y-34843615D01*
X72530434Y-34840000D01*
X75805566Y-34840000D01*
X75842273Y-34843615D01*
G37*
G36*
X82446273Y-34843615D02*
G01*
X82475671Y-34852533D01*
X82502754Y-34867009D01*
X82526501Y-34886499D01*
X82545991Y-34910246D01*
X82560467Y-34937329D01*
X82569385Y-34966727D01*
X82573000Y-35003434D01*
X82573000Y-37503566D01*
X82569385Y-37540273D01*
X82560467Y-37569671D01*
X82545991Y-37596754D01*
X82526501Y-37620501D01*
X82502754Y-37639991D01*
X82475671Y-37654467D01*
X82446273Y-37663385D01*
X82409566Y-37667000D01*
X79134434Y-37667000D01*
X79097727Y-37663385D01*
X79068329Y-37654467D01*
X79041246Y-37639991D01*
X79017499Y-37620501D01*
X78998009Y-37596754D01*
X78983533Y-37569671D01*
X78974615Y-37540273D01*
X78971000Y-37503566D01*
X78971000Y-35003434D01*
X78974615Y-34966727D01*
X78983533Y-34937329D01*
X78998009Y-34910246D01*
X79017499Y-34886499D01*
X79041246Y-34867009D01*
X79068329Y-34852533D01*
X79097727Y-34843615D01*
X79134434Y-34840000D01*
X82409566Y-34840000D01*
X82446273Y-34843615D01*
G37*
G36*
X56514239Y-27545467D02*
G01*
X56828282Y-27607934D01*
X57419926Y-27853001D01*
X57952392Y-28208784D01*
X58405216Y-28661608D01*
X58760999Y-29194074D01*
X59006066Y-29785718D01*
X59131000Y-30413804D01*
X59131000Y-31054196D01*
X59006066Y-31682282D01*
X58760999Y-32273926D01*
X58405216Y-32806392D01*
X57952392Y-33259216D01*
X57419926Y-33614999D01*
X56828282Y-33860066D01*
X56514239Y-33922533D01*
X56200197Y-33985000D01*
X55559803Y-33985000D01*
X55245761Y-33922533D01*
X54931718Y-33860066D01*
X54340074Y-33614999D01*
X53807608Y-33259216D01*
X53354784Y-32806392D01*
X52999001Y-32273926D01*
X52753934Y-31682282D01*
X52629000Y-31054196D01*
X52629000Y-30413804D01*
X52753934Y-29785718D01*
X52999001Y-29194074D01*
X53354784Y-28661608D01*
X53807608Y-28208784D01*
X54340074Y-27853001D01*
X54931718Y-27607934D01*
X55245761Y-27545467D01*
X55559803Y-27483000D01*
X56200197Y-27483000D01*
X56514239Y-27545467D01*
G37*
G36*
X99694239Y-27545467D02*
G01*
X100008282Y-27607934D01*
X100599926Y-27853001D01*
X101132392Y-28208784D01*
X101585216Y-28661608D01*
X101940999Y-29194074D01*
X102186066Y-29785718D01*
X102311000Y-30413804D01*
X102311000Y-31054196D01*
X102186066Y-31682282D01*
X101940999Y-32273926D01*
X101585216Y-32806392D01*
X101132392Y-33259216D01*
X100599926Y-33614999D01*
X100008282Y-33860066D01*
X99694239Y-33922533D01*
X99380197Y-33985000D01*
X98739803Y-33985000D01*
X98425761Y-33922533D01*
X98111718Y-33860066D01*
X97520074Y-33614999D01*
X96987608Y-33259216D01*
X96534784Y-32806392D01*
X96179001Y-32273926D01*
X95933934Y-31682282D01*
X95809000Y-31054196D01*
X95809000Y-30413804D01*
X95933934Y-29785718D01*
X96179001Y-29194074D01*
X96534784Y-28661608D01*
X96987608Y-28208784D01*
X97520074Y-27853001D01*
X98111718Y-27607934D01*
X98425761Y-27545467D01*
X98739803Y-27483000D01*
X99380197Y-27483000D01*
X99694239Y-27545467D01*
G37*
M02*
