G04 #@! TF.GenerationSoftware,KiCad,Pcbnew,(5.1.5)-3*
G04 #@! TF.CreationDate,2022-05-11T11:14:05-04:00*
G04 #@! TF.ProjectId,FuzzFace,46757a7a-4661-4636-952e-6b696361645f,rev?*
G04 #@! TF.SameCoordinates,Original*
G04 #@! TF.FileFunction,Copper,L1,Top*
G04 #@! TF.FilePolarity,Positive*
%FSLAX46Y46*%
G04 Gerber Fmt 4.6, Leading zero omitted, Abs format (unit mm)*
G04 Created by KiCad (PCBNEW (5.1.5)-3) date 2022-05-11 11:14:05*
%MOMM*%
%LPD*%
G04 APERTURE LIST*
%ADD10C,3.500120*%
%ADD11C,0.100000*%
%ADD12C,1.440000*%
%ADD13C,6.400000*%
%ADD14R,0.550000X0.600000*%
%ADD15R,0.600000X0.550000*%
%ADD16C,0.500000*%
%ADD17C,0.254000*%
G04 APERTURE END LIST*
D10*
X55880000Y-73660000D03*
X55880000Y-63500000D03*
X55880000Y-53340000D03*
X55880000Y-43180000D03*
G04 #@! TA.AperFunction,SMDPad,CuDef*
D11*
G36*
X71011504Y-60086204D02*
G01*
X71035773Y-60089804D01*
X71059571Y-60095765D01*
X71082671Y-60104030D01*
X71104849Y-60114520D01*
X71125893Y-60127133D01*
X71145598Y-60141747D01*
X71163777Y-60158223D01*
X71180253Y-60176402D01*
X71194867Y-60196107D01*
X71207480Y-60217151D01*
X71217970Y-60239329D01*
X71226235Y-60262429D01*
X71232196Y-60286227D01*
X71235796Y-60310496D01*
X71237000Y-60335000D01*
X71237000Y-61585000D01*
X71235796Y-61609504D01*
X71232196Y-61633773D01*
X71226235Y-61657571D01*
X71217970Y-61680671D01*
X71207480Y-61702849D01*
X71194867Y-61723893D01*
X71180253Y-61743598D01*
X71163777Y-61761777D01*
X71145598Y-61778253D01*
X71125893Y-61792867D01*
X71104849Y-61805480D01*
X71082671Y-61815970D01*
X71059571Y-61824235D01*
X71035773Y-61830196D01*
X71011504Y-61833796D01*
X70987000Y-61835000D01*
X70237000Y-61835000D01*
X70212496Y-61833796D01*
X70188227Y-61830196D01*
X70164429Y-61824235D01*
X70141329Y-61815970D01*
X70119151Y-61805480D01*
X70098107Y-61792867D01*
X70078402Y-61778253D01*
X70060223Y-61761777D01*
X70043747Y-61743598D01*
X70029133Y-61723893D01*
X70016520Y-61702849D01*
X70006030Y-61680671D01*
X69997765Y-61657571D01*
X69991804Y-61633773D01*
X69988204Y-61609504D01*
X69987000Y-61585000D01*
X69987000Y-60335000D01*
X69988204Y-60310496D01*
X69991804Y-60286227D01*
X69997765Y-60262429D01*
X70006030Y-60239329D01*
X70016520Y-60217151D01*
X70029133Y-60196107D01*
X70043747Y-60176402D01*
X70060223Y-60158223D01*
X70078402Y-60141747D01*
X70098107Y-60127133D01*
X70119151Y-60114520D01*
X70141329Y-60104030D01*
X70164429Y-60095765D01*
X70188227Y-60089804D01*
X70212496Y-60086204D01*
X70237000Y-60085000D01*
X70987000Y-60085000D01*
X71011504Y-60086204D01*
G37*
G04 #@! TD.AperFunction*
G04 #@! TA.AperFunction,SMDPad,CuDef*
G36*
X73811504Y-60086204D02*
G01*
X73835773Y-60089804D01*
X73859571Y-60095765D01*
X73882671Y-60104030D01*
X73904849Y-60114520D01*
X73925893Y-60127133D01*
X73945598Y-60141747D01*
X73963777Y-60158223D01*
X73980253Y-60176402D01*
X73994867Y-60196107D01*
X74007480Y-60217151D01*
X74017970Y-60239329D01*
X74026235Y-60262429D01*
X74032196Y-60286227D01*
X74035796Y-60310496D01*
X74037000Y-60335000D01*
X74037000Y-61585000D01*
X74035796Y-61609504D01*
X74032196Y-61633773D01*
X74026235Y-61657571D01*
X74017970Y-61680671D01*
X74007480Y-61702849D01*
X73994867Y-61723893D01*
X73980253Y-61743598D01*
X73963777Y-61761777D01*
X73945598Y-61778253D01*
X73925893Y-61792867D01*
X73904849Y-61805480D01*
X73882671Y-61815970D01*
X73859571Y-61824235D01*
X73835773Y-61830196D01*
X73811504Y-61833796D01*
X73787000Y-61835000D01*
X73037000Y-61835000D01*
X73012496Y-61833796D01*
X72988227Y-61830196D01*
X72964429Y-61824235D01*
X72941329Y-61815970D01*
X72919151Y-61805480D01*
X72898107Y-61792867D01*
X72878402Y-61778253D01*
X72860223Y-61761777D01*
X72843747Y-61743598D01*
X72829133Y-61723893D01*
X72816520Y-61702849D01*
X72806030Y-61680671D01*
X72797765Y-61657571D01*
X72791804Y-61633773D01*
X72788204Y-61609504D01*
X72787000Y-61585000D01*
X72787000Y-60335000D01*
X72788204Y-60310496D01*
X72791804Y-60286227D01*
X72797765Y-60262429D01*
X72806030Y-60239329D01*
X72816520Y-60217151D01*
X72829133Y-60196107D01*
X72843747Y-60176402D01*
X72860223Y-60158223D01*
X72878402Y-60141747D01*
X72898107Y-60127133D01*
X72919151Y-60114520D01*
X72941329Y-60104030D01*
X72964429Y-60095765D01*
X72988227Y-60089804D01*
X73012496Y-60086204D01*
X73037000Y-60085000D01*
X73787000Y-60085000D01*
X73811504Y-60086204D01*
G37*
G04 #@! TD.AperFunction*
G04 #@! TA.AperFunction,SMDPad,CuDef*
G36*
X79135504Y-52840204D02*
G01*
X79159773Y-52843804D01*
X79183571Y-52849765D01*
X79206671Y-52858030D01*
X79228849Y-52868520D01*
X79249893Y-52881133D01*
X79269598Y-52895747D01*
X79287777Y-52912223D01*
X79304253Y-52930402D01*
X79318867Y-52950107D01*
X79331480Y-52971151D01*
X79341970Y-52993329D01*
X79350235Y-53016429D01*
X79356196Y-53040227D01*
X79359796Y-53064496D01*
X79361000Y-53089000D01*
X79361000Y-53839000D01*
X79359796Y-53863504D01*
X79356196Y-53887773D01*
X79350235Y-53911571D01*
X79341970Y-53934671D01*
X79331480Y-53956849D01*
X79318867Y-53977893D01*
X79304253Y-53997598D01*
X79287777Y-54015777D01*
X79269598Y-54032253D01*
X79249893Y-54046867D01*
X79228849Y-54059480D01*
X79206671Y-54069970D01*
X79183571Y-54078235D01*
X79159773Y-54084196D01*
X79135504Y-54087796D01*
X79111000Y-54089000D01*
X77861000Y-54089000D01*
X77836496Y-54087796D01*
X77812227Y-54084196D01*
X77788429Y-54078235D01*
X77765329Y-54069970D01*
X77743151Y-54059480D01*
X77722107Y-54046867D01*
X77702402Y-54032253D01*
X77684223Y-54015777D01*
X77667747Y-53997598D01*
X77653133Y-53977893D01*
X77640520Y-53956849D01*
X77630030Y-53934671D01*
X77621765Y-53911571D01*
X77615804Y-53887773D01*
X77612204Y-53863504D01*
X77611000Y-53839000D01*
X77611000Y-53089000D01*
X77612204Y-53064496D01*
X77615804Y-53040227D01*
X77621765Y-53016429D01*
X77630030Y-52993329D01*
X77640520Y-52971151D01*
X77653133Y-52950107D01*
X77667747Y-52930402D01*
X77684223Y-52912223D01*
X77702402Y-52895747D01*
X77722107Y-52881133D01*
X77743151Y-52868520D01*
X77765329Y-52858030D01*
X77788429Y-52849765D01*
X77812227Y-52843804D01*
X77836496Y-52840204D01*
X77861000Y-52839000D01*
X79111000Y-52839000D01*
X79135504Y-52840204D01*
G37*
G04 #@! TD.AperFunction*
G04 #@! TA.AperFunction,SMDPad,CuDef*
G36*
X79135504Y-55640204D02*
G01*
X79159773Y-55643804D01*
X79183571Y-55649765D01*
X79206671Y-55658030D01*
X79228849Y-55668520D01*
X79249893Y-55681133D01*
X79269598Y-55695747D01*
X79287777Y-55712223D01*
X79304253Y-55730402D01*
X79318867Y-55750107D01*
X79331480Y-55771151D01*
X79341970Y-55793329D01*
X79350235Y-55816429D01*
X79356196Y-55840227D01*
X79359796Y-55864496D01*
X79361000Y-55889000D01*
X79361000Y-56639000D01*
X79359796Y-56663504D01*
X79356196Y-56687773D01*
X79350235Y-56711571D01*
X79341970Y-56734671D01*
X79331480Y-56756849D01*
X79318867Y-56777893D01*
X79304253Y-56797598D01*
X79287777Y-56815777D01*
X79269598Y-56832253D01*
X79249893Y-56846867D01*
X79228849Y-56859480D01*
X79206671Y-56869970D01*
X79183571Y-56878235D01*
X79159773Y-56884196D01*
X79135504Y-56887796D01*
X79111000Y-56889000D01*
X77861000Y-56889000D01*
X77836496Y-56887796D01*
X77812227Y-56884196D01*
X77788429Y-56878235D01*
X77765329Y-56869970D01*
X77743151Y-56859480D01*
X77722107Y-56846867D01*
X77702402Y-56832253D01*
X77684223Y-56815777D01*
X77667747Y-56797598D01*
X77653133Y-56777893D01*
X77640520Y-56756849D01*
X77630030Y-56734671D01*
X77621765Y-56711571D01*
X77615804Y-56687773D01*
X77612204Y-56663504D01*
X77611000Y-56639000D01*
X77611000Y-55889000D01*
X77612204Y-55864496D01*
X77615804Y-55840227D01*
X77621765Y-55816429D01*
X77630030Y-55793329D01*
X77640520Y-55771151D01*
X77653133Y-55750107D01*
X77667747Y-55730402D01*
X77684223Y-55712223D01*
X77702402Y-55695747D01*
X77722107Y-55681133D01*
X77743151Y-55668520D01*
X77765329Y-55658030D01*
X77788429Y-55649765D01*
X77812227Y-55643804D01*
X77836496Y-55640204D01*
X77861000Y-55639000D01*
X79111000Y-55639000D01*
X79135504Y-55640204D01*
G37*
G04 #@! TD.AperFunction*
D12*
X87884000Y-37084000D03*
X87884000Y-39624000D03*
X87884000Y-42164000D03*
D13*
X99314000Y-81026000D03*
X55880000Y-81026000D03*
X99060000Y-30734000D03*
X55880000Y-30734000D03*
G04 #@! TA.AperFunction,SMDPad,CuDef*
D11*
G36*
X75692505Y-40617204D02*
G01*
X75716773Y-40620804D01*
X75740572Y-40626765D01*
X75763671Y-40635030D01*
X75785850Y-40645520D01*
X75806893Y-40658132D01*
X75826599Y-40672747D01*
X75844777Y-40689223D01*
X75861253Y-40707401D01*
X75875868Y-40727107D01*
X75888480Y-40748150D01*
X75898970Y-40770329D01*
X75907235Y-40793428D01*
X75913196Y-40817227D01*
X75916796Y-40841495D01*
X75918000Y-40865999D01*
X75918000Y-43091001D01*
X75916796Y-43115505D01*
X75913196Y-43139773D01*
X75907235Y-43163572D01*
X75898970Y-43186671D01*
X75888480Y-43208850D01*
X75875868Y-43229893D01*
X75861253Y-43249599D01*
X75844777Y-43267777D01*
X75826599Y-43284253D01*
X75806893Y-43298868D01*
X75785850Y-43311480D01*
X75763671Y-43321970D01*
X75740572Y-43330235D01*
X75716773Y-43336196D01*
X75692505Y-43339796D01*
X75668001Y-43341000D01*
X72667999Y-43341000D01*
X72643495Y-43339796D01*
X72619227Y-43336196D01*
X72595428Y-43330235D01*
X72572329Y-43321970D01*
X72550150Y-43311480D01*
X72529107Y-43298868D01*
X72509401Y-43284253D01*
X72491223Y-43267777D01*
X72474747Y-43249599D01*
X72460132Y-43229893D01*
X72447520Y-43208850D01*
X72437030Y-43186671D01*
X72428765Y-43163572D01*
X72422804Y-43139773D01*
X72419204Y-43115505D01*
X72418000Y-43091001D01*
X72418000Y-40865999D01*
X72419204Y-40841495D01*
X72422804Y-40817227D01*
X72428765Y-40793428D01*
X72437030Y-40770329D01*
X72447520Y-40748150D01*
X72460132Y-40727107D01*
X72474747Y-40707401D01*
X72491223Y-40689223D01*
X72509401Y-40672747D01*
X72529107Y-40658132D01*
X72550150Y-40645520D01*
X72572329Y-40635030D01*
X72595428Y-40626765D01*
X72619227Y-40620804D01*
X72643495Y-40617204D01*
X72667999Y-40616000D01*
X75668001Y-40616000D01*
X75692505Y-40617204D01*
G37*
G04 #@! TD.AperFunction*
G04 #@! TA.AperFunction,SMDPad,CuDef*
G36*
X75692505Y-34892204D02*
G01*
X75716773Y-34895804D01*
X75740572Y-34901765D01*
X75763671Y-34910030D01*
X75785850Y-34920520D01*
X75806893Y-34933132D01*
X75826599Y-34947747D01*
X75844777Y-34964223D01*
X75861253Y-34982401D01*
X75875868Y-35002107D01*
X75888480Y-35023150D01*
X75898970Y-35045329D01*
X75907235Y-35068428D01*
X75913196Y-35092227D01*
X75916796Y-35116495D01*
X75918000Y-35140999D01*
X75918000Y-37366001D01*
X75916796Y-37390505D01*
X75913196Y-37414773D01*
X75907235Y-37438572D01*
X75898970Y-37461671D01*
X75888480Y-37483850D01*
X75875868Y-37504893D01*
X75861253Y-37524599D01*
X75844777Y-37542777D01*
X75826599Y-37559253D01*
X75806893Y-37573868D01*
X75785850Y-37586480D01*
X75763671Y-37596970D01*
X75740572Y-37605235D01*
X75716773Y-37611196D01*
X75692505Y-37614796D01*
X75668001Y-37616000D01*
X72667999Y-37616000D01*
X72643495Y-37614796D01*
X72619227Y-37611196D01*
X72595428Y-37605235D01*
X72572329Y-37596970D01*
X72550150Y-37586480D01*
X72529107Y-37573868D01*
X72509401Y-37559253D01*
X72491223Y-37542777D01*
X72474747Y-37524599D01*
X72460132Y-37504893D01*
X72447520Y-37483850D01*
X72437030Y-37461671D01*
X72428765Y-37438572D01*
X72422804Y-37414773D01*
X72419204Y-37390505D01*
X72418000Y-37366001D01*
X72418000Y-35140999D01*
X72419204Y-35116495D01*
X72422804Y-35092227D01*
X72428765Y-35068428D01*
X72437030Y-35045329D01*
X72447520Y-35023150D01*
X72460132Y-35002107D01*
X72474747Y-34982401D01*
X72491223Y-34964223D01*
X72509401Y-34947747D01*
X72529107Y-34933132D01*
X72550150Y-34920520D01*
X72572329Y-34910030D01*
X72595428Y-34901765D01*
X72619227Y-34895804D01*
X72643495Y-34892204D01*
X72667999Y-34891000D01*
X75668001Y-34891000D01*
X75692505Y-34892204D01*
G37*
G04 #@! TD.AperFunction*
G04 #@! TA.AperFunction,SMDPad,CuDef*
G36*
X71005504Y-57546204D02*
G01*
X71029773Y-57549804D01*
X71053571Y-57555765D01*
X71076671Y-57564030D01*
X71098849Y-57574520D01*
X71119893Y-57587133D01*
X71139598Y-57601747D01*
X71157777Y-57618223D01*
X71174253Y-57636402D01*
X71188867Y-57656107D01*
X71201480Y-57677151D01*
X71211970Y-57699329D01*
X71220235Y-57722429D01*
X71226196Y-57746227D01*
X71229796Y-57770496D01*
X71231000Y-57795000D01*
X71231000Y-59045000D01*
X71229796Y-59069504D01*
X71226196Y-59093773D01*
X71220235Y-59117571D01*
X71211970Y-59140671D01*
X71201480Y-59162849D01*
X71188867Y-59183893D01*
X71174253Y-59203598D01*
X71157777Y-59221777D01*
X71139598Y-59238253D01*
X71119893Y-59252867D01*
X71098849Y-59265480D01*
X71076671Y-59275970D01*
X71053571Y-59284235D01*
X71029773Y-59290196D01*
X71005504Y-59293796D01*
X70981000Y-59295000D01*
X70231000Y-59295000D01*
X70206496Y-59293796D01*
X70182227Y-59290196D01*
X70158429Y-59284235D01*
X70135329Y-59275970D01*
X70113151Y-59265480D01*
X70092107Y-59252867D01*
X70072402Y-59238253D01*
X70054223Y-59221777D01*
X70037747Y-59203598D01*
X70023133Y-59183893D01*
X70010520Y-59162849D01*
X70000030Y-59140671D01*
X69991765Y-59117571D01*
X69985804Y-59093773D01*
X69982204Y-59069504D01*
X69981000Y-59045000D01*
X69981000Y-57795000D01*
X69982204Y-57770496D01*
X69985804Y-57746227D01*
X69991765Y-57722429D01*
X70000030Y-57699329D01*
X70010520Y-57677151D01*
X70023133Y-57656107D01*
X70037747Y-57636402D01*
X70054223Y-57618223D01*
X70072402Y-57601747D01*
X70092107Y-57587133D01*
X70113151Y-57574520D01*
X70135329Y-57564030D01*
X70158429Y-57555765D01*
X70182227Y-57549804D01*
X70206496Y-57546204D01*
X70231000Y-57545000D01*
X70981000Y-57545000D01*
X71005504Y-57546204D01*
G37*
G04 #@! TD.AperFunction*
G04 #@! TA.AperFunction,SMDPad,CuDef*
G36*
X73805504Y-57546204D02*
G01*
X73829773Y-57549804D01*
X73853571Y-57555765D01*
X73876671Y-57564030D01*
X73898849Y-57574520D01*
X73919893Y-57587133D01*
X73939598Y-57601747D01*
X73957777Y-57618223D01*
X73974253Y-57636402D01*
X73988867Y-57656107D01*
X74001480Y-57677151D01*
X74011970Y-57699329D01*
X74020235Y-57722429D01*
X74026196Y-57746227D01*
X74029796Y-57770496D01*
X74031000Y-57795000D01*
X74031000Y-59045000D01*
X74029796Y-59069504D01*
X74026196Y-59093773D01*
X74020235Y-59117571D01*
X74011970Y-59140671D01*
X74001480Y-59162849D01*
X73988867Y-59183893D01*
X73974253Y-59203598D01*
X73957777Y-59221777D01*
X73939598Y-59238253D01*
X73919893Y-59252867D01*
X73898849Y-59265480D01*
X73876671Y-59275970D01*
X73853571Y-59284235D01*
X73829773Y-59290196D01*
X73805504Y-59293796D01*
X73781000Y-59295000D01*
X73031000Y-59295000D01*
X73006496Y-59293796D01*
X72982227Y-59290196D01*
X72958429Y-59284235D01*
X72935329Y-59275970D01*
X72913151Y-59265480D01*
X72892107Y-59252867D01*
X72872402Y-59238253D01*
X72854223Y-59221777D01*
X72837747Y-59203598D01*
X72823133Y-59183893D01*
X72810520Y-59162849D01*
X72800030Y-59140671D01*
X72791765Y-59117571D01*
X72785804Y-59093773D01*
X72782204Y-59069504D01*
X72781000Y-59045000D01*
X72781000Y-57795000D01*
X72782204Y-57770496D01*
X72785804Y-57746227D01*
X72791765Y-57722429D01*
X72800030Y-57699329D01*
X72810520Y-57677151D01*
X72823133Y-57656107D01*
X72837747Y-57636402D01*
X72854223Y-57618223D01*
X72872402Y-57601747D01*
X72892107Y-57587133D01*
X72913151Y-57574520D01*
X72935329Y-57564030D01*
X72958429Y-57555765D01*
X72982227Y-57549804D01*
X73006496Y-57546204D01*
X73031000Y-57545000D01*
X73781000Y-57545000D01*
X73805504Y-57546204D01*
G37*
G04 #@! TD.AperFunction*
G04 #@! TA.AperFunction,SMDPad,CuDef*
G36*
X82296505Y-34892204D02*
G01*
X82320773Y-34895804D01*
X82344572Y-34901765D01*
X82367671Y-34910030D01*
X82389850Y-34920520D01*
X82410893Y-34933132D01*
X82430599Y-34947747D01*
X82448777Y-34964223D01*
X82465253Y-34982401D01*
X82479868Y-35002107D01*
X82492480Y-35023150D01*
X82502970Y-35045329D01*
X82511235Y-35068428D01*
X82517196Y-35092227D01*
X82520796Y-35116495D01*
X82522000Y-35140999D01*
X82522000Y-37366001D01*
X82520796Y-37390505D01*
X82517196Y-37414773D01*
X82511235Y-37438572D01*
X82502970Y-37461671D01*
X82492480Y-37483850D01*
X82479868Y-37504893D01*
X82465253Y-37524599D01*
X82448777Y-37542777D01*
X82430599Y-37559253D01*
X82410893Y-37573868D01*
X82389850Y-37586480D01*
X82367671Y-37596970D01*
X82344572Y-37605235D01*
X82320773Y-37611196D01*
X82296505Y-37614796D01*
X82272001Y-37616000D01*
X79271999Y-37616000D01*
X79247495Y-37614796D01*
X79223227Y-37611196D01*
X79199428Y-37605235D01*
X79176329Y-37596970D01*
X79154150Y-37586480D01*
X79133107Y-37573868D01*
X79113401Y-37559253D01*
X79095223Y-37542777D01*
X79078747Y-37524599D01*
X79064132Y-37504893D01*
X79051520Y-37483850D01*
X79041030Y-37461671D01*
X79032765Y-37438572D01*
X79026804Y-37414773D01*
X79023204Y-37390505D01*
X79022000Y-37366001D01*
X79022000Y-35140999D01*
X79023204Y-35116495D01*
X79026804Y-35092227D01*
X79032765Y-35068428D01*
X79041030Y-35045329D01*
X79051520Y-35023150D01*
X79064132Y-35002107D01*
X79078747Y-34982401D01*
X79095223Y-34964223D01*
X79113401Y-34947747D01*
X79133107Y-34933132D01*
X79154150Y-34920520D01*
X79176329Y-34910030D01*
X79199428Y-34901765D01*
X79223227Y-34895804D01*
X79247495Y-34892204D01*
X79271999Y-34891000D01*
X82272001Y-34891000D01*
X82296505Y-34892204D01*
G37*
G04 #@! TD.AperFunction*
G04 #@! TA.AperFunction,SMDPad,CuDef*
G36*
X82296505Y-40617204D02*
G01*
X82320773Y-40620804D01*
X82344572Y-40626765D01*
X82367671Y-40635030D01*
X82389850Y-40645520D01*
X82410893Y-40658132D01*
X82430599Y-40672747D01*
X82448777Y-40689223D01*
X82465253Y-40707401D01*
X82479868Y-40727107D01*
X82492480Y-40748150D01*
X82502970Y-40770329D01*
X82511235Y-40793428D01*
X82517196Y-40817227D01*
X82520796Y-40841495D01*
X82522000Y-40865999D01*
X82522000Y-43091001D01*
X82520796Y-43115505D01*
X82517196Y-43139773D01*
X82511235Y-43163572D01*
X82502970Y-43186671D01*
X82492480Y-43208850D01*
X82479868Y-43229893D01*
X82465253Y-43249599D01*
X82448777Y-43267777D01*
X82430599Y-43284253D01*
X82410893Y-43298868D01*
X82389850Y-43311480D01*
X82367671Y-43321970D01*
X82344572Y-43330235D01*
X82320773Y-43336196D01*
X82296505Y-43339796D01*
X82272001Y-43341000D01*
X79271999Y-43341000D01*
X79247495Y-43339796D01*
X79223227Y-43336196D01*
X79199428Y-43330235D01*
X79176329Y-43321970D01*
X79154150Y-43311480D01*
X79133107Y-43298868D01*
X79113401Y-43284253D01*
X79095223Y-43267777D01*
X79078747Y-43249599D01*
X79064132Y-43229893D01*
X79051520Y-43208850D01*
X79041030Y-43186671D01*
X79032765Y-43163572D01*
X79026804Y-43139773D01*
X79023204Y-43115505D01*
X79022000Y-43091001D01*
X79022000Y-40865999D01*
X79023204Y-40841495D01*
X79026804Y-40817227D01*
X79032765Y-40793428D01*
X79041030Y-40770329D01*
X79051520Y-40748150D01*
X79064132Y-40727107D01*
X79078747Y-40707401D01*
X79095223Y-40689223D01*
X79113401Y-40672747D01*
X79133107Y-40658132D01*
X79154150Y-40645520D01*
X79176329Y-40635030D01*
X79199428Y-40626765D01*
X79223227Y-40620804D01*
X79247495Y-40617204D01*
X79271999Y-40616000D01*
X82272001Y-40616000D01*
X82296505Y-40617204D01*
G37*
G04 #@! TD.AperFunction*
D10*
X55880000Y-38100000D03*
X55880000Y-58420000D03*
X55880000Y-68580000D03*
X55880000Y-48260000D03*
D14*
X77053000Y-49896000D03*
X77053000Y-51196000D03*
X78903000Y-50546000D03*
D15*
X82042000Y-51471000D03*
X81392000Y-49621000D03*
X82692000Y-49621000D03*
G04 #@! TA.AperFunction,SMDPad,CuDef*
D11*
G36*
X84215504Y-52840204D02*
G01*
X84239773Y-52843804D01*
X84263571Y-52849765D01*
X84286671Y-52858030D01*
X84308849Y-52868520D01*
X84329893Y-52881133D01*
X84349598Y-52895747D01*
X84367777Y-52912223D01*
X84384253Y-52930402D01*
X84398867Y-52950107D01*
X84411480Y-52971151D01*
X84421970Y-52993329D01*
X84430235Y-53016429D01*
X84436196Y-53040227D01*
X84439796Y-53064496D01*
X84441000Y-53089000D01*
X84441000Y-53839000D01*
X84439796Y-53863504D01*
X84436196Y-53887773D01*
X84430235Y-53911571D01*
X84421970Y-53934671D01*
X84411480Y-53956849D01*
X84398867Y-53977893D01*
X84384253Y-53997598D01*
X84367777Y-54015777D01*
X84349598Y-54032253D01*
X84329893Y-54046867D01*
X84308849Y-54059480D01*
X84286671Y-54069970D01*
X84263571Y-54078235D01*
X84239773Y-54084196D01*
X84215504Y-54087796D01*
X84191000Y-54089000D01*
X82941000Y-54089000D01*
X82916496Y-54087796D01*
X82892227Y-54084196D01*
X82868429Y-54078235D01*
X82845329Y-54069970D01*
X82823151Y-54059480D01*
X82802107Y-54046867D01*
X82782402Y-54032253D01*
X82764223Y-54015777D01*
X82747747Y-53997598D01*
X82733133Y-53977893D01*
X82720520Y-53956849D01*
X82710030Y-53934671D01*
X82701765Y-53911571D01*
X82695804Y-53887773D01*
X82692204Y-53863504D01*
X82691000Y-53839000D01*
X82691000Y-53089000D01*
X82692204Y-53064496D01*
X82695804Y-53040227D01*
X82701765Y-53016429D01*
X82710030Y-52993329D01*
X82720520Y-52971151D01*
X82733133Y-52950107D01*
X82747747Y-52930402D01*
X82764223Y-52912223D01*
X82782402Y-52895747D01*
X82802107Y-52881133D01*
X82823151Y-52868520D01*
X82845329Y-52858030D01*
X82868429Y-52849765D01*
X82892227Y-52843804D01*
X82916496Y-52840204D01*
X82941000Y-52839000D01*
X84191000Y-52839000D01*
X84215504Y-52840204D01*
G37*
G04 #@! TD.AperFunction*
G04 #@! TA.AperFunction,SMDPad,CuDef*
G36*
X84215504Y-55640204D02*
G01*
X84239773Y-55643804D01*
X84263571Y-55649765D01*
X84286671Y-55658030D01*
X84308849Y-55668520D01*
X84329893Y-55681133D01*
X84349598Y-55695747D01*
X84367777Y-55712223D01*
X84384253Y-55730402D01*
X84398867Y-55750107D01*
X84411480Y-55771151D01*
X84421970Y-55793329D01*
X84430235Y-55816429D01*
X84436196Y-55840227D01*
X84439796Y-55864496D01*
X84441000Y-55889000D01*
X84441000Y-56639000D01*
X84439796Y-56663504D01*
X84436196Y-56687773D01*
X84430235Y-56711571D01*
X84421970Y-56734671D01*
X84411480Y-56756849D01*
X84398867Y-56777893D01*
X84384253Y-56797598D01*
X84367777Y-56815777D01*
X84349598Y-56832253D01*
X84329893Y-56846867D01*
X84308849Y-56859480D01*
X84286671Y-56869970D01*
X84263571Y-56878235D01*
X84239773Y-56884196D01*
X84215504Y-56887796D01*
X84191000Y-56889000D01*
X82941000Y-56889000D01*
X82916496Y-56887796D01*
X82892227Y-56884196D01*
X82868429Y-56878235D01*
X82845329Y-56869970D01*
X82823151Y-56859480D01*
X82802107Y-56846867D01*
X82782402Y-56832253D01*
X82764223Y-56815777D01*
X82747747Y-56797598D01*
X82733133Y-56777893D01*
X82720520Y-56756849D01*
X82710030Y-56734671D01*
X82701765Y-56711571D01*
X82695804Y-56687773D01*
X82692204Y-56663504D01*
X82691000Y-56639000D01*
X82691000Y-55889000D01*
X82692204Y-55864496D01*
X82695804Y-55840227D01*
X82701765Y-55816429D01*
X82710030Y-55793329D01*
X82720520Y-55771151D01*
X82733133Y-55750107D01*
X82747747Y-55730402D01*
X82764223Y-55712223D01*
X82782402Y-55695747D01*
X82802107Y-55681133D01*
X82823151Y-55668520D01*
X82845329Y-55658030D01*
X82868429Y-55649765D01*
X82892227Y-55643804D01*
X82916496Y-55640204D01*
X82941000Y-55639000D01*
X84191000Y-55639000D01*
X84215504Y-55640204D01*
G37*
G04 #@! TD.AperFunction*
G04 #@! TA.AperFunction,SMDPad,CuDef*
G36*
X79135504Y-57666204D02*
G01*
X79159773Y-57669804D01*
X79183571Y-57675765D01*
X79206671Y-57684030D01*
X79228849Y-57694520D01*
X79249893Y-57707133D01*
X79269598Y-57721747D01*
X79287777Y-57738223D01*
X79304253Y-57756402D01*
X79318867Y-57776107D01*
X79331480Y-57797151D01*
X79341970Y-57819329D01*
X79350235Y-57842429D01*
X79356196Y-57866227D01*
X79359796Y-57890496D01*
X79361000Y-57915000D01*
X79361000Y-58665000D01*
X79359796Y-58689504D01*
X79356196Y-58713773D01*
X79350235Y-58737571D01*
X79341970Y-58760671D01*
X79331480Y-58782849D01*
X79318867Y-58803893D01*
X79304253Y-58823598D01*
X79287777Y-58841777D01*
X79269598Y-58858253D01*
X79249893Y-58872867D01*
X79228849Y-58885480D01*
X79206671Y-58895970D01*
X79183571Y-58904235D01*
X79159773Y-58910196D01*
X79135504Y-58913796D01*
X79111000Y-58915000D01*
X77861000Y-58915000D01*
X77836496Y-58913796D01*
X77812227Y-58910196D01*
X77788429Y-58904235D01*
X77765329Y-58895970D01*
X77743151Y-58885480D01*
X77722107Y-58872867D01*
X77702402Y-58858253D01*
X77684223Y-58841777D01*
X77667747Y-58823598D01*
X77653133Y-58803893D01*
X77640520Y-58782849D01*
X77630030Y-58760671D01*
X77621765Y-58737571D01*
X77615804Y-58713773D01*
X77612204Y-58689504D01*
X77611000Y-58665000D01*
X77611000Y-57915000D01*
X77612204Y-57890496D01*
X77615804Y-57866227D01*
X77621765Y-57842429D01*
X77630030Y-57819329D01*
X77640520Y-57797151D01*
X77653133Y-57776107D01*
X77667747Y-57756402D01*
X77684223Y-57738223D01*
X77702402Y-57721747D01*
X77722107Y-57707133D01*
X77743151Y-57694520D01*
X77765329Y-57684030D01*
X77788429Y-57675765D01*
X77812227Y-57669804D01*
X77836496Y-57666204D01*
X77861000Y-57665000D01*
X79111000Y-57665000D01*
X79135504Y-57666204D01*
G37*
G04 #@! TD.AperFunction*
G04 #@! TA.AperFunction,SMDPad,CuDef*
G36*
X79135504Y-60466204D02*
G01*
X79159773Y-60469804D01*
X79183571Y-60475765D01*
X79206671Y-60484030D01*
X79228849Y-60494520D01*
X79249893Y-60507133D01*
X79269598Y-60521747D01*
X79287777Y-60538223D01*
X79304253Y-60556402D01*
X79318867Y-60576107D01*
X79331480Y-60597151D01*
X79341970Y-60619329D01*
X79350235Y-60642429D01*
X79356196Y-60666227D01*
X79359796Y-60690496D01*
X79361000Y-60715000D01*
X79361000Y-61465000D01*
X79359796Y-61489504D01*
X79356196Y-61513773D01*
X79350235Y-61537571D01*
X79341970Y-61560671D01*
X79331480Y-61582849D01*
X79318867Y-61603893D01*
X79304253Y-61623598D01*
X79287777Y-61641777D01*
X79269598Y-61658253D01*
X79249893Y-61672867D01*
X79228849Y-61685480D01*
X79206671Y-61695970D01*
X79183571Y-61704235D01*
X79159773Y-61710196D01*
X79135504Y-61713796D01*
X79111000Y-61715000D01*
X77861000Y-61715000D01*
X77836496Y-61713796D01*
X77812227Y-61710196D01*
X77788429Y-61704235D01*
X77765329Y-61695970D01*
X77743151Y-61685480D01*
X77722107Y-61672867D01*
X77702402Y-61658253D01*
X77684223Y-61641777D01*
X77667747Y-61623598D01*
X77653133Y-61603893D01*
X77640520Y-61582849D01*
X77630030Y-61560671D01*
X77621765Y-61537571D01*
X77615804Y-61513773D01*
X77612204Y-61489504D01*
X77611000Y-61465000D01*
X77611000Y-60715000D01*
X77612204Y-60690496D01*
X77615804Y-60666227D01*
X77621765Y-60642429D01*
X77630030Y-60619329D01*
X77640520Y-60597151D01*
X77653133Y-60576107D01*
X77667747Y-60556402D01*
X77684223Y-60538223D01*
X77702402Y-60521747D01*
X77722107Y-60507133D01*
X77743151Y-60494520D01*
X77765329Y-60484030D01*
X77788429Y-60475765D01*
X77812227Y-60469804D01*
X77836496Y-60466204D01*
X77861000Y-60465000D01*
X79111000Y-60465000D01*
X79135504Y-60466204D01*
G37*
G04 #@! TD.AperFunction*
G04 #@! TA.AperFunction,SMDPad,CuDef*
G36*
X81555504Y-45608204D02*
G01*
X81579773Y-45611804D01*
X81603571Y-45617765D01*
X81626671Y-45626030D01*
X81648849Y-45636520D01*
X81669893Y-45649133D01*
X81689598Y-45663747D01*
X81707777Y-45680223D01*
X81724253Y-45698402D01*
X81738867Y-45718107D01*
X81751480Y-45739151D01*
X81761970Y-45761329D01*
X81770235Y-45784429D01*
X81776196Y-45808227D01*
X81779796Y-45832496D01*
X81781000Y-45857000D01*
X81781000Y-47107000D01*
X81779796Y-47131504D01*
X81776196Y-47155773D01*
X81770235Y-47179571D01*
X81761970Y-47202671D01*
X81751480Y-47224849D01*
X81738867Y-47245893D01*
X81724253Y-47265598D01*
X81707777Y-47283777D01*
X81689598Y-47300253D01*
X81669893Y-47314867D01*
X81648849Y-47327480D01*
X81626671Y-47337970D01*
X81603571Y-47346235D01*
X81579773Y-47352196D01*
X81555504Y-47355796D01*
X81531000Y-47357000D01*
X80781000Y-47357000D01*
X80756496Y-47355796D01*
X80732227Y-47352196D01*
X80708429Y-47346235D01*
X80685329Y-47337970D01*
X80663151Y-47327480D01*
X80642107Y-47314867D01*
X80622402Y-47300253D01*
X80604223Y-47283777D01*
X80587747Y-47265598D01*
X80573133Y-47245893D01*
X80560520Y-47224849D01*
X80550030Y-47202671D01*
X80541765Y-47179571D01*
X80535804Y-47155773D01*
X80532204Y-47131504D01*
X80531000Y-47107000D01*
X80531000Y-45857000D01*
X80532204Y-45832496D01*
X80535804Y-45808227D01*
X80541765Y-45784429D01*
X80550030Y-45761329D01*
X80560520Y-45739151D01*
X80573133Y-45718107D01*
X80587747Y-45698402D01*
X80604223Y-45680223D01*
X80622402Y-45663747D01*
X80642107Y-45649133D01*
X80663151Y-45636520D01*
X80685329Y-45626030D01*
X80708429Y-45617765D01*
X80732227Y-45611804D01*
X80756496Y-45608204D01*
X80781000Y-45607000D01*
X81531000Y-45607000D01*
X81555504Y-45608204D01*
G37*
G04 #@! TD.AperFunction*
G04 #@! TA.AperFunction,SMDPad,CuDef*
G36*
X78755504Y-45608204D02*
G01*
X78779773Y-45611804D01*
X78803571Y-45617765D01*
X78826671Y-45626030D01*
X78848849Y-45636520D01*
X78869893Y-45649133D01*
X78889598Y-45663747D01*
X78907777Y-45680223D01*
X78924253Y-45698402D01*
X78938867Y-45718107D01*
X78951480Y-45739151D01*
X78961970Y-45761329D01*
X78970235Y-45784429D01*
X78976196Y-45808227D01*
X78979796Y-45832496D01*
X78981000Y-45857000D01*
X78981000Y-47107000D01*
X78979796Y-47131504D01*
X78976196Y-47155773D01*
X78970235Y-47179571D01*
X78961970Y-47202671D01*
X78951480Y-47224849D01*
X78938867Y-47245893D01*
X78924253Y-47265598D01*
X78907777Y-47283777D01*
X78889598Y-47300253D01*
X78869893Y-47314867D01*
X78848849Y-47327480D01*
X78826671Y-47337970D01*
X78803571Y-47346235D01*
X78779773Y-47352196D01*
X78755504Y-47355796D01*
X78731000Y-47357000D01*
X77981000Y-47357000D01*
X77956496Y-47355796D01*
X77932227Y-47352196D01*
X77908429Y-47346235D01*
X77885329Y-47337970D01*
X77863151Y-47327480D01*
X77842107Y-47314867D01*
X77822402Y-47300253D01*
X77804223Y-47283777D01*
X77787747Y-47265598D01*
X77773133Y-47245893D01*
X77760520Y-47224849D01*
X77750030Y-47202671D01*
X77741765Y-47179571D01*
X77735804Y-47155773D01*
X77732204Y-47131504D01*
X77731000Y-47107000D01*
X77731000Y-45857000D01*
X77732204Y-45832496D01*
X77735804Y-45808227D01*
X77741765Y-45784429D01*
X77750030Y-45761329D01*
X77760520Y-45739151D01*
X77773133Y-45718107D01*
X77787747Y-45698402D01*
X77804223Y-45680223D01*
X77822402Y-45663747D01*
X77842107Y-45649133D01*
X77863151Y-45636520D01*
X77885329Y-45626030D01*
X77908429Y-45617765D01*
X77932227Y-45611804D01*
X77956496Y-45608204D01*
X77981000Y-45607000D01*
X78731000Y-45607000D01*
X78755504Y-45608204D01*
G37*
G04 #@! TD.AperFunction*
D12*
X71882000Y-51816000D03*
X71882000Y-49276000D03*
X71882000Y-46736000D03*
D16*
X74168000Y-42919000D02*
X74168000Y-41978500D01*
X77053000Y-49896000D02*
X77828000Y-49896000D01*
X78356000Y-49368000D02*
X78356000Y-46482000D01*
X77828000Y-49896000D02*
X78356000Y-49368000D01*
X78356000Y-46482000D02*
X78356000Y-44574000D01*
X78356000Y-44574000D02*
X77978000Y-44196000D01*
X75023000Y-44196000D02*
X74168000Y-43341000D01*
X74168000Y-43341000D02*
X74168000Y-41978500D01*
X77978000Y-44196000D02*
X75023000Y-44196000D01*
X58420000Y-35560000D02*
X55880000Y-38100000D01*
X71882000Y-35560000D02*
X58420000Y-35560000D01*
X71882000Y-35717500D02*
X71882000Y-35560000D01*
X72418000Y-36253500D02*
X71882000Y-35717500D01*
X74168000Y-36253500D02*
X72418000Y-36253500D01*
X87884000Y-39624000D02*
X86106000Y-39624000D01*
X83751500Y-41978500D02*
X80772000Y-41978500D01*
X86106000Y-39624000D02*
X83751500Y-41978500D01*
X75903999Y-50821999D02*
X76278000Y-51196000D01*
X75903999Y-47455999D02*
X75903999Y-50821999D01*
X76278000Y-51196000D02*
X77053000Y-51196000D01*
X72601999Y-47455999D02*
X75903999Y-47455999D01*
X71882000Y-46736000D02*
X72601999Y-47455999D01*
X87053500Y-36253500D02*
X87884000Y-37084000D01*
X80772000Y-36253500D02*
X87053500Y-36253500D01*
X87884000Y-37084000D02*
X97536000Y-37084000D01*
X99060000Y-35560000D02*
X99060000Y-30734000D01*
X97536000Y-37084000D02*
X99060000Y-35560000D01*
X71882000Y-51816000D02*
X71882000Y-55626000D01*
X70606000Y-58420000D02*
X70606000Y-55886000D01*
X70606000Y-55886000D02*
X70612000Y-55880000D01*
X70612000Y-55880000D02*
X71882000Y-55880000D01*
X83566000Y-50495000D02*
X83566000Y-53464000D01*
X82692000Y-49621000D02*
X83566000Y-50495000D01*
X83515000Y-50546000D02*
X78903000Y-50546000D01*
X83566000Y-50495000D02*
X83515000Y-50546000D01*
X80479000Y-51471000D02*
X78486000Y-53464000D01*
X82042000Y-51471000D02*
X80479000Y-51471000D01*
X81392000Y-49621000D02*
X81432000Y-49621000D01*
X81392000Y-46718000D02*
X81156000Y-46482000D01*
X81392000Y-49621000D02*
X81392000Y-46718000D01*
X84328000Y-42926000D02*
X86360000Y-40894000D01*
X81156000Y-44320000D02*
X81286000Y-44450000D01*
X86360000Y-40894000D02*
X87884000Y-40894000D01*
X81156000Y-46482000D02*
X81156000Y-44320000D01*
X81286000Y-44450000D02*
X83058000Y-44450000D01*
X83058000Y-42926000D02*
X84328000Y-42926000D01*
X87884000Y-40894000D02*
X87884000Y-42164000D01*
X83058000Y-44450000D02*
X83058000Y-42926000D01*
X78356000Y-60960000D02*
X78486000Y-61090000D01*
X73412000Y-60960000D02*
X78356000Y-60960000D01*
X58420000Y-60960000D02*
X55880000Y-58420000D01*
X70612000Y-60960000D02*
X58420000Y-60960000D01*
X56896000Y-49276000D02*
X55880000Y-48260000D01*
X71882000Y-49276000D02*
X56896000Y-49276000D01*
X78356000Y-58420000D02*
X78486000Y-58290000D01*
X73406000Y-58420000D02*
X78356000Y-58420000D01*
X78486000Y-56264000D02*
X78486000Y-58290000D01*
D17*
G36*
X100768083Y-25623173D02*
G01*
X101511891Y-25826656D01*
X102207905Y-26158638D01*
X102834130Y-26608626D01*
X103370777Y-27162403D01*
X103800871Y-27802451D01*
X104110829Y-28508553D01*
X104292065Y-29263457D01*
X104340072Y-29917193D01*
X104495806Y-81978235D01*
X104395531Y-82784084D01*
X104166303Y-83520364D01*
X103810316Y-84204411D01*
X103338818Y-84814609D01*
X102766713Y-85331670D01*
X102112092Y-85739246D01*
X101395638Y-86024457D01*
X100629234Y-86180480D01*
X100137539Y-86208000D01*
X55029392Y-86208000D01*
X54231804Y-86136817D01*
X53487887Y-85933304D01*
X52791770Y-85601274D01*
X52165452Y-85151219D01*
X51628730Y-84597365D01*
X51198567Y-83957215D01*
X50888564Y-83251011D01*
X50707921Y-82498578D01*
X50660000Y-81765805D01*
X50660000Y-80648285D01*
X52045000Y-80648285D01*
X52045000Y-81403715D01*
X52192377Y-82144628D01*
X52481467Y-82842554D01*
X52901161Y-83470670D01*
X53435330Y-84004839D01*
X54063446Y-84424533D01*
X54761372Y-84713623D01*
X55502285Y-84861000D01*
X56257715Y-84861000D01*
X56998628Y-84713623D01*
X57696554Y-84424533D01*
X58324670Y-84004839D01*
X58858839Y-83470670D01*
X59278533Y-82842554D01*
X59567623Y-82144628D01*
X59715000Y-81403715D01*
X59715000Y-80648285D01*
X95479000Y-80648285D01*
X95479000Y-81403715D01*
X95626377Y-82144628D01*
X95915467Y-82842554D01*
X96335161Y-83470670D01*
X96869330Y-84004839D01*
X97497446Y-84424533D01*
X98195372Y-84713623D01*
X98936285Y-84861000D01*
X99691715Y-84861000D01*
X100432628Y-84713623D01*
X101130554Y-84424533D01*
X101758670Y-84004839D01*
X102292839Y-83470670D01*
X102712533Y-82842554D01*
X103001623Y-82144628D01*
X103149000Y-81403715D01*
X103149000Y-80648285D01*
X103001623Y-79907372D01*
X102712533Y-79209446D01*
X102292839Y-78581330D01*
X101758670Y-78047161D01*
X101130554Y-77627467D01*
X100432628Y-77338377D01*
X99691715Y-77191000D01*
X98936285Y-77191000D01*
X98195372Y-77338377D01*
X97497446Y-77627467D01*
X96869330Y-78047161D01*
X96335161Y-78581330D01*
X95915467Y-79209446D01*
X95626377Y-79907372D01*
X95479000Y-80648285D01*
X59715000Y-80648285D01*
X59567623Y-79907372D01*
X59278533Y-79209446D01*
X58858839Y-78581330D01*
X58324670Y-78047161D01*
X57696554Y-77627467D01*
X56998628Y-77338377D01*
X56257715Y-77191000D01*
X55502285Y-77191000D01*
X54761372Y-77338377D01*
X54063446Y-77627467D01*
X53435330Y-78047161D01*
X52901161Y-78581330D01*
X52481467Y-79209446D01*
X52192377Y-79907372D01*
X52045000Y-80648285D01*
X50660000Y-80648285D01*
X50660000Y-73425092D01*
X53494940Y-73425092D01*
X53494940Y-73894908D01*
X53586597Y-74355696D01*
X53766387Y-74789749D01*
X54027403Y-75180387D01*
X54359613Y-75512597D01*
X54750251Y-75773613D01*
X55184304Y-75953403D01*
X55645092Y-76045060D01*
X56114908Y-76045060D01*
X56575696Y-75953403D01*
X57009749Y-75773613D01*
X57400387Y-75512597D01*
X57732597Y-75180387D01*
X57993613Y-74789749D01*
X58173403Y-74355696D01*
X58265060Y-73894908D01*
X58265060Y-73425092D01*
X58173403Y-72964304D01*
X57993613Y-72530251D01*
X57732597Y-72139613D01*
X57400387Y-71807403D01*
X57009749Y-71546387D01*
X56575696Y-71366597D01*
X56114908Y-71274940D01*
X55645092Y-71274940D01*
X55184304Y-71366597D01*
X54750251Y-71546387D01*
X54359613Y-71807403D01*
X54027403Y-72139613D01*
X53766387Y-72530251D01*
X53586597Y-72964304D01*
X53494940Y-73425092D01*
X50660000Y-73425092D01*
X50660000Y-70249651D01*
X54389954Y-70249651D01*
X54576039Y-70590815D01*
X54993384Y-70806568D01*
X55444802Y-70936755D01*
X55912944Y-70976374D01*
X56379821Y-70923901D01*
X56827489Y-70781354D01*
X57183961Y-70590815D01*
X57370046Y-70249651D01*
X55880000Y-68759605D01*
X54389954Y-70249651D01*
X50660000Y-70249651D01*
X50660000Y-68612944D01*
X53483626Y-68612944D01*
X53536099Y-69079821D01*
X53678646Y-69527489D01*
X53869185Y-69883961D01*
X54210349Y-70070046D01*
X55700395Y-68580000D01*
X56059605Y-68580000D01*
X57549651Y-70070046D01*
X57890815Y-69883961D01*
X58106568Y-69466616D01*
X58236755Y-69015198D01*
X58276374Y-68547056D01*
X58223901Y-68080179D01*
X58081354Y-67632511D01*
X57890815Y-67276039D01*
X57549651Y-67089954D01*
X56059605Y-68580000D01*
X55700395Y-68580000D01*
X54210349Y-67089954D01*
X53869185Y-67276039D01*
X53653432Y-67693384D01*
X53523245Y-68144802D01*
X53483626Y-68612944D01*
X50660000Y-68612944D01*
X50660000Y-66910349D01*
X54389954Y-66910349D01*
X55880000Y-68400395D01*
X57370046Y-66910349D01*
X57183961Y-66569185D01*
X56766616Y-66353432D01*
X56315198Y-66223245D01*
X55847056Y-66183626D01*
X55380179Y-66236099D01*
X54932511Y-66378646D01*
X54576039Y-66569185D01*
X54389954Y-66910349D01*
X50660000Y-66910349D01*
X50660000Y-63265092D01*
X53494940Y-63265092D01*
X53494940Y-63734908D01*
X53586597Y-64195696D01*
X53766387Y-64629749D01*
X54027403Y-65020387D01*
X54359613Y-65352597D01*
X54750251Y-65613613D01*
X55184304Y-65793403D01*
X55645092Y-65885060D01*
X56114908Y-65885060D01*
X56575696Y-65793403D01*
X57009749Y-65613613D01*
X57400387Y-65352597D01*
X57732597Y-65020387D01*
X57993613Y-64629749D01*
X58173403Y-64195696D01*
X58265060Y-63734908D01*
X58265060Y-63265092D01*
X58173403Y-62804304D01*
X57993613Y-62370251D01*
X57732597Y-61979613D01*
X57400387Y-61647403D01*
X57009749Y-61386387D01*
X56575696Y-61206597D01*
X56114908Y-61114940D01*
X55645092Y-61114940D01*
X55184304Y-61206597D01*
X54750251Y-61386387D01*
X54359613Y-61647403D01*
X54027403Y-61979613D01*
X53766387Y-62370251D01*
X53586597Y-62804304D01*
X53494940Y-63265092D01*
X50660000Y-63265092D01*
X50660000Y-53105092D01*
X53494940Y-53105092D01*
X53494940Y-53574908D01*
X53586597Y-54035696D01*
X53766387Y-54469749D01*
X54027403Y-54860387D01*
X54359613Y-55192597D01*
X54750251Y-55453613D01*
X55184304Y-55633403D01*
X55645092Y-55725060D01*
X56114908Y-55725060D01*
X56575696Y-55633403D01*
X57009749Y-55453613D01*
X57400387Y-55192597D01*
X57732597Y-54860387D01*
X57993613Y-54469749D01*
X58173403Y-54035696D01*
X58265060Y-53574908D01*
X58265060Y-53105092D01*
X58173403Y-52644304D01*
X57993613Y-52210251D01*
X57732597Y-51819613D01*
X57400387Y-51487403D01*
X57009749Y-51226387D01*
X56575696Y-51046597D01*
X56114908Y-50954940D01*
X55645092Y-50954940D01*
X55184304Y-51046597D01*
X54750251Y-51226387D01*
X54359613Y-51487403D01*
X54027403Y-51819613D01*
X53766387Y-52210251D01*
X53586597Y-52644304D01*
X53494940Y-53105092D01*
X50660000Y-53105092D01*
X50660000Y-48025092D01*
X53494940Y-48025092D01*
X53494940Y-48494908D01*
X53586597Y-48955696D01*
X53766387Y-49389749D01*
X54027403Y-49780387D01*
X54359613Y-50112597D01*
X54750251Y-50373613D01*
X55184304Y-50553403D01*
X55645092Y-50645060D01*
X56114908Y-50645060D01*
X56575696Y-50553403D01*
X57009749Y-50373613D01*
X57327947Y-50161000D01*
X70850741Y-50161000D01*
X71018238Y-50328497D01*
X71240167Y-50476785D01*
X71407266Y-50546000D01*
X71240167Y-50615215D01*
X71018238Y-50763503D01*
X70829503Y-50952238D01*
X70681215Y-51174167D01*
X70579072Y-51420761D01*
X70527000Y-51682544D01*
X70527000Y-51949456D01*
X70579072Y-52211239D01*
X70681215Y-52457833D01*
X70829503Y-52679762D01*
X70997000Y-52847259D01*
X70997001Y-54995000D01*
X70655465Y-54995000D01*
X70611999Y-54990719D01*
X70568533Y-54995000D01*
X70568523Y-54995000D01*
X70438510Y-55007805D01*
X70271687Y-55058411D01*
X70117941Y-55140589D01*
X69983183Y-55251183D01*
X69980476Y-55254481D01*
X69977184Y-55257183D01*
X69949471Y-55290951D01*
X69949468Y-55290954D01*
X69866590Y-55391941D01*
X69784412Y-55545687D01*
X69733805Y-55712510D01*
X69716719Y-55886000D01*
X69721001Y-55929479D01*
X69721001Y-57070229D01*
X69603038Y-57167038D01*
X69492595Y-57301614D01*
X69410528Y-57455150D01*
X69359992Y-57621746D01*
X69342928Y-57795000D01*
X69342928Y-59045000D01*
X69359992Y-59218254D01*
X69410528Y-59384850D01*
X69492595Y-59538386D01*
X69603038Y-59672962D01*
X69626799Y-59692462D01*
X69609038Y-59707038D01*
X69498595Y-59841614D01*
X69416528Y-59995150D01*
X69392306Y-60075000D01*
X58786579Y-60075000D01*
X58072025Y-59360446D01*
X58173403Y-59115696D01*
X58265060Y-58654908D01*
X58265060Y-58185092D01*
X58173403Y-57724304D01*
X57993613Y-57290251D01*
X57732597Y-56899613D01*
X57400387Y-56567403D01*
X57009749Y-56306387D01*
X56575696Y-56126597D01*
X56114908Y-56034940D01*
X55645092Y-56034940D01*
X55184304Y-56126597D01*
X54750251Y-56306387D01*
X54359613Y-56567403D01*
X54027403Y-56899613D01*
X53766387Y-57290251D01*
X53586597Y-57724304D01*
X53494940Y-58185092D01*
X53494940Y-58654908D01*
X53586597Y-59115696D01*
X53766387Y-59549749D01*
X54027403Y-59940387D01*
X54359613Y-60272597D01*
X54750251Y-60533613D01*
X55184304Y-60713403D01*
X55645092Y-60805060D01*
X56114908Y-60805060D01*
X56575696Y-60713403D01*
X56820446Y-60612025D01*
X57763470Y-61555049D01*
X57791183Y-61588817D01*
X57824951Y-61616530D01*
X57824953Y-61616532D01*
X57896452Y-61675210D01*
X57925941Y-61699411D01*
X58079687Y-61781589D01*
X58246510Y-61832195D01*
X58376523Y-61845000D01*
X58376533Y-61845000D01*
X58419999Y-61849281D01*
X58463465Y-61845000D01*
X69392306Y-61845000D01*
X69416528Y-61924850D01*
X69498595Y-62078386D01*
X69609038Y-62212962D01*
X69743614Y-62323405D01*
X69897150Y-62405472D01*
X70063746Y-62456008D01*
X70237000Y-62473072D01*
X70987000Y-62473072D01*
X71160254Y-62456008D01*
X71326850Y-62405472D01*
X71480386Y-62323405D01*
X71614962Y-62212962D01*
X71725405Y-62078386D01*
X71807472Y-61924850D01*
X71834727Y-61835000D01*
X72148928Y-61835000D01*
X72161188Y-61959482D01*
X72197498Y-62079180D01*
X72256463Y-62189494D01*
X72335815Y-62286185D01*
X72432506Y-62365537D01*
X72542820Y-62424502D01*
X72662518Y-62460812D01*
X72787000Y-62473072D01*
X73126250Y-62470000D01*
X73285000Y-62311250D01*
X73285000Y-61087000D01*
X73539000Y-61087000D01*
X73539000Y-62311250D01*
X73697750Y-62470000D01*
X74037000Y-62473072D01*
X74161482Y-62460812D01*
X74281180Y-62424502D01*
X74391494Y-62365537D01*
X74488185Y-62286185D01*
X74567537Y-62189494D01*
X74626502Y-62079180D01*
X74662812Y-61959482D01*
X74675072Y-61835000D01*
X74674447Y-61715000D01*
X76972928Y-61715000D01*
X76985188Y-61839482D01*
X77021498Y-61959180D01*
X77080463Y-62069494D01*
X77159815Y-62166185D01*
X77256506Y-62245537D01*
X77366820Y-62304502D01*
X77486518Y-62340812D01*
X77611000Y-62353072D01*
X78200250Y-62350000D01*
X78359000Y-62191250D01*
X78359000Y-61217000D01*
X78613000Y-61217000D01*
X78613000Y-62191250D01*
X78771750Y-62350000D01*
X79361000Y-62353072D01*
X79485482Y-62340812D01*
X79605180Y-62304502D01*
X79715494Y-62245537D01*
X79812185Y-62166185D01*
X79891537Y-62069494D01*
X79950502Y-61959180D01*
X79986812Y-61839482D01*
X79999072Y-61715000D01*
X79996000Y-61375750D01*
X79837250Y-61217000D01*
X78613000Y-61217000D01*
X78359000Y-61217000D01*
X77134750Y-61217000D01*
X76976000Y-61375750D01*
X76972928Y-61715000D01*
X74674447Y-61715000D01*
X74672000Y-61245750D01*
X74513250Y-61087000D01*
X73539000Y-61087000D01*
X73285000Y-61087000D01*
X72310750Y-61087000D01*
X72152000Y-61245750D01*
X72148928Y-61835000D01*
X71834727Y-61835000D01*
X71858008Y-61758254D01*
X71875072Y-61585000D01*
X71875072Y-60335000D01*
X71858008Y-60161746D01*
X71807472Y-59995150D01*
X71725405Y-59841614D01*
X71614962Y-59707038D01*
X71591201Y-59687538D01*
X71608962Y-59672962D01*
X71719405Y-59538386D01*
X71801472Y-59384850D01*
X71852008Y-59218254D01*
X71869072Y-59045000D01*
X71869072Y-57795000D01*
X72142928Y-57795000D01*
X72142928Y-59045000D01*
X72159992Y-59218254D01*
X72210528Y-59384850D01*
X72292595Y-59538386D01*
X72356787Y-59616604D01*
X72335815Y-59633815D01*
X72256463Y-59730506D01*
X72197498Y-59840820D01*
X72161188Y-59960518D01*
X72148928Y-60085000D01*
X72152000Y-60674250D01*
X72310750Y-60833000D01*
X73285000Y-60833000D01*
X73285000Y-60813000D01*
X73539000Y-60813000D01*
X73539000Y-60833000D01*
X74513250Y-60833000D01*
X74672000Y-60674250D01*
X74673090Y-60465000D01*
X76972928Y-60465000D01*
X76976000Y-60804250D01*
X77134750Y-60963000D01*
X78359000Y-60963000D01*
X78359000Y-59988750D01*
X78613000Y-59988750D01*
X78613000Y-60963000D01*
X79837250Y-60963000D01*
X79996000Y-60804250D01*
X79999072Y-60465000D01*
X79986812Y-60340518D01*
X79950502Y-60220820D01*
X79891537Y-60110506D01*
X79812185Y-60013815D01*
X79715494Y-59934463D01*
X79605180Y-59875498D01*
X79485482Y-59839188D01*
X79361000Y-59826928D01*
X78771750Y-59830000D01*
X78613000Y-59988750D01*
X78359000Y-59988750D01*
X78200250Y-59830000D01*
X77611000Y-59826928D01*
X77486518Y-59839188D01*
X77366820Y-59875498D01*
X77256506Y-59934463D01*
X77159815Y-60013815D01*
X77080463Y-60110506D01*
X77021498Y-60220820D01*
X76985188Y-60340518D01*
X76972928Y-60465000D01*
X74673090Y-60465000D01*
X74675072Y-60085000D01*
X74662812Y-59960518D01*
X74626502Y-59840820D01*
X74567537Y-59730506D01*
X74488185Y-59633815D01*
X74460043Y-59610719D01*
X74519405Y-59538386D01*
X74601472Y-59384850D01*
X74625694Y-59305000D01*
X77247706Y-59305000D01*
X77367614Y-59403405D01*
X77521150Y-59485472D01*
X77687746Y-59536008D01*
X77861000Y-59553072D01*
X79111000Y-59553072D01*
X79284254Y-59536008D01*
X79450850Y-59485472D01*
X79604386Y-59403405D01*
X79738962Y-59292962D01*
X79849405Y-59158386D01*
X79931472Y-59004850D01*
X79982008Y-58838254D01*
X79999072Y-58665000D01*
X79999072Y-57915000D01*
X79982008Y-57741746D01*
X79931472Y-57575150D01*
X79849405Y-57421614D01*
X79738962Y-57287038D01*
X79726731Y-57277000D01*
X79738962Y-57266962D01*
X79849405Y-57132386D01*
X79931472Y-56978850D01*
X79958727Y-56889000D01*
X82052928Y-56889000D01*
X82065188Y-57013482D01*
X82101498Y-57133180D01*
X82160463Y-57243494D01*
X82239815Y-57340185D01*
X82336506Y-57419537D01*
X82446820Y-57478502D01*
X82566518Y-57514812D01*
X82691000Y-57527072D01*
X83280250Y-57524000D01*
X83439000Y-57365250D01*
X83439000Y-56391000D01*
X83693000Y-56391000D01*
X83693000Y-57365250D01*
X83851750Y-57524000D01*
X84441000Y-57527072D01*
X84565482Y-57514812D01*
X84685180Y-57478502D01*
X84795494Y-57419537D01*
X84892185Y-57340185D01*
X84971537Y-57243494D01*
X85030502Y-57133180D01*
X85066812Y-57013482D01*
X85079072Y-56889000D01*
X85076000Y-56549750D01*
X84917250Y-56391000D01*
X83693000Y-56391000D01*
X83439000Y-56391000D01*
X82214750Y-56391000D01*
X82056000Y-56549750D01*
X82052928Y-56889000D01*
X79958727Y-56889000D01*
X79982008Y-56812254D01*
X79999072Y-56639000D01*
X79999072Y-55889000D01*
X79982008Y-55715746D01*
X79958728Y-55639000D01*
X82052928Y-55639000D01*
X82056000Y-55978250D01*
X82214750Y-56137000D01*
X83439000Y-56137000D01*
X83439000Y-55162750D01*
X83693000Y-55162750D01*
X83693000Y-56137000D01*
X84917250Y-56137000D01*
X85076000Y-55978250D01*
X85079072Y-55639000D01*
X85066812Y-55514518D01*
X85030502Y-55394820D01*
X84971537Y-55284506D01*
X84892185Y-55187815D01*
X84795494Y-55108463D01*
X84685180Y-55049498D01*
X84565482Y-55013188D01*
X84441000Y-55000928D01*
X83851750Y-55004000D01*
X83693000Y-55162750D01*
X83439000Y-55162750D01*
X83280250Y-55004000D01*
X82691000Y-55000928D01*
X82566518Y-55013188D01*
X82446820Y-55049498D01*
X82336506Y-55108463D01*
X82239815Y-55187815D01*
X82160463Y-55284506D01*
X82101498Y-55394820D01*
X82065188Y-55514518D01*
X82052928Y-55639000D01*
X79958728Y-55639000D01*
X79931472Y-55549150D01*
X79849405Y-55395614D01*
X79738962Y-55261038D01*
X79604386Y-55150595D01*
X79450850Y-55068528D01*
X79284254Y-55017992D01*
X79111000Y-55000928D01*
X77861000Y-55000928D01*
X77687746Y-55017992D01*
X77521150Y-55068528D01*
X77367614Y-55150595D01*
X77233038Y-55261038D01*
X77122595Y-55395614D01*
X77040528Y-55549150D01*
X76989992Y-55715746D01*
X76972928Y-55889000D01*
X76972928Y-56639000D01*
X76989992Y-56812254D01*
X77040528Y-56978850D01*
X77122595Y-57132386D01*
X77233038Y-57266962D01*
X77245269Y-57277000D01*
X77233038Y-57287038D01*
X77122595Y-57421614D01*
X77061989Y-57535000D01*
X74625694Y-57535000D01*
X74601472Y-57455150D01*
X74519405Y-57301614D01*
X74408962Y-57167038D01*
X74274386Y-57056595D01*
X74120850Y-56974528D01*
X73954254Y-56923992D01*
X73781000Y-56906928D01*
X73031000Y-56906928D01*
X72857746Y-56923992D01*
X72691150Y-56974528D01*
X72537614Y-57056595D01*
X72403038Y-57167038D01*
X72292595Y-57301614D01*
X72210528Y-57455150D01*
X72159992Y-57621746D01*
X72142928Y-57795000D01*
X71869072Y-57795000D01*
X71852008Y-57621746D01*
X71801472Y-57455150D01*
X71719405Y-57301614D01*
X71608962Y-57167038D01*
X71491000Y-57070230D01*
X71491000Y-56765000D01*
X71925477Y-56765000D01*
X72055490Y-56752195D01*
X72222313Y-56701589D01*
X72376059Y-56619411D01*
X72510817Y-56508817D01*
X72621411Y-56374059D01*
X72703589Y-56220313D01*
X72754195Y-56053490D01*
X72771282Y-55880000D01*
X72758774Y-55753000D01*
X72767000Y-55669477D01*
X72767000Y-52847259D01*
X72934497Y-52679762D01*
X73082785Y-52457833D01*
X73184928Y-52211239D01*
X73237000Y-51949456D01*
X73237000Y-51682544D01*
X73184928Y-51420761D01*
X73082785Y-51174167D01*
X72934497Y-50952238D01*
X72745762Y-50763503D01*
X72523833Y-50615215D01*
X72356734Y-50546000D01*
X72523833Y-50476785D01*
X72745762Y-50328497D01*
X72934497Y-50139762D01*
X73082785Y-49917833D01*
X73184928Y-49671239D01*
X73237000Y-49409456D01*
X73237000Y-49142544D01*
X73184928Y-48880761D01*
X73082785Y-48634167D01*
X72934497Y-48412238D01*
X72863258Y-48340999D01*
X75018999Y-48340999D01*
X75019000Y-50778520D01*
X75014718Y-50821999D01*
X75031804Y-50995489D01*
X75082411Y-51162312D01*
X75164589Y-51316058D01*
X75247467Y-51417045D01*
X75247470Y-51417048D01*
X75275183Y-51450816D01*
X75308951Y-51478529D01*
X75621466Y-51791044D01*
X75649183Y-51824817D01*
X75783941Y-51935411D01*
X75937687Y-52017589D01*
X76104510Y-52068195D01*
X76234523Y-52081000D01*
X76234533Y-52081000D01*
X76277999Y-52085281D01*
X76321465Y-52081000D01*
X76525397Y-52081000D01*
X76533820Y-52085502D01*
X76653518Y-52121812D01*
X76778000Y-52134072D01*
X77328000Y-52134072D01*
X77452482Y-52121812D01*
X77572180Y-52085502D01*
X77682494Y-52026537D01*
X77779185Y-51947185D01*
X77858537Y-51850494D01*
X77917502Y-51740180D01*
X77953812Y-51620482D01*
X77966072Y-51496000D01*
X77966072Y-50896000D01*
X77953946Y-50772878D01*
X77989928Y-50769334D01*
X77989928Y-50846000D01*
X78002188Y-50970482D01*
X78038498Y-51090180D01*
X78097463Y-51200494D01*
X78176815Y-51297185D01*
X78273506Y-51376537D01*
X78383820Y-51435502D01*
X78503518Y-51471812D01*
X78628000Y-51484072D01*
X79178000Y-51484072D01*
X79218320Y-51480101D01*
X78497494Y-52200928D01*
X77861000Y-52200928D01*
X77687746Y-52217992D01*
X77521150Y-52268528D01*
X77367614Y-52350595D01*
X77233038Y-52461038D01*
X77122595Y-52595614D01*
X77040528Y-52749150D01*
X76989992Y-52915746D01*
X76972928Y-53089000D01*
X76972928Y-53839000D01*
X76989992Y-54012254D01*
X77040528Y-54178850D01*
X77122595Y-54332386D01*
X77233038Y-54466962D01*
X77367614Y-54577405D01*
X77521150Y-54659472D01*
X77687746Y-54710008D01*
X77861000Y-54727072D01*
X79111000Y-54727072D01*
X79284254Y-54710008D01*
X79450850Y-54659472D01*
X79604386Y-54577405D01*
X79738962Y-54466962D01*
X79849405Y-54332386D01*
X79931472Y-54178850D01*
X79982008Y-54012254D01*
X79999072Y-53839000D01*
X79999072Y-53202506D01*
X80845579Y-52356000D01*
X81565393Y-52356000D01*
X81617518Y-52371812D01*
X81742000Y-52384072D01*
X82342000Y-52384072D01*
X82415662Y-52376817D01*
X82313038Y-52461038D01*
X82202595Y-52595614D01*
X82120528Y-52749150D01*
X82069992Y-52915746D01*
X82052928Y-53089000D01*
X82052928Y-53839000D01*
X82069992Y-54012254D01*
X82120528Y-54178850D01*
X82202595Y-54332386D01*
X82313038Y-54466962D01*
X82447614Y-54577405D01*
X82601150Y-54659472D01*
X82767746Y-54710008D01*
X82941000Y-54727072D01*
X84191000Y-54727072D01*
X84364254Y-54710008D01*
X84530850Y-54659472D01*
X84684386Y-54577405D01*
X84818962Y-54466962D01*
X84929405Y-54332386D01*
X85011472Y-54178850D01*
X85062008Y-54012254D01*
X85079072Y-53839000D01*
X85079072Y-53089000D01*
X85062008Y-52915746D01*
X85011472Y-52749150D01*
X84929405Y-52595614D01*
X84818962Y-52461038D01*
X84684386Y-52350595D01*
X84530850Y-52268528D01*
X84451000Y-52244306D01*
X84451000Y-50538469D01*
X84455281Y-50495000D01*
X84451000Y-50451531D01*
X84451000Y-50451523D01*
X84438195Y-50321510D01*
X84413528Y-50240195D01*
X84387589Y-50154686D01*
X84305411Y-50000941D01*
X84222532Y-49899953D01*
X84222530Y-49899951D01*
X84194817Y-49866183D01*
X84161050Y-49838471D01*
X83625865Y-49303287D01*
X83617812Y-49221518D01*
X83581502Y-49101820D01*
X83522537Y-48991506D01*
X83443185Y-48894815D01*
X83346494Y-48815463D01*
X83236180Y-48756498D01*
X83116482Y-48720188D01*
X82992000Y-48707928D01*
X82392000Y-48707928D01*
X82277000Y-48719254D01*
X82277000Y-47586177D01*
X82351472Y-47446850D01*
X82402008Y-47280254D01*
X82419072Y-47107000D01*
X82419072Y-45857000D01*
X82402008Y-45683746D01*
X82351472Y-45517150D01*
X82269405Y-45363614D01*
X82245922Y-45335000D01*
X83014523Y-45335000D01*
X83058000Y-45339282D01*
X83101476Y-45335000D01*
X83101477Y-45335000D01*
X83231490Y-45322195D01*
X83398313Y-45271589D01*
X83552059Y-45189411D01*
X83686817Y-45078817D01*
X83797411Y-44944059D01*
X83879589Y-44790313D01*
X83930195Y-44623490D01*
X83947282Y-44450000D01*
X83943000Y-44406523D01*
X83943000Y-43811000D01*
X84284531Y-43811000D01*
X84328000Y-43815281D01*
X84371469Y-43811000D01*
X84371477Y-43811000D01*
X84501490Y-43798195D01*
X84668313Y-43747589D01*
X84822059Y-43665411D01*
X84956817Y-43554817D01*
X84984534Y-43521044D01*
X86542400Y-41963179D01*
X86529000Y-42030544D01*
X86529000Y-42297456D01*
X86581072Y-42559239D01*
X86683215Y-42805833D01*
X86831503Y-43027762D01*
X87020238Y-43216497D01*
X87242167Y-43364785D01*
X87488761Y-43466928D01*
X87750544Y-43519000D01*
X88017456Y-43519000D01*
X88279239Y-43466928D01*
X88525833Y-43364785D01*
X88747762Y-43216497D01*
X88936497Y-43027762D01*
X89084785Y-42805833D01*
X89186928Y-42559239D01*
X89239000Y-42297456D01*
X89239000Y-42030544D01*
X89186928Y-41768761D01*
X89084785Y-41522167D01*
X88936497Y-41300238D01*
X88769000Y-41132741D01*
X88769000Y-40937477D01*
X88773282Y-40894000D01*
X88756195Y-40720510D01*
X88743673Y-40679230D01*
X88747762Y-40676497D01*
X88936497Y-40487762D01*
X89084785Y-40265833D01*
X89186928Y-40019239D01*
X89239000Y-39757456D01*
X89239000Y-39490544D01*
X89186928Y-39228761D01*
X89084785Y-38982167D01*
X88936497Y-38760238D01*
X88747762Y-38571503D01*
X88525833Y-38423215D01*
X88358734Y-38354000D01*
X88525833Y-38284785D01*
X88747762Y-38136497D01*
X88915259Y-37969000D01*
X97492531Y-37969000D01*
X97536000Y-37973281D01*
X97579469Y-37969000D01*
X97579477Y-37969000D01*
X97709490Y-37956195D01*
X97876313Y-37905589D01*
X98030059Y-37823411D01*
X98164817Y-37712817D01*
X98192534Y-37679044D01*
X99655050Y-36216529D01*
X99688817Y-36188817D01*
X99799411Y-36054059D01*
X99881589Y-35900313D01*
X99932195Y-35733490D01*
X99945000Y-35603477D01*
X99945000Y-35603467D01*
X99949281Y-35560001D01*
X99945000Y-35516535D01*
X99945000Y-34468095D01*
X100178628Y-34421623D01*
X100876554Y-34132533D01*
X101504670Y-33712839D01*
X102038839Y-33178670D01*
X102458533Y-32550554D01*
X102747623Y-31852628D01*
X102895000Y-31111715D01*
X102895000Y-30356285D01*
X102747623Y-29615372D01*
X102458533Y-28917446D01*
X102038839Y-28289330D01*
X101504670Y-27755161D01*
X100876554Y-27335467D01*
X100178628Y-27046377D01*
X99437715Y-26899000D01*
X98682285Y-26899000D01*
X97941372Y-27046377D01*
X97243446Y-27335467D01*
X96615330Y-27755161D01*
X96081161Y-28289330D01*
X95661467Y-28917446D01*
X95372377Y-29615372D01*
X95225000Y-30356285D01*
X95225000Y-31111715D01*
X95372377Y-31852628D01*
X95661467Y-32550554D01*
X96081161Y-33178670D01*
X96615330Y-33712839D01*
X97243446Y-34132533D01*
X97941372Y-34421623D01*
X98175000Y-34468095D01*
X98175000Y-35193421D01*
X97169422Y-36199000D01*
X88915259Y-36199000D01*
X88747762Y-36031503D01*
X88525833Y-35883215D01*
X88279239Y-35781072D01*
X88017456Y-35729000D01*
X87780578Y-35729000D01*
X87710032Y-35658454D01*
X87682317Y-35624683D01*
X87547559Y-35514089D01*
X87393813Y-35431911D01*
X87226990Y-35381305D01*
X87096977Y-35368500D01*
X87096969Y-35368500D01*
X87053500Y-35364219D01*
X87010031Y-35368500D01*
X83160072Y-35368500D01*
X83160072Y-35140999D01*
X83143008Y-34967745D01*
X83092472Y-34801149D01*
X83010405Y-34647613D01*
X82899962Y-34513038D01*
X82765387Y-34402595D01*
X82611851Y-34320528D01*
X82445255Y-34269992D01*
X82272001Y-34252928D01*
X79271999Y-34252928D01*
X79098745Y-34269992D01*
X78932149Y-34320528D01*
X78778613Y-34402595D01*
X78644038Y-34513038D01*
X78533595Y-34647613D01*
X78451528Y-34801149D01*
X78400992Y-34967745D01*
X78383928Y-35140999D01*
X78383928Y-37366001D01*
X78400992Y-37539255D01*
X78451528Y-37705851D01*
X78533595Y-37859387D01*
X78644038Y-37993962D01*
X78778613Y-38104405D01*
X78932149Y-38186472D01*
X79098745Y-38237008D01*
X79271999Y-38254072D01*
X82272001Y-38254072D01*
X82445255Y-38237008D01*
X82611851Y-38186472D01*
X82765387Y-38104405D01*
X82899962Y-37993962D01*
X83010405Y-37859387D01*
X83092472Y-37705851D01*
X83143008Y-37539255D01*
X83160072Y-37366001D01*
X83160072Y-37138500D01*
X86529000Y-37138500D01*
X86529000Y-37217456D01*
X86581072Y-37479239D01*
X86683215Y-37725833D01*
X86831503Y-37947762D01*
X87020238Y-38136497D01*
X87242167Y-38284785D01*
X87409266Y-38354000D01*
X87242167Y-38423215D01*
X87020238Y-38571503D01*
X86852741Y-38739000D01*
X86149469Y-38739000D01*
X86106000Y-38734719D01*
X86062531Y-38739000D01*
X86062523Y-38739000D01*
X85932510Y-38751805D01*
X85765687Y-38802411D01*
X85696466Y-38839410D01*
X85611941Y-38884589D01*
X85510953Y-38967468D01*
X85510951Y-38967470D01*
X85477183Y-38995183D01*
X85449470Y-39028951D01*
X83384922Y-41093500D01*
X83160072Y-41093500D01*
X83160072Y-40865999D01*
X83143008Y-40692745D01*
X83092472Y-40526149D01*
X83010405Y-40372613D01*
X82899962Y-40238038D01*
X82765387Y-40127595D01*
X82611851Y-40045528D01*
X82445255Y-39994992D01*
X82272001Y-39977928D01*
X79271999Y-39977928D01*
X79098745Y-39994992D01*
X78932149Y-40045528D01*
X78778613Y-40127595D01*
X78644038Y-40238038D01*
X78533595Y-40372613D01*
X78451528Y-40526149D01*
X78400992Y-40692745D01*
X78383928Y-40865999D01*
X78383928Y-43091001D01*
X78400992Y-43264255D01*
X78451528Y-43430851D01*
X78462576Y-43451520D01*
X78318313Y-43374411D01*
X78151490Y-43323805D01*
X78021477Y-43311000D01*
X78021469Y-43311000D01*
X77978000Y-43306719D01*
X77934531Y-43311000D01*
X76524828Y-43311000D01*
X76539008Y-43264255D01*
X76556072Y-43091001D01*
X76556072Y-40865999D01*
X76539008Y-40692745D01*
X76488472Y-40526149D01*
X76406405Y-40372613D01*
X76295962Y-40238038D01*
X76161387Y-40127595D01*
X76007851Y-40045528D01*
X75841255Y-39994992D01*
X75668001Y-39977928D01*
X72667999Y-39977928D01*
X72494745Y-39994992D01*
X72328149Y-40045528D01*
X72174613Y-40127595D01*
X72040038Y-40238038D01*
X71929595Y-40372613D01*
X71847528Y-40526149D01*
X71796992Y-40692745D01*
X71779928Y-40865999D01*
X71779928Y-43091001D01*
X71796992Y-43264255D01*
X71847528Y-43430851D01*
X71929595Y-43584387D01*
X72040038Y-43718962D01*
X72174613Y-43829405D01*
X72328149Y-43911472D01*
X72494745Y-43962008D01*
X72667999Y-43979072D01*
X73550460Y-43979072D01*
X73572956Y-43997534D01*
X74366470Y-44791049D01*
X74394183Y-44824817D01*
X74427951Y-44852530D01*
X74427953Y-44852532D01*
X74528941Y-44935411D01*
X74682686Y-45017589D01*
X74849062Y-45068059D01*
X74849510Y-45068195D01*
X74979523Y-45081000D01*
X74979531Y-45081000D01*
X75023000Y-45085281D01*
X75066469Y-45081000D01*
X77471001Y-45081000D01*
X77471001Y-45132229D01*
X77353038Y-45229038D01*
X77242595Y-45363614D01*
X77160528Y-45517150D01*
X77109992Y-45683746D01*
X77092928Y-45857000D01*
X77092928Y-47107000D01*
X77109992Y-47280254D01*
X77160528Y-47446850D01*
X77242595Y-47600386D01*
X77353038Y-47734962D01*
X77471001Y-47831771D01*
X77471000Y-48975805D01*
X77452482Y-48970188D01*
X77328000Y-48957928D01*
X76788999Y-48957928D01*
X76788999Y-47499476D01*
X76793281Y-47455999D01*
X76776194Y-47282509D01*
X76725588Y-47115686D01*
X76643410Y-46961940D01*
X76532816Y-46827182D01*
X76398058Y-46716588D01*
X76244312Y-46634410D01*
X76077489Y-46583804D01*
X75947476Y-46570999D01*
X75947475Y-46570999D01*
X75903999Y-46566717D01*
X75860522Y-46570999D01*
X73230725Y-46570999D01*
X73184928Y-46340761D01*
X73082785Y-46094167D01*
X72934497Y-45872238D01*
X72745762Y-45683503D01*
X72523833Y-45535215D01*
X72277239Y-45433072D01*
X72015456Y-45381000D01*
X71748544Y-45381000D01*
X71486761Y-45433072D01*
X71240167Y-45535215D01*
X71018238Y-45683503D01*
X70829503Y-45872238D01*
X70681215Y-46094167D01*
X70579072Y-46340761D01*
X70527000Y-46602544D01*
X70527000Y-46869456D01*
X70579072Y-47131239D01*
X70681215Y-47377833D01*
X70829503Y-47599762D01*
X71018238Y-47788497D01*
X71240167Y-47936785D01*
X71407266Y-48006000D01*
X71240167Y-48075215D01*
X71018238Y-48223503D01*
X70850741Y-48391000D01*
X58265060Y-48391000D01*
X58265060Y-48025092D01*
X58173403Y-47564304D01*
X57993613Y-47130251D01*
X57732597Y-46739613D01*
X57400387Y-46407403D01*
X57009749Y-46146387D01*
X56575696Y-45966597D01*
X56114908Y-45874940D01*
X55645092Y-45874940D01*
X55184304Y-45966597D01*
X54750251Y-46146387D01*
X54359613Y-46407403D01*
X54027403Y-46739613D01*
X53766387Y-47130251D01*
X53586597Y-47564304D01*
X53494940Y-48025092D01*
X50660000Y-48025092D01*
X50660000Y-42945092D01*
X53494940Y-42945092D01*
X53494940Y-43414908D01*
X53586597Y-43875696D01*
X53766387Y-44309749D01*
X54027403Y-44700387D01*
X54359613Y-45032597D01*
X54750251Y-45293613D01*
X55184304Y-45473403D01*
X55645092Y-45565060D01*
X56114908Y-45565060D01*
X56575696Y-45473403D01*
X57009749Y-45293613D01*
X57400387Y-45032597D01*
X57732597Y-44700387D01*
X57993613Y-44309749D01*
X58173403Y-43875696D01*
X58265060Y-43414908D01*
X58265060Y-42945092D01*
X58173403Y-42484304D01*
X57993613Y-42050251D01*
X57732597Y-41659613D01*
X57400387Y-41327403D01*
X57009749Y-41066387D01*
X56575696Y-40886597D01*
X56114908Y-40794940D01*
X55645092Y-40794940D01*
X55184304Y-40886597D01*
X54750251Y-41066387D01*
X54359613Y-41327403D01*
X54027403Y-41659613D01*
X53766387Y-42050251D01*
X53586597Y-42484304D01*
X53494940Y-42945092D01*
X50660000Y-42945092D01*
X50660000Y-37865092D01*
X53494940Y-37865092D01*
X53494940Y-38334908D01*
X53586597Y-38795696D01*
X53766387Y-39229749D01*
X54027403Y-39620387D01*
X54359613Y-39952597D01*
X54750251Y-40213613D01*
X55184304Y-40393403D01*
X55645092Y-40485060D01*
X56114908Y-40485060D01*
X56575696Y-40393403D01*
X57009749Y-40213613D01*
X57400387Y-39952597D01*
X57732597Y-39620387D01*
X57993613Y-39229749D01*
X58173403Y-38795696D01*
X58265060Y-38334908D01*
X58265060Y-37865092D01*
X58173403Y-37404304D01*
X58072025Y-37159554D01*
X58786579Y-36445000D01*
X71357922Y-36445000D01*
X71761466Y-36848544D01*
X71779928Y-36871040D01*
X71779928Y-37366001D01*
X71796992Y-37539255D01*
X71847528Y-37705851D01*
X71929595Y-37859387D01*
X72040038Y-37993962D01*
X72174613Y-38104405D01*
X72328149Y-38186472D01*
X72494745Y-38237008D01*
X72667999Y-38254072D01*
X75668001Y-38254072D01*
X75841255Y-38237008D01*
X76007851Y-38186472D01*
X76161387Y-38104405D01*
X76295962Y-37993962D01*
X76406405Y-37859387D01*
X76488472Y-37705851D01*
X76539008Y-37539255D01*
X76556072Y-37366001D01*
X76556072Y-35140999D01*
X76539008Y-34967745D01*
X76488472Y-34801149D01*
X76406405Y-34647613D01*
X76295962Y-34513038D01*
X76161387Y-34402595D01*
X76007851Y-34320528D01*
X75841255Y-34269992D01*
X75668001Y-34252928D01*
X72667999Y-34252928D01*
X72494745Y-34269992D01*
X72328149Y-34320528D01*
X72174613Y-34402595D01*
X72040038Y-34513038D01*
X71929595Y-34647613D01*
X71915482Y-34674016D01*
X71882000Y-34670718D01*
X71838524Y-34675000D01*
X58463465Y-34675000D01*
X58419999Y-34670719D01*
X58376533Y-34675000D01*
X58376523Y-34675000D01*
X58246510Y-34687805D01*
X58079687Y-34738411D01*
X57925941Y-34820589D01*
X57925939Y-34820590D01*
X57925940Y-34820590D01*
X57824953Y-34903468D01*
X57824951Y-34903470D01*
X57791183Y-34931183D01*
X57763470Y-34964951D01*
X56820446Y-35907975D01*
X56575696Y-35806597D01*
X56114908Y-35714940D01*
X55645092Y-35714940D01*
X55184304Y-35806597D01*
X54750251Y-35986387D01*
X54359613Y-36247403D01*
X54027403Y-36579613D01*
X53766387Y-36970251D01*
X53586597Y-37404304D01*
X53494940Y-37865092D01*
X50660000Y-37865092D01*
X50660000Y-30356285D01*
X52045000Y-30356285D01*
X52045000Y-31111715D01*
X52192377Y-31852628D01*
X52481467Y-32550554D01*
X52901161Y-33178670D01*
X53435330Y-33712839D01*
X54063446Y-34132533D01*
X54761372Y-34421623D01*
X55502285Y-34569000D01*
X56257715Y-34569000D01*
X56998628Y-34421623D01*
X57696554Y-34132533D01*
X58324670Y-33712839D01*
X58858839Y-33178670D01*
X59278533Y-32550554D01*
X59567623Y-31852628D01*
X59715000Y-31111715D01*
X59715000Y-30356285D01*
X59567623Y-29615372D01*
X59278533Y-28917446D01*
X58858839Y-28289330D01*
X58324670Y-27755161D01*
X57696554Y-27335467D01*
X56998628Y-27046377D01*
X56257715Y-26899000D01*
X55502285Y-26899000D01*
X54761372Y-27046377D01*
X54063446Y-27335467D01*
X53435330Y-27755161D01*
X52901161Y-28289330D01*
X52481467Y-28917446D01*
X52192377Y-29615372D01*
X52045000Y-30356285D01*
X50660000Y-30356285D01*
X50660000Y-29921392D01*
X50731173Y-29123917D01*
X50934656Y-28380109D01*
X51266638Y-27684095D01*
X51716626Y-27057870D01*
X52270403Y-26521223D01*
X52910451Y-26091129D01*
X53616553Y-25781171D01*
X54371457Y-25599935D01*
X55024207Y-25552000D01*
X99970608Y-25552000D01*
X100768083Y-25623173D01*
G37*
X100768083Y-25623173D02*
X101511891Y-25826656D01*
X102207905Y-26158638D01*
X102834130Y-26608626D01*
X103370777Y-27162403D01*
X103800871Y-27802451D01*
X104110829Y-28508553D01*
X104292065Y-29263457D01*
X104340072Y-29917193D01*
X104495806Y-81978235D01*
X104395531Y-82784084D01*
X104166303Y-83520364D01*
X103810316Y-84204411D01*
X103338818Y-84814609D01*
X102766713Y-85331670D01*
X102112092Y-85739246D01*
X101395638Y-86024457D01*
X100629234Y-86180480D01*
X100137539Y-86208000D01*
X55029392Y-86208000D01*
X54231804Y-86136817D01*
X53487887Y-85933304D01*
X52791770Y-85601274D01*
X52165452Y-85151219D01*
X51628730Y-84597365D01*
X51198567Y-83957215D01*
X50888564Y-83251011D01*
X50707921Y-82498578D01*
X50660000Y-81765805D01*
X50660000Y-80648285D01*
X52045000Y-80648285D01*
X52045000Y-81403715D01*
X52192377Y-82144628D01*
X52481467Y-82842554D01*
X52901161Y-83470670D01*
X53435330Y-84004839D01*
X54063446Y-84424533D01*
X54761372Y-84713623D01*
X55502285Y-84861000D01*
X56257715Y-84861000D01*
X56998628Y-84713623D01*
X57696554Y-84424533D01*
X58324670Y-84004839D01*
X58858839Y-83470670D01*
X59278533Y-82842554D01*
X59567623Y-82144628D01*
X59715000Y-81403715D01*
X59715000Y-80648285D01*
X95479000Y-80648285D01*
X95479000Y-81403715D01*
X95626377Y-82144628D01*
X95915467Y-82842554D01*
X96335161Y-83470670D01*
X96869330Y-84004839D01*
X97497446Y-84424533D01*
X98195372Y-84713623D01*
X98936285Y-84861000D01*
X99691715Y-84861000D01*
X100432628Y-84713623D01*
X101130554Y-84424533D01*
X101758670Y-84004839D01*
X102292839Y-83470670D01*
X102712533Y-82842554D01*
X103001623Y-82144628D01*
X103149000Y-81403715D01*
X103149000Y-80648285D01*
X103001623Y-79907372D01*
X102712533Y-79209446D01*
X102292839Y-78581330D01*
X101758670Y-78047161D01*
X101130554Y-77627467D01*
X100432628Y-77338377D01*
X99691715Y-77191000D01*
X98936285Y-77191000D01*
X98195372Y-77338377D01*
X97497446Y-77627467D01*
X96869330Y-78047161D01*
X96335161Y-78581330D01*
X95915467Y-79209446D01*
X95626377Y-79907372D01*
X95479000Y-80648285D01*
X59715000Y-80648285D01*
X59567623Y-79907372D01*
X59278533Y-79209446D01*
X58858839Y-78581330D01*
X58324670Y-78047161D01*
X57696554Y-77627467D01*
X56998628Y-77338377D01*
X56257715Y-77191000D01*
X55502285Y-77191000D01*
X54761372Y-77338377D01*
X54063446Y-77627467D01*
X53435330Y-78047161D01*
X52901161Y-78581330D01*
X52481467Y-79209446D01*
X52192377Y-79907372D01*
X52045000Y-80648285D01*
X50660000Y-80648285D01*
X50660000Y-73425092D01*
X53494940Y-73425092D01*
X53494940Y-73894908D01*
X53586597Y-74355696D01*
X53766387Y-74789749D01*
X54027403Y-75180387D01*
X54359613Y-75512597D01*
X54750251Y-75773613D01*
X55184304Y-75953403D01*
X55645092Y-76045060D01*
X56114908Y-76045060D01*
X56575696Y-75953403D01*
X57009749Y-75773613D01*
X57400387Y-75512597D01*
X57732597Y-75180387D01*
X57993613Y-74789749D01*
X58173403Y-74355696D01*
X58265060Y-73894908D01*
X58265060Y-73425092D01*
X58173403Y-72964304D01*
X57993613Y-72530251D01*
X57732597Y-72139613D01*
X57400387Y-71807403D01*
X57009749Y-71546387D01*
X56575696Y-71366597D01*
X56114908Y-71274940D01*
X55645092Y-71274940D01*
X55184304Y-71366597D01*
X54750251Y-71546387D01*
X54359613Y-71807403D01*
X54027403Y-72139613D01*
X53766387Y-72530251D01*
X53586597Y-72964304D01*
X53494940Y-73425092D01*
X50660000Y-73425092D01*
X50660000Y-70249651D01*
X54389954Y-70249651D01*
X54576039Y-70590815D01*
X54993384Y-70806568D01*
X55444802Y-70936755D01*
X55912944Y-70976374D01*
X56379821Y-70923901D01*
X56827489Y-70781354D01*
X57183961Y-70590815D01*
X57370046Y-70249651D01*
X55880000Y-68759605D01*
X54389954Y-70249651D01*
X50660000Y-70249651D01*
X50660000Y-68612944D01*
X53483626Y-68612944D01*
X53536099Y-69079821D01*
X53678646Y-69527489D01*
X53869185Y-69883961D01*
X54210349Y-70070046D01*
X55700395Y-68580000D01*
X56059605Y-68580000D01*
X57549651Y-70070046D01*
X57890815Y-69883961D01*
X58106568Y-69466616D01*
X58236755Y-69015198D01*
X58276374Y-68547056D01*
X58223901Y-68080179D01*
X58081354Y-67632511D01*
X57890815Y-67276039D01*
X57549651Y-67089954D01*
X56059605Y-68580000D01*
X55700395Y-68580000D01*
X54210349Y-67089954D01*
X53869185Y-67276039D01*
X53653432Y-67693384D01*
X53523245Y-68144802D01*
X53483626Y-68612944D01*
X50660000Y-68612944D01*
X50660000Y-66910349D01*
X54389954Y-66910349D01*
X55880000Y-68400395D01*
X57370046Y-66910349D01*
X57183961Y-66569185D01*
X56766616Y-66353432D01*
X56315198Y-66223245D01*
X55847056Y-66183626D01*
X55380179Y-66236099D01*
X54932511Y-66378646D01*
X54576039Y-66569185D01*
X54389954Y-66910349D01*
X50660000Y-66910349D01*
X50660000Y-63265092D01*
X53494940Y-63265092D01*
X53494940Y-63734908D01*
X53586597Y-64195696D01*
X53766387Y-64629749D01*
X54027403Y-65020387D01*
X54359613Y-65352597D01*
X54750251Y-65613613D01*
X55184304Y-65793403D01*
X55645092Y-65885060D01*
X56114908Y-65885060D01*
X56575696Y-65793403D01*
X57009749Y-65613613D01*
X57400387Y-65352597D01*
X57732597Y-65020387D01*
X57993613Y-64629749D01*
X58173403Y-64195696D01*
X58265060Y-63734908D01*
X58265060Y-63265092D01*
X58173403Y-62804304D01*
X57993613Y-62370251D01*
X57732597Y-61979613D01*
X57400387Y-61647403D01*
X57009749Y-61386387D01*
X56575696Y-61206597D01*
X56114908Y-61114940D01*
X55645092Y-61114940D01*
X55184304Y-61206597D01*
X54750251Y-61386387D01*
X54359613Y-61647403D01*
X54027403Y-61979613D01*
X53766387Y-62370251D01*
X53586597Y-62804304D01*
X53494940Y-63265092D01*
X50660000Y-63265092D01*
X50660000Y-53105092D01*
X53494940Y-53105092D01*
X53494940Y-53574908D01*
X53586597Y-54035696D01*
X53766387Y-54469749D01*
X54027403Y-54860387D01*
X54359613Y-55192597D01*
X54750251Y-55453613D01*
X55184304Y-55633403D01*
X55645092Y-55725060D01*
X56114908Y-55725060D01*
X56575696Y-55633403D01*
X57009749Y-55453613D01*
X57400387Y-55192597D01*
X57732597Y-54860387D01*
X57993613Y-54469749D01*
X58173403Y-54035696D01*
X58265060Y-53574908D01*
X58265060Y-53105092D01*
X58173403Y-52644304D01*
X57993613Y-52210251D01*
X57732597Y-51819613D01*
X57400387Y-51487403D01*
X57009749Y-51226387D01*
X56575696Y-51046597D01*
X56114908Y-50954940D01*
X55645092Y-50954940D01*
X55184304Y-51046597D01*
X54750251Y-51226387D01*
X54359613Y-51487403D01*
X54027403Y-51819613D01*
X53766387Y-52210251D01*
X53586597Y-52644304D01*
X53494940Y-53105092D01*
X50660000Y-53105092D01*
X50660000Y-48025092D01*
X53494940Y-48025092D01*
X53494940Y-48494908D01*
X53586597Y-48955696D01*
X53766387Y-49389749D01*
X54027403Y-49780387D01*
X54359613Y-50112597D01*
X54750251Y-50373613D01*
X55184304Y-50553403D01*
X55645092Y-50645060D01*
X56114908Y-50645060D01*
X56575696Y-50553403D01*
X57009749Y-50373613D01*
X57327947Y-50161000D01*
X70850741Y-50161000D01*
X71018238Y-50328497D01*
X71240167Y-50476785D01*
X71407266Y-50546000D01*
X71240167Y-50615215D01*
X71018238Y-50763503D01*
X70829503Y-50952238D01*
X70681215Y-51174167D01*
X70579072Y-51420761D01*
X70527000Y-51682544D01*
X70527000Y-51949456D01*
X70579072Y-52211239D01*
X70681215Y-52457833D01*
X70829503Y-52679762D01*
X70997000Y-52847259D01*
X70997001Y-54995000D01*
X70655465Y-54995000D01*
X70611999Y-54990719D01*
X70568533Y-54995000D01*
X70568523Y-54995000D01*
X70438510Y-55007805D01*
X70271687Y-55058411D01*
X70117941Y-55140589D01*
X69983183Y-55251183D01*
X69980476Y-55254481D01*
X69977184Y-55257183D01*
X69949471Y-55290951D01*
X69949468Y-55290954D01*
X69866590Y-55391941D01*
X69784412Y-55545687D01*
X69733805Y-55712510D01*
X69716719Y-55886000D01*
X69721001Y-55929479D01*
X69721001Y-57070229D01*
X69603038Y-57167038D01*
X69492595Y-57301614D01*
X69410528Y-57455150D01*
X69359992Y-57621746D01*
X69342928Y-57795000D01*
X69342928Y-59045000D01*
X69359992Y-59218254D01*
X69410528Y-59384850D01*
X69492595Y-59538386D01*
X69603038Y-59672962D01*
X69626799Y-59692462D01*
X69609038Y-59707038D01*
X69498595Y-59841614D01*
X69416528Y-59995150D01*
X69392306Y-60075000D01*
X58786579Y-60075000D01*
X58072025Y-59360446D01*
X58173403Y-59115696D01*
X58265060Y-58654908D01*
X58265060Y-58185092D01*
X58173403Y-57724304D01*
X57993613Y-57290251D01*
X57732597Y-56899613D01*
X57400387Y-56567403D01*
X57009749Y-56306387D01*
X56575696Y-56126597D01*
X56114908Y-56034940D01*
X55645092Y-56034940D01*
X55184304Y-56126597D01*
X54750251Y-56306387D01*
X54359613Y-56567403D01*
X54027403Y-56899613D01*
X53766387Y-57290251D01*
X53586597Y-57724304D01*
X53494940Y-58185092D01*
X53494940Y-58654908D01*
X53586597Y-59115696D01*
X53766387Y-59549749D01*
X54027403Y-59940387D01*
X54359613Y-60272597D01*
X54750251Y-60533613D01*
X55184304Y-60713403D01*
X55645092Y-60805060D01*
X56114908Y-60805060D01*
X56575696Y-60713403D01*
X56820446Y-60612025D01*
X57763470Y-61555049D01*
X57791183Y-61588817D01*
X57824951Y-61616530D01*
X57824953Y-61616532D01*
X57896452Y-61675210D01*
X57925941Y-61699411D01*
X58079687Y-61781589D01*
X58246510Y-61832195D01*
X58376523Y-61845000D01*
X58376533Y-61845000D01*
X58419999Y-61849281D01*
X58463465Y-61845000D01*
X69392306Y-61845000D01*
X69416528Y-61924850D01*
X69498595Y-62078386D01*
X69609038Y-62212962D01*
X69743614Y-62323405D01*
X69897150Y-62405472D01*
X70063746Y-62456008D01*
X70237000Y-62473072D01*
X70987000Y-62473072D01*
X71160254Y-62456008D01*
X71326850Y-62405472D01*
X71480386Y-62323405D01*
X71614962Y-62212962D01*
X71725405Y-62078386D01*
X71807472Y-61924850D01*
X71834727Y-61835000D01*
X72148928Y-61835000D01*
X72161188Y-61959482D01*
X72197498Y-62079180D01*
X72256463Y-62189494D01*
X72335815Y-62286185D01*
X72432506Y-62365537D01*
X72542820Y-62424502D01*
X72662518Y-62460812D01*
X72787000Y-62473072D01*
X73126250Y-62470000D01*
X73285000Y-62311250D01*
X73285000Y-61087000D01*
X73539000Y-61087000D01*
X73539000Y-62311250D01*
X73697750Y-62470000D01*
X74037000Y-62473072D01*
X74161482Y-62460812D01*
X74281180Y-62424502D01*
X74391494Y-62365537D01*
X74488185Y-62286185D01*
X74567537Y-62189494D01*
X74626502Y-62079180D01*
X74662812Y-61959482D01*
X74675072Y-61835000D01*
X74674447Y-61715000D01*
X76972928Y-61715000D01*
X76985188Y-61839482D01*
X77021498Y-61959180D01*
X77080463Y-62069494D01*
X77159815Y-62166185D01*
X77256506Y-62245537D01*
X77366820Y-62304502D01*
X77486518Y-62340812D01*
X77611000Y-62353072D01*
X78200250Y-62350000D01*
X78359000Y-62191250D01*
X78359000Y-61217000D01*
X78613000Y-61217000D01*
X78613000Y-62191250D01*
X78771750Y-62350000D01*
X79361000Y-62353072D01*
X79485482Y-62340812D01*
X79605180Y-62304502D01*
X79715494Y-62245537D01*
X79812185Y-62166185D01*
X79891537Y-62069494D01*
X79950502Y-61959180D01*
X79986812Y-61839482D01*
X79999072Y-61715000D01*
X79996000Y-61375750D01*
X79837250Y-61217000D01*
X78613000Y-61217000D01*
X78359000Y-61217000D01*
X77134750Y-61217000D01*
X76976000Y-61375750D01*
X76972928Y-61715000D01*
X74674447Y-61715000D01*
X74672000Y-61245750D01*
X74513250Y-61087000D01*
X73539000Y-61087000D01*
X73285000Y-61087000D01*
X72310750Y-61087000D01*
X72152000Y-61245750D01*
X72148928Y-61835000D01*
X71834727Y-61835000D01*
X71858008Y-61758254D01*
X71875072Y-61585000D01*
X71875072Y-60335000D01*
X71858008Y-60161746D01*
X71807472Y-59995150D01*
X71725405Y-59841614D01*
X71614962Y-59707038D01*
X71591201Y-59687538D01*
X71608962Y-59672962D01*
X71719405Y-59538386D01*
X71801472Y-59384850D01*
X71852008Y-59218254D01*
X71869072Y-59045000D01*
X71869072Y-57795000D01*
X72142928Y-57795000D01*
X72142928Y-59045000D01*
X72159992Y-59218254D01*
X72210528Y-59384850D01*
X72292595Y-59538386D01*
X72356787Y-59616604D01*
X72335815Y-59633815D01*
X72256463Y-59730506D01*
X72197498Y-59840820D01*
X72161188Y-59960518D01*
X72148928Y-60085000D01*
X72152000Y-60674250D01*
X72310750Y-60833000D01*
X73285000Y-60833000D01*
X73285000Y-60813000D01*
X73539000Y-60813000D01*
X73539000Y-60833000D01*
X74513250Y-60833000D01*
X74672000Y-60674250D01*
X74673090Y-60465000D01*
X76972928Y-60465000D01*
X76976000Y-60804250D01*
X77134750Y-60963000D01*
X78359000Y-60963000D01*
X78359000Y-59988750D01*
X78613000Y-59988750D01*
X78613000Y-60963000D01*
X79837250Y-60963000D01*
X79996000Y-60804250D01*
X79999072Y-60465000D01*
X79986812Y-60340518D01*
X79950502Y-60220820D01*
X79891537Y-60110506D01*
X79812185Y-60013815D01*
X79715494Y-59934463D01*
X79605180Y-59875498D01*
X79485482Y-59839188D01*
X79361000Y-59826928D01*
X78771750Y-59830000D01*
X78613000Y-59988750D01*
X78359000Y-59988750D01*
X78200250Y-59830000D01*
X77611000Y-59826928D01*
X77486518Y-59839188D01*
X77366820Y-59875498D01*
X77256506Y-59934463D01*
X77159815Y-60013815D01*
X77080463Y-60110506D01*
X77021498Y-60220820D01*
X76985188Y-60340518D01*
X76972928Y-60465000D01*
X74673090Y-60465000D01*
X74675072Y-60085000D01*
X74662812Y-59960518D01*
X74626502Y-59840820D01*
X74567537Y-59730506D01*
X74488185Y-59633815D01*
X74460043Y-59610719D01*
X74519405Y-59538386D01*
X74601472Y-59384850D01*
X74625694Y-59305000D01*
X77247706Y-59305000D01*
X77367614Y-59403405D01*
X77521150Y-59485472D01*
X77687746Y-59536008D01*
X77861000Y-59553072D01*
X79111000Y-59553072D01*
X79284254Y-59536008D01*
X79450850Y-59485472D01*
X79604386Y-59403405D01*
X79738962Y-59292962D01*
X79849405Y-59158386D01*
X79931472Y-59004850D01*
X79982008Y-58838254D01*
X79999072Y-58665000D01*
X79999072Y-57915000D01*
X79982008Y-57741746D01*
X79931472Y-57575150D01*
X79849405Y-57421614D01*
X79738962Y-57287038D01*
X79726731Y-57277000D01*
X79738962Y-57266962D01*
X79849405Y-57132386D01*
X79931472Y-56978850D01*
X79958727Y-56889000D01*
X82052928Y-56889000D01*
X82065188Y-57013482D01*
X82101498Y-57133180D01*
X82160463Y-57243494D01*
X82239815Y-57340185D01*
X82336506Y-57419537D01*
X82446820Y-57478502D01*
X82566518Y-57514812D01*
X82691000Y-57527072D01*
X83280250Y-57524000D01*
X83439000Y-57365250D01*
X83439000Y-56391000D01*
X83693000Y-56391000D01*
X83693000Y-57365250D01*
X83851750Y-57524000D01*
X84441000Y-57527072D01*
X84565482Y-57514812D01*
X84685180Y-57478502D01*
X84795494Y-57419537D01*
X84892185Y-57340185D01*
X84971537Y-57243494D01*
X85030502Y-57133180D01*
X85066812Y-57013482D01*
X85079072Y-56889000D01*
X85076000Y-56549750D01*
X84917250Y-56391000D01*
X83693000Y-56391000D01*
X83439000Y-56391000D01*
X82214750Y-56391000D01*
X82056000Y-56549750D01*
X82052928Y-56889000D01*
X79958727Y-56889000D01*
X79982008Y-56812254D01*
X79999072Y-56639000D01*
X79999072Y-55889000D01*
X79982008Y-55715746D01*
X79958728Y-55639000D01*
X82052928Y-55639000D01*
X82056000Y-55978250D01*
X82214750Y-56137000D01*
X83439000Y-56137000D01*
X83439000Y-55162750D01*
X83693000Y-55162750D01*
X83693000Y-56137000D01*
X84917250Y-56137000D01*
X85076000Y-55978250D01*
X85079072Y-55639000D01*
X85066812Y-55514518D01*
X85030502Y-55394820D01*
X84971537Y-55284506D01*
X84892185Y-55187815D01*
X84795494Y-55108463D01*
X84685180Y-55049498D01*
X84565482Y-55013188D01*
X84441000Y-55000928D01*
X83851750Y-55004000D01*
X83693000Y-55162750D01*
X83439000Y-55162750D01*
X83280250Y-55004000D01*
X82691000Y-55000928D01*
X82566518Y-55013188D01*
X82446820Y-55049498D01*
X82336506Y-55108463D01*
X82239815Y-55187815D01*
X82160463Y-55284506D01*
X82101498Y-55394820D01*
X82065188Y-55514518D01*
X82052928Y-55639000D01*
X79958728Y-55639000D01*
X79931472Y-55549150D01*
X79849405Y-55395614D01*
X79738962Y-55261038D01*
X79604386Y-55150595D01*
X79450850Y-55068528D01*
X79284254Y-55017992D01*
X79111000Y-55000928D01*
X77861000Y-55000928D01*
X77687746Y-55017992D01*
X77521150Y-55068528D01*
X77367614Y-55150595D01*
X77233038Y-55261038D01*
X77122595Y-55395614D01*
X77040528Y-55549150D01*
X76989992Y-55715746D01*
X76972928Y-55889000D01*
X76972928Y-56639000D01*
X76989992Y-56812254D01*
X77040528Y-56978850D01*
X77122595Y-57132386D01*
X77233038Y-57266962D01*
X77245269Y-57277000D01*
X77233038Y-57287038D01*
X77122595Y-57421614D01*
X77061989Y-57535000D01*
X74625694Y-57535000D01*
X74601472Y-57455150D01*
X74519405Y-57301614D01*
X74408962Y-57167038D01*
X74274386Y-57056595D01*
X74120850Y-56974528D01*
X73954254Y-56923992D01*
X73781000Y-56906928D01*
X73031000Y-56906928D01*
X72857746Y-56923992D01*
X72691150Y-56974528D01*
X72537614Y-57056595D01*
X72403038Y-57167038D01*
X72292595Y-57301614D01*
X72210528Y-57455150D01*
X72159992Y-57621746D01*
X72142928Y-57795000D01*
X71869072Y-57795000D01*
X71852008Y-57621746D01*
X71801472Y-57455150D01*
X71719405Y-57301614D01*
X71608962Y-57167038D01*
X71491000Y-57070230D01*
X71491000Y-56765000D01*
X71925477Y-56765000D01*
X72055490Y-56752195D01*
X72222313Y-56701589D01*
X72376059Y-56619411D01*
X72510817Y-56508817D01*
X72621411Y-56374059D01*
X72703589Y-56220313D01*
X72754195Y-56053490D01*
X72771282Y-55880000D01*
X72758774Y-55753000D01*
X72767000Y-55669477D01*
X72767000Y-52847259D01*
X72934497Y-52679762D01*
X73082785Y-52457833D01*
X73184928Y-52211239D01*
X73237000Y-51949456D01*
X73237000Y-51682544D01*
X73184928Y-51420761D01*
X73082785Y-51174167D01*
X72934497Y-50952238D01*
X72745762Y-50763503D01*
X72523833Y-50615215D01*
X72356734Y-50546000D01*
X72523833Y-50476785D01*
X72745762Y-50328497D01*
X72934497Y-50139762D01*
X73082785Y-49917833D01*
X73184928Y-49671239D01*
X73237000Y-49409456D01*
X73237000Y-49142544D01*
X73184928Y-48880761D01*
X73082785Y-48634167D01*
X72934497Y-48412238D01*
X72863258Y-48340999D01*
X75018999Y-48340999D01*
X75019000Y-50778520D01*
X75014718Y-50821999D01*
X75031804Y-50995489D01*
X75082411Y-51162312D01*
X75164589Y-51316058D01*
X75247467Y-51417045D01*
X75247470Y-51417048D01*
X75275183Y-51450816D01*
X75308951Y-51478529D01*
X75621466Y-51791044D01*
X75649183Y-51824817D01*
X75783941Y-51935411D01*
X75937687Y-52017589D01*
X76104510Y-52068195D01*
X76234523Y-52081000D01*
X76234533Y-52081000D01*
X76277999Y-52085281D01*
X76321465Y-52081000D01*
X76525397Y-52081000D01*
X76533820Y-52085502D01*
X76653518Y-52121812D01*
X76778000Y-52134072D01*
X77328000Y-52134072D01*
X77452482Y-52121812D01*
X77572180Y-52085502D01*
X77682494Y-52026537D01*
X77779185Y-51947185D01*
X77858537Y-51850494D01*
X77917502Y-51740180D01*
X77953812Y-51620482D01*
X77966072Y-51496000D01*
X77966072Y-50896000D01*
X77953946Y-50772878D01*
X77989928Y-50769334D01*
X77989928Y-50846000D01*
X78002188Y-50970482D01*
X78038498Y-51090180D01*
X78097463Y-51200494D01*
X78176815Y-51297185D01*
X78273506Y-51376537D01*
X78383820Y-51435502D01*
X78503518Y-51471812D01*
X78628000Y-51484072D01*
X79178000Y-51484072D01*
X79218320Y-51480101D01*
X78497494Y-52200928D01*
X77861000Y-52200928D01*
X77687746Y-52217992D01*
X77521150Y-52268528D01*
X77367614Y-52350595D01*
X77233038Y-52461038D01*
X77122595Y-52595614D01*
X77040528Y-52749150D01*
X76989992Y-52915746D01*
X76972928Y-53089000D01*
X76972928Y-53839000D01*
X76989992Y-54012254D01*
X77040528Y-54178850D01*
X77122595Y-54332386D01*
X77233038Y-54466962D01*
X77367614Y-54577405D01*
X77521150Y-54659472D01*
X77687746Y-54710008D01*
X77861000Y-54727072D01*
X79111000Y-54727072D01*
X79284254Y-54710008D01*
X79450850Y-54659472D01*
X79604386Y-54577405D01*
X79738962Y-54466962D01*
X79849405Y-54332386D01*
X79931472Y-54178850D01*
X79982008Y-54012254D01*
X79999072Y-53839000D01*
X79999072Y-53202506D01*
X80845579Y-52356000D01*
X81565393Y-52356000D01*
X81617518Y-52371812D01*
X81742000Y-52384072D01*
X82342000Y-52384072D01*
X82415662Y-52376817D01*
X82313038Y-52461038D01*
X82202595Y-52595614D01*
X82120528Y-52749150D01*
X82069992Y-52915746D01*
X82052928Y-53089000D01*
X82052928Y-53839000D01*
X82069992Y-54012254D01*
X82120528Y-54178850D01*
X82202595Y-54332386D01*
X82313038Y-54466962D01*
X82447614Y-54577405D01*
X82601150Y-54659472D01*
X82767746Y-54710008D01*
X82941000Y-54727072D01*
X84191000Y-54727072D01*
X84364254Y-54710008D01*
X84530850Y-54659472D01*
X84684386Y-54577405D01*
X84818962Y-54466962D01*
X84929405Y-54332386D01*
X85011472Y-54178850D01*
X85062008Y-54012254D01*
X85079072Y-53839000D01*
X85079072Y-53089000D01*
X85062008Y-52915746D01*
X85011472Y-52749150D01*
X84929405Y-52595614D01*
X84818962Y-52461038D01*
X84684386Y-52350595D01*
X84530850Y-52268528D01*
X84451000Y-52244306D01*
X84451000Y-50538469D01*
X84455281Y-50495000D01*
X84451000Y-50451531D01*
X84451000Y-50451523D01*
X84438195Y-50321510D01*
X84413528Y-50240195D01*
X84387589Y-50154686D01*
X84305411Y-50000941D01*
X84222532Y-49899953D01*
X84222530Y-49899951D01*
X84194817Y-49866183D01*
X84161050Y-49838471D01*
X83625865Y-49303287D01*
X83617812Y-49221518D01*
X83581502Y-49101820D01*
X83522537Y-48991506D01*
X83443185Y-48894815D01*
X83346494Y-48815463D01*
X83236180Y-48756498D01*
X83116482Y-48720188D01*
X82992000Y-48707928D01*
X82392000Y-48707928D01*
X82277000Y-48719254D01*
X82277000Y-47586177D01*
X82351472Y-47446850D01*
X82402008Y-47280254D01*
X82419072Y-47107000D01*
X82419072Y-45857000D01*
X82402008Y-45683746D01*
X82351472Y-45517150D01*
X82269405Y-45363614D01*
X82245922Y-45335000D01*
X83014523Y-45335000D01*
X83058000Y-45339282D01*
X83101476Y-45335000D01*
X83101477Y-45335000D01*
X83231490Y-45322195D01*
X83398313Y-45271589D01*
X83552059Y-45189411D01*
X83686817Y-45078817D01*
X83797411Y-44944059D01*
X83879589Y-44790313D01*
X83930195Y-44623490D01*
X83947282Y-44450000D01*
X83943000Y-44406523D01*
X83943000Y-43811000D01*
X84284531Y-43811000D01*
X84328000Y-43815281D01*
X84371469Y-43811000D01*
X84371477Y-43811000D01*
X84501490Y-43798195D01*
X84668313Y-43747589D01*
X84822059Y-43665411D01*
X84956817Y-43554817D01*
X84984534Y-43521044D01*
X86542400Y-41963179D01*
X86529000Y-42030544D01*
X86529000Y-42297456D01*
X86581072Y-42559239D01*
X86683215Y-42805833D01*
X86831503Y-43027762D01*
X87020238Y-43216497D01*
X87242167Y-43364785D01*
X87488761Y-43466928D01*
X87750544Y-43519000D01*
X88017456Y-43519000D01*
X88279239Y-43466928D01*
X88525833Y-43364785D01*
X88747762Y-43216497D01*
X88936497Y-43027762D01*
X89084785Y-42805833D01*
X89186928Y-42559239D01*
X89239000Y-42297456D01*
X89239000Y-42030544D01*
X89186928Y-41768761D01*
X89084785Y-41522167D01*
X88936497Y-41300238D01*
X88769000Y-41132741D01*
X88769000Y-40937477D01*
X88773282Y-40894000D01*
X88756195Y-40720510D01*
X88743673Y-40679230D01*
X88747762Y-40676497D01*
X88936497Y-40487762D01*
X89084785Y-40265833D01*
X89186928Y-40019239D01*
X89239000Y-39757456D01*
X89239000Y-39490544D01*
X89186928Y-39228761D01*
X89084785Y-38982167D01*
X88936497Y-38760238D01*
X88747762Y-38571503D01*
X88525833Y-38423215D01*
X88358734Y-38354000D01*
X88525833Y-38284785D01*
X88747762Y-38136497D01*
X88915259Y-37969000D01*
X97492531Y-37969000D01*
X97536000Y-37973281D01*
X97579469Y-37969000D01*
X97579477Y-37969000D01*
X97709490Y-37956195D01*
X97876313Y-37905589D01*
X98030059Y-37823411D01*
X98164817Y-37712817D01*
X98192534Y-37679044D01*
X99655050Y-36216529D01*
X99688817Y-36188817D01*
X99799411Y-36054059D01*
X99881589Y-35900313D01*
X99932195Y-35733490D01*
X99945000Y-35603477D01*
X99945000Y-35603467D01*
X99949281Y-35560001D01*
X99945000Y-35516535D01*
X99945000Y-34468095D01*
X100178628Y-34421623D01*
X100876554Y-34132533D01*
X101504670Y-33712839D01*
X102038839Y-33178670D01*
X102458533Y-32550554D01*
X102747623Y-31852628D01*
X102895000Y-31111715D01*
X102895000Y-30356285D01*
X102747623Y-29615372D01*
X102458533Y-28917446D01*
X102038839Y-28289330D01*
X101504670Y-27755161D01*
X100876554Y-27335467D01*
X100178628Y-27046377D01*
X99437715Y-26899000D01*
X98682285Y-26899000D01*
X97941372Y-27046377D01*
X97243446Y-27335467D01*
X96615330Y-27755161D01*
X96081161Y-28289330D01*
X95661467Y-28917446D01*
X95372377Y-29615372D01*
X95225000Y-30356285D01*
X95225000Y-31111715D01*
X95372377Y-31852628D01*
X95661467Y-32550554D01*
X96081161Y-33178670D01*
X96615330Y-33712839D01*
X97243446Y-34132533D01*
X97941372Y-34421623D01*
X98175000Y-34468095D01*
X98175000Y-35193421D01*
X97169422Y-36199000D01*
X88915259Y-36199000D01*
X88747762Y-36031503D01*
X88525833Y-35883215D01*
X88279239Y-35781072D01*
X88017456Y-35729000D01*
X87780578Y-35729000D01*
X87710032Y-35658454D01*
X87682317Y-35624683D01*
X87547559Y-35514089D01*
X87393813Y-35431911D01*
X87226990Y-35381305D01*
X87096977Y-35368500D01*
X87096969Y-35368500D01*
X87053500Y-35364219D01*
X87010031Y-35368500D01*
X83160072Y-35368500D01*
X83160072Y-35140999D01*
X83143008Y-34967745D01*
X83092472Y-34801149D01*
X83010405Y-34647613D01*
X82899962Y-34513038D01*
X82765387Y-34402595D01*
X82611851Y-34320528D01*
X82445255Y-34269992D01*
X82272001Y-34252928D01*
X79271999Y-34252928D01*
X79098745Y-34269992D01*
X78932149Y-34320528D01*
X78778613Y-34402595D01*
X78644038Y-34513038D01*
X78533595Y-34647613D01*
X78451528Y-34801149D01*
X78400992Y-34967745D01*
X78383928Y-35140999D01*
X78383928Y-37366001D01*
X78400992Y-37539255D01*
X78451528Y-37705851D01*
X78533595Y-37859387D01*
X78644038Y-37993962D01*
X78778613Y-38104405D01*
X78932149Y-38186472D01*
X79098745Y-38237008D01*
X79271999Y-38254072D01*
X82272001Y-38254072D01*
X82445255Y-38237008D01*
X82611851Y-38186472D01*
X82765387Y-38104405D01*
X82899962Y-37993962D01*
X83010405Y-37859387D01*
X83092472Y-37705851D01*
X83143008Y-37539255D01*
X83160072Y-37366001D01*
X83160072Y-37138500D01*
X86529000Y-37138500D01*
X86529000Y-37217456D01*
X86581072Y-37479239D01*
X86683215Y-37725833D01*
X86831503Y-37947762D01*
X87020238Y-38136497D01*
X87242167Y-38284785D01*
X87409266Y-38354000D01*
X87242167Y-38423215D01*
X87020238Y-38571503D01*
X86852741Y-38739000D01*
X86149469Y-38739000D01*
X86106000Y-38734719D01*
X86062531Y-38739000D01*
X86062523Y-38739000D01*
X85932510Y-38751805D01*
X85765687Y-38802411D01*
X85696466Y-38839410D01*
X85611941Y-38884589D01*
X85510953Y-38967468D01*
X85510951Y-38967470D01*
X85477183Y-38995183D01*
X85449470Y-39028951D01*
X83384922Y-41093500D01*
X83160072Y-41093500D01*
X83160072Y-40865999D01*
X83143008Y-40692745D01*
X83092472Y-40526149D01*
X83010405Y-40372613D01*
X82899962Y-40238038D01*
X82765387Y-40127595D01*
X82611851Y-40045528D01*
X82445255Y-39994992D01*
X82272001Y-39977928D01*
X79271999Y-39977928D01*
X79098745Y-39994992D01*
X78932149Y-40045528D01*
X78778613Y-40127595D01*
X78644038Y-40238038D01*
X78533595Y-40372613D01*
X78451528Y-40526149D01*
X78400992Y-40692745D01*
X78383928Y-40865999D01*
X78383928Y-43091001D01*
X78400992Y-43264255D01*
X78451528Y-43430851D01*
X78462576Y-43451520D01*
X78318313Y-43374411D01*
X78151490Y-43323805D01*
X78021477Y-43311000D01*
X78021469Y-43311000D01*
X77978000Y-43306719D01*
X77934531Y-43311000D01*
X76524828Y-43311000D01*
X76539008Y-43264255D01*
X76556072Y-43091001D01*
X76556072Y-40865999D01*
X76539008Y-40692745D01*
X76488472Y-40526149D01*
X76406405Y-40372613D01*
X76295962Y-40238038D01*
X76161387Y-40127595D01*
X76007851Y-40045528D01*
X75841255Y-39994992D01*
X75668001Y-39977928D01*
X72667999Y-39977928D01*
X72494745Y-39994992D01*
X72328149Y-40045528D01*
X72174613Y-40127595D01*
X72040038Y-40238038D01*
X71929595Y-40372613D01*
X71847528Y-40526149D01*
X71796992Y-40692745D01*
X71779928Y-40865999D01*
X71779928Y-43091001D01*
X71796992Y-43264255D01*
X71847528Y-43430851D01*
X71929595Y-43584387D01*
X72040038Y-43718962D01*
X72174613Y-43829405D01*
X72328149Y-43911472D01*
X72494745Y-43962008D01*
X72667999Y-43979072D01*
X73550460Y-43979072D01*
X73572956Y-43997534D01*
X74366470Y-44791049D01*
X74394183Y-44824817D01*
X74427951Y-44852530D01*
X74427953Y-44852532D01*
X74528941Y-44935411D01*
X74682686Y-45017589D01*
X74849062Y-45068059D01*
X74849510Y-45068195D01*
X74979523Y-45081000D01*
X74979531Y-45081000D01*
X75023000Y-45085281D01*
X75066469Y-45081000D01*
X77471001Y-45081000D01*
X77471001Y-45132229D01*
X77353038Y-45229038D01*
X77242595Y-45363614D01*
X77160528Y-45517150D01*
X77109992Y-45683746D01*
X77092928Y-45857000D01*
X77092928Y-47107000D01*
X77109992Y-47280254D01*
X77160528Y-47446850D01*
X77242595Y-47600386D01*
X77353038Y-47734962D01*
X77471001Y-47831771D01*
X77471000Y-48975805D01*
X77452482Y-48970188D01*
X77328000Y-48957928D01*
X76788999Y-48957928D01*
X76788999Y-47499476D01*
X76793281Y-47455999D01*
X76776194Y-47282509D01*
X76725588Y-47115686D01*
X76643410Y-46961940D01*
X76532816Y-46827182D01*
X76398058Y-46716588D01*
X76244312Y-46634410D01*
X76077489Y-46583804D01*
X75947476Y-46570999D01*
X75947475Y-46570999D01*
X75903999Y-46566717D01*
X75860522Y-46570999D01*
X73230725Y-46570999D01*
X73184928Y-46340761D01*
X73082785Y-46094167D01*
X72934497Y-45872238D01*
X72745762Y-45683503D01*
X72523833Y-45535215D01*
X72277239Y-45433072D01*
X72015456Y-45381000D01*
X71748544Y-45381000D01*
X71486761Y-45433072D01*
X71240167Y-45535215D01*
X71018238Y-45683503D01*
X70829503Y-45872238D01*
X70681215Y-46094167D01*
X70579072Y-46340761D01*
X70527000Y-46602544D01*
X70527000Y-46869456D01*
X70579072Y-47131239D01*
X70681215Y-47377833D01*
X70829503Y-47599762D01*
X71018238Y-47788497D01*
X71240167Y-47936785D01*
X71407266Y-48006000D01*
X71240167Y-48075215D01*
X71018238Y-48223503D01*
X70850741Y-48391000D01*
X58265060Y-48391000D01*
X58265060Y-48025092D01*
X58173403Y-47564304D01*
X57993613Y-47130251D01*
X57732597Y-46739613D01*
X57400387Y-46407403D01*
X57009749Y-46146387D01*
X56575696Y-45966597D01*
X56114908Y-45874940D01*
X55645092Y-45874940D01*
X55184304Y-45966597D01*
X54750251Y-46146387D01*
X54359613Y-46407403D01*
X54027403Y-46739613D01*
X53766387Y-47130251D01*
X53586597Y-47564304D01*
X53494940Y-48025092D01*
X50660000Y-48025092D01*
X50660000Y-42945092D01*
X53494940Y-42945092D01*
X53494940Y-43414908D01*
X53586597Y-43875696D01*
X53766387Y-44309749D01*
X54027403Y-44700387D01*
X54359613Y-45032597D01*
X54750251Y-45293613D01*
X55184304Y-45473403D01*
X55645092Y-45565060D01*
X56114908Y-45565060D01*
X56575696Y-45473403D01*
X57009749Y-45293613D01*
X57400387Y-45032597D01*
X57732597Y-44700387D01*
X57993613Y-44309749D01*
X58173403Y-43875696D01*
X58265060Y-43414908D01*
X58265060Y-42945092D01*
X58173403Y-42484304D01*
X57993613Y-42050251D01*
X57732597Y-41659613D01*
X57400387Y-41327403D01*
X57009749Y-41066387D01*
X56575696Y-40886597D01*
X56114908Y-40794940D01*
X55645092Y-40794940D01*
X55184304Y-40886597D01*
X54750251Y-41066387D01*
X54359613Y-41327403D01*
X54027403Y-41659613D01*
X53766387Y-42050251D01*
X53586597Y-42484304D01*
X53494940Y-42945092D01*
X50660000Y-42945092D01*
X50660000Y-37865092D01*
X53494940Y-37865092D01*
X53494940Y-38334908D01*
X53586597Y-38795696D01*
X53766387Y-39229749D01*
X54027403Y-39620387D01*
X54359613Y-39952597D01*
X54750251Y-40213613D01*
X55184304Y-40393403D01*
X55645092Y-40485060D01*
X56114908Y-40485060D01*
X56575696Y-40393403D01*
X57009749Y-40213613D01*
X57400387Y-39952597D01*
X57732597Y-39620387D01*
X57993613Y-39229749D01*
X58173403Y-38795696D01*
X58265060Y-38334908D01*
X58265060Y-37865092D01*
X58173403Y-37404304D01*
X58072025Y-37159554D01*
X58786579Y-36445000D01*
X71357922Y-36445000D01*
X71761466Y-36848544D01*
X71779928Y-36871040D01*
X71779928Y-37366001D01*
X71796992Y-37539255D01*
X71847528Y-37705851D01*
X71929595Y-37859387D01*
X72040038Y-37993962D01*
X72174613Y-38104405D01*
X72328149Y-38186472D01*
X72494745Y-38237008D01*
X72667999Y-38254072D01*
X75668001Y-38254072D01*
X75841255Y-38237008D01*
X76007851Y-38186472D01*
X76161387Y-38104405D01*
X76295962Y-37993962D01*
X76406405Y-37859387D01*
X76488472Y-37705851D01*
X76539008Y-37539255D01*
X76556072Y-37366001D01*
X76556072Y-35140999D01*
X76539008Y-34967745D01*
X76488472Y-34801149D01*
X76406405Y-34647613D01*
X76295962Y-34513038D01*
X76161387Y-34402595D01*
X76007851Y-34320528D01*
X75841255Y-34269992D01*
X75668001Y-34252928D01*
X72667999Y-34252928D01*
X72494745Y-34269992D01*
X72328149Y-34320528D01*
X72174613Y-34402595D01*
X72040038Y-34513038D01*
X71929595Y-34647613D01*
X71915482Y-34674016D01*
X71882000Y-34670718D01*
X71838524Y-34675000D01*
X58463465Y-34675000D01*
X58419999Y-34670719D01*
X58376533Y-34675000D01*
X58376523Y-34675000D01*
X58246510Y-34687805D01*
X58079687Y-34738411D01*
X57925941Y-34820589D01*
X57925939Y-34820590D01*
X57925940Y-34820590D01*
X57824953Y-34903468D01*
X57824951Y-34903470D01*
X57791183Y-34931183D01*
X57763470Y-34964951D01*
X56820446Y-35907975D01*
X56575696Y-35806597D01*
X56114908Y-35714940D01*
X55645092Y-35714940D01*
X55184304Y-35806597D01*
X54750251Y-35986387D01*
X54359613Y-36247403D01*
X54027403Y-36579613D01*
X53766387Y-36970251D01*
X53586597Y-37404304D01*
X53494940Y-37865092D01*
X50660000Y-37865092D01*
X50660000Y-30356285D01*
X52045000Y-30356285D01*
X52045000Y-31111715D01*
X52192377Y-31852628D01*
X52481467Y-32550554D01*
X52901161Y-33178670D01*
X53435330Y-33712839D01*
X54063446Y-34132533D01*
X54761372Y-34421623D01*
X55502285Y-34569000D01*
X56257715Y-34569000D01*
X56998628Y-34421623D01*
X57696554Y-34132533D01*
X58324670Y-33712839D01*
X58858839Y-33178670D01*
X59278533Y-32550554D01*
X59567623Y-31852628D01*
X59715000Y-31111715D01*
X59715000Y-30356285D01*
X59567623Y-29615372D01*
X59278533Y-28917446D01*
X58858839Y-28289330D01*
X58324670Y-27755161D01*
X57696554Y-27335467D01*
X56998628Y-27046377D01*
X56257715Y-26899000D01*
X55502285Y-26899000D01*
X54761372Y-27046377D01*
X54063446Y-27335467D01*
X53435330Y-27755161D01*
X52901161Y-28289330D01*
X52481467Y-28917446D01*
X52192377Y-29615372D01*
X52045000Y-30356285D01*
X50660000Y-30356285D01*
X50660000Y-29921392D01*
X50731173Y-29123917D01*
X50934656Y-28380109D01*
X51266638Y-27684095D01*
X51716626Y-27057870D01*
X52270403Y-26521223D01*
X52910451Y-26091129D01*
X53616553Y-25781171D01*
X54371457Y-25599935D01*
X55024207Y-25552000D01*
X99970608Y-25552000D01*
X100768083Y-25623173D01*
M02*
