G04 #@! TF.GenerationSoftware,KiCad,Pcbnew,(5.1.5)-3*
G04 #@! TF.CreationDate,2022-05-11T11:14:05-04:00*
G04 #@! TF.ProjectId,FuzzFace,46757a7a-4661-4636-952e-6b696361645f,rev?*
G04 #@! TF.SameCoordinates,Original*
G04 #@! TF.FileFunction,Legend,Top*
G04 #@! TF.FilePolarity,Positive*
%FSLAX46Y46*%
G04 Gerber Fmt 4.6, Leading zero omitted, Abs format (unit mm)*
G04 Created by KiCad (PCBNEW (5.1.5)-3) date 2022-05-11 11:14:05*
%MOMM*%
%LPD*%
G04 APERTURE LIST*
%ADD10C,0.350000*%
%ADD11C,0.500000*%
%ADD12C,0.150000*%
%ADD13C,0.010000*%
%ADD14C,0.120000*%
%ADD15C,0.100000*%
G04 APERTURE END LIST*
D10*
X66851428Y-67270142D02*
X66184761Y-67270142D01*
X66184761Y-68317761D02*
X66184761Y-66317761D01*
X67137142Y-66317761D01*
X67899047Y-66317761D02*
X67899047Y-67936809D01*
X67994285Y-68127285D01*
X68089523Y-68222523D01*
X68280000Y-68317761D01*
X68660952Y-68317761D01*
X68851428Y-68222523D01*
X68946666Y-68127285D01*
X69041904Y-67936809D01*
X69041904Y-66317761D01*
X69803809Y-66317761D02*
X71137142Y-66317761D01*
X69803809Y-68317761D01*
X71137142Y-68317761D01*
X71708571Y-66317761D02*
X73041904Y-66317761D01*
X71708571Y-68317761D01*
X73041904Y-68317761D01*
X77518095Y-67270142D02*
X76851428Y-67270142D01*
X76851428Y-68317761D02*
X76851428Y-66317761D01*
X77803809Y-66317761D01*
X78470476Y-67746333D02*
X79422857Y-67746333D01*
X78280000Y-68317761D02*
X78946666Y-66317761D01*
X79613333Y-68317761D01*
X81422857Y-68127285D02*
X81327619Y-68222523D01*
X81041904Y-68317761D01*
X80851428Y-68317761D01*
X80565714Y-68222523D01*
X80375238Y-68032047D01*
X80280000Y-67841571D01*
X80184761Y-67460619D01*
X80184761Y-67174904D01*
X80280000Y-66793952D01*
X80375238Y-66603476D01*
X80565714Y-66413000D01*
X80851428Y-66317761D01*
X81041904Y-66317761D01*
X81327619Y-66413000D01*
X81422857Y-66508238D01*
X82280000Y-67270142D02*
X82946666Y-67270142D01*
X83232380Y-68317761D02*
X82280000Y-68317761D01*
X82280000Y-66317761D01*
X83232380Y-66317761D01*
X86184761Y-69079666D02*
X86089523Y-68984428D01*
X85899047Y-68698714D01*
X85803809Y-68508238D01*
X85708571Y-68222523D01*
X85613333Y-67746333D01*
X85613333Y-67365380D01*
X85708571Y-66889190D01*
X85803809Y-66603476D01*
X85899047Y-66413000D01*
X86089523Y-66127285D01*
X86184761Y-66032047D01*
X88089523Y-68317761D02*
X87422857Y-67365380D01*
X86946666Y-68317761D02*
X86946666Y-66317761D01*
X87708571Y-66317761D01*
X87899047Y-66413000D01*
X87994285Y-66508238D01*
X88089523Y-66698714D01*
X88089523Y-66984428D01*
X87994285Y-67174904D01*
X87899047Y-67270142D01*
X87708571Y-67365380D01*
X86946666Y-67365380D01*
X88946666Y-67270142D02*
X89613333Y-67270142D01*
X89899047Y-68317761D02*
X88946666Y-68317761D01*
X88946666Y-66317761D01*
X89899047Y-66317761D01*
X90470476Y-66317761D02*
X91137142Y-68317761D01*
X91803809Y-66317761D01*
X93994285Y-68317761D02*
X93994285Y-66317761D01*
X94470476Y-66317761D01*
X94756190Y-66413000D01*
X94946666Y-66603476D01*
X95041904Y-66793952D01*
X95137142Y-67174904D01*
X95137142Y-67460619D01*
X95041904Y-67841571D01*
X94946666Y-68032047D01*
X94756190Y-68222523D01*
X94470476Y-68317761D01*
X93994285Y-68317761D01*
X95803809Y-69079666D02*
X95899047Y-68984428D01*
X96089523Y-68698714D01*
X96184761Y-68508238D01*
X96280000Y-68222523D01*
X96375238Y-67746333D01*
X96375238Y-67365380D01*
X96280000Y-66889190D01*
X96184761Y-66603476D01*
X96089523Y-66413000D01*
X95899047Y-66127285D01*
X95803809Y-66032047D01*
X75375238Y-69667761D02*
X75565714Y-69667761D01*
X75756190Y-69763000D01*
X75851428Y-69858238D01*
X75946666Y-70048714D01*
X76041904Y-70429666D01*
X76041904Y-70905857D01*
X75946666Y-71286809D01*
X75851428Y-71477285D01*
X75756190Y-71572523D01*
X75565714Y-71667761D01*
X75375238Y-71667761D01*
X75184761Y-71572523D01*
X75089523Y-71477285D01*
X74994285Y-71286809D01*
X74899047Y-70905857D01*
X74899047Y-70429666D01*
X74994285Y-70048714D01*
X75089523Y-69858238D01*
X75184761Y-69763000D01*
X75375238Y-69667761D01*
X77851428Y-69667761D02*
X76899047Y-69667761D01*
X76803809Y-70620142D01*
X76899047Y-70524904D01*
X77089523Y-70429666D01*
X77565714Y-70429666D01*
X77756190Y-70524904D01*
X77851428Y-70620142D01*
X77946666Y-70810619D01*
X77946666Y-71286809D01*
X77851428Y-71477285D01*
X77756190Y-71572523D01*
X77565714Y-71667761D01*
X77089523Y-71667761D01*
X76899047Y-71572523D01*
X76803809Y-71477285D01*
X80232380Y-69572523D02*
X78518095Y-72143952D01*
X80803809Y-69858238D02*
X80899047Y-69763000D01*
X81089523Y-69667761D01*
X81565714Y-69667761D01*
X81756190Y-69763000D01*
X81851428Y-69858238D01*
X81946666Y-70048714D01*
X81946666Y-70239190D01*
X81851428Y-70524904D01*
X80708571Y-71667761D01*
X81946666Y-71667761D01*
X83184761Y-69667761D02*
X83375238Y-69667761D01*
X83565714Y-69763000D01*
X83660952Y-69858238D01*
X83756190Y-70048714D01*
X83851428Y-70429666D01*
X83851428Y-70905857D01*
X83756190Y-71286809D01*
X83660952Y-71477285D01*
X83565714Y-71572523D01*
X83375238Y-71667761D01*
X83184761Y-71667761D01*
X82994285Y-71572523D01*
X82899047Y-71477285D01*
X82803809Y-71286809D01*
X82708571Y-70905857D01*
X82708571Y-70429666D01*
X82803809Y-70048714D01*
X82899047Y-69858238D01*
X82994285Y-69763000D01*
X83184761Y-69667761D01*
X84613333Y-69858238D02*
X84708571Y-69763000D01*
X84899047Y-69667761D01*
X85375238Y-69667761D01*
X85565714Y-69763000D01*
X85660952Y-69858238D01*
X85756190Y-70048714D01*
X85756190Y-70239190D01*
X85660952Y-70524904D01*
X84518095Y-71667761D01*
X85756190Y-71667761D01*
X86518095Y-69858238D02*
X86613333Y-69763000D01*
X86803809Y-69667761D01*
X87280000Y-69667761D01*
X87470476Y-69763000D01*
X87565714Y-69858238D01*
X87660952Y-70048714D01*
X87660952Y-70239190D01*
X87565714Y-70524904D01*
X86422857Y-71667761D01*
X87660952Y-71667761D01*
D11*
X63600952Y-31610952D02*
X62767619Y-30420476D01*
X62172380Y-31610952D02*
X62172380Y-29110952D01*
X63124761Y-29110952D01*
X63362857Y-29230000D01*
X63481904Y-29349047D01*
X63600952Y-29587142D01*
X63600952Y-29944285D01*
X63481904Y-30182380D01*
X63362857Y-30301428D01*
X63124761Y-30420476D01*
X62172380Y-30420476D01*
X65624761Y-31491904D02*
X65386666Y-31610952D01*
X64910476Y-31610952D01*
X64672380Y-31491904D01*
X64553333Y-31253809D01*
X64553333Y-30301428D01*
X64672380Y-30063333D01*
X64910476Y-29944285D01*
X65386666Y-29944285D01*
X65624761Y-30063333D01*
X65743809Y-30301428D01*
X65743809Y-30539523D01*
X64553333Y-30777619D01*
X67172380Y-31610952D02*
X66934285Y-31491904D01*
X66815238Y-31253809D01*
X66815238Y-29110952D01*
X69077142Y-31491904D02*
X68839047Y-31610952D01*
X68362857Y-31610952D01*
X68124761Y-31491904D01*
X68005714Y-31253809D01*
X68005714Y-30301428D01*
X68124761Y-30063333D01*
X68362857Y-29944285D01*
X68839047Y-29944285D01*
X69077142Y-30063333D01*
X69196190Y-30301428D01*
X69196190Y-30539523D01*
X68005714Y-30777619D01*
X70267619Y-29944285D02*
X70267619Y-31610952D01*
X70267619Y-30182380D02*
X70386666Y-30063333D01*
X70624761Y-29944285D01*
X70981904Y-29944285D01*
X71220000Y-30063333D01*
X71339047Y-30301428D01*
X71339047Y-31610952D01*
X72172380Y-29944285D02*
X73124761Y-29944285D01*
X72529523Y-29110952D02*
X72529523Y-31253809D01*
X72648571Y-31491904D01*
X72886666Y-31610952D01*
X73124761Y-31610952D01*
X74315238Y-31610952D02*
X74077142Y-31491904D01*
X73958095Y-31253809D01*
X73958095Y-29110952D01*
X76220000Y-31491904D02*
X75981904Y-31610952D01*
X75505714Y-31610952D01*
X75267619Y-31491904D01*
X75148571Y-31253809D01*
X75148571Y-30301428D01*
X75267619Y-30063333D01*
X75505714Y-29944285D01*
X75981904Y-29944285D01*
X76220000Y-30063333D01*
X76339047Y-30301428D01*
X76339047Y-30539523D01*
X75148571Y-30777619D01*
X77291428Y-31491904D02*
X77529523Y-31610952D01*
X78005714Y-31610952D01*
X78243809Y-31491904D01*
X78362857Y-31253809D01*
X78362857Y-31134761D01*
X78243809Y-30896666D01*
X78005714Y-30777619D01*
X77648571Y-30777619D01*
X77410476Y-30658571D01*
X77291428Y-30420476D01*
X77291428Y-30301428D01*
X77410476Y-30063333D01*
X77648571Y-29944285D01*
X78005714Y-29944285D01*
X78243809Y-30063333D01*
X79315238Y-31491904D02*
X79553333Y-31610952D01*
X80029523Y-31610952D01*
X80267619Y-31491904D01*
X80386666Y-31253809D01*
X80386666Y-31134761D01*
X80267619Y-30896666D01*
X80029523Y-30777619D01*
X79672380Y-30777619D01*
X79434285Y-30658571D01*
X79315238Y-30420476D01*
X79315238Y-30301428D01*
X79434285Y-30063333D01*
X79672380Y-29944285D01*
X80029523Y-29944285D01*
X80267619Y-30063333D01*
X83005714Y-29110952D02*
X84434285Y-29110952D01*
X83720000Y-31610952D02*
X83720000Y-29110952D01*
X85624761Y-31610952D02*
X85386666Y-31491904D01*
X85267619Y-31372857D01*
X85148571Y-31134761D01*
X85148571Y-30420476D01*
X85267619Y-30182380D01*
X85386666Y-30063333D01*
X85624761Y-29944285D01*
X85981904Y-29944285D01*
X86220000Y-30063333D01*
X86339047Y-30182380D01*
X86458095Y-30420476D01*
X86458095Y-31134761D01*
X86339047Y-31372857D01*
X86220000Y-31491904D01*
X85981904Y-31610952D01*
X85624761Y-31610952D01*
X87529523Y-29944285D02*
X87529523Y-31610952D01*
X87529523Y-30182380D02*
X87648571Y-30063333D01*
X87886666Y-29944285D01*
X88243809Y-29944285D01*
X88481904Y-30063333D01*
X88600952Y-30301428D01*
X88600952Y-31610952D01*
X90743809Y-31491904D02*
X90505714Y-31610952D01*
X90029523Y-31610952D01*
X89791428Y-31491904D01*
X89672380Y-31253809D01*
X89672380Y-30301428D01*
X89791428Y-30063333D01*
X90029523Y-29944285D01*
X90505714Y-29944285D01*
X90743809Y-30063333D01*
X90862857Y-30301428D01*
X90862857Y-30539523D01*
X89672380Y-30777619D01*
X91815238Y-31491904D02*
X92053333Y-31610952D01*
X92529523Y-31610952D01*
X92767619Y-31491904D01*
X92886666Y-31253809D01*
X92886666Y-31134761D01*
X92767619Y-30896666D01*
X92529523Y-30777619D01*
X92172380Y-30777619D01*
X91934285Y-30658571D01*
X91815238Y-30420476D01*
X91815238Y-30301428D01*
X91934285Y-30063333D01*
X92172380Y-29944285D01*
X92529523Y-29944285D01*
X92767619Y-30063333D01*
D12*
X59721904Y-74112380D02*
X59912380Y-74112380D01*
X60007619Y-74064761D01*
X60055238Y-74017142D01*
X60150476Y-73874285D01*
X60198095Y-73683809D01*
X60198095Y-73302857D01*
X60150476Y-73207619D01*
X60102857Y-73160000D01*
X60007619Y-73112380D01*
X59817142Y-73112380D01*
X59721904Y-73160000D01*
X59674285Y-73207619D01*
X59626666Y-73302857D01*
X59626666Y-73540952D01*
X59674285Y-73636190D01*
X59721904Y-73683809D01*
X59817142Y-73731428D01*
X60007619Y-73731428D01*
X60102857Y-73683809D01*
X60150476Y-73636190D01*
X60198095Y-73540952D01*
X60483809Y-73112380D02*
X60817142Y-74112380D01*
X61150476Y-73112380D01*
X61483809Y-73731428D02*
X62245714Y-73731428D01*
X59721904Y-69032380D02*
X59912380Y-69032380D01*
X60007619Y-68984761D01*
X60055238Y-68937142D01*
X60150476Y-68794285D01*
X60198095Y-68603809D01*
X60198095Y-68222857D01*
X60150476Y-68127619D01*
X60102857Y-68080000D01*
X60007619Y-68032380D01*
X59817142Y-68032380D01*
X59721904Y-68080000D01*
X59674285Y-68127619D01*
X59626666Y-68222857D01*
X59626666Y-68460952D01*
X59674285Y-68556190D01*
X59721904Y-68603809D01*
X59817142Y-68651428D01*
X60007619Y-68651428D01*
X60102857Y-68603809D01*
X60150476Y-68556190D01*
X60198095Y-68460952D01*
X60483809Y-68032380D02*
X60817142Y-69032380D01*
X61150476Y-68032380D01*
X61483809Y-68651428D02*
X62245714Y-68651428D01*
X61864761Y-69032380D02*
X61864761Y-68270476D01*
X59698095Y-63952380D02*
X59221904Y-63952380D01*
X59221904Y-62952380D01*
X60031428Y-63428571D02*
X60364761Y-63428571D01*
X60507619Y-63952380D02*
X60031428Y-63952380D01*
X60031428Y-62952380D01*
X60507619Y-62952380D01*
X60936190Y-63952380D02*
X60936190Y-62952380D01*
X61174285Y-62952380D01*
X61317142Y-63000000D01*
X61412380Y-63095238D01*
X61460000Y-63190476D01*
X61507619Y-63380952D01*
X61507619Y-63523809D01*
X61460000Y-63714285D01*
X61412380Y-63809523D01*
X61317142Y-63904761D01*
X61174285Y-63952380D01*
X60936190Y-63952380D01*
X61936190Y-63571428D02*
X62698095Y-63571428D01*
X59698095Y-58872380D02*
X59221904Y-58872380D01*
X59221904Y-57872380D01*
X60031428Y-58348571D02*
X60364761Y-58348571D01*
X60507619Y-58872380D02*
X60031428Y-58872380D01*
X60031428Y-57872380D01*
X60507619Y-57872380D01*
X60936190Y-58872380D02*
X60936190Y-57872380D01*
X61174285Y-57872380D01*
X61317142Y-57920000D01*
X61412380Y-58015238D01*
X61460000Y-58110476D01*
X61507619Y-58300952D01*
X61507619Y-58443809D01*
X61460000Y-58634285D01*
X61412380Y-58729523D01*
X61317142Y-58824761D01*
X61174285Y-58872380D01*
X60936190Y-58872380D01*
X61936190Y-58491428D02*
X62698095Y-58491428D01*
X62317142Y-58872380D02*
X62317142Y-58110476D01*
X59340952Y-52792380D02*
X59531428Y-52792380D01*
X59626666Y-52840000D01*
X59721904Y-52935238D01*
X59769523Y-53125714D01*
X59769523Y-53459047D01*
X59721904Y-53649523D01*
X59626666Y-53744761D01*
X59531428Y-53792380D01*
X59340952Y-53792380D01*
X59245714Y-53744761D01*
X59150476Y-53649523D01*
X59102857Y-53459047D01*
X59102857Y-53125714D01*
X59150476Y-52935238D01*
X59245714Y-52840000D01*
X59340952Y-52792380D01*
X60198095Y-52792380D02*
X60198095Y-53601904D01*
X60245714Y-53697142D01*
X60293333Y-53744761D01*
X60388571Y-53792380D01*
X60579047Y-53792380D01*
X60674285Y-53744761D01*
X60721904Y-53697142D01*
X60769523Y-53601904D01*
X60769523Y-52792380D01*
X61102857Y-52792380D02*
X61674285Y-52792380D01*
X61388571Y-53792380D02*
X61388571Y-52792380D01*
X62007619Y-53411428D02*
X62769523Y-53411428D01*
X59340952Y-47712380D02*
X59531428Y-47712380D01*
X59626666Y-47760000D01*
X59721904Y-47855238D01*
X59769523Y-48045714D01*
X59769523Y-48379047D01*
X59721904Y-48569523D01*
X59626666Y-48664761D01*
X59531428Y-48712380D01*
X59340952Y-48712380D01*
X59245714Y-48664761D01*
X59150476Y-48569523D01*
X59102857Y-48379047D01*
X59102857Y-48045714D01*
X59150476Y-47855238D01*
X59245714Y-47760000D01*
X59340952Y-47712380D01*
X60198095Y-47712380D02*
X60198095Y-48521904D01*
X60245714Y-48617142D01*
X60293333Y-48664761D01*
X60388571Y-48712380D01*
X60579047Y-48712380D01*
X60674285Y-48664761D01*
X60721904Y-48617142D01*
X60769523Y-48521904D01*
X60769523Y-47712380D01*
X61102857Y-47712380D02*
X61674285Y-47712380D01*
X61388571Y-48712380D02*
X61388571Y-47712380D01*
X62007619Y-48331428D02*
X62769523Y-48331428D01*
X62388571Y-48712380D02*
X62388571Y-47950476D01*
X59817142Y-43632380D02*
X59817142Y-42632380D01*
X60293333Y-43632380D02*
X60293333Y-42632380D01*
X60864761Y-43632380D01*
X60864761Y-42632380D01*
X61340952Y-43251428D02*
X62102857Y-43251428D01*
X59817142Y-38552380D02*
X59817142Y-37552380D01*
X60293333Y-38552380D02*
X60293333Y-37552380D01*
X60864761Y-38552380D01*
X60864761Y-37552380D01*
X61340952Y-38171428D02*
X62102857Y-38171428D01*
X61721904Y-38552380D02*
X61721904Y-37790476D01*
D13*
G36*
X94119878Y-47849776D02*
G01*
X94225612Y-47850355D01*
X94302132Y-47851922D01*
X94354372Y-47854972D01*
X94387263Y-47859996D01*
X94405737Y-47867489D01*
X94414727Y-47877944D01*
X94419163Y-47891853D01*
X94419594Y-47893654D01*
X94426333Y-47926145D01*
X94438808Y-47990252D01*
X94455719Y-48079151D01*
X94475771Y-48186019D01*
X94497664Y-48304033D01*
X94498429Y-48308178D01*
X94520359Y-48423831D01*
X94540877Y-48526014D01*
X94558659Y-48608598D01*
X94572381Y-48665456D01*
X94580718Y-48690458D01*
X94581116Y-48690901D01*
X94605677Y-48703110D01*
X94656315Y-48723456D01*
X94722095Y-48747545D01*
X94722461Y-48747674D01*
X94805317Y-48778818D01*
X94903000Y-48818491D01*
X94995077Y-48858381D01*
X94999434Y-48860353D01*
X95149407Y-48928420D01*
X95481498Y-48701639D01*
X95583374Y-48632504D01*
X95675657Y-48570697D01*
X95753003Y-48519733D01*
X95810064Y-48483127D01*
X95841495Y-48464394D01*
X95844479Y-48463004D01*
X95867321Y-48469190D01*
X95909982Y-48499035D01*
X95974128Y-48553947D01*
X96061421Y-48635334D01*
X96150535Y-48721922D01*
X96236441Y-48807247D01*
X96313327Y-48885108D01*
X96376564Y-48950697D01*
X96421523Y-48999205D01*
X96443576Y-49025825D01*
X96444396Y-49027195D01*
X96446834Y-49045463D01*
X96437650Y-49075295D01*
X96414574Y-49120721D01*
X96375337Y-49185770D01*
X96317670Y-49274470D01*
X96240795Y-49388657D01*
X96172570Y-49489162D01*
X96111582Y-49579303D01*
X96061356Y-49653849D01*
X96025416Y-49707565D01*
X96007287Y-49735218D01*
X96006146Y-49737095D01*
X96008359Y-49763590D01*
X96025138Y-49815086D01*
X96053142Y-49881851D01*
X96063122Y-49903172D01*
X96106672Y-49998159D01*
X96153134Y-50105937D01*
X96190877Y-50199192D01*
X96218073Y-50268406D01*
X96239675Y-50321006D01*
X96252158Y-50348497D01*
X96253709Y-50350616D01*
X96276668Y-50354124D01*
X96330786Y-50363738D01*
X96408868Y-50378089D01*
X96503719Y-50395807D01*
X96608143Y-50415525D01*
X96714944Y-50435874D01*
X96816926Y-50455486D01*
X96906894Y-50472991D01*
X96977653Y-50487022D01*
X97022006Y-50496209D01*
X97032885Y-50498807D01*
X97044122Y-50505218D01*
X97052605Y-50519697D01*
X97058714Y-50547133D01*
X97062832Y-50592411D01*
X97065341Y-50660420D01*
X97066621Y-50756047D01*
X97067054Y-50884180D01*
X97067077Y-50936701D01*
X97067077Y-51363845D01*
X96964500Y-51384091D01*
X96907431Y-51395070D01*
X96822269Y-51411095D01*
X96719372Y-51430233D01*
X96609096Y-51450551D01*
X96578615Y-51456132D01*
X96476855Y-51475917D01*
X96388205Y-51495373D01*
X96320108Y-51512697D01*
X96280004Y-51526088D01*
X96273323Y-51530079D01*
X96256919Y-51558342D01*
X96233399Y-51613109D01*
X96207316Y-51683588D01*
X96202142Y-51698769D01*
X96167956Y-51792896D01*
X96125523Y-51899101D01*
X96083997Y-51994473D01*
X96083792Y-51994916D01*
X96014640Y-52144525D01*
X96469512Y-52813617D01*
X96177500Y-53106116D01*
X96089180Y-53193170D01*
X96008625Y-53269909D01*
X95940360Y-53332237D01*
X95888908Y-53376056D01*
X95858794Y-53397270D01*
X95854474Y-53398616D01*
X95829111Y-53388016D01*
X95777358Y-53358547D01*
X95704868Y-53313705D01*
X95617294Y-53256984D01*
X95522612Y-53193462D01*
X95426516Y-53128668D01*
X95340837Y-53072287D01*
X95271016Y-53027788D01*
X95222494Y-52998639D01*
X95200782Y-52988308D01*
X95174293Y-52997050D01*
X95124062Y-53020087D01*
X95060451Y-53052631D01*
X95053708Y-53056249D01*
X94968046Y-53099210D01*
X94909306Y-53120279D01*
X94872772Y-53120503D01*
X94853731Y-53100928D01*
X94853620Y-53100654D01*
X94844102Y-53077472D01*
X94821403Y-53022441D01*
X94787282Y-52939822D01*
X94743500Y-52833872D01*
X94691816Y-52708852D01*
X94633992Y-52569020D01*
X94577991Y-52433637D01*
X94516447Y-52284234D01*
X94459939Y-52145832D01*
X94410161Y-52022673D01*
X94368806Y-51919002D01*
X94337568Y-51839059D01*
X94318141Y-51787088D01*
X94312154Y-51767692D01*
X94327168Y-51745443D01*
X94366439Y-51709982D01*
X94418807Y-51670887D01*
X94567941Y-51547245D01*
X94684511Y-51405522D01*
X94767118Y-51248704D01*
X94814366Y-51079775D01*
X94824857Y-50901722D01*
X94817231Y-50819539D01*
X94775682Y-50649031D01*
X94704123Y-50498459D01*
X94606995Y-50369309D01*
X94488734Y-50263064D01*
X94353780Y-50181210D01*
X94206571Y-50125232D01*
X94051544Y-50096615D01*
X93893139Y-50096844D01*
X93735794Y-50127405D01*
X93583946Y-50189782D01*
X93442035Y-50285460D01*
X93382803Y-50339572D01*
X93269203Y-50478520D01*
X93190106Y-50630361D01*
X93144986Y-50790667D01*
X93133316Y-50955012D01*
X93154569Y-51118971D01*
X93208220Y-51278118D01*
X93293740Y-51428025D01*
X93410605Y-51564267D01*
X93541193Y-51670887D01*
X93595588Y-51711642D01*
X93634014Y-51746718D01*
X93647846Y-51767726D01*
X93640603Y-51790635D01*
X93620005Y-51845365D01*
X93587746Y-51927672D01*
X93545521Y-52033315D01*
X93495023Y-52158050D01*
X93437948Y-52297636D01*
X93381854Y-52433670D01*
X93319967Y-52583201D01*
X93262644Y-52721767D01*
X93211644Y-52845107D01*
X93168727Y-52948964D01*
X93135653Y-53029080D01*
X93114181Y-53081195D01*
X93106225Y-53100654D01*
X93087429Y-53120423D01*
X93051074Y-53120365D01*
X92992479Y-53099441D01*
X92906968Y-53056613D01*
X92906292Y-53056249D01*
X92841907Y-53023012D01*
X92789861Y-52998802D01*
X92760512Y-52988404D01*
X92759217Y-52988308D01*
X92737124Y-52998855D01*
X92688348Y-53028184D01*
X92618331Y-53072827D01*
X92532514Y-53129314D01*
X92437388Y-53193462D01*
X92340540Y-53258411D01*
X92253253Y-53314896D01*
X92181181Y-53359421D01*
X92129977Y-53388490D01*
X92105526Y-53398616D01*
X92083010Y-53385307D01*
X92037742Y-53348112D01*
X91974244Y-53291128D01*
X91897039Y-53218449D01*
X91810651Y-53134171D01*
X91782399Y-53106016D01*
X91490287Y-52813416D01*
X91712631Y-52487104D01*
X91780202Y-52386897D01*
X91839507Y-52296963D01*
X91887217Y-52222510D01*
X91920007Y-52168751D01*
X91934548Y-52140894D01*
X91934974Y-52138912D01*
X91927308Y-52112655D01*
X91906689Y-52059837D01*
X91876685Y-51989310D01*
X91855625Y-51942093D01*
X91816248Y-51851694D01*
X91779165Y-51760366D01*
X91750415Y-51683200D01*
X91742605Y-51659692D01*
X91720417Y-51596916D01*
X91698727Y-51548411D01*
X91686813Y-51530079D01*
X91660523Y-51518859D01*
X91603142Y-51502954D01*
X91522118Y-51484167D01*
X91424895Y-51464299D01*
X91381385Y-51456132D01*
X91270896Y-51435829D01*
X91164916Y-51416170D01*
X91073801Y-51399088D01*
X91007908Y-51386518D01*
X90995500Y-51384091D01*
X90892923Y-51363845D01*
X90892923Y-50936701D01*
X90893153Y-50796246D01*
X90894099Y-50689979D01*
X90896141Y-50613013D01*
X90899662Y-50560460D01*
X90905043Y-50527433D01*
X90912666Y-50509045D01*
X90922912Y-50500408D01*
X90927115Y-50498807D01*
X90952470Y-50493127D01*
X91008484Y-50481795D01*
X91087964Y-50466179D01*
X91183712Y-50447647D01*
X91288533Y-50427569D01*
X91395232Y-50407312D01*
X91496613Y-50388246D01*
X91585479Y-50371739D01*
X91654637Y-50359159D01*
X91696889Y-50351875D01*
X91706290Y-50350616D01*
X91714807Y-50333763D01*
X91733660Y-50288870D01*
X91759324Y-50224430D01*
X91769123Y-50199192D01*
X91808648Y-50101686D01*
X91855192Y-49993959D01*
X91896877Y-49903172D01*
X91927550Y-49833753D01*
X91947956Y-49776710D01*
X91954768Y-49741777D01*
X91953682Y-49737095D01*
X91939285Y-49714991D01*
X91906412Y-49665831D01*
X91858590Y-49594848D01*
X91799348Y-49507278D01*
X91732215Y-49408357D01*
X91718941Y-49388830D01*
X91641046Y-49273140D01*
X91583787Y-49185044D01*
X91544881Y-49120486D01*
X91522044Y-49075411D01*
X91512994Y-49045763D01*
X91515448Y-49027485D01*
X91515511Y-49027369D01*
X91534827Y-49003361D01*
X91577551Y-48956947D01*
X91639051Y-48892937D01*
X91714698Y-48816145D01*
X91799861Y-48731382D01*
X91809465Y-48721922D01*
X91916790Y-48617989D01*
X91999615Y-48541675D01*
X92059605Y-48491571D01*
X92098423Y-48466270D01*
X92115520Y-48463004D01*
X92140473Y-48477250D01*
X92192255Y-48510156D01*
X92265520Y-48558208D01*
X92354920Y-48617890D01*
X92455111Y-48685688D01*
X92478501Y-48701639D01*
X92810593Y-48928420D01*
X92960565Y-48860353D01*
X93051770Y-48820685D01*
X93149669Y-48780791D01*
X93233831Y-48748983D01*
X93237538Y-48747674D01*
X93303369Y-48723576D01*
X93354116Y-48703200D01*
X93378842Y-48690936D01*
X93378884Y-48690901D01*
X93386729Y-48668734D01*
X93400066Y-48614217D01*
X93417570Y-48533480D01*
X93437917Y-48432650D01*
X93459782Y-48317856D01*
X93461571Y-48308178D01*
X93483504Y-48189904D01*
X93503640Y-48082542D01*
X93520680Y-47992917D01*
X93533328Y-47927851D01*
X93540284Y-47894168D01*
X93540406Y-47893654D01*
X93544639Y-47879325D01*
X93552871Y-47868507D01*
X93570033Y-47860706D01*
X93601058Y-47855429D01*
X93650878Y-47852182D01*
X93724424Y-47850472D01*
X93826629Y-47849807D01*
X93962425Y-47849693D01*
X93980000Y-47849692D01*
X94119878Y-47849776D01*
G37*
X94119878Y-47849776D02*
X94225612Y-47850355D01*
X94302132Y-47851922D01*
X94354372Y-47854972D01*
X94387263Y-47859996D01*
X94405737Y-47867489D01*
X94414727Y-47877944D01*
X94419163Y-47891853D01*
X94419594Y-47893654D01*
X94426333Y-47926145D01*
X94438808Y-47990252D01*
X94455719Y-48079151D01*
X94475771Y-48186019D01*
X94497664Y-48304033D01*
X94498429Y-48308178D01*
X94520359Y-48423831D01*
X94540877Y-48526014D01*
X94558659Y-48608598D01*
X94572381Y-48665456D01*
X94580718Y-48690458D01*
X94581116Y-48690901D01*
X94605677Y-48703110D01*
X94656315Y-48723456D01*
X94722095Y-48747545D01*
X94722461Y-48747674D01*
X94805317Y-48778818D01*
X94903000Y-48818491D01*
X94995077Y-48858381D01*
X94999434Y-48860353D01*
X95149407Y-48928420D01*
X95481498Y-48701639D01*
X95583374Y-48632504D01*
X95675657Y-48570697D01*
X95753003Y-48519733D01*
X95810064Y-48483127D01*
X95841495Y-48464394D01*
X95844479Y-48463004D01*
X95867321Y-48469190D01*
X95909982Y-48499035D01*
X95974128Y-48553947D01*
X96061421Y-48635334D01*
X96150535Y-48721922D01*
X96236441Y-48807247D01*
X96313327Y-48885108D01*
X96376564Y-48950697D01*
X96421523Y-48999205D01*
X96443576Y-49025825D01*
X96444396Y-49027195D01*
X96446834Y-49045463D01*
X96437650Y-49075295D01*
X96414574Y-49120721D01*
X96375337Y-49185770D01*
X96317670Y-49274470D01*
X96240795Y-49388657D01*
X96172570Y-49489162D01*
X96111582Y-49579303D01*
X96061356Y-49653849D01*
X96025416Y-49707565D01*
X96007287Y-49735218D01*
X96006146Y-49737095D01*
X96008359Y-49763590D01*
X96025138Y-49815086D01*
X96053142Y-49881851D01*
X96063122Y-49903172D01*
X96106672Y-49998159D01*
X96153134Y-50105937D01*
X96190877Y-50199192D01*
X96218073Y-50268406D01*
X96239675Y-50321006D01*
X96252158Y-50348497D01*
X96253709Y-50350616D01*
X96276668Y-50354124D01*
X96330786Y-50363738D01*
X96408868Y-50378089D01*
X96503719Y-50395807D01*
X96608143Y-50415525D01*
X96714944Y-50435874D01*
X96816926Y-50455486D01*
X96906894Y-50472991D01*
X96977653Y-50487022D01*
X97022006Y-50496209D01*
X97032885Y-50498807D01*
X97044122Y-50505218D01*
X97052605Y-50519697D01*
X97058714Y-50547133D01*
X97062832Y-50592411D01*
X97065341Y-50660420D01*
X97066621Y-50756047D01*
X97067054Y-50884180D01*
X97067077Y-50936701D01*
X97067077Y-51363845D01*
X96964500Y-51384091D01*
X96907431Y-51395070D01*
X96822269Y-51411095D01*
X96719372Y-51430233D01*
X96609096Y-51450551D01*
X96578615Y-51456132D01*
X96476855Y-51475917D01*
X96388205Y-51495373D01*
X96320108Y-51512697D01*
X96280004Y-51526088D01*
X96273323Y-51530079D01*
X96256919Y-51558342D01*
X96233399Y-51613109D01*
X96207316Y-51683588D01*
X96202142Y-51698769D01*
X96167956Y-51792896D01*
X96125523Y-51899101D01*
X96083997Y-51994473D01*
X96083792Y-51994916D01*
X96014640Y-52144525D01*
X96469512Y-52813617D01*
X96177500Y-53106116D01*
X96089180Y-53193170D01*
X96008625Y-53269909D01*
X95940360Y-53332237D01*
X95888908Y-53376056D01*
X95858794Y-53397270D01*
X95854474Y-53398616D01*
X95829111Y-53388016D01*
X95777358Y-53358547D01*
X95704868Y-53313705D01*
X95617294Y-53256984D01*
X95522612Y-53193462D01*
X95426516Y-53128668D01*
X95340837Y-53072287D01*
X95271016Y-53027788D01*
X95222494Y-52998639D01*
X95200782Y-52988308D01*
X95174293Y-52997050D01*
X95124062Y-53020087D01*
X95060451Y-53052631D01*
X95053708Y-53056249D01*
X94968046Y-53099210D01*
X94909306Y-53120279D01*
X94872772Y-53120503D01*
X94853731Y-53100928D01*
X94853620Y-53100654D01*
X94844102Y-53077472D01*
X94821403Y-53022441D01*
X94787282Y-52939822D01*
X94743500Y-52833872D01*
X94691816Y-52708852D01*
X94633992Y-52569020D01*
X94577991Y-52433637D01*
X94516447Y-52284234D01*
X94459939Y-52145832D01*
X94410161Y-52022673D01*
X94368806Y-51919002D01*
X94337568Y-51839059D01*
X94318141Y-51787088D01*
X94312154Y-51767692D01*
X94327168Y-51745443D01*
X94366439Y-51709982D01*
X94418807Y-51670887D01*
X94567941Y-51547245D01*
X94684511Y-51405522D01*
X94767118Y-51248704D01*
X94814366Y-51079775D01*
X94824857Y-50901722D01*
X94817231Y-50819539D01*
X94775682Y-50649031D01*
X94704123Y-50498459D01*
X94606995Y-50369309D01*
X94488734Y-50263064D01*
X94353780Y-50181210D01*
X94206571Y-50125232D01*
X94051544Y-50096615D01*
X93893139Y-50096844D01*
X93735794Y-50127405D01*
X93583946Y-50189782D01*
X93442035Y-50285460D01*
X93382803Y-50339572D01*
X93269203Y-50478520D01*
X93190106Y-50630361D01*
X93144986Y-50790667D01*
X93133316Y-50955012D01*
X93154569Y-51118971D01*
X93208220Y-51278118D01*
X93293740Y-51428025D01*
X93410605Y-51564267D01*
X93541193Y-51670887D01*
X93595588Y-51711642D01*
X93634014Y-51746718D01*
X93647846Y-51767726D01*
X93640603Y-51790635D01*
X93620005Y-51845365D01*
X93587746Y-51927672D01*
X93545521Y-52033315D01*
X93495023Y-52158050D01*
X93437948Y-52297636D01*
X93381854Y-52433670D01*
X93319967Y-52583201D01*
X93262644Y-52721767D01*
X93211644Y-52845107D01*
X93168727Y-52948964D01*
X93135653Y-53029080D01*
X93114181Y-53081195D01*
X93106225Y-53100654D01*
X93087429Y-53120423D01*
X93051074Y-53120365D01*
X92992479Y-53099441D01*
X92906968Y-53056613D01*
X92906292Y-53056249D01*
X92841907Y-53023012D01*
X92789861Y-52998802D01*
X92760512Y-52988404D01*
X92759217Y-52988308D01*
X92737124Y-52998855D01*
X92688348Y-53028184D01*
X92618331Y-53072827D01*
X92532514Y-53129314D01*
X92437388Y-53193462D01*
X92340540Y-53258411D01*
X92253253Y-53314896D01*
X92181181Y-53359421D01*
X92129977Y-53388490D01*
X92105526Y-53398616D01*
X92083010Y-53385307D01*
X92037742Y-53348112D01*
X91974244Y-53291128D01*
X91897039Y-53218449D01*
X91810651Y-53134171D01*
X91782399Y-53106016D01*
X91490287Y-52813416D01*
X91712631Y-52487104D01*
X91780202Y-52386897D01*
X91839507Y-52296963D01*
X91887217Y-52222510D01*
X91920007Y-52168751D01*
X91934548Y-52140894D01*
X91934974Y-52138912D01*
X91927308Y-52112655D01*
X91906689Y-52059837D01*
X91876685Y-51989310D01*
X91855625Y-51942093D01*
X91816248Y-51851694D01*
X91779165Y-51760366D01*
X91750415Y-51683200D01*
X91742605Y-51659692D01*
X91720417Y-51596916D01*
X91698727Y-51548411D01*
X91686813Y-51530079D01*
X91660523Y-51518859D01*
X91603142Y-51502954D01*
X91522118Y-51484167D01*
X91424895Y-51464299D01*
X91381385Y-51456132D01*
X91270896Y-51435829D01*
X91164916Y-51416170D01*
X91073801Y-51399088D01*
X91007908Y-51386518D01*
X90995500Y-51384091D01*
X90892923Y-51363845D01*
X90892923Y-50936701D01*
X90893153Y-50796246D01*
X90894099Y-50689979D01*
X90896141Y-50613013D01*
X90899662Y-50560460D01*
X90905043Y-50527433D01*
X90912666Y-50509045D01*
X90922912Y-50500408D01*
X90927115Y-50498807D01*
X90952470Y-50493127D01*
X91008484Y-50481795D01*
X91087964Y-50466179D01*
X91183712Y-50447647D01*
X91288533Y-50427569D01*
X91395232Y-50407312D01*
X91496613Y-50388246D01*
X91585479Y-50371739D01*
X91654637Y-50359159D01*
X91696889Y-50351875D01*
X91706290Y-50350616D01*
X91714807Y-50333763D01*
X91733660Y-50288870D01*
X91759324Y-50224430D01*
X91769123Y-50199192D01*
X91808648Y-50101686D01*
X91855192Y-49993959D01*
X91896877Y-49903172D01*
X91927550Y-49833753D01*
X91947956Y-49776710D01*
X91954768Y-49741777D01*
X91953682Y-49737095D01*
X91939285Y-49714991D01*
X91906412Y-49665831D01*
X91858590Y-49594848D01*
X91799348Y-49507278D01*
X91732215Y-49408357D01*
X91718941Y-49388830D01*
X91641046Y-49273140D01*
X91583787Y-49185044D01*
X91544881Y-49120486D01*
X91522044Y-49075411D01*
X91512994Y-49045763D01*
X91515448Y-49027485D01*
X91515511Y-49027369D01*
X91534827Y-49003361D01*
X91577551Y-48956947D01*
X91639051Y-48892937D01*
X91714698Y-48816145D01*
X91799861Y-48731382D01*
X91809465Y-48721922D01*
X91916790Y-48617989D01*
X91999615Y-48541675D01*
X92059605Y-48491571D01*
X92098423Y-48466270D01*
X92115520Y-48463004D01*
X92140473Y-48477250D01*
X92192255Y-48510156D01*
X92265520Y-48558208D01*
X92354920Y-48617890D01*
X92455111Y-48685688D01*
X92478501Y-48701639D01*
X92810593Y-48928420D01*
X92960565Y-48860353D01*
X93051770Y-48820685D01*
X93149669Y-48780791D01*
X93233831Y-48748983D01*
X93237538Y-48747674D01*
X93303369Y-48723576D01*
X93354116Y-48703200D01*
X93378842Y-48690936D01*
X93378884Y-48690901D01*
X93386729Y-48668734D01*
X93400066Y-48614217D01*
X93417570Y-48533480D01*
X93437917Y-48432650D01*
X93459782Y-48317856D01*
X93461571Y-48308178D01*
X93483504Y-48189904D01*
X93503640Y-48082542D01*
X93520680Y-47992917D01*
X93533328Y-47927851D01*
X93540284Y-47894168D01*
X93540406Y-47893654D01*
X93544639Y-47879325D01*
X93552871Y-47868507D01*
X93570033Y-47860706D01*
X93601058Y-47855429D01*
X93650878Y-47852182D01*
X93724424Y-47850472D01*
X93826629Y-47849807D01*
X93962425Y-47849693D01*
X93980000Y-47849692D01*
X94119878Y-47849776D01*
G36*
X98225224Y-54209838D02*
G01*
X98302528Y-54260361D01*
X98339814Y-54305590D01*
X98369353Y-54387663D01*
X98371699Y-54452607D01*
X98366385Y-54539445D01*
X98166115Y-54627103D01*
X98068739Y-54671887D01*
X98005113Y-54707913D01*
X97972029Y-54739117D01*
X97966280Y-54769436D01*
X97984658Y-54802805D01*
X98004923Y-54824923D01*
X98063889Y-54860393D01*
X98128024Y-54862879D01*
X98186926Y-54835235D01*
X98230197Y-54780320D01*
X98237936Y-54760928D01*
X98275006Y-54700364D01*
X98317654Y-54674552D01*
X98376154Y-54652471D01*
X98376154Y-54736184D01*
X98370982Y-54793150D01*
X98350723Y-54841189D01*
X98308262Y-54896346D01*
X98301951Y-54903514D01*
X98254720Y-54952585D01*
X98214121Y-54978920D01*
X98163328Y-54991035D01*
X98121220Y-54995003D01*
X98045902Y-54995991D01*
X97992286Y-54983466D01*
X97958838Y-54964869D01*
X97906268Y-54923975D01*
X97869879Y-54879748D01*
X97846850Y-54824126D01*
X97834359Y-54749047D01*
X97829587Y-54646449D01*
X97829206Y-54594376D01*
X97830501Y-54531948D01*
X97948471Y-54531948D01*
X97949839Y-54565438D01*
X97953249Y-54570923D01*
X97975753Y-54563472D01*
X98024182Y-54543753D01*
X98088908Y-54515718D01*
X98102443Y-54509692D01*
X98184244Y-54468096D01*
X98229312Y-54431538D01*
X98239217Y-54397296D01*
X98215526Y-54362648D01*
X98195960Y-54347339D01*
X98125360Y-54316721D01*
X98059280Y-54321780D01*
X98003959Y-54359151D01*
X97965636Y-54425473D01*
X97953349Y-54478116D01*
X97948471Y-54531948D01*
X97830501Y-54531948D01*
X97831730Y-54472720D01*
X97841032Y-54382710D01*
X97859460Y-54317167D01*
X97889360Y-54268912D01*
X97933080Y-54230767D01*
X97952141Y-54218440D01*
X98038726Y-54186336D01*
X98133522Y-54184316D01*
X98225224Y-54209838D01*
G37*
X98225224Y-54209838D02*
X98302528Y-54260361D01*
X98339814Y-54305590D01*
X98369353Y-54387663D01*
X98371699Y-54452607D01*
X98366385Y-54539445D01*
X98166115Y-54627103D01*
X98068739Y-54671887D01*
X98005113Y-54707913D01*
X97972029Y-54739117D01*
X97966280Y-54769436D01*
X97984658Y-54802805D01*
X98004923Y-54824923D01*
X98063889Y-54860393D01*
X98128024Y-54862879D01*
X98186926Y-54835235D01*
X98230197Y-54780320D01*
X98237936Y-54760928D01*
X98275006Y-54700364D01*
X98317654Y-54674552D01*
X98376154Y-54652471D01*
X98376154Y-54736184D01*
X98370982Y-54793150D01*
X98350723Y-54841189D01*
X98308262Y-54896346D01*
X98301951Y-54903514D01*
X98254720Y-54952585D01*
X98214121Y-54978920D01*
X98163328Y-54991035D01*
X98121220Y-54995003D01*
X98045902Y-54995991D01*
X97992286Y-54983466D01*
X97958838Y-54964869D01*
X97906268Y-54923975D01*
X97869879Y-54879748D01*
X97846850Y-54824126D01*
X97834359Y-54749047D01*
X97829587Y-54646449D01*
X97829206Y-54594376D01*
X97830501Y-54531948D01*
X97948471Y-54531948D01*
X97949839Y-54565438D01*
X97953249Y-54570923D01*
X97975753Y-54563472D01*
X98024182Y-54543753D01*
X98088908Y-54515718D01*
X98102443Y-54509692D01*
X98184244Y-54468096D01*
X98229312Y-54431538D01*
X98239217Y-54397296D01*
X98215526Y-54362648D01*
X98195960Y-54347339D01*
X98125360Y-54316721D01*
X98059280Y-54321780D01*
X98003959Y-54359151D01*
X97965636Y-54425473D01*
X97953349Y-54478116D01*
X97948471Y-54531948D01*
X97830501Y-54531948D01*
X97831730Y-54472720D01*
X97841032Y-54382710D01*
X97859460Y-54317167D01*
X97889360Y-54268912D01*
X97933080Y-54230767D01*
X97952141Y-54218440D01*
X98038726Y-54186336D01*
X98133522Y-54184316D01*
X98225224Y-54209838D01*
G36*
X97550807Y-54198782D02*
G01*
X97574161Y-54208988D01*
X97629902Y-54253134D01*
X97677569Y-54316967D01*
X97707048Y-54385087D01*
X97711846Y-54418670D01*
X97695760Y-54465556D01*
X97660475Y-54490365D01*
X97622644Y-54505387D01*
X97605321Y-54508155D01*
X97596886Y-54488066D01*
X97580230Y-54444351D01*
X97572923Y-54424598D01*
X97531948Y-54356271D01*
X97472622Y-54322191D01*
X97396552Y-54323239D01*
X97390918Y-54324581D01*
X97350305Y-54343836D01*
X97320448Y-54381375D01*
X97300055Y-54441809D01*
X97287836Y-54529751D01*
X97282500Y-54649813D01*
X97282000Y-54713698D01*
X97281752Y-54814403D01*
X97280126Y-54883054D01*
X97275801Y-54926673D01*
X97267454Y-54952282D01*
X97253765Y-54966903D01*
X97233411Y-54977558D01*
X97232234Y-54978095D01*
X97193038Y-54994667D01*
X97173619Y-55000769D01*
X97170635Y-54982319D01*
X97168081Y-54931323D01*
X97166140Y-54854308D01*
X97164997Y-54757805D01*
X97164769Y-54687184D01*
X97165932Y-54550525D01*
X97170479Y-54446851D01*
X97179999Y-54370108D01*
X97196081Y-54314246D01*
X97220313Y-54273212D01*
X97254286Y-54240954D01*
X97287833Y-54218440D01*
X97368499Y-54188476D01*
X97462381Y-54181718D01*
X97550807Y-54198782D01*
G37*
X97550807Y-54198782D02*
X97574161Y-54208988D01*
X97629902Y-54253134D01*
X97677569Y-54316967D01*
X97707048Y-54385087D01*
X97711846Y-54418670D01*
X97695760Y-54465556D01*
X97660475Y-54490365D01*
X97622644Y-54505387D01*
X97605321Y-54508155D01*
X97596886Y-54488066D01*
X97580230Y-54444351D01*
X97572923Y-54424598D01*
X97531948Y-54356271D01*
X97472622Y-54322191D01*
X97396552Y-54323239D01*
X97390918Y-54324581D01*
X97350305Y-54343836D01*
X97320448Y-54381375D01*
X97300055Y-54441809D01*
X97287836Y-54529751D01*
X97282500Y-54649813D01*
X97282000Y-54713698D01*
X97281752Y-54814403D01*
X97280126Y-54883054D01*
X97275801Y-54926673D01*
X97267454Y-54952282D01*
X97253765Y-54966903D01*
X97233411Y-54977558D01*
X97232234Y-54978095D01*
X97193038Y-54994667D01*
X97173619Y-55000769D01*
X97170635Y-54982319D01*
X97168081Y-54931323D01*
X97166140Y-54854308D01*
X97164997Y-54757805D01*
X97164769Y-54687184D01*
X97165932Y-54550525D01*
X97170479Y-54446851D01*
X97179999Y-54370108D01*
X97196081Y-54314246D01*
X97220313Y-54273212D01*
X97254286Y-54240954D01*
X97287833Y-54218440D01*
X97368499Y-54188476D01*
X97462381Y-54181718D01*
X97550807Y-54198782D01*
G36*
X96867333Y-54195528D02*
G01*
X96923590Y-54221117D01*
X96967747Y-54252124D01*
X97000101Y-54286795D01*
X97022438Y-54331520D01*
X97036546Y-54392692D01*
X97044211Y-54476701D01*
X97047220Y-54589940D01*
X97047538Y-54664509D01*
X97047538Y-54955420D01*
X96997773Y-54978095D01*
X96958576Y-54994667D01*
X96939157Y-55000769D01*
X96935442Y-54982610D01*
X96932495Y-54933648D01*
X96930691Y-54862153D01*
X96930308Y-54805385D01*
X96928661Y-54723371D01*
X96924222Y-54658309D01*
X96917740Y-54618467D01*
X96912590Y-54610000D01*
X96877977Y-54618646D01*
X96823640Y-54640823D01*
X96760722Y-54670886D01*
X96700368Y-54703192D01*
X96653721Y-54732098D01*
X96631926Y-54751961D01*
X96631839Y-54752175D01*
X96633714Y-54788935D01*
X96650525Y-54824026D01*
X96680039Y-54852528D01*
X96723116Y-54862061D01*
X96759932Y-54860950D01*
X96812074Y-54860133D01*
X96839444Y-54872349D01*
X96855882Y-54904624D01*
X96857955Y-54910710D01*
X96865081Y-54956739D01*
X96846024Y-54984687D01*
X96796353Y-54998007D01*
X96742697Y-55000470D01*
X96646142Y-54982210D01*
X96596159Y-54956131D01*
X96534429Y-54894868D01*
X96501690Y-54819670D01*
X96498753Y-54740211D01*
X96526424Y-54666167D01*
X96568047Y-54619769D01*
X96609604Y-54593793D01*
X96674922Y-54560907D01*
X96751038Y-54527557D01*
X96763726Y-54522461D01*
X96847333Y-54485565D01*
X96895530Y-54453046D01*
X96911030Y-54420718D01*
X96896550Y-54384394D01*
X96871692Y-54356000D01*
X96812939Y-54321039D01*
X96748293Y-54318417D01*
X96689008Y-54345358D01*
X96646339Y-54399088D01*
X96640739Y-54412950D01*
X96608133Y-54463936D01*
X96560530Y-54501787D01*
X96500461Y-54532850D01*
X96500461Y-54444768D01*
X96503997Y-54390951D01*
X96519156Y-54348534D01*
X96552768Y-54303279D01*
X96585035Y-54268420D01*
X96635209Y-54219062D01*
X96674193Y-54192547D01*
X96716064Y-54181911D01*
X96763460Y-54180154D01*
X96867333Y-54195528D01*
G37*
X96867333Y-54195528D02*
X96923590Y-54221117D01*
X96967747Y-54252124D01*
X97000101Y-54286795D01*
X97022438Y-54331520D01*
X97036546Y-54392692D01*
X97044211Y-54476701D01*
X97047220Y-54589940D01*
X97047538Y-54664509D01*
X97047538Y-54955420D01*
X96997773Y-54978095D01*
X96958576Y-54994667D01*
X96939157Y-55000769D01*
X96935442Y-54982610D01*
X96932495Y-54933648D01*
X96930691Y-54862153D01*
X96930308Y-54805385D01*
X96928661Y-54723371D01*
X96924222Y-54658309D01*
X96917740Y-54618467D01*
X96912590Y-54610000D01*
X96877977Y-54618646D01*
X96823640Y-54640823D01*
X96760722Y-54670886D01*
X96700368Y-54703192D01*
X96653721Y-54732098D01*
X96631926Y-54751961D01*
X96631839Y-54752175D01*
X96633714Y-54788935D01*
X96650525Y-54824026D01*
X96680039Y-54852528D01*
X96723116Y-54862061D01*
X96759932Y-54860950D01*
X96812074Y-54860133D01*
X96839444Y-54872349D01*
X96855882Y-54904624D01*
X96857955Y-54910710D01*
X96865081Y-54956739D01*
X96846024Y-54984687D01*
X96796353Y-54998007D01*
X96742697Y-55000470D01*
X96646142Y-54982210D01*
X96596159Y-54956131D01*
X96534429Y-54894868D01*
X96501690Y-54819670D01*
X96498753Y-54740211D01*
X96526424Y-54666167D01*
X96568047Y-54619769D01*
X96609604Y-54593793D01*
X96674922Y-54560907D01*
X96751038Y-54527557D01*
X96763726Y-54522461D01*
X96847333Y-54485565D01*
X96895530Y-54453046D01*
X96911030Y-54420718D01*
X96896550Y-54384394D01*
X96871692Y-54356000D01*
X96812939Y-54321039D01*
X96748293Y-54318417D01*
X96689008Y-54345358D01*
X96646339Y-54399088D01*
X96640739Y-54412950D01*
X96608133Y-54463936D01*
X96560530Y-54501787D01*
X96500461Y-54532850D01*
X96500461Y-54444768D01*
X96503997Y-54390951D01*
X96519156Y-54348534D01*
X96552768Y-54303279D01*
X96585035Y-54268420D01*
X96635209Y-54219062D01*
X96674193Y-54192547D01*
X96716064Y-54181911D01*
X96763460Y-54180154D01*
X96867333Y-54195528D01*
G36*
X96375929Y-54198662D02*
G01*
X96378911Y-54250068D01*
X96381247Y-54328192D01*
X96382749Y-54426857D01*
X96383231Y-54530343D01*
X96383231Y-54880533D01*
X96321401Y-54942363D01*
X96278793Y-54980462D01*
X96241390Y-54995895D01*
X96190270Y-54994918D01*
X96169978Y-54992433D01*
X96106554Y-54985200D01*
X96054095Y-54981055D01*
X96041308Y-54980672D01*
X95998199Y-54983176D01*
X95936544Y-54989462D01*
X95912638Y-54992433D01*
X95853922Y-54997028D01*
X95814464Y-54987046D01*
X95775338Y-54956228D01*
X95761215Y-54942363D01*
X95699385Y-54880533D01*
X95699385Y-54225503D01*
X95749150Y-54202829D01*
X95792002Y-54186034D01*
X95817073Y-54180154D01*
X95823501Y-54198736D01*
X95829509Y-54250655D01*
X95834697Y-54330172D01*
X95838664Y-54431546D01*
X95840577Y-54517192D01*
X95845923Y-54854231D01*
X95892560Y-54860825D01*
X95934976Y-54856214D01*
X95955760Y-54841287D01*
X95961570Y-54813377D01*
X95966530Y-54753925D01*
X95970246Y-54670466D01*
X95972324Y-54570532D01*
X95972624Y-54519104D01*
X95972923Y-54223054D01*
X96034454Y-54201604D01*
X96078004Y-54187020D01*
X96101694Y-54180219D01*
X96102377Y-54180154D01*
X96104754Y-54198642D01*
X96107366Y-54249906D01*
X96109995Y-54327649D01*
X96112421Y-54425574D01*
X96114115Y-54517192D01*
X96119461Y-54854231D01*
X96236692Y-54854231D01*
X96242072Y-54546746D01*
X96247451Y-54239261D01*
X96304601Y-54209707D01*
X96346797Y-54189413D01*
X96371770Y-54180204D01*
X96372491Y-54180154D01*
X96375929Y-54198662D01*
G37*
X96375929Y-54198662D02*
X96378911Y-54250068D01*
X96381247Y-54328192D01*
X96382749Y-54426857D01*
X96383231Y-54530343D01*
X96383231Y-54880533D01*
X96321401Y-54942363D01*
X96278793Y-54980462D01*
X96241390Y-54995895D01*
X96190270Y-54994918D01*
X96169978Y-54992433D01*
X96106554Y-54985200D01*
X96054095Y-54981055D01*
X96041308Y-54980672D01*
X95998199Y-54983176D01*
X95936544Y-54989462D01*
X95912638Y-54992433D01*
X95853922Y-54997028D01*
X95814464Y-54987046D01*
X95775338Y-54956228D01*
X95761215Y-54942363D01*
X95699385Y-54880533D01*
X95699385Y-54225503D01*
X95749150Y-54202829D01*
X95792002Y-54186034D01*
X95817073Y-54180154D01*
X95823501Y-54198736D01*
X95829509Y-54250655D01*
X95834697Y-54330172D01*
X95838664Y-54431546D01*
X95840577Y-54517192D01*
X95845923Y-54854231D01*
X95892560Y-54860825D01*
X95934976Y-54856214D01*
X95955760Y-54841287D01*
X95961570Y-54813377D01*
X95966530Y-54753925D01*
X95970246Y-54670466D01*
X95972324Y-54570532D01*
X95972624Y-54519104D01*
X95972923Y-54223054D01*
X96034454Y-54201604D01*
X96078004Y-54187020D01*
X96101694Y-54180219D01*
X96102377Y-54180154D01*
X96104754Y-54198642D01*
X96107366Y-54249906D01*
X96109995Y-54327649D01*
X96112421Y-54425574D01*
X96114115Y-54517192D01*
X96119461Y-54854231D01*
X96236692Y-54854231D01*
X96242072Y-54546746D01*
X96247451Y-54239261D01*
X96304601Y-54209707D01*
X96346797Y-54189413D01*
X96371770Y-54180204D01*
X96372491Y-54180154D01*
X96375929Y-54198662D01*
G36*
X95582081Y-54342289D02*
G01*
X95581833Y-54488320D01*
X95580872Y-54600655D01*
X95578794Y-54684678D01*
X95575193Y-54745769D01*
X95569665Y-54789309D01*
X95561804Y-54820679D01*
X95551207Y-54845262D01*
X95543182Y-54859294D01*
X95476728Y-54935388D01*
X95392470Y-54983084D01*
X95299249Y-55000199D01*
X95205900Y-54984546D01*
X95150312Y-54956418D01*
X95091957Y-54907760D01*
X95052186Y-54848333D01*
X95028190Y-54770507D01*
X95017161Y-54666652D01*
X95015599Y-54590462D01*
X95015809Y-54584986D01*
X95152308Y-54584986D01*
X95153141Y-54672355D01*
X95156961Y-54730192D01*
X95165746Y-54768029D01*
X95181474Y-54795398D01*
X95200266Y-54816042D01*
X95263375Y-54855890D01*
X95331137Y-54859295D01*
X95395179Y-54826025D01*
X95400164Y-54821517D01*
X95421439Y-54798067D01*
X95434779Y-54770166D01*
X95442001Y-54728641D01*
X95444923Y-54664316D01*
X95445385Y-54593200D01*
X95444383Y-54503858D01*
X95440238Y-54444258D01*
X95431236Y-54405089D01*
X95415667Y-54377040D01*
X95402902Y-54362144D01*
X95343600Y-54324575D01*
X95275301Y-54320057D01*
X95210110Y-54348753D01*
X95197528Y-54359406D01*
X95176111Y-54383063D01*
X95162744Y-54411251D01*
X95155566Y-54453245D01*
X95152719Y-54518319D01*
X95152308Y-54584986D01*
X95015809Y-54584986D01*
X95020322Y-54467765D01*
X95036362Y-54375577D01*
X95066528Y-54306269D01*
X95113629Y-54252211D01*
X95150312Y-54224505D01*
X95216990Y-54194572D01*
X95294272Y-54180678D01*
X95366110Y-54184397D01*
X95406308Y-54199400D01*
X95422082Y-54203670D01*
X95432550Y-54187750D01*
X95439856Y-54145089D01*
X95445385Y-54080106D01*
X95451437Y-54007732D01*
X95459844Y-53964187D01*
X95475141Y-53939287D01*
X95501864Y-53922845D01*
X95518654Y-53915564D01*
X95582154Y-53888963D01*
X95582081Y-54342289D01*
G37*
X95582081Y-54342289D02*
X95581833Y-54488320D01*
X95580872Y-54600655D01*
X95578794Y-54684678D01*
X95575193Y-54745769D01*
X95569665Y-54789309D01*
X95561804Y-54820679D01*
X95551207Y-54845262D01*
X95543182Y-54859294D01*
X95476728Y-54935388D01*
X95392470Y-54983084D01*
X95299249Y-55000199D01*
X95205900Y-54984546D01*
X95150312Y-54956418D01*
X95091957Y-54907760D01*
X95052186Y-54848333D01*
X95028190Y-54770507D01*
X95017161Y-54666652D01*
X95015599Y-54590462D01*
X95015809Y-54584986D01*
X95152308Y-54584986D01*
X95153141Y-54672355D01*
X95156961Y-54730192D01*
X95165746Y-54768029D01*
X95181474Y-54795398D01*
X95200266Y-54816042D01*
X95263375Y-54855890D01*
X95331137Y-54859295D01*
X95395179Y-54826025D01*
X95400164Y-54821517D01*
X95421439Y-54798067D01*
X95434779Y-54770166D01*
X95442001Y-54728641D01*
X95444923Y-54664316D01*
X95445385Y-54593200D01*
X95444383Y-54503858D01*
X95440238Y-54444258D01*
X95431236Y-54405089D01*
X95415667Y-54377040D01*
X95402902Y-54362144D01*
X95343600Y-54324575D01*
X95275301Y-54320057D01*
X95210110Y-54348753D01*
X95197528Y-54359406D01*
X95176111Y-54383063D01*
X95162744Y-54411251D01*
X95155566Y-54453245D01*
X95152719Y-54518319D01*
X95152308Y-54584986D01*
X95015809Y-54584986D01*
X95020322Y-54467765D01*
X95036362Y-54375577D01*
X95066528Y-54306269D01*
X95113629Y-54252211D01*
X95150312Y-54224505D01*
X95216990Y-54194572D01*
X95294272Y-54180678D01*
X95366110Y-54184397D01*
X95406308Y-54199400D01*
X95422082Y-54203670D01*
X95432550Y-54187750D01*
X95439856Y-54145089D01*
X95445385Y-54080106D01*
X95451437Y-54007732D01*
X95459844Y-53964187D01*
X95475141Y-53939287D01*
X95501864Y-53922845D01*
X95518654Y-53915564D01*
X95582154Y-53888963D01*
X95582081Y-54342289D01*
G36*
X94693362Y-54186670D02*
G01*
X94782117Y-54219421D01*
X94854022Y-54277350D01*
X94882144Y-54318128D01*
X94912802Y-54392954D01*
X94912165Y-54447058D01*
X94879987Y-54483446D01*
X94868081Y-54489633D01*
X94816675Y-54508925D01*
X94790422Y-54503982D01*
X94781530Y-54471587D01*
X94781077Y-54453692D01*
X94764797Y-54387859D01*
X94722365Y-54341807D01*
X94663388Y-54319564D01*
X94597475Y-54325161D01*
X94543895Y-54354229D01*
X94525798Y-54370810D01*
X94512971Y-54390925D01*
X94504306Y-54421332D01*
X94498696Y-54468788D01*
X94495035Y-54540050D01*
X94492215Y-54641875D01*
X94491484Y-54674115D01*
X94488820Y-54784410D01*
X94485792Y-54862036D01*
X94481250Y-54913396D01*
X94474046Y-54944890D01*
X94463033Y-54962920D01*
X94447060Y-54973888D01*
X94436834Y-54978733D01*
X94393406Y-54995301D01*
X94367842Y-55000769D01*
X94359395Y-54982507D01*
X94354239Y-54927296D01*
X94352346Y-54834499D01*
X94353689Y-54703478D01*
X94354107Y-54683269D01*
X94357058Y-54563733D01*
X94360548Y-54476449D01*
X94365514Y-54414591D01*
X94372893Y-54371336D01*
X94383624Y-54339860D01*
X94398645Y-54313339D01*
X94406502Y-54301975D01*
X94451553Y-54251692D01*
X94501940Y-54212581D01*
X94508108Y-54209167D01*
X94598458Y-54182212D01*
X94693362Y-54186670D01*
G37*
X94693362Y-54186670D02*
X94782117Y-54219421D01*
X94854022Y-54277350D01*
X94882144Y-54318128D01*
X94912802Y-54392954D01*
X94912165Y-54447058D01*
X94879987Y-54483446D01*
X94868081Y-54489633D01*
X94816675Y-54508925D01*
X94790422Y-54503982D01*
X94781530Y-54471587D01*
X94781077Y-54453692D01*
X94764797Y-54387859D01*
X94722365Y-54341807D01*
X94663388Y-54319564D01*
X94597475Y-54325161D01*
X94543895Y-54354229D01*
X94525798Y-54370810D01*
X94512971Y-54390925D01*
X94504306Y-54421332D01*
X94498696Y-54468788D01*
X94495035Y-54540050D01*
X94492215Y-54641875D01*
X94491484Y-54674115D01*
X94488820Y-54784410D01*
X94485792Y-54862036D01*
X94481250Y-54913396D01*
X94474046Y-54944890D01*
X94463033Y-54962920D01*
X94447060Y-54973888D01*
X94436834Y-54978733D01*
X94393406Y-54995301D01*
X94367842Y-55000769D01*
X94359395Y-54982507D01*
X94354239Y-54927296D01*
X94352346Y-54834499D01*
X94353689Y-54703478D01*
X94354107Y-54683269D01*
X94357058Y-54563733D01*
X94360548Y-54476449D01*
X94365514Y-54414591D01*
X94372893Y-54371336D01*
X94383624Y-54339860D01*
X94398645Y-54313339D01*
X94406502Y-54301975D01*
X94451553Y-54251692D01*
X94501940Y-54212581D01*
X94508108Y-54209167D01*
X94598458Y-54182212D01*
X94693362Y-54186670D01*
G36*
X94033501Y-54188303D02*
G01*
X94110060Y-54216733D01*
X94110936Y-54217279D01*
X94158285Y-54252127D01*
X94193241Y-54292852D01*
X94217825Y-54345925D01*
X94234062Y-54417814D01*
X94243975Y-54514992D01*
X94249586Y-54643928D01*
X94250077Y-54662298D01*
X94257141Y-54939287D01*
X94197695Y-54970028D01*
X94154681Y-54990802D01*
X94128710Y-55000646D01*
X94127509Y-55000769D01*
X94123014Y-54982606D01*
X94119444Y-54933612D01*
X94117248Y-54862031D01*
X94116769Y-54804068D01*
X94116758Y-54710170D01*
X94112466Y-54651203D01*
X94097503Y-54623079D01*
X94065482Y-54621706D01*
X94010014Y-54642998D01*
X93926269Y-54682136D01*
X93864689Y-54714643D01*
X93833017Y-54742845D01*
X93823706Y-54773582D01*
X93823692Y-54775104D01*
X93839057Y-54828054D01*
X93884547Y-54856660D01*
X93954166Y-54860803D01*
X94004313Y-54860084D01*
X94030754Y-54874527D01*
X94047243Y-54909218D01*
X94056733Y-54953416D01*
X94043057Y-54978493D01*
X94037907Y-54982082D01*
X93989425Y-54996496D01*
X93921531Y-54998537D01*
X93851612Y-54988983D01*
X93802068Y-54971522D01*
X93733570Y-54913364D01*
X93694634Y-54832408D01*
X93686923Y-54769160D01*
X93692807Y-54712111D01*
X93714101Y-54665542D01*
X93756265Y-54624181D01*
X93824759Y-54582755D01*
X93925044Y-54535993D01*
X93931154Y-54533350D01*
X94021490Y-54491617D01*
X94077235Y-54457391D01*
X94101129Y-54426635D01*
X94095913Y-54395311D01*
X94064328Y-54359383D01*
X94054883Y-54351116D01*
X93991617Y-54319058D01*
X93926064Y-54320407D01*
X93868972Y-54351838D01*
X93831093Y-54410024D01*
X93827574Y-54421446D01*
X93793300Y-54476837D01*
X93749809Y-54503518D01*
X93686923Y-54529960D01*
X93686923Y-54461548D01*
X93706052Y-54362110D01*
X93762831Y-54270902D01*
X93792378Y-54240389D01*
X93859542Y-54201228D01*
X93944956Y-54183500D01*
X94033501Y-54188303D01*
G37*
X94033501Y-54188303D02*
X94110060Y-54216733D01*
X94110936Y-54217279D01*
X94158285Y-54252127D01*
X94193241Y-54292852D01*
X94217825Y-54345925D01*
X94234062Y-54417814D01*
X94243975Y-54514992D01*
X94249586Y-54643928D01*
X94250077Y-54662298D01*
X94257141Y-54939287D01*
X94197695Y-54970028D01*
X94154681Y-54990802D01*
X94128710Y-55000646D01*
X94127509Y-55000769D01*
X94123014Y-54982606D01*
X94119444Y-54933612D01*
X94117248Y-54862031D01*
X94116769Y-54804068D01*
X94116758Y-54710170D01*
X94112466Y-54651203D01*
X94097503Y-54623079D01*
X94065482Y-54621706D01*
X94010014Y-54642998D01*
X93926269Y-54682136D01*
X93864689Y-54714643D01*
X93833017Y-54742845D01*
X93823706Y-54773582D01*
X93823692Y-54775104D01*
X93839057Y-54828054D01*
X93884547Y-54856660D01*
X93954166Y-54860803D01*
X94004313Y-54860084D01*
X94030754Y-54874527D01*
X94047243Y-54909218D01*
X94056733Y-54953416D01*
X94043057Y-54978493D01*
X94037907Y-54982082D01*
X93989425Y-54996496D01*
X93921531Y-54998537D01*
X93851612Y-54988983D01*
X93802068Y-54971522D01*
X93733570Y-54913364D01*
X93694634Y-54832408D01*
X93686923Y-54769160D01*
X93692807Y-54712111D01*
X93714101Y-54665542D01*
X93756265Y-54624181D01*
X93824759Y-54582755D01*
X93925044Y-54535993D01*
X93931154Y-54533350D01*
X94021490Y-54491617D01*
X94077235Y-54457391D01*
X94101129Y-54426635D01*
X94095913Y-54395311D01*
X94064328Y-54359383D01*
X94054883Y-54351116D01*
X93991617Y-54319058D01*
X93926064Y-54320407D01*
X93868972Y-54351838D01*
X93831093Y-54410024D01*
X93827574Y-54421446D01*
X93793300Y-54476837D01*
X93749809Y-54503518D01*
X93686923Y-54529960D01*
X93686923Y-54461548D01*
X93706052Y-54362110D01*
X93762831Y-54270902D01*
X93792378Y-54240389D01*
X93859542Y-54201228D01*
X93944956Y-54183500D01*
X94033501Y-54188303D01*
G36*
X93139846Y-54054120D02*
G01*
X93145572Y-54133980D01*
X93152149Y-54181039D01*
X93161262Y-54201566D01*
X93174598Y-54201829D01*
X93178923Y-54199378D01*
X93236444Y-54181636D01*
X93311268Y-54182672D01*
X93387339Y-54200910D01*
X93434918Y-54224505D01*
X93483702Y-54262198D01*
X93519364Y-54304855D01*
X93543845Y-54359057D01*
X93559087Y-54431384D01*
X93567030Y-54528419D01*
X93569616Y-54656742D01*
X93569662Y-54681358D01*
X93569692Y-54957870D01*
X93508161Y-54979320D01*
X93464459Y-54993912D01*
X93440482Y-55000706D01*
X93439777Y-55000769D01*
X93437415Y-54982345D01*
X93435406Y-54931526D01*
X93433901Y-54854993D01*
X93433053Y-54759430D01*
X93432923Y-54701329D01*
X93432651Y-54586771D01*
X93431252Y-54504667D01*
X93427849Y-54448393D01*
X93421567Y-54411326D01*
X93411529Y-54386844D01*
X93396861Y-54368325D01*
X93387702Y-54359406D01*
X93324789Y-54323466D01*
X93256136Y-54320775D01*
X93193848Y-54351170D01*
X93182329Y-54362144D01*
X93165433Y-54382779D01*
X93153714Y-54407256D01*
X93146233Y-54442647D01*
X93142054Y-54496026D01*
X93140237Y-54574466D01*
X93139846Y-54682617D01*
X93139846Y-54957870D01*
X93078315Y-54979320D01*
X93034613Y-54993912D01*
X93010636Y-55000706D01*
X93009930Y-55000769D01*
X93008126Y-54982069D01*
X93006500Y-54929322D01*
X93005117Y-54847557D01*
X93004042Y-54741805D01*
X93003340Y-54617094D01*
X93003077Y-54478455D01*
X93003077Y-53943806D01*
X93130077Y-53890236D01*
X93139846Y-54054120D01*
G37*
X93139846Y-54054120D02*
X93145572Y-54133980D01*
X93152149Y-54181039D01*
X93161262Y-54201566D01*
X93174598Y-54201829D01*
X93178923Y-54199378D01*
X93236444Y-54181636D01*
X93311268Y-54182672D01*
X93387339Y-54200910D01*
X93434918Y-54224505D01*
X93483702Y-54262198D01*
X93519364Y-54304855D01*
X93543845Y-54359057D01*
X93559087Y-54431384D01*
X93567030Y-54528419D01*
X93569616Y-54656742D01*
X93569662Y-54681358D01*
X93569692Y-54957870D01*
X93508161Y-54979320D01*
X93464459Y-54993912D01*
X93440482Y-55000706D01*
X93439777Y-55000769D01*
X93437415Y-54982345D01*
X93435406Y-54931526D01*
X93433901Y-54854993D01*
X93433053Y-54759430D01*
X93432923Y-54701329D01*
X93432651Y-54586771D01*
X93431252Y-54504667D01*
X93427849Y-54448393D01*
X93421567Y-54411326D01*
X93411529Y-54386844D01*
X93396861Y-54368325D01*
X93387702Y-54359406D01*
X93324789Y-54323466D01*
X93256136Y-54320775D01*
X93193848Y-54351170D01*
X93182329Y-54362144D01*
X93165433Y-54382779D01*
X93153714Y-54407256D01*
X93146233Y-54442647D01*
X93142054Y-54496026D01*
X93140237Y-54574466D01*
X93139846Y-54682617D01*
X93139846Y-54957870D01*
X93078315Y-54979320D01*
X93034613Y-54993912D01*
X93010636Y-55000706D01*
X93009930Y-55000769D01*
X93008126Y-54982069D01*
X93006500Y-54929322D01*
X93005117Y-54847557D01*
X93004042Y-54741805D01*
X93003340Y-54617094D01*
X93003077Y-54478455D01*
X93003077Y-53943806D01*
X93130077Y-53890236D01*
X93139846Y-54054120D01*
G36*
X91514254Y-54161745D02*
G01*
X91591286Y-54213567D01*
X91650816Y-54288412D01*
X91686378Y-54383654D01*
X91693571Y-54453756D01*
X91692754Y-54483009D01*
X91685914Y-54505407D01*
X91667112Y-54525474D01*
X91630408Y-54547733D01*
X91569862Y-54576709D01*
X91479534Y-54616927D01*
X91479077Y-54617129D01*
X91395933Y-54655210D01*
X91327753Y-54689025D01*
X91281505Y-54714933D01*
X91264158Y-54729295D01*
X91264154Y-54729411D01*
X91279443Y-54760685D01*
X91315196Y-54795157D01*
X91356242Y-54819990D01*
X91377037Y-54824923D01*
X91433770Y-54807862D01*
X91482627Y-54765133D01*
X91506465Y-54718155D01*
X91529397Y-54683522D01*
X91574318Y-54644081D01*
X91627123Y-54610009D01*
X91673710Y-54591480D01*
X91683452Y-54590462D01*
X91694418Y-54607215D01*
X91695079Y-54650039D01*
X91687020Y-54707781D01*
X91671827Y-54769289D01*
X91651086Y-54823409D01*
X91650038Y-54825510D01*
X91587621Y-54912660D01*
X91506726Y-54971939D01*
X91414856Y-55001034D01*
X91319513Y-54997634D01*
X91228198Y-54959428D01*
X91224138Y-54956741D01*
X91152306Y-54891642D01*
X91105073Y-54806705D01*
X91078934Y-54695021D01*
X91075426Y-54663643D01*
X91069213Y-54515536D01*
X91076661Y-54446468D01*
X91264154Y-54446468D01*
X91266590Y-54489552D01*
X91279914Y-54502126D01*
X91313132Y-54492719D01*
X91365494Y-54470483D01*
X91424024Y-54442610D01*
X91425479Y-54441872D01*
X91475089Y-54415777D01*
X91495000Y-54398363D01*
X91490090Y-54380107D01*
X91469416Y-54356120D01*
X91416819Y-54321406D01*
X91360177Y-54318856D01*
X91309369Y-54344119D01*
X91274276Y-54392847D01*
X91264154Y-54446468D01*
X91076661Y-54446468D01*
X91081992Y-54397036D01*
X91114778Y-54303055D01*
X91160421Y-54237215D01*
X91242802Y-54170681D01*
X91333546Y-54137676D01*
X91426185Y-54135573D01*
X91514254Y-54161745D01*
G37*
X91514254Y-54161745D02*
X91591286Y-54213567D01*
X91650816Y-54288412D01*
X91686378Y-54383654D01*
X91693571Y-54453756D01*
X91692754Y-54483009D01*
X91685914Y-54505407D01*
X91667112Y-54525474D01*
X91630408Y-54547733D01*
X91569862Y-54576709D01*
X91479534Y-54616927D01*
X91479077Y-54617129D01*
X91395933Y-54655210D01*
X91327753Y-54689025D01*
X91281505Y-54714933D01*
X91264158Y-54729295D01*
X91264154Y-54729411D01*
X91279443Y-54760685D01*
X91315196Y-54795157D01*
X91356242Y-54819990D01*
X91377037Y-54824923D01*
X91433770Y-54807862D01*
X91482627Y-54765133D01*
X91506465Y-54718155D01*
X91529397Y-54683522D01*
X91574318Y-54644081D01*
X91627123Y-54610009D01*
X91673710Y-54591480D01*
X91683452Y-54590462D01*
X91694418Y-54607215D01*
X91695079Y-54650039D01*
X91687020Y-54707781D01*
X91671827Y-54769289D01*
X91651086Y-54823409D01*
X91650038Y-54825510D01*
X91587621Y-54912660D01*
X91506726Y-54971939D01*
X91414856Y-55001034D01*
X91319513Y-54997634D01*
X91228198Y-54959428D01*
X91224138Y-54956741D01*
X91152306Y-54891642D01*
X91105073Y-54806705D01*
X91078934Y-54695021D01*
X91075426Y-54663643D01*
X91069213Y-54515536D01*
X91076661Y-54446468D01*
X91264154Y-54446468D01*
X91266590Y-54489552D01*
X91279914Y-54502126D01*
X91313132Y-54492719D01*
X91365494Y-54470483D01*
X91424024Y-54442610D01*
X91425479Y-54441872D01*
X91475089Y-54415777D01*
X91495000Y-54398363D01*
X91490090Y-54380107D01*
X91469416Y-54356120D01*
X91416819Y-54321406D01*
X91360177Y-54318856D01*
X91309369Y-54344119D01*
X91274276Y-54392847D01*
X91264154Y-54446468D01*
X91076661Y-54446468D01*
X91081992Y-54397036D01*
X91114778Y-54303055D01*
X91160421Y-54237215D01*
X91242802Y-54170681D01*
X91333546Y-54137676D01*
X91426185Y-54135573D01*
X91514254Y-54161745D01*
G36*
X89996886Y-54149256D02*
G01*
X90088464Y-54197409D01*
X90156049Y-54274905D01*
X90180057Y-54324727D01*
X90198738Y-54399533D01*
X90208301Y-54494052D01*
X90209208Y-54597210D01*
X90201921Y-54697935D01*
X90186903Y-54785153D01*
X90164615Y-54847791D01*
X90157765Y-54858579D01*
X90076632Y-54939105D01*
X89980266Y-54987336D01*
X89875701Y-55001450D01*
X89769968Y-54979629D01*
X89740543Y-54966547D01*
X89683241Y-54926231D01*
X89632950Y-54872775D01*
X89628197Y-54865995D01*
X89608878Y-54833321D01*
X89596108Y-54798394D01*
X89588564Y-54752414D01*
X89584924Y-54686584D01*
X89583865Y-54592105D01*
X89583846Y-54570923D01*
X89583894Y-54564182D01*
X89779231Y-54564182D01*
X89780368Y-54653349D01*
X89784841Y-54712520D01*
X89794246Y-54750741D01*
X89810176Y-54777053D01*
X89818308Y-54785846D01*
X89865058Y-54819261D01*
X89910447Y-54817737D01*
X89956340Y-54788752D01*
X89983712Y-54757809D01*
X89999923Y-54712643D01*
X90009026Y-54641420D01*
X90009651Y-54633114D01*
X90011204Y-54504037D01*
X89994965Y-54408172D01*
X89961152Y-54346107D01*
X89909984Y-54318432D01*
X89891720Y-54316923D01*
X89843760Y-54324513D01*
X89810953Y-54350808D01*
X89790895Y-54401095D01*
X89781178Y-54480664D01*
X89779231Y-54564182D01*
X89583894Y-54564182D01*
X89584574Y-54470249D01*
X89587629Y-54399906D01*
X89594322Y-54351163D01*
X89605960Y-54315288D01*
X89623853Y-54283548D01*
X89627808Y-54277648D01*
X89694267Y-54198104D01*
X89766685Y-54151929D01*
X89854849Y-54133599D01*
X89884787Y-54132703D01*
X89996886Y-54149256D01*
G37*
X89996886Y-54149256D02*
X90088464Y-54197409D01*
X90156049Y-54274905D01*
X90180057Y-54324727D01*
X90198738Y-54399533D01*
X90208301Y-54494052D01*
X90209208Y-54597210D01*
X90201921Y-54697935D01*
X90186903Y-54785153D01*
X90164615Y-54847791D01*
X90157765Y-54858579D01*
X90076632Y-54939105D01*
X89980266Y-54987336D01*
X89875701Y-55001450D01*
X89769968Y-54979629D01*
X89740543Y-54966547D01*
X89683241Y-54926231D01*
X89632950Y-54872775D01*
X89628197Y-54865995D01*
X89608878Y-54833321D01*
X89596108Y-54798394D01*
X89588564Y-54752414D01*
X89584924Y-54686584D01*
X89583865Y-54592105D01*
X89583846Y-54570923D01*
X89583894Y-54564182D01*
X89779231Y-54564182D01*
X89780368Y-54653349D01*
X89784841Y-54712520D01*
X89794246Y-54750741D01*
X89810176Y-54777053D01*
X89818308Y-54785846D01*
X89865058Y-54819261D01*
X89910447Y-54817737D01*
X89956340Y-54788752D01*
X89983712Y-54757809D01*
X89999923Y-54712643D01*
X90009026Y-54641420D01*
X90009651Y-54633114D01*
X90011204Y-54504037D01*
X89994965Y-54408172D01*
X89961152Y-54346107D01*
X89909984Y-54318432D01*
X89891720Y-54316923D01*
X89843760Y-54324513D01*
X89810953Y-54350808D01*
X89790895Y-54401095D01*
X89781178Y-54480664D01*
X89779231Y-54564182D01*
X89583894Y-54564182D01*
X89584574Y-54470249D01*
X89587629Y-54399906D01*
X89594322Y-54351163D01*
X89605960Y-54315288D01*
X89623853Y-54283548D01*
X89627808Y-54277648D01*
X89694267Y-54198104D01*
X89766685Y-54151929D01*
X89854849Y-54133599D01*
X89884787Y-54132703D01*
X89996886Y-54149256D01*
G36*
X92251664Y-54157089D02*
G01*
X92314367Y-54193358D01*
X92357961Y-54229358D01*
X92389845Y-54267075D01*
X92411810Y-54313199D01*
X92425649Y-54374421D01*
X92433153Y-54457431D01*
X92436117Y-54568919D01*
X92436461Y-54649062D01*
X92436461Y-54944065D01*
X92270385Y-55018515D01*
X92260615Y-54695402D01*
X92256579Y-54574729D01*
X92252344Y-54487141D01*
X92247097Y-54426650D01*
X92240025Y-54387268D01*
X92230311Y-54363007D01*
X92217144Y-54347880D01*
X92212919Y-54344606D01*
X92148909Y-54319034D01*
X92084208Y-54329153D01*
X92045692Y-54356000D01*
X92030025Y-54375024D01*
X92019180Y-54399988D01*
X92012288Y-54437834D01*
X92008479Y-54495502D01*
X92006883Y-54579935D01*
X92006615Y-54667928D01*
X92006563Y-54778323D01*
X92004672Y-54856463D01*
X91998345Y-54909165D01*
X91984983Y-54943242D01*
X91961985Y-54965511D01*
X91926754Y-54982787D01*
X91879697Y-55000738D01*
X91828303Y-55020278D01*
X91834421Y-54673485D01*
X91836884Y-54548468D01*
X91839767Y-54456082D01*
X91843898Y-54389881D01*
X91850107Y-54343420D01*
X91859226Y-54310256D01*
X91872083Y-54283944D01*
X91887584Y-54260729D01*
X91962371Y-54186569D01*
X92053628Y-54143684D01*
X92152883Y-54133412D01*
X92251664Y-54157089D01*
G37*
X92251664Y-54157089D02*
X92314367Y-54193358D01*
X92357961Y-54229358D01*
X92389845Y-54267075D01*
X92411810Y-54313199D01*
X92425649Y-54374421D01*
X92433153Y-54457431D01*
X92436117Y-54568919D01*
X92436461Y-54649062D01*
X92436461Y-54944065D01*
X92270385Y-55018515D01*
X92260615Y-54695402D01*
X92256579Y-54574729D01*
X92252344Y-54487141D01*
X92247097Y-54426650D01*
X92240025Y-54387268D01*
X92230311Y-54363007D01*
X92217144Y-54347880D01*
X92212919Y-54344606D01*
X92148909Y-54319034D01*
X92084208Y-54329153D01*
X92045692Y-54356000D01*
X92030025Y-54375024D01*
X92019180Y-54399988D01*
X92012288Y-54437834D01*
X92008479Y-54495502D01*
X92006883Y-54579935D01*
X92006615Y-54667928D01*
X92006563Y-54778323D01*
X92004672Y-54856463D01*
X91998345Y-54909165D01*
X91984983Y-54943242D01*
X91961985Y-54965511D01*
X91926754Y-54982787D01*
X91879697Y-55000738D01*
X91828303Y-55020278D01*
X91834421Y-54673485D01*
X91836884Y-54548468D01*
X91839767Y-54456082D01*
X91843898Y-54389881D01*
X91850107Y-54343420D01*
X91859226Y-54310256D01*
X91872083Y-54283944D01*
X91887584Y-54260729D01*
X91962371Y-54186569D01*
X92053628Y-54143684D01*
X92152883Y-54133412D01*
X92251664Y-54157089D01*
G36*
X90748886Y-54146505D02*
G01*
X90823539Y-54183727D01*
X90889431Y-54252261D01*
X90907577Y-54277648D01*
X90927345Y-54310866D01*
X90940172Y-54346945D01*
X90947510Y-54395098D01*
X90950813Y-54464536D01*
X90951538Y-54556206D01*
X90948263Y-54681830D01*
X90936877Y-54776154D01*
X90915041Y-54846523D01*
X90880419Y-54900286D01*
X90830670Y-54944788D01*
X90827014Y-54947423D01*
X90777985Y-54974377D01*
X90718945Y-54987712D01*
X90643859Y-54991000D01*
X90521795Y-54991000D01*
X90521744Y-55109497D01*
X90520608Y-55175492D01*
X90513686Y-55214202D01*
X90495598Y-55237419D01*
X90460962Y-55256933D01*
X90452645Y-55260920D01*
X90413720Y-55279603D01*
X90383583Y-55291403D01*
X90361174Y-55292422D01*
X90345433Y-55278761D01*
X90335302Y-55246522D01*
X90329723Y-55191804D01*
X90327635Y-55110711D01*
X90327981Y-54999344D01*
X90329700Y-54853802D01*
X90330237Y-54810269D01*
X90332172Y-54660205D01*
X90333904Y-54562042D01*
X90521692Y-54562042D01*
X90522748Y-54645364D01*
X90527438Y-54699880D01*
X90538051Y-54735837D01*
X90556872Y-54763482D01*
X90569650Y-54776965D01*
X90621890Y-54816417D01*
X90668142Y-54819628D01*
X90715867Y-54787049D01*
X90717077Y-54785846D01*
X90736494Y-54760668D01*
X90748307Y-54726447D01*
X90754265Y-54673748D01*
X90756120Y-54593131D01*
X90756154Y-54575271D01*
X90751670Y-54464175D01*
X90737074Y-54387161D01*
X90710650Y-54340147D01*
X90670683Y-54319050D01*
X90647584Y-54316923D01*
X90592762Y-54326900D01*
X90555158Y-54359752D01*
X90532523Y-54419857D01*
X90522606Y-54511598D01*
X90521692Y-54562042D01*
X90333904Y-54562042D01*
X90334222Y-54544060D01*
X90336873Y-54456679D01*
X90340606Y-54392905D01*
X90345907Y-54347582D01*
X90353258Y-54315555D01*
X90363143Y-54291668D01*
X90376046Y-54270764D01*
X90381579Y-54262898D01*
X90454969Y-54188595D01*
X90547760Y-54146467D01*
X90655096Y-54134722D01*
X90748886Y-54146505D01*
G37*
X90748886Y-54146505D02*
X90823539Y-54183727D01*
X90889431Y-54252261D01*
X90907577Y-54277648D01*
X90927345Y-54310866D01*
X90940172Y-54346945D01*
X90947510Y-54395098D01*
X90950813Y-54464536D01*
X90951538Y-54556206D01*
X90948263Y-54681830D01*
X90936877Y-54776154D01*
X90915041Y-54846523D01*
X90880419Y-54900286D01*
X90830670Y-54944788D01*
X90827014Y-54947423D01*
X90777985Y-54974377D01*
X90718945Y-54987712D01*
X90643859Y-54991000D01*
X90521795Y-54991000D01*
X90521744Y-55109497D01*
X90520608Y-55175492D01*
X90513686Y-55214202D01*
X90495598Y-55237419D01*
X90460962Y-55256933D01*
X90452645Y-55260920D01*
X90413720Y-55279603D01*
X90383583Y-55291403D01*
X90361174Y-55292422D01*
X90345433Y-55278761D01*
X90335302Y-55246522D01*
X90329723Y-55191804D01*
X90327635Y-55110711D01*
X90327981Y-54999344D01*
X90329700Y-54853802D01*
X90330237Y-54810269D01*
X90332172Y-54660205D01*
X90333904Y-54562042D01*
X90521692Y-54562042D01*
X90522748Y-54645364D01*
X90527438Y-54699880D01*
X90538051Y-54735837D01*
X90556872Y-54763482D01*
X90569650Y-54776965D01*
X90621890Y-54816417D01*
X90668142Y-54819628D01*
X90715867Y-54787049D01*
X90717077Y-54785846D01*
X90736494Y-54760668D01*
X90748307Y-54726447D01*
X90754265Y-54673748D01*
X90756120Y-54593131D01*
X90756154Y-54575271D01*
X90751670Y-54464175D01*
X90737074Y-54387161D01*
X90710650Y-54340147D01*
X90670683Y-54319050D01*
X90647584Y-54316923D01*
X90592762Y-54326900D01*
X90555158Y-54359752D01*
X90532523Y-54419857D01*
X90522606Y-54511598D01*
X90521692Y-54562042D01*
X90333904Y-54562042D01*
X90334222Y-54544060D01*
X90336873Y-54456679D01*
X90340606Y-54392905D01*
X90345907Y-54347582D01*
X90353258Y-54315555D01*
X90363143Y-54291668D01*
X90376046Y-54270764D01*
X90381579Y-54262898D01*
X90454969Y-54188595D01*
X90547760Y-54146467D01*
X90655096Y-54134722D01*
X90748886Y-54146505D01*
G36*
X84968823Y-81776533D02*
G01*
X85000202Y-81798776D01*
X85027911Y-81826485D01*
X85027911Y-82135920D01*
X85027838Y-82227799D01*
X85027495Y-82299840D01*
X85026692Y-82354780D01*
X85025241Y-82395360D01*
X85022952Y-82424317D01*
X85019636Y-82444391D01*
X85015105Y-82458321D01*
X85009169Y-82468845D01*
X85004514Y-82475100D01*
X84973783Y-82499673D01*
X84938496Y-82502341D01*
X84906245Y-82487271D01*
X84895588Y-82478374D01*
X84888464Y-82466557D01*
X84884167Y-82447526D01*
X84881991Y-82416992D01*
X84881228Y-82370662D01*
X84881155Y-82334871D01*
X84881155Y-82200045D01*
X84384444Y-82200045D01*
X84384444Y-82322700D01*
X84383931Y-82378787D01*
X84381876Y-82417333D01*
X84377508Y-82443361D01*
X84370056Y-82461897D01*
X84361047Y-82475100D01*
X84330144Y-82499604D01*
X84295196Y-82502506D01*
X84261738Y-82485089D01*
X84252604Y-82475959D01*
X84246152Y-82463855D01*
X84241897Y-82445001D01*
X84239352Y-82415620D01*
X84238029Y-82371937D01*
X84237443Y-82310175D01*
X84237375Y-82296000D01*
X84236891Y-82179631D01*
X84236641Y-82083727D01*
X84236723Y-82006177D01*
X84237231Y-81944869D01*
X84238262Y-81897690D01*
X84239913Y-81862530D01*
X84242279Y-81837276D01*
X84245457Y-81819817D01*
X84249544Y-81808041D01*
X84254634Y-81799835D01*
X84260266Y-81793645D01*
X84292128Y-81773844D01*
X84325357Y-81776533D01*
X84356735Y-81798776D01*
X84369433Y-81813126D01*
X84377526Y-81828978D01*
X84382042Y-81851554D01*
X84384006Y-81886078D01*
X84384444Y-81937776D01*
X84384444Y-82053289D01*
X84881155Y-82053289D01*
X84881155Y-81934756D01*
X84881662Y-81880148D01*
X84883698Y-81843275D01*
X84888035Y-81819307D01*
X84895447Y-81803415D01*
X84903733Y-81793645D01*
X84935594Y-81773844D01*
X84968823Y-81776533D01*
G37*
X84968823Y-81776533D02*
X85000202Y-81798776D01*
X85027911Y-81826485D01*
X85027911Y-82135920D01*
X85027838Y-82227799D01*
X85027495Y-82299840D01*
X85026692Y-82354780D01*
X85025241Y-82395360D01*
X85022952Y-82424317D01*
X85019636Y-82444391D01*
X85015105Y-82458321D01*
X85009169Y-82468845D01*
X85004514Y-82475100D01*
X84973783Y-82499673D01*
X84938496Y-82502341D01*
X84906245Y-82487271D01*
X84895588Y-82478374D01*
X84888464Y-82466557D01*
X84884167Y-82447526D01*
X84881991Y-82416992D01*
X84881228Y-82370662D01*
X84881155Y-82334871D01*
X84881155Y-82200045D01*
X84384444Y-82200045D01*
X84384444Y-82322700D01*
X84383931Y-82378787D01*
X84381876Y-82417333D01*
X84377508Y-82443361D01*
X84370056Y-82461897D01*
X84361047Y-82475100D01*
X84330144Y-82499604D01*
X84295196Y-82502506D01*
X84261738Y-82485089D01*
X84252604Y-82475959D01*
X84246152Y-82463855D01*
X84241897Y-82445001D01*
X84239352Y-82415620D01*
X84238029Y-82371937D01*
X84237443Y-82310175D01*
X84237375Y-82296000D01*
X84236891Y-82179631D01*
X84236641Y-82083727D01*
X84236723Y-82006177D01*
X84237231Y-81944869D01*
X84238262Y-81897690D01*
X84239913Y-81862530D01*
X84242279Y-81837276D01*
X84245457Y-81819817D01*
X84249544Y-81808041D01*
X84254634Y-81799835D01*
X84260266Y-81793645D01*
X84292128Y-81773844D01*
X84325357Y-81776533D01*
X84356735Y-81798776D01*
X84369433Y-81813126D01*
X84377526Y-81828978D01*
X84382042Y-81851554D01*
X84384006Y-81886078D01*
X84384444Y-81937776D01*
X84384444Y-82053289D01*
X84881155Y-82053289D01*
X84881155Y-81934756D01*
X84881662Y-81880148D01*
X84883698Y-81843275D01*
X84888035Y-81819307D01*
X84895447Y-81803415D01*
X84903733Y-81793645D01*
X84935594Y-81773844D01*
X84968823Y-81776533D01*
G36*
X83703065Y-81771163D02*
G01*
X83781772Y-81771542D01*
X83842863Y-81772333D01*
X83888817Y-81773670D01*
X83922114Y-81775683D01*
X83945236Y-81778506D01*
X83960662Y-81782269D01*
X83970871Y-81787105D01*
X83975813Y-81790822D01*
X84001457Y-81823358D01*
X84004559Y-81857138D01*
X83988711Y-81887826D01*
X83978348Y-81900089D01*
X83967196Y-81908450D01*
X83951035Y-81913657D01*
X83925642Y-81916457D01*
X83886798Y-81917596D01*
X83830280Y-81917821D01*
X83819180Y-81917822D01*
X83673244Y-81917822D01*
X83673244Y-82188756D01*
X83673148Y-82274154D01*
X83672711Y-82339864D01*
X83671712Y-82388774D01*
X83669928Y-82423773D01*
X83667137Y-82447749D01*
X83663117Y-82463593D01*
X83657645Y-82474191D01*
X83650666Y-82482267D01*
X83617734Y-82502112D01*
X83583354Y-82500548D01*
X83552176Y-82477906D01*
X83549886Y-82475100D01*
X83542429Y-82464492D01*
X83536747Y-82452081D01*
X83532601Y-82434850D01*
X83529750Y-82409784D01*
X83527954Y-82373867D01*
X83526972Y-82324083D01*
X83526564Y-82257417D01*
X83526489Y-82181589D01*
X83526489Y-81917822D01*
X83387127Y-81917822D01*
X83327322Y-81917418D01*
X83285918Y-81915840D01*
X83258748Y-81912547D01*
X83241646Y-81906992D01*
X83230443Y-81898631D01*
X83229083Y-81897178D01*
X83212725Y-81863939D01*
X83214172Y-81826362D01*
X83232978Y-81793645D01*
X83240250Y-81787298D01*
X83249627Y-81782266D01*
X83263609Y-81778396D01*
X83284696Y-81775537D01*
X83315389Y-81773535D01*
X83358189Y-81772239D01*
X83415595Y-81771498D01*
X83490110Y-81771158D01*
X83584233Y-81771068D01*
X83604260Y-81771067D01*
X83703065Y-81771163D01*
G37*
X83703065Y-81771163D02*
X83781772Y-81771542D01*
X83842863Y-81772333D01*
X83888817Y-81773670D01*
X83922114Y-81775683D01*
X83945236Y-81778506D01*
X83960662Y-81782269D01*
X83970871Y-81787105D01*
X83975813Y-81790822D01*
X84001457Y-81823358D01*
X84004559Y-81857138D01*
X83988711Y-81887826D01*
X83978348Y-81900089D01*
X83967196Y-81908450D01*
X83951035Y-81913657D01*
X83925642Y-81916457D01*
X83886798Y-81917596D01*
X83830280Y-81917821D01*
X83819180Y-81917822D01*
X83673244Y-81917822D01*
X83673244Y-82188756D01*
X83673148Y-82274154D01*
X83672711Y-82339864D01*
X83671712Y-82388774D01*
X83669928Y-82423773D01*
X83667137Y-82447749D01*
X83663117Y-82463593D01*
X83657645Y-82474191D01*
X83650666Y-82482267D01*
X83617734Y-82502112D01*
X83583354Y-82500548D01*
X83552176Y-82477906D01*
X83549886Y-82475100D01*
X83542429Y-82464492D01*
X83536747Y-82452081D01*
X83532601Y-82434850D01*
X83529750Y-82409784D01*
X83527954Y-82373867D01*
X83526972Y-82324083D01*
X83526564Y-82257417D01*
X83526489Y-82181589D01*
X83526489Y-81917822D01*
X83387127Y-81917822D01*
X83327322Y-81917418D01*
X83285918Y-81915840D01*
X83258748Y-81912547D01*
X83241646Y-81906992D01*
X83230443Y-81898631D01*
X83229083Y-81897178D01*
X83212725Y-81863939D01*
X83214172Y-81826362D01*
X83232978Y-81793645D01*
X83240250Y-81787298D01*
X83249627Y-81782266D01*
X83263609Y-81778396D01*
X83284696Y-81775537D01*
X83315389Y-81773535D01*
X83358189Y-81772239D01*
X83415595Y-81771498D01*
X83490110Y-81771158D01*
X83584233Y-81771068D01*
X83604260Y-81771067D01*
X83703065Y-81771163D01*
G36*
X82928614Y-81777877D02*
G01*
X82952327Y-81792647D01*
X82978978Y-81814227D01*
X82978978Y-82135773D01*
X82978893Y-82229830D01*
X82978529Y-82303932D01*
X82977724Y-82360704D01*
X82976313Y-82402768D01*
X82974133Y-82432748D01*
X82971021Y-82453267D01*
X82966814Y-82466949D01*
X82961348Y-82476416D01*
X82957472Y-82481082D01*
X82926034Y-82501575D01*
X82890233Y-82500739D01*
X82858873Y-82483264D01*
X82832222Y-82461684D01*
X82832222Y-81814227D01*
X82858873Y-81792647D01*
X82884594Y-81776949D01*
X82905600Y-81771067D01*
X82928614Y-81777877D01*
G37*
X82928614Y-81777877D02*
X82952327Y-81792647D01*
X82978978Y-81814227D01*
X82978978Y-82135773D01*
X82978893Y-82229830D01*
X82978529Y-82303932D01*
X82977724Y-82360704D01*
X82976313Y-82402768D01*
X82974133Y-82432748D01*
X82971021Y-82453267D01*
X82966814Y-82466949D01*
X82961348Y-82476416D01*
X82957472Y-82481082D01*
X82926034Y-82501575D01*
X82890233Y-82500739D01*
X82858873Y-82483264D01*
X82832222Y-82461684D01*
X82832222Y-81814227D01*
X82858873Y-81792647D01*
X82884594Y-81776949D01*
X82905600Y-81771067D01*
X82928614Y-81777877D01*
G36*
X82484665Y-81773034D02*
G01*
X82504255Y-81780035D01*
X82505010Y-81780377D01*
X82531613Y-81800678D01*
X82546270Y-81821561D01*
X82549138Y-81831352D01*
X82548996Y-81844361D01*
X82544961Y-81862895D01*
X82536146Y-81889257D01*
X82521669Y-81925752D01*
X82500645Y-81974687D01*
X82472188Y-82038365D01*
X82435415Y-82119093D01*
X82415175Y-82163216D01*
X82378625Y-82241985D01*
X82344315Y-82314423D01*
X82313552Y-82377880D01*
X82287648Y-82429708D01*
X82267910Y-82467259D01*
X82255650Y-82487884D01*
X82253224Y-82490733D01*
X82222183Y-82503302D01*
X82187121Y-82501619D01*
X82159000Y-82486332D01*
X82157854Y-82485089D01*
X82146668Y-82468154D01*
X82127904Y-82435170D01*
X82103875Y-82390380D01*
X82076897Y-82338032D01*
X82067201Y-82318742D01*
X81994014Y-82172150D01*
X81914240Y-82331393D01*
X81885767Y-82386415D01*
X81859350Y-82434132D01*
X81837148Y-82470893D01*
X81821319Y-82493044D01*
X81815954Y-82497741D01*
X81774257Y-82504102D01*
X81739849Y-82490733D01*
X81729728Y-82476446D01*
X81712214Y-82444692D01*
X81688735Y-82398597D01*
X81660720Y-82341285D01*
X81629599Y-82275880D01*
X81596799Y-82205507D01*
X81563750Y-82133291D01*
X81531881Y-82062355D01*
X81502619Y-81995825D01*
X81477395Y-81936826D01*
X81457636Y-81888481D01*
X81444772Y-81853915D01*
X81440231Y-81836253D01*
X81440277Y-81835613D01*
X81451326Y-81813388D01*
X81473410Y-81790753D01*
X81474710Y-81789768D01*
X81501853Y-81774425D01*
X81526958Y-81774574D01*
X81536368Y-81777466D01*
X81547834Y-81783718D01*
X81560010Y-81796014D01*
X81574357Y-81816908D01*
X81592336Y-81848949D01*
X81615407Y-81894688D01*
X81645030Y-81956677D01*
X81671745Y-82013898D01*
X81702480Y-82080226D01*
X81730021Y-82139874D01*
X81752938Y-82189725D01*
X81769798Y-82226664D01*
X81779173Y-82247573D01*
X81780540Y-82250845D01*
X81786689Y-82245497D01*
X81800822Y-82223109D01*
X81821057Y-82186946D01*
X81845515Y-82140277D01*
X81855248Y-82121022D01*
X81888217Y-82056004D01*
X81913643Y-82008654D01*
X81933612Y-81976219D01*
X81950210Y-81955946D01*
X81965524Y-81945082D01*
X81981640Y-81940875D01*
X81992143Y-81940400D01*
X82010670Y-81942042D01*
X82026904Y-81948831D01*
X82043035Y-81963566D01*
X82061251Y-81989044D01*
X82083739Y-82028061D01*
X82112689Y-82083414D01*
X82128662Y-82114903D01*
X82154570Y-82165087D01*
X82177167Y-82206704D01*
X82194458Y-82236242D01*
X82204450Y-82250189D01*
X82205809Y-82250770D01*
X82212261Y-82239793D01*
X82226708Y-82211290D01*
X82247703Y-82168244D01*
X82273797Y-82113638D01*
X82303546Y-82050454D01*
X82318180Y-82019071D01*
X82356250Y-81938078D01*
X82386905Y-81875756D01*
X82411737Y-81830071D01*
X82432337Y-81798989D01*
X82450298Y-81780478D01*
X82467210Y-81772504D01*
X82484665Y-81773034D01*
G37*
X82484665Y-81773034D02*
X82504255Y-81780035D01*
X82505010Y-81780377D01*
X82531613Y-81800678D01*
X82546270Y-81821561D01*
X82549138Y-81831352D01*
X82548996Y-81844361D01*
X82544961Y-81862895D01*
X82536146Y-81889257D01*
X82521669Y-81925752D01*
X82500645Y-81974687D01*
X82472188Y-82038365D01*
X82435415Y-82119093D01*
X82415175Y-82163216D01*
X82378625Y-82241985D01*
X82344315Y-82314423D01*
X82313552Y-82377880D01*
X82287648Y-82429708D01*
X82267910Y-82467259D01*
X82255650Y-82487884D01*
X82253224Y-82490733D01*
X82222183Y-82503302D01*
X82187121Y-82501619D01*
X82159000Y-82486332D01*
X82157854Y-82485089D01*
X82146668Y-82468154D01*
X82127904Y-82435170D01*
X82103875Y-82390380D01*
X82076897Y-82338032D01*
X82067201Y-82318742D01*
X81994014Y-82172150D01*
X81914240Y-82331393D01*
X81885767Y-82386415D01*
X81859350Y-82434132D01*
X81837148Y-82470893D01*
X81821319Y-82493044D01*
X81815954Y-82497741D01*
X81774257Y-82504102D01*
X81739849Y-82490733D01*
X81729728Y-82476446D01*
X81712214Y-82444692D01*
X81688735Y-82398597D01*
X81660720Y-82341285D01*
X81629599Y-82275880D01*
X81596799Y-82205507D01*
X81563750Y-82133291D01*
X81531881Y-82062355D01*
X81502619Y-81995825D01*
X81477395Y-81936826D01*
X81457636Y-81888481D01*
X81444772Y-81853915D01*
X81440231Y-81836253D01*
X81440277Y-81835613D01*
X81451326Y-81813388D01*
X81473410Y-81790753D01*
X81474710Y-81789768D01*
X81501853Y-81774425D01*
X81526958Y-81774574D01*
X81536368Y-81777466D01*
X81547834Y-81783718D01*
X81560010Y-81796014D01*
X81574357Y-81816908D01*
X81592336Y-81848949D01*
X81615407Y-81894688D01*
X81645030Y-81956677D01*
X81671745Y-82013898D01*
X81702480Y-82080226D01*
X81730021Y-82139874D01*
X81752938Y-82189725D01*
X81769798Y-82226664D01*
X81779173Y-82247573D01*
X81780540Y-82250845D01*
X81786689Y-82245497D01*
X81800822Y-82223109D01*
X81821057Y-82186946D01*
X81845515Y-82140277D01*
X81855248Y-82121022D01*
X81888217Y-82056004D01*
X81913643Y-82008654D01*
X81933612Y-81976219D01*
X81950210Y-81955946D01*
X81965524Y-81945082D01*
X81981640Y-81940875D01*
X81992143Y-81940400D01*
X82010670Y-81942042D01*
X82026904Y-81948831D01*
X82043035Y-81963566D01*
X82061251Y-81989044D01*
X82083739Y-82028061D01*
X82112689Y-82083414D01*
X82128662Y-82114903D01*
X82154570Y-82165087D01*
X82177167Y-82206704D01*
X82194458Y-82236242D01*
X82204450Y-82250189D01*
X82205809Y-82250770D01*
X82212261Y-82239793D01*
X82226708Y-82211290D01*
X82247703Y-82168244D01*
X82273797Y-82113638D01*
X82303546Y-82050454D01*
X82318180Y-82019071D01*
X82356250Y-81938078D01*
X82386905Y-81875756D01*
X82411737Y-81830071D01*
X82432337Y-81798989D01*
X82450298Y-81780478D01*
X82467210Y-81772504D01*
X82484665Y-81773034D01*
G36*
X79758309Y-81771275D02*
G01*
X79887288Y-81775636D01*
X79996991Y-81788861D01*
X80089226Y-81811741D01*
X80165802Y-81845070D01*
X80228527Y-81889638D01*
X80279212Y-81946236D01*
X80319663Y-82015658D01*
X80320459Y-82017351D01*
X80344601Y-82079483D01*
X80353203Y-82134509D01*
X80346231Y-82189887D01*
X80323654Y-82253073D01*
X80319372Y-82262689D01*
X80290172Y-82318966D01*
X80257356Y-82362451D01*
X80215002Y-82399417D01*
X80157190Y-82436135D01*
X80153831Y-82438052D01*
X80103504Y-82462227D01*
X80046621Y-82480282D01*
X79979527Y-82492839D01*
X79898565Y-82500522D01*
X79800082Y-82503953D01*
X79765286Y-82504251D01*
X79599594Y-82504845D01*
X79576197Y-82475100D01*
X79569257Y-82465319D01*
X79563842Y-82453897D01*
X79559765Y-82438095D01*
X79556837Y-82415175D01*
X79554867Y-82382396D01*
X79554225Y-82358089D01*
X79710844Y-82358089D01*
X79804726Y-82358089D01*
X79859664Y-82356483D01*
X79916060Y-82352255D01*
X79962345Y-82346292D01*
X79965139Y-82345790D01*
X80047348Y-82323736D01*
X80111114Y-82290600D01*
X80158452Y-82244847D01*
X80191382Y-82184939D01*
X80197108Y-82169061D01*
X80202721Y-82144333D01*
X80200291Y-82119902D01*
X80188467Y-82087400D01*
X80181340Y-82071434D01*
X80158000Y-82029006D01*
X80129880Y-81999240D01*
X80098940Y-81978511D01*
X80036966Y-81951537D01*
X79957651Y-81931998D01*
X79865253Y-81920746D01*
X79798333Y-81918270D01*
X79710844Y-81917822D01*
X79710844Y-82358089D01*
X79554225Y-82358089D01*
X79553668Y-82337021D01*
X79553050Y-82276311D01*
X79552825Y-82197526D01*
X79552800Y-82135920D01*
X79552800Y-81826485D01*
X79580509Y-81798776D01*
X79592806Y-81787544D01*
X79606103Y-81779853D01*
X79624672Y-81775040D01*
X79652786Y-81772446D01*
X79694717Y-81771410D01*
X79754737Y-81771270D01*
X79758309Y-81771275D01*
G37*
X79758309Y-81771275D02*
X79887288Y-81775636D01*
X79996991Y-81788861D01*
X80089226Y-81811741D01*
X80165802Y-81845070D01*
X80228527Y-81889638D01*
X80279212Y-81946236D01*
X80319663Y-82015658D01*
X80320459Y-82017351D01*
X80344601Y-82079483D01*
X80353203Y-82134509D01*
X80346231Y-82189887D01*
X80323654Y-82253073D01*
X80319372Y-82262689D01*
X80290172Y-82318966D01*
X80257356Y-82362451D01*
X80215002Y-82399417D01*
X80157190Y-82436135D01*
X80153831Y-82438052D01*
X80103504Y-82462227D01*
X80046621Y-82480282D01*
X79979527Y-82492839D01*
X79898565Y-82500522D01*
X79800082Y-82503953D01*
X79765286Y-82504251D01*
X79599594Y-82504845D01*
X79576197Y-82475100D01*
X79569257Y-82465319D01*
X79563842Y-82453897D01*
X79559765Y-82438095D01*
X79556837Y-82415175D01*
X79554867Y-82382396D01*
X79554225Y-82358089D01*
X79710844Y-82358089D01*
X79804726Y-82358089D01*
X79859664Y-82356483D01*
X79916060Y-82352255D01*
X79962345Y-82346292D01*
X79965139Y-82345790D01*
X80047348Y-82323736D01*
X80111114Y-82290600D01*
X80158452Y-82244847D01*
X80191382Y-82184939D01*
X80197108Y-82169061D01*
X80202721Y-82144333D01*
X80200291Y-82119902D01*
X80188467Y-82087400D01*
X80181340Y-82071434D01*
X80158000Y-82029006D01*
X80129880Y-81999240D01*
X80098940Y-81978511D01*
X80036966Y-81951537D01*
X79957651Y-81931998D01*
X79865253Y-81920746D01*
X79798333Y-81918270D01*
X79710844Y-81917822D01*
X79710844Y-82358089D01*
X79554225Y-82358089D01*
X79553668Y-82337021D01*
X79553050Y-82276311D01*
X79552825Y-82197526D01*
X79552800Y-82135920D01*
X79552800Y-81826485D01*
X79580509Y-81798776D01*
X79592806Y-81787544D01*
X79606103Y-81779853D01*
X79624672Y-81775040D01*
X79652786Y-81772446D01*
X79694717Y-81771410D01*
X79754737Y-81771270D01*
X79758309Y-81771275D01*
G36*
X78970343Y-81771260D02*
G01*
X79046701Y-81772174D01*
X79105217Y-81774311D01*
X79148255Y-81778175D01*
X79178183Y-81784267D01*
X79197368Y-81793090D01*
X79208176Y-81805146D01*
X79212973Y-81820939D01*
X79214127Y-81840970D01*
X79214133Y-81843335D01*
X79213131Y-81865992D01*
X79208396Y-81883503D01*
X79197333Y-81896574D01*
X79177348Y-81905913D01*
X79145846Y-81912227D01*
X79100232Y-81916222D01*
X79037913Y-81918606D01*
X78956293Y-81920086D01*
X78931277Y-81920414D01*
X78689200Y-81923467D01*
X78685814Y-81988378D01*
X78682429Y-82053289D01*
X78850576Y-82053289D01*
X78916266Y-82053531D01*
X78963172Y-82054556D01*
X78995083Y-82056811D01*
X79015791Y-82060742D01*
X79029084Y-82066798D01*
X79038755Y-82075424D01*
X79038817Y-82075493D01*
X79056356Y-82109112D01*
X79055722Y-82145448D01*
X79037314Y-82176423D01*
X79033671Y-82179607D01*
X79020741Y-82187812D01*
X79003024Y-82193521D01*
X78976570Y-82197162D01*
X78937432Y-82199167D01*
X78881662Y-82199964D01*
X78845994Y-82200045D01*
X78683555Y-82200045D01*
X78683555Y-82358089D01*
X78930161Y-82358089D01*
X79011580Y-82358231D01*
X79073410Y-82358814D01*
X79118637Y-82360068D01*
X79150248Y-82362227D01*
X79171231Y-82365523D01*
X79184573Y-82370189D01*
X79193261Y-82376457D01*
X79195450Y-82378733D01*
X79211614Y-82410280D01*
X79212797Y-82446168D01*
X79199536Y-82477285D01*
X79189043Y-82487271D01*
X79178129Y-82492769D01*
X79161217Y-82497022D01*
X79135633Y-82500180D01*
X79098701Y-82502392D01*
X79047746Y-82503806D01*
X78980094Y-82504572D01*
X78893069Y-82504838D01*
X78873394Y-82504845D01*
X78784911Y-82504787D01*
X78716227Y-82504467D01*
X78664564Y-82503667D01*
X78627145Y-82502167D01*
X78601190Y-82499749D01*
X78583922Y-82496194D01*
X78572562Y-82491282D01*
X78564332Y-82484795D01*
X78559817Y-82480138D01*
X78553021Y-82471889D01*
X78547712Y-82461669D01*
X78543706Y-82446800D01*
X78540821Y-82424602D01*
X78538874Y-82392393D01*
X78537681Y-82347496D01*
X78537061Y-82287228D01*
X78536829Y-82208911D01*
X78536800Y-82142994D01*
X78536871Y-82050628D01*
X78537208Y-81978117D01*
X78537998Y-81922737D01*
X78539426Y-81881765D01*
X78541679Y-81852478D01*
X78544943Y-81832153D01*
X78549404Y-81818066D01*
X78555248Y-81807495D01*
X78560197Y-81800811D01*
X78583594Y-81771067D01*
X78873774Y-81771067D01*
X78970343Y-81771260D01*
G37*
X78970343Y-81771260D02*
X79046701Y-81772174D01*
X79105217Y-81774311D01*
X79148255Y-81778175D01*
X79178183Y-81784267D01*
X79197368Y-81793090D01*
X79208176Y-81805146D01*
X79212973Y-81820939D01*
X79214127Y-81840970D01*
X79214133Y-81843335D01*
X79213131Y-81865992D01*
X79208396Y-81883503D01*
X79197333Y-81896574D01*
X79177348Y-81905913D01*
X79145846Y-81912227D01*
X79100232Y-81916222D01*
X79037913Y-81918606D01*
X78956293Y-81920086D01*
X78931277Y-81920414D01*
X78689200Y-81923467D01*
X78685814Y-81988378D01*
X78682429Y-82053289D01*
X78850576Y-82053289D01*
X78916266Y-82053531D01*
X78963172Y-82054556D01*
X78995083Y-82056811D01*
X79015791Y-82060742D01*
X79029084Y-82066798D01*
X79038755Y-82075424D01*
X79038817Y-82075493D01*
X79056356Y-82109112D01*
X79055722Y-82145448D01*
X79037314Y-82176423D01*
X79033671Y-82179607D01*
X79020741Y-82187812D01*
X79003024Y-82193521D01*
X78976570Y-82197162D01*
X78937432Y-82199167D01*
X78881662Y-82199964D01*
X78845994Y-82200045D01*
X78683555Y-82200045D01*
X78683555Y-82358089D01*
X78930161Y-82358089D01*
X79011580Y-82358231D01*
X79073410Y-82358814D01*
X79118637Y-82360068D01*
X79150248Y-82362227D01*
X79171231Y-82365523D01*
X79184573Y-82370189D01*
X79193261Y-82376457D01*
X79195450Y-82378733D01*
X79211614Y-82410280D01*
X79212797Y-82446168D01*
X79199536Y-82477285D01*
X79189043Y-82487271D01*
X79178129Y-82492769D01*
X79161217Y-82497022D01*
X79135633Y-82500180D01*
X79098701Y-82502392D01*
X79047746Y-82503806D01*
X78980094Y-82504572D01*
X78893069Y-82504838D01*
X78873394Y-82504845D01*
X78784911Y-82504787D01*
X78716227Y-82504467D01*
X78664564Y-82503667D01*
X78627145Y-82502167D01*
X78601190Y-82499749D01*
X78583922Y-82496194D01*
X78572562Y-82491282D01*
X78564332Y-82484795D01*
X78559817Y-82480138D01*
X78553021Y-82471889D01*
X78547712Y-82461669D01*
X78543706Y-82446800D01*
X78540821Y-82424602D01*
X78538874Y-82392393D01*
X78537681Y-82347496D01*
X78537061Y-82287228D01*
X78536829Y-82208911D01*
X78536800Y-82142994D01*
X78536871Y-82050628D01*
X78537208Y-81978117D01*
X78537998Y-81922737D01*
X78539426Y-81881765D01*
X78541679Y-81852478D01*
X78544943Y-81832153D01*
X78549404Y-81818066D01*
X78555248Y-81807495D01*
X78560197Y-81800811D01*
X78583594Y-81771067D01*
X78873774Y-81771067D01*
X78970343Y-81771260D01*
G36*
X77439886Y-81775448D02*
G01*
X77463452Y-81789273D01*
X77494265Y-81811881D01*
X77533922Y-81844338D01*
X77584020Y-81887708D01*
X77646157Y-81943058D01*
X77721928Y-82011451D01*
X77808666Y-82090084D01*
X77989289Y-82253878D01*
X77994933Y-82034029D01*
X77996971Y-81958351D01*
X77998937Y-81901994D01*
X78001266Y-81861706D01*
X78004394Y-81834235D01*
X78008755Y-81816329D01*
X78014784Y-81804737D01*
X78022916Y-81796208D01*
X78027228Y-81792623D01*
X78061759Y-81773670D01*
X78094617Y-81776441D01*
X78120682Y-81792633D01*
X78147333Y-81814199D01*
X78150648Y-82129151D01*
X78151565Y-82221779D01*
X78152032Y-82294544D01*
X78151887Y-82350161D01*
X78150968Y-82391342D01*
X78149113Y-82420803D01*
X78146161Y-82441255D01*
X78141950Y-82455413D01*
X78136318Y-82465991D01*
X78130073Y-82474474D01*
X78116561Y-82490207D01*
X78103117Y-82500636D01*
X78087876Y-82504639D01*
X78068974Y-82501094D01*
X78044545Y-82488879D01*
X78012727Y-82466871D01*
X77971652Y-82433949D01*
X77919458Y-82388991D01*
X77854278Y-82330875D01*
X77780444Y-82264099D01*
X77515155Y-82023458D01*
X77509511Y-82242589D01*
X77507469Y-82318128D01*
X77505498Y-82374354D01*
X77503161Y-82414524D01*
X77500019Y-82441896D01*
X77495636Y-82459728D01*
X77489576Y-82471279D01*
X77481400Y-82479807D01*
X77477216Y-82483282D01*
X77440235Y-82502372D01*
X77405292Y-82499493D01*
X77374864Y-82475100D01*
X77367903Y-82465286D01*
X77362477Y-82453826D01*
X77358397Y-82437968D01*
X77355471Y-82414963D01*
X77353508Y-82382062D01*
X77352317Y-82336516D01*
X77351708Y-82275573D01*
X77351489Y-82196486D01*
X77351466Y-82137956D01*
X77351540Y-82046407D01*
X77351887Y-81974687D01*
X77352699Y-81920045D01*
X77354167Y-81879732D01*
X77356481Y-81850998D01*
X77359833Y-81831093D01*
X77364412Y-81817268D01*
X77370411Y-81806772D01*
X77374864Y-81800811D01*
X77386150Y-81786691D01*
X77396699Y-81776029D01*
X77408107Y-81769892D01*
X77421970Y-81769343D01*
X77439886Y-81775448D01*
G37*
X77439886Y-81775448D02*
X77463452Y-81789273D01*
X77494265Y-81811881D01*
X77533922Y-81844338D01*
X77584020Y-81887708D01*
X77646157Y-81943058D01*
X77721928Y-82011451D01*
X77808666Y-82090084D01*
X77989289Y-82253878D01*
X77994933Y-82034029D01*
X77996971Y-81958351D01*
X77998937Y-81901994D01*
X78001266Y-81861706D01*
X78004394Y-81834235D01*
X78008755Y-81816329D01*
X78014784Y-81804737D01*
X78022916Y-81796208D01*
X78027228Y-81792623D01*
X78061759Y-81773670D01*
X78094617Y-81776441D01*
X78120682Y-81792633D01*
X78147333Y-81814199D01*
X78150648Y-82129151D01*
X78151565Y-82221779D01*
X78152032Y-82294544D01*
X78151887Y-82350161D01*
X78150968Y-82391342D01*
X78149113Y-82420803D01*
X78146161Y-82441255D01*
X78141950Y-82455413D01*
X78136318Y-82465991D01*
X78130073Y-82474474D01*
X78116561Y-82490207D01*
X78103117Y-82500636D01*
X78087876Y-82504639D01*
X78068974Y-82501094D01*
X78044545Y-82488879D01*
X78012727Y-82466871D01*
X77971652Y-82433949D01*
X77919458Y-82388991D01*
X77854278Y-82330875D01*
X77780444Y-82264099D01*
X77515155Y-82023458D01*
X77509511Y-82242589D01*
X77507469Y-82318128D01*
X77505498Y-82374354D01*
X77503161Y-82414524D01*
X77500019Y-82441896D01*
X77495636Y-82459728D01*
X77489576Y-82471279D01*
X77481400Y-82479807D01*
X77477216Y-82483282D01*
X77440235Y-82502372D01*
X77405292Y-82499493D01*
X77374864Y-82475100D01*
X77367903Y-82465286D01*
X77362477Y-82453826D01*
X77358397Y-82437968D01*
X77355471Y-82414963D01*
X77353508Y-82382062D01*
X77352317Y-82336516D01*
X77351708Y-82275573D01*
X77351489Y-82196486D01*
X77351466Y-82137956D01*
X77351540Y-82046407D01*
X77351887Y-81974687D01*
X77352699Y-81920045D01*
X77354167Y-81879732D01*
X77356481Y-81850998D01*
X77359833Y-81831093D01*
X77364412Y-81817268D01*
X77370411Y-81806772D01*
X77374864Y-81800811D01*
X77386150Y-81786691D01*
X77396699Y-81776029D01*
X77408107Y-81769892D01*
X77421970Y-81769343D01*
X77439886Y-81775448D01*
G36*
X76789919Y-81776599D02*
G01*
X76858435Y-81788095D01*
X76911057Y-81805967D01*
X76945292Y-81829499D01*
X76954621Y-81842924D01*
X76964107Y-81874148D01*
X76957723Y-81902395D01*
X76937570Y-81929182D01*
X76906255Y-81941713D01*
X76860817Y-81940696D01*
X76825674Y-81933906D01*
X76747581Y-81920971D01*
X76667774Y-81919742D01*
X76578445Y-81930241D01*
X76553771Y-81934690D01*
X76470709Y-81958108D01*
X76405727Y-81992945D01*
X76359539Y-82038604D01*
X76332855Y-82094494D01*
X76327337Y-82123388D01*
X76330949Y-82182012D01*
X76354271Y-82233879D01*
X76395176Y-82277978D01*
X76451541Y-82313299D01*
X76521240Y-82338829D01*
X76602148Y-82353559D01*
X76692140Y-82356478D01*
X76789090Y-82346575D01*
X76794564Y-82345641D01*
X76833125Y-82338459D01*
X76854506Y-82331521D01*
X76863773Y-82321227D01*
X76865994Y-82303976D01*
X76866044Y-82294841D01*
X76866044Y-82256489D01*
X76797569Y-82256489D01*
X76737100Y-82252347D01*
X76695835Y-82239147D01*
X76671825Y-82215730D01*
X76663123Y-82180936D01*
X76663017Y-82176394D01*
X76668108Y-82146654D01*
X76685567Y-82125419D01*
X76718061Y-82111366D01*
X76768257Y-82103173D01*
X76816877Y-82100161D01*
X76887544Y-82098433D01*
X76938802Y-82101070D01*
X76973761Y-82110800D01*
X76995530Y-82130353D01*
X77007220Y-82162456D01*
X77011940Y-82209838D01*
X77012800Y-82272071D01*
X77011391Y-82341535D01*
X77007152Y-82388786D01*
X77000064Y-82414012D01*
X76998689Y-82415988D01*
X76959772Y-82447508D01*
X76902714Y-82472470D01*
X76831131Y-82490340D01*
X76748642Y-82500586D01*
X76658861Y-82502673D01*
X76565408Y-82496068D01*
X76510444Y-82487956D01*
X76424234Y-82463554D01*
X76344108Y-82423662D01*
X76277023Y-82371887D01*
X76266827Y-82361539D01*
X76233698Y-82318035D01*
X76203806Y-82264118D01*
X76180643Y-82207592D01*
X76167702Y-82156259D01*
X76166142Y-82136544D01*
X76172782Y-82095419D01*
X76190432Y-82044252D01*
X76215703Y-81990394D01*
X76245211Y-81941195D01*
X76271281Y-81908334D01*
X76332235Y-81859452D01*
X76411031Y-81820545D01*
X76504843Y-81792494D01*
X76610850Y-81776179D01*
X76708000Y-81772192D01*
X76789919Y-81776599D01*
G37*
X76789919Y-81776599D02*
X76858435Y-81788095D01*
X76911057Y-81805967D01*
X76945292Y-81829499D01*
X76954621Y-81842924D01*
X76964107Y-81874148D01*
X76957723Y-81902395D01*
X76937570Y-81929182D01*
X76906255Y-81941713D01*
X76860817Y-81940696D01*
X76825674Y-81933906D01*
X76747581Y-81920971D01*
X76667774Y-81919742D01*
X76578445Y-81930241D01*
X76553771Y-81934690D01*
X76470709Y-81958108D01*
X76405727Y-81992945D01*
X76359539Y-82038604D01*
X76332855Y-82094494D01*
X76327337Y-82123388D01*
X76330949Y-82182012D01*
X76354271Y-82233879D01*
X76395176Y-82277978D01*
X76451541Y-82313299D01*
X76521240Y-82338829D01*
X76602148Y-82353559D01*
X76692140Y-82356478D01*
X76789090Y-82346575D01*
X76794564Y-82345641D01*
X76833125Y-82338459D01*
X76854506Y-82331521D01*
X76863773Y-82321227D01*
X76865994Y-82303976D01*
X76866044Y-82294841D01*
X76866044Y-82256489D01*
X76797569Y-82256489D01*
X76737100Y-82252347D01*
X76695835Y-82239147D01*
X76671825Y-82215730D01*
X76663123Y-82180936D01*
X76663017Y-82176394D01*
X76668108Y-82146654D01*
X76685567Y-82125419D01*
X76718061Y-82111366D01*
X76768257Y-82103173D01*
X76816877Y-82100161D01*
X76887544Y-82098433D01*
X76938802Y-82101070D01*
X76973761Y-82110800D01*
X76995530Y-82130353D01*
X77007220Y-82162456D01*
X77011940Y-82209838D01*
X77012800Y-82272071D01*
X77011391Y-82341535D01*
X77007152Y-82388786D01*
X77000064Y-82414012D01*
X76998689Y-82415988D01*
X76959772Y-82447508D01*
X76902714Y-82472470D01*
X76831131Y-82490340D01*
X76748642Y-82500586D01*
X76658861Y-82502673D01*
X76565408Y-82496068D01*
X76510444Y-82487956D01*
X76424234Y-82463554D01*
X76344108Y-82423662D01*
X76277023Y-82371887D01*
X76266827Y-82361539D01*
X76233698Y-82318035D01*
X76203806Y-82264118D01*
X76180643Y-82207592D01*
X76167702Y-82156259D01*
X76166142Y-82136544D01*
X76172782Y-82095419D01*
X76190432Y-82044252D01*
X76215703Y-81990394D01*
X76245211Y-81941195D01*
X76271281Y-81908334D01*
X76332235Y-81859452D01*
X76411031Y-81820545D01*
X76504843Y-81792494D01*
X76610850Y-81776179D01*
X76708000Y-81772192D01*
X76789919Y-81776599D01*
G36*
X75816178Y-81793645D02*
G01*
X75822758Y-81801218D01*
X75827921Y-81810987D01*
X75831836Y-81825571D01*
X75834676Y-81847585D01*
X75836613Y-81879648D01*
X75837817Y-81924375D01*
X75838461Y-81984385D01*
X75838716Y-82062294D01*
X75838755Y-82137956D01*
X75838686Y-82231802D01*
X75838362Y-82305689D01*
X75837614Y-82362232D01*
X75836268Y-82404049D01*
X75834154Y-82433757D01*
X75831100Y-82453973D01*
X75826934Y-82467314D01*
X75821484Y-82476398D01*
X75816178Y-82482267D01*
X75783174Y-82501947D01*
X75748009Y-82500181D01*
X75716545Y-82478717D01*
X75709316Y-82470337D01*
X75703666Y-82460614D01*
X75699401Y-82446861D01*
X75696327Y-82426389D01*
X75694248Y-82396512D01*
X75692970Y-82354541D01*
X75692299Y-82297789D01*
X75692041Y-82223567D01*
X75692000Y-82139537D01*
X75692000Y-81826485D01*
X75719709Y-81798776D01*
X75753863Y-81775463D01*
X75786994Y-81774623D01*
X75816178Y-81793645D01*
G37*
X75816178Y-81793645D02*
X75822758Y-81801218D01*
X75827921Y-81810987D01*
X75831836Y-81825571D01*
X75834676Y-81847585D01*
X75836613Y-81879648D01*
X75837817Y-81924375D01*
X75838461Y-81984385D01*
X75838716Y-82062294D01*
X75838755Y-82137956D01*
X75838686Y-82231802D01*
X75838362Y-82305689D01*
X75837614Y-82362232D01*
X75836268Y-82404049D01*
X75834154Y-82433757D01*
X75831100Y-82453973D01*
X75826934Y-82467314D01*
X75821484Y-82476398D01*
X75816178Y-82482267D01*
X75783174Y-82501947D01*
X75748009Y-82500181D01*
X75716545Y-82478717D01*
X75709316Y-82470337D01*
X75703666Y-82460614D01*
X75699401Y-82446861D01*
X75696327Y-82426389D01*
X75694248Y-82396512D01*
X75692970Y-82354541D01*
X75692299Y-82297789D01*
X75692041Y-82223567D01*
X75692000Y-82139537D01*
X75692000Y-81826485D01*
X75719709Y-81798776D01*
X75753863Y-81775463D01*
X75786994Y-81774623D01*
X75816178Y-81793645D01*
G36*
X75048297Y-81772351D02*
G01*
X75123112Y-81777581D01*
X75192694Y-81785750D01*
X75252998Y-81796550D01*
X75299980Y-81809673D01*
X75329594Y-81824813D01*
X75334140Y-81829269D01*
X75349946Y-81863850D01*
X75345153Y-81899351D01*
X75320636Y-81929725D01*
X75319466Y-81930596D01*
X75305046Y-81939954D01*
X75289992Y-81944876D01*
X75268995Y-81945473D01*
X75236743Y-81941861D01*
X75187927Y-81934154D01*
X75184000Y-81933505D01*
X75111261Y-81924569D01*
X75032783Y-81920161D01*
X74954073Y-81920119D01*
X74880639Y-81924279D01*
X74817989Y-81932479D01*
X74771630Y-81944557D01*
X74768584Y-81945771D01*
X74734952Y-81964615D01*
X74723136Y-81983685D01*
X74732386Y-82002439D01*
X74761953Y-82020337D01*
X74811089Y-82036837D01*
X74879043Y-82051396D01*
X74924355Y-82058406D01*
X75018544Y-82071889D01*
X75093456Y-82084214D01*
X75152283Y-82096449D01*
X75198215Y-82109661D01*
X75234445Y-82124917D01*
X75264162Y-82143285D01*
X75290558Y-82165831D01*
X75311770Y-82187971D01*
X75336935Y-82218819D01*
X75349319Y-82245345D01*
X75353192Y-82278026D01*
X75353333Y-82289995D01*
X75350424Y-82329712D01*
X75338798Y-82359259D01*
X75318677Y-82385486D01*
X75277784Y-82425576D01*
X75232183Y-82456149D01*
X75178487Y-82478203D01*
X75113308Y-82492735D01*
X75033256Y-82500741D01*
X74934943Y-82503218D01*
X74918711Y-82503177D01*
X74853151Y-82501818D01*
X74788134Y-82498730D01*
X74730748Y-82494356D01*
X74688078Y-82489140D01*
X74684628Y-82488541D01*
X74642204Y-82478491D01*
X74606220Y-82465796D01*
X74585850Y-82454190D01*
X74566893Y-82423572D01*
X74565573Y-82387918D01*
X74581915Y-82356144D01*
X74585571Y-82352551D01*
X74600685Y-82341876D01*
X74619585Y-82337276D01*
X74648838Y-82338059D01*
X74684349Y-82342127D01*
X74724030Y-82345762D01*
X74779655Y-82348828D01*
X74844594Y-82351053D01*
X74912215Y-82352164D01*
X74930000Y-82352237D01*
X74997872Y-82351964D01*
X75047546Y-82350646D01*
X75083390Y-82347827D01*
X75109776Y-82343050D01*
X75131074Y-82335857D01*
X75143874Y-82329867D01*
X75172000Y-82313233D01*
X75189932Y-82298168D01*
X75192553Y-82293897D01*
X75187024Y-82276263D01*
X75160740Y-82259192D01*
X75115522Y-82243458D01*
X75053192Y-82229838D01*
X75034829Y-82226804D01*
X74938910Y-82211738D01*
X74862359Y-82199146D01*
X74802220Y-82188111D01*
X74755540Y-82177720D01*
X74719363Y-82167056D01*
X74690735Y-82155205D01*
X74666702Y-82141251D01*
X74644308Y-82124281D01*
X74620598Y-82103378D01*
X74612620Y-82096049D01*
X74584647Y-82068699D01*
X74569840Y-82047029D01*
X74564048Y-82022232D01*
X74563111Y-81990983D01*
X74573425Y-81929705D01*
X74604248Y-81877640D01*
X74655405Y-81834958D01*
X74726717Y-81801825D01*
X74777600Y-81786964D01*
X74832900Y-81777366D01*
X74899147Y-81771936D01*
X74972294Y-81770367D01*
X75048297Y-81772351D01*
G37*
X75048297Y-81772351D02*
X75123112Y-81777581D01*
X75192694Y-81785750D01*
X75252998Y-81796550D01*
X75299980Y-81809673D01*
X75329594Y-81824813D01*
X75334140Y-81829269D01*
X75349946Y-81863850D01*
X75345153Y-81899351D01*
X75320636Y-81929725D01*
X75319466Y-81930596D01*
X75305046Y-81939954D01*
X75289992Y-81944876D01*
X75268995Y-81945473D01*
X75236743Y-81941861D01*
X75187927Y-81934154D01*
X75184000Y-81933505D01*
X75111261Y-81924569D01*
X75032783Y-81920161D01*
X74954073Y-81920119D01*
X74880639Y-81924279D01*
X74817989Y-81932479D01*
X74771630Y-81944557D01*
X74768584Y-81945771D01*
X74734952Y-81964615D01*
X74723136Y-81983685D01*
X74732386Y-82002439D01*
X74761953Y-82020337D01*
X74811089Y-82036837D01*
X74879043Y-82051396D01*
X74924355Y-82058406D01*
X75018544Y-82071889D01*
X75093456Y-82084214D01*
X75152283Y-82096449D01*
X75198215Y-82109661D01*
X75234445Y-82124917D01*
X75264162Y-82143285D01*
X75290558Y-82165831D01*
X75311770Y-82187971D01*
X75336935Y-82218819D01*
X75349319Y-82245345D01*
X75353192Y-82278026D01*
X75353333Y-82289995D01*
X75350424Y-82329712D01*
X75338798Y-82359259D01*
X75318677Y-82385486D01*
X75277784Y-82425576D01*
X75232183Y-82456149D01*
X75178487Y-82478203D01*
X75113308Y-82492735D01*
X75033256Y-82500741D01*
X74934943Y-82503218D01*
X74918711Y-82503177D01*
X74853151Y-82501818D01*
X74788134Y-82498730D01*
X74730748Y-82494356D01*
X74688078Y-82489140D01*
X74684628Y-82488541D01*
X74642204Y-82478491D01*
X74606220Y-82465796D01*
X74585850Y-82454190D01*
X74566893Y-82423572D01*
X74565573Y-82387918D01*
X74581915Y-82356144D01*
X74585571Y-82352551D01*
X74600685Y-82341876D01*
X74619585Y-82337276D01*
X74648838Y-82338059D01*
X74684349Y-82342127D01*
X74724030Y-82345762D01*
X74779655Y-82348828D01*
X74844594Y-82351053D01*
X74912215Y-82352164D01*
X74930000Y-82352237D01*
X74997872Y-82351964D01*
X75047546Y-82350646D01*
X75083390Y-82347827D01*
X75109776Y-82343050D01*
X75131074Y-82335857D01*
X75143874Y-82329867D01*
X75172000Y-82313233D01*
X75189932Y-82298168D01*
X75192553Y-82293897D01*
X75187024Y-82276263D01*
X75160740Y-82259192D01*
X75115522Y-82243458D01*
X75053192Y-82229838D01*
X75034829Y-82226804D01*
X74938910Y-82211738D01*
X74862359Y-82199146D01*
X74802220Y-82188111D01*
X74755540Y-82177720D01*
X74719363Y-82167056D01*
X74690735Y-82155205D01*
X74666702Y-82141251D01*
X74644308Y-82124281D01*
X74620598Y-82103378D01*
X74612620Y-82096049D01*
X74584647Y-82068699D01*
X74569840Y-82047029D01*
X74564048Y-82022232D01*
X74563111Y-81990983D01*
X74573425Y-81929705D01*
X74604248Y-81877640D01*
X74655405Y-81834958D01*
X74726717Y-81801825D01*
X74777600Y-81786964D01*
X74832900Y-81777366D01*
X74899147Y-81771936D01*
X74972294Y-81770367D01*
X75048297Y-81772351D01*
G36*
X74027206Y-81771146D02*
G01*
X74096614Y-81771518D01*
X74149003Y-81772385D01*
X74187153Y-81773946D01*
X74213841Y-81776403D01*
X74231847Y-81779957D01*
X74243951Y-81784810D01*
X74252931Y-81791161D01*
X74256182Y-81794084D01*
X74275957Y-81825142D01*
X74279518Y-81860828D01*
X74266509Y-81892510D01*
X74260494Y-81898913D01*
X74250765Y-81905121D01*
X74235099Y-81909910D01*
X74210592Y-81913514D01*
X74174339Y-81916164D01*
X74123435Y-81918095D01*
X74054974Y-81919539D01*
X73992383Y-81920418D01*
X73744666Y-81923467D01*
X73741281Y-81988378D01*
X73737895Y-82053289D01*
X73906042Y-82053289D01*
X73979041Y-82053919D01*
X74032483Y-82056553D01*
X74069372Y-82062309D01*
X74092712Y-82072304D01*
X74105506Y-82087656D01*
X74110758Y-82109482D01*
X74111555Y-82129738D01*
X74109077Y-82154592D01*
X74099723Y-82172906D01*
X74080617Y-82185637D01*
X74048882Y-82193741D01*
X74001641Y-82198176D01*
X73936017Y-82199899D01*
X73900199Y-82200045D01*
X73739022Y-82200045D01*
X73739022Y-82358089D01*
X73987378Y-82358089D01*
X74068787Y-82358202D01*
X74130658Y-82358712D01*
X74176032Y-82359870D01*
X74207946Y-82361930D01*
X74229441Y-82365146D01*
X74243557Y-82369772D01*
X74253332Y-82376059D01*
X74258311Y-82380667D01*
X74275390Y-82407560D01*
X74280889Y-82431467D01*
X74273037Y-82460667D01*
X74258311Y-82482267D01*
X74250454Y-82489066D01*
X74240312Y-82494346D01*
X74225156Y-82498298D01*
X74202259Y-82501113D01*
X74168891Y-82502982D01*
X74122325Y-82504098D01*
X74059833Y-82504651D01*
X73978686Y-82504833D01*
X73936578Y-82504845D01*
X73846402Y-82504765D01*
X73776076Y-82504398D01*
X73722871Y-82503552D01*
X73684060Y-82502036D01*
X73656913Y-82499659D01*
X73638702Y-82496229D01*
X73626700Y-82491554D01*
X73618178Y-82485444D01*
X73614844Y-82482267D01*
X73608245Y-82474670D01*
X73603073Y-82464870D01*
X73599154Y-82450239D01*
X73596316Y-82428152D01*
X73594385Y-82395982D01*
X73593188Y-82351103D01*
X73592552Y-82290889D01*
X73592303Y-82212713D01*
X73592266Y-82139923D01*
X73592300Y-82046707D01*
X73592535Y-81973431D01*
X73593170Y-81917458D01*
X73594406Y-81876151D01*
X73596444Y-81846872D01*
X73599483Y-81826984D01*
X73603723Y-81813850D01*
X73609365Y-81804832D01*
X73616609Y-81797293D01*
X73618394Y-81795612D01*
X73627055Y-81788172D01*
X73637118Y-81782409D01*
X73651375Y-81778112D01*
X73672617Y-81775064D01*
X73703636Y-81773051D01*
X73747223Y-81771860D01*
X73806169Y-81771275D01*
X73883266Y-81771083D01*
X73937999Y-81771067D01*
X74027206Y-81771146D01*
G37*
X74027206Y-81771146D02*
X74096614Y-81771518D01*
X74149003Y-81772385D01*
X74187153Y-81773946D01*
X74213841Y-81776403D01*
X74231847Y-81779957D01*
X74243951Y-81784810D01*
X74252931Y-81791161D01*
X74256182Y-81794084D01*
X74275957Y-81825142D01*
X74279518Y-81860828D01*
X74266509Y-81892510D01*
X74260494Y-81898913D01*
X74250765Y-81905121D01*
X74235099Y-81909910D01*
X74210592Y-81913514D01*
X74174339Y-81916164D01*
X74123435Y-81918095D01*
X74054974Y-81919539D01*
X73992383Y-81920418D01*
X73744666Y-81923467D01*
X73741281Y-81988378D01*
X73737895Y-82053289D01*
X73906042Y-82053289D01*
X73979041Y-82053919D01*
X74032483Y-82056553D01*
X74069372Y-82062309D01*
X74092712Y-82072304D01*
X74105506Y-82087656D01*
X74110758Y-82109482D01*
X74111555Y-82129738D01*
X74109077Y-82154592D01*
X74099723Y-82172906D01*
X74080617Y-82185637D01*
X74048882Y-82193741D01*
X74001641Y-82198176D01*
X73936017Y-82199899D01*
X73900199Y-82200045D01*
X73739022Y-82200045D01*
X73739022Y-82358089D01*
X73987378Y-82358089D01*
X74068787Y-82358202D01*
X74130658Y-82358712D01*
X74176032Y-82359870D01*
X74207946Y-82361930D01*
X74229441Y-82365146D01*
X74243557Y-82369772D01*
X74253332Y-82376059D01*
X74258311Y-82380667D01*
X74275390Y-82407560D01*
X74280889Y-82431467D01*
X74273037Y-82460667D01*
X74258311Y-82482267D01*
X74250454Y-82489066D01*
X74240312Y-82494346D01*
X74225156Y-82498298D01*
X74202259Y-82501113D01*
X74168891Y-82502982D01*
X74122325Y-82504098D01*
X74059833Y-82504651D01*
X73978686Y-82504833D01*
X73936578Y-82504845D01*
X73846402Y-82504765D01*
X73776076Y-82504398D01*
X73722871Y-82503552D01*
X73684060Y-82502036D01*
X73656913Y-82499659D01*
X73638702Y-82496229D01*
X73626700Y-82491554D01*
X73618178Y-82485444D01*
X73614844Y-82482267D01*
X73608245Y-82474670D01*
X73603073Y-82464870D01*
X73599154Y-82450239D01*
X73596316Y-82428152D01*
X73594385Y-82395982D01*
X73593188Y-82351103D01*
X73592552Y-82290889D01*
X73592303Y-82212713D01*
X73592266Y-82139923D01*
X73592300Y-82046707D01*
X73592535Y-81973431D01*
X73593170Y-81917458D01*
X73594406Y-81876151D01*
X73596444Y-81846872D01*
X73599483Y-81826984D01*
X73603723Y-81813850D01*
X73609365Y-81804832D01*
X73616609Y-81797293D01*
X73618394Y-81795612D01*
X73627055Y-81788172D01*
X73637118Y-81782409D01*
X73651375Y-81778112D01*
X73672617Y-81775064D01*
X73703636Y-81773051D01*
X73747223Y-81771860D01*
X73806169Y-81771275D01*
X73883266Y-81771083D01*
X73937999Y-81771067D01*
X74027206Y-81771146D01*
G36*
X72618629Y-81771066D02*
G01*
X72658111Y-81771467D01*
X72773800Y-81774259D01*
X72870689Y-81782550D01*
X72952081Y-81797232D01*
X73021277Y-81819193D01*
X73081580Y-81849322D01*
X73136292Y-81888510D01*
X73155833Y-81905532D01*
X73188250Y-81945363D01*
X73217480Y-81999413D01*
X73240009Y-82059323D01*
X73252321Y-82116739D01*
X73253600Y-82137956D01*
X73245583Y-82196769D01*
X73224101Y-82261013D01*
X73193001Y-82321821D01*
X73156134Y-82370330D01*
X73150146Y-82376182D01*
X73099421Y-82417321D01*
X73043875Y-82449435D01*
X72980304Y-82473365D01*
X72905506Y-82489953D01*
X72816278Y-82500041D01*
X72709418Y-82504469D01*
X72660472Y-82504845D01*
X72598238Y-82504545D01*
X72554472Y-82503292D01*
X72525069Y-82500554D01*
X72505921Y-82495801D01*
X72492923Y-82488501D01*
X72485955Y-82482267D01*
X72479374Y-82474694D01*
X72474212Y-82464924D01*
X72470297Y-82450340D01*
X72467457Y-82428326D01*
X72465520Y-82396264D01*
X72464316Y-82351536D01*
X72463672Y-82291526D01*
X72463417Y-82213617D01*
X72463378Y-82137956D01*
X72463130Y-82037041D01*
X72463183Y-81956427D01*
X72464143Y-81917822D01*
X72610133Y-81917822D01*
X72610133Y-82358089D01*
X72703266Y-82358004D01*
X72759307Y-82356396D01*
X72818001Y-82352256D01*
X72866972Y-82346464D01*
X72868462Y-82346226D01*
X72947608Y-82327090D01*
X73008998Y-82297287D01*
X73055695Y-82254878D01*
X73085365Y-82208961D01*
X73103647Y-82158026D01*
X73102229Y-82110200D01*
X73081012Y-82058933D01*
X73039511Y-82005899D01*
X72982002Y-81966600D01*
X72907250Y-81940331D01*
X72857292Y-81931035D01*
X72800584Y-81924507D01*
X72740481Y-81919782D01*
X72689361Y-81917817D01*
X72686333Y-81917808D01*
X72610133Y-81917822D01*
X72464143Y-81917822D01*
X72464740Y-81893851D01*
X72469002Y-81847055D01*
X72477170Y-81813778D01*
X72490444Y-81791759D01*
X72510026Y-81778739D01*
X72537117Y-81772457D01*
X72572918Y-81770653D01*
X72618629Y-81771066D01*
G37*
X72618629Y-81771066D02*
X72658111Y-81771467D01*
X72773800Y-81774259D01*
X72870689Y-81782550D01*
X72952081Y-81797232D01*
X73021277Y-81819193D01*
X73081580Y-81849322D01*
X73136292Y-81888510D01*
X73155833Y-81905532D01*
X73188250Y-81945363D01*
X73217480Y-81999413D01*
X73240009Y-82059323D01*
X73252321Y-82116739D01*
X73253600Y-82137956D01*
X73245583Y-82196769D01*
X73224101Y-82261013D01*
X73193001Y-82321821D01*
X73156134Y-82370330D01*
X73150146Y-82376182D01*
X73099421Y-82417321D01*
X73043875Y-82449435D01*
X72980304Y-82473365D01*
X72905506Y-82489953D01*
X72816278Y-82500041D01*
X72709418Y-82504469D01*
X72660472Y-82504845D01*
X72598238Y-82504545D01*
X72554472Y-82503292D01*
X72525069Y-82500554D01*
X72505921Y-82495801D01*
X72492923Y-82488501D01*
X72485955Y-82482267D01*
X72479374Y-82474694D01*
X72474212Y-82464924D01*
X72470297Y-82450340D01*
X72467457Y-82428326D01*
X72465520Y-82396264D01*
X72464316Y-82351536D01*
X72463672Y-82291526D01*
X72463417Y-82213617D01*
X72463378Y-82137956D01*
X72463130Y-82037041D01*
X72463183Y-81956427D01*
X72464143Y-81917822D01*
X72610133Y-81917822D01*
X72610133Y-82358089D01*
X72703266Y-82358004D01*
X72759307Y-82356396D01*
X72818001Y-82352256D01*
X72866972Y-82346464D01*
X72868462Y-82346226D01*
X72947608Y-82327090D01*
X73008998Y-82297287D01*
X73055695Y-82254878D01*
X73085365Y-82208961D01*
X73103647Y-82158026D01*
X73102229Y-82110200D01*
X73081012Y-82058933D01*
X73039511Y-82005899D01*
X72982002Y-81966600D01*
X72907250Y-81940331D01*
X72857292Y-81931035D01*
X72800584Y-81924507D01*
X72740481Y-81919782D01*
X72689361Y-81917817D01*
X72686333Y-81917808D01*
X72610133Y-81917822D01*
X72464143Y-81917822D01*
X72464740Y-81893851D01*
X72469002Y-81847055D01*
X72477170Y-81813778D01*
X72490444Y-81791759D01*
X72510026Y-81778739D01*
X72537117Y-81772457D01*
X72572918Y-81770653D01*
X72618629Y-81771066D01*
G36*
X76466957Y-76528571D02*
G01*
X76563232Y-76552809D01*
X76649816Y-76595641D01*
X76724627Y-76655419D01*
X76785582Y-76730494D01*
X76830601Y-76819220D01*
X76856864Y-76915530D01*
X76862714Y-77012795D01*
X76847860Y-77106654D01*
X76814160Y-77194511D01*
X76763472Y-77273770D01*
X76697655Y-77341836D01*
X76618566Y-77396112D01*
X76528066Y-77434002D01*
X76476800Y-77446426D01*
X76432302Y-77453947D01*
X76398001Y-77456919D01*
X76365040Y-77455094D01*
X76324566Y-77448225D01*
X76291469Y-77441250D01*
X76198053Y-77409741D01*
X76114381Y-77358617D01*
X76042335Y-77289429D01*
X75983800Y-77203728D01*
X75969852Y-77176489D01*
X75953414Y-77140122D01*
X75943106Y-77109582D01*
X75937540Y-77077450D01*
X75935331Y-77036307D01*
X75935052Y-76990222D01*
X75939139Y-76905865D01*
X75952554Y-76836586D01*
X75977744Y-76775961D01*
X76017154Y-76717567D01*
X76055702Y-76673302D01*
X76127594Y-76607484D01*
X76202687Y-76562053D01*
X76285438Y-76534850D01*
X76363072Y-76524576D01*
X76466957Y-76528571D01*
G37*
X76466957Y-76528571D02*
X76563232Y-76552809D01*
X76649816Y-76595641D01*
X76724627Y-76655419D01*
X76785582Y-76730494D01*
X76830601Y-76819220D01*
X76856864Y-76915530D01*
X76862714Y-77012795D01*
X76847860Y-77106654D01*
X76814160Y-77194511D01*
X76763472Y-77273770D01*
X76697655Y-77341836D01*
X76618566Y-77396112D01*
X76528066Y-77434002D01*
X76476800Y-77446426D01*
X76432302Y-77453947D01*
X76398001Y-77456919D01*
X76365040Y-77455094D01*
X76324566Y-77448225D01*
X76291469Y-77441250D01*
X76198053Y-77409741D01*
X76114381Y-77358617D01*
X76042335Y-77289429D01*
X75983800Y-77203728D01*
X75969852Y-77176489D01*
X75953414Y-77140122D01*
X75943106Y-77109582D01*
X75937540Y-77077450D01*
X75935331Y-77036307D01*
X75935052Y-76990222D01*
X75939139Y-76905865D01*
X75952554Y-76836586D01*
X75977744Y-76775961D01*
X76017154Y-76717567D01*
X76055702Y-76673302D01*
X76127594Y-76607484D01*
X76202687Y-76562053D01*
X76285438Y-76534850D01*
X76363072Y-76524576D01*
X76466957Y-76528571D01*
G36*
X84926507Y-78974245D02*
G01*
X84926526Y-79208662D01*
X84926552Y-79421603D01*
X84926625Y-79614168D01*
X84926782Y-79787459D01*
X84927064Y-79942576D01*
X84927509Y-80080620D01*
X84928156Y-80202692D01*
X84929045Y-80309894D01*
X84930213Y-80403326D01*
X84931701Y-80484090D01*
X84933546Y-80553286D01*
X84935789Y-80612015D01*
X84938469Y-80661379D01*
X84941623Y-80702478D01*
X84945292Y-80736413D01*
X84949513Y-80764286D01*
X84954327Y-80787198D01*
X84959773Y-80806249D01*
X84965888Y-80822540D01*
X84972712Y-80837173D01*
X84980285Y-80851249D01*
X84988645Y-80865868D01*
X84993839Y-80874974D01*
X85028104Y-80935689D01*
X84169955Y-80935689D01*
X84169955Y-80839733D01*
X84169224Y-80796370D01*
X84167272Y-80763205D01*
X84164463Y-80745424D01*
X84163221Y-80743778D01*
X84151799Y-80750662D01*
X84129084Y-80768505D01*
X84106385Y-80787879D01*
X84051800Y-80828614D01*
X83982321Y-80869617D01*
X83905270Y-80907123D01*
X83827965Y-80937364D01*
X83797113Y-80947012D01*
X83728616Y-80961578D01*
X83645764Y-80971539D01*
X83556371Y-80976583D01*
X83468248Y-80976396D01*
X83389207Y-80970666D01*
X83351511Y-80964858D01*
X83213414Y-80926797D01*
X83086113Y-80869073D01*
X82970292Y-80792211D01*
X82866637Y-80696739D01*
X82775833Y-80583179D01*
X82709031Y-80472381D01*
X82654164Y-80355625D01*
X82612163Y-80236276D01*
X82582167Y-80110283D01*
X82563311Y-79973594D01*
X82554732Y-79822158D01*
X82554006Y-79744711D01*
X82556100Y-79687934D01*
X83385217Y-79687934D01*
X83385424Y-79781002D01*
X83388337Y-79868692D01*
X83394000Y-79945772D01*
X83402455Y-80007009D01*
X83405038Y-80019350D01*
X83436840Y-80126633D01*
X83478498Y-80213658D01*
X83530363Y-80280642D01*
X83592781Y-80327805D01*
X83666100Y-80355365D01*
X83750669Y-80363541D01*
X83846835Y-80352551D01*
X83910311Y-80336829D01*
X83959454Y-80318639D01*
X84013583Y-80292791D01*
X84054244Y-80269089D01*
X84124800Y-80222721D01*
X84124800Y-79072530D01*
X84057392Y-79028962D01*
X83978867Y-78988040D01*
X83894681Y-78961389D01*
X83809557Y-78949465D01*
X83728216Y-78952722D01*
X83655380Y-78971615D01*
X83623426Y-78987184D01*
X83565501Y-79030181D01*
X83516544Y-79086953D01*
X83475390Y-79159575D01*
X83440874Y-79250121D01*
X83411833Y-79360666D01*
X83410552Y-79366533D01*
X83400381Y-79428788D01*
X83392739Y-79506594D01*
X83387670Y-79594720D01*
X83385217Y-79687934D01*
X82556100Y-79687934D01*
X82561857Y-79531895D01*
X82583802Y-79336059D01*
X82619786Y-79157332D01*
X82669759Y-78995845D01*
X82733668Y-78851726D01*
X82811462Y-78725106D01*
X82903089Y-78616115D01*
X83008497Y-78524883D01*
X83053662Y-78493932D01*
X83154611Y-78437785D01*
X83257901Y-78398174D01*
X83367989Y-78374014D01*
X83489330Y-78364219D01*
X83581836Y-78365265D01*
X83711490Y-78376231D01*
X83824084Y-78398046D01*
X83922875Y-78431714D01*
X84011121Y-78478236D01*
X84059986Y-78512448D01*
X84089353Y-78534362D01*
X84111043Y-78549333D01*
X84119253Y-78553733D01*
X84120868Y-78542904D01*
X84122159Y-78512251D01*
X84123138Y-78464526D01*
X84123817Y-78402479D01*
X84124210Y-78328862D01*
X84124330Y-78246427D01*
X84124188Y-78157925D01*
X84123797Y-78066107D01*
X84123171Y-77973724D01*
X84122320Y-77883528D01*
X84121260Y-77798271D01*
X84120001Y-77720703D01*
X84118556Y-77653576D01*
X84116938Y-77599641D01*
X84115161Y-77561650D01*
X84114669Y-77554667D01*
X84107092Y-77484251D01*
X84095531Y-77429102D01*
X84077792Y-77381981D01*
X84051682Y-77335647D01*
X84045415Y-77326067D01*
X84020983Y-77289378D01*
X84926311Y-77289378D01*
X84926507Y-78974245D01*
G37*
X84926507Y-78974245D02*
X84926526Y-79208662D01*
X84926552Y-79421603D01*
X84926625Y-79614168D01*
X84926782Y-79787459D01*
X84927064Y-79942576D01*
X84927509Y-80080620D01*
X84928156Y-80202692D01*
X84929045Y-80309894D01*
X84930213Y-80403326D01*
X84931701Y-80484090D01*
X84933546Y-80553286D01*
X84935789Y-80612015D01*
X84938469Y-80661379D01*
X84941623Y-80702478D01*
X84945292Y-80736413D01*
X84949513Y-80764286D01*
X84954327Y-80787198D01*
X84959773Y-80806249D01*
X84965888Y-80822540D01*
X84972712Y-80837173D01*
X84980285Y-80851249D01*
X84988645Y-80865868D01*
X84993839Y-80874974D01*
X85028104Y-80935689D01*
X84169955Y-80935689D01*
X84169955Y-80839733D01*
X84169224Y-80796370D01*
X84167272Y-80763205D01*
X84164463Y-80745424D01*
X84163221Y-80743778D01*
X84151799Y-80750662D01*
X84129084Y-80768505D01*
X84106385Y-80787879D01*
X84051800Y-80828614D01*
X83982321Y-80869617D01*
X83905270Y-80907123D01*
X83827965Y-80937364D01*
X83797113Y-80947012D01*
X83728616Y-80961578D01*
X83645764Y-80971539D01*
X83556371Y-80976583D01*
X83468248Y-80976396D01*
X83389207Y-80970666D01*
X83351511Y-80964858D01*
X83213414Y-80926797D01*
X83086113Y-80869073D01*
X82970292Y-80792211D01*
X82866637Y-80696739D01*
X82775833Y-80583179D01*
X82709031Y-80472381D01*
X82654164Y-80355625D01*
X82612163Y-80236276D01*
X82582167Y-80110283D01*
X82563311Y-79973594D01*
X82554732Y-79822158D01*
X82554006Y-79744711D01*
X82556100Y-79687934D01*
X83385217Y-79687934D01*
X83385424Y-79781002D01*
X83388337Y-79868692D01*
X83394000Y-79945772D01*
X83402455Y-80007009D01*
X83405038Y-80019350D01*
X83436840Y-80126633D01*
X83478498Y-80213658D01*
X83530363Y-80280642D01*
X83592781Y-80327805D01*
X83666100Y-80355365D01*
X83750669Y-80363541D01*
X83846835Y-80352551D01*
X83910311Y-80336829D01*
X83959454Y-80318639D01*
X84013583Y-80292791D01*
X84054244Y-80269089D01*
X84124800Y-80222721D01*
X84124800Y-79072530D01*
X84057392Y-79028962D01*
X83978867Y-78988040D01*
X83894681Y-78961389D01*
X83809557Y-78949465D01*
X83728216Y-78952722D01*
X83655380Y-78971615D01*
X83623426Y-78987184D01*
X83565501Y-79030181D01*
X83516544Y-79086953D01*
X83475390Y-79159575D01*
X83440874Y-79250121D01*
X83411833Y-79360666D01*
X83410552Y-79366533D01*
X83400381Y-79428788D01*
X83392739Y-79506594D01*
X83387670Y-79594720D01*
X83385217Y-79687934D01*
X82556100Y-79687934D01*
X82561857Y-79531895D01*
X82583802Y-79336059D01*
X82619786Y-79157332D01*
X82669759Y-78995845D01*
X82733668Y-78851726D01*
X82811462Y-78725106D01*
X82903089Y-78616115D01*
X83008497Y-78524883D01*
X83053662Y-78493932D01*
X83154611Y-78437785D01*
X83257901Y-78398174D01*
X83367989Y-78374014D01*
X83489330Y-78364219D01*
X83581836Y-78365265D01*
X83711490Y-78376231D01*
X83824084Y-78398046D01*
X83922875Y-78431714D01*
X84011121Y-78478236D01*
X84059986Y-78512448D01*
X84089353Y-78534362D01*
X84111043Y-78549333D01*
X84119253Y-78553733D01*
X84120868Y-78542904D01*
X84122159Y-78512251D01*
X84123138Y-78464526D01*
X84123817Y-78402479D01*
X84124210Y-78328862D01*
X84124330Y-78246427D01*
X84124188Y-78157925D01*
X84123797Y-78066107D01*
X84123171Y-77973724D01*
X84122320Y-77883528D01*
X84121260Y-77798271D01*
X84120001Y-77720703D01*
X84118556Y-77653576D01*
X84116938Y-77599641D01*
X84115161Y-77561650D01*
X84114669Y-77554667D01*
X84107092Y-77484251D01*
X84095531Y-77429102D01*
X84077792Y-77381981D01*
X84051682Y-77335647D01*
X84045415Y-77326067D01*
X84020983Y-77289378D01*
X84926311Y-77289378D01*
X84926507Y-78974245D01*
G36*
X81413574Y-78368552D02*
G01*
X81565492Y-78388567D01*
X81700756Y-78422202D01*
X81820239Y-78469725D01*
X81924815Y-78531405D01*
X82002424Y-78594965D01*
X82071265Y-78669099D01*
X82125006Y-78748871D01*
X82167910Y-78841091D01*
X82183384Y-78884161D01*
X82196244Y-78923142D01*
X82207446Y-78959289D01*
X82217120Y-78994434D01*
X82225396Y-79030410D01*
X82232403Y-79069050D01*
X82238272Y-79112185D01*
X82243131Y-79161649D01*
X82247110Y-79219273D01*
X82250340Y-79286891D01*
X82252949Y-79366334D01*
X82255067Y-79459436D01*
X82256824Y-79568027D01*
X82258349Y-79693942D01*
X82259772Y-79839012D01*
X82261025Y-79981778D01*
X82262351Y-80137968D01*
X82263556Y-80273239D01*
X82264766Y-80389246D01*
X82266106Y-80487645D01*
X82267700Y-80570093D01*
X82269675Y-80638246D01*
X82272156Y-80693760D01*
X82275269Y-80738292D01*
X82279138Y-80773498D01*
X82283889Y-80801034D01*
X82289648Y-80822556D01*
X82296539Y-80839722D01*
X82304689Y-80854186D01*
X82314223Y-80867606D01*
X82325266Y-80881638D01*
X82329566Y-80887071D01*
X82345386Y-80909910D01*
X82352422Y-80925463D01*
X82352444Y-80925922D01*
X82341567Y-80928121D01*
X82310582Y-80930147D01*
X82261957Y-80931942D01*
X82198163Y-80933451D01*
X82121669Y-80934616D01*
X82034944Y-80935380D01*
X81940457Y-80935686D01*
X81929550Y-80935689D01*
X81506657Y-80935689D01*
X81503395Y-80839622D01*
X81500133Y-80743556D01*
X81438044Y-80794543D01*
X81340714Y-80862057D01*
X81230813Y-80916749D01*
X81144349Y-80946978D01*
X81075278Y-80961666D01*
X80991925Y-80971659D01*
X80902159Y-80976646D01*
X80813845Y-80976313D01*
X80734851Y-80970351D01*
X80698622Y-80964638D01*
X80558603Y-80926776D01*
X80432178Y-80871932D01*
X80320260Y-80800924D01*
X80223762Y-80714568D01*
X80143600Y-80613679D01*
X80080687Y-80499076D01*
X80036312Y-80372984D01*
X80023978Y-80316401D01*
X80016368Y-80254202D01*
X80012739Y-80179363D01*
X80012245Y-80145467D01*
X80012310Y-80142282D01*
X80772248Y-80142282D01*
X80781541Y-80217333D01*
X80809728Y-80281160D01*
X80858197Y-80336798D01*
X80863254Y-80341211D01*
X80911548Y-80376037D01*
X80963257Y-80398620D01*
X81023989Y-80410540D01*
X81099352Y-80413383D01*
X81117459Y-80412978D01*
X81171278Y-80410325D01*
X81211308Y-80404909D01*
X81246324Y-80394745D01*
X81285103Y-80377850D01*
X81295745Y-80372672D01*
X81356396Y-80336844D01*
X81403215Y-80294212D01*
X81415952Y-80278973D01*
X81460622Y-80222462D01*
X81460622Y-80026586D01*
X81460086Y-79947939D01*
X81458396Y-79889988D01*
X81455428Y-79850875D01*
X81451057Y-79828741D01*
X81446972Y-79822274D01*
X81431047Y-79819111D01*
X81397264Y-79816488D01*
X81350340Y-79814655D01*
X81294993Y-79813857D01*
X81286106Y-79813842D01*
X81165330Y-79819096D01*
X81062660Y-79835263D01*
X80976106Y-79862961D01*
X80903681Y-79902808D01*
X80848751Y-79949758D01*
X80804204Y-80007645D01*
X80779480Y-80070693D01*
X80772248Y-80142282D01*
X80012310Y-80142282D01*
X80014178Y-80051712D01*
X80022522Y-79972812D01*
X80038768Y-79901590D01*
X80064405Y-79830864D01*
X80088401Y-79778493D01*
X80147020Y-79683196D01*
X80225117Y-79595170D01*
X80320315Y-79516017D01*
X80430238Y-79447340D01*
X80552510Y-79390741D01*
X80684755Y-79347821D01*
X80749422Y-79332882D01*
X80885604Y-79310777D01*
X81034049Y-79296194D01*
X81185505Y-79289813D01*
X81312064Y-79291445D01*
X81473950Y-79298224D01*
X81466530Y-79239245D01*
X81447238Y-79140092D01*
X81416104Y-79059372D01*
X81372269Y-78996466D01*
X81314871Y-78950756D01*
X81243048Y-78921622D01*
X81155941Y-78908447D01*
X81052686Y-78910611D01*
X81014711Y-78914612D01*
X80873520Y-78939780D01*
X80736707Y-78980814D01*
X80642178Y-79018815D01*
X80597018Y-79038190D01*
X80558585Y-79053760D01*
X80532234Y-79063405D01*
X80524546Y-79065452D01*
X80514802Y-79056374D01*
X80498083Y-79027405D01*
X80474232Y-78978217D01*
X80443093Y-78908484D01*
X80404507Y-78817879D01*
X80397910Y-78802089D01*
X80367853Y-78729772D01*
X80340874Y-78664425D01*
X80318136Y-78608906D01*
X80300806Y-78566072D01*
X80290048Y-78538781D01*
X80286941Y-78529942D01*
X80296940Y-78525187D01*
X80323217Y-78519910D01*
X80351489Y-78516231D01*
X80381646Y-78511474D01*
X80429433Y-78502028D01*
X80490612Y-78488820D01*
X80560946Y-78472776D01*
X80636194Y-78454820D01*
X80664755Y-78447797D01*
X80769816Y-78422209D01*
X80857480Y-78402147D01*
X80932068Y-78386969D01*
X80997903Y-78376035D01*
X81059307Y-78368704D01*
X81120602Y-78364335D01*
X81186110Y-78362287D01*
X81244128Y-78361889D01*
X81413574Y-78368552D01*
G37*
X81413574Y-78368552D02*
X81565492Y-78388567D01*
X81700756Y-78422202D01*
X81820239Y-78469725D01*
X81924815Y-78531405D01*
X82002424Y-78594965D01*
X82071265Y-78669099D01*
X82125006Y-78748871D01*
X82167910Y-78841091D01*
X82183384Y-78884161D01*
X82196244Y-78923142D01*
X82207446Y-78959289D01*
X82217120Y-78994434D01*
X82225396Y-79030410D01*
X82232403Y-79069050D01*
X82238272Y-79112185D01*
X82243131Y-79161649D01*
X82247110Y-79219273D01*
X82250340Y-79286891D01*
X82252949Y-79366334D01*
X82255067Y-79459436D01*
X82256824Y-79568027D01*
X82258349Y-79693942D01*
X82259772Y-79839012D01*
X82261025Y-79981778D01*
X82262351Y-80137968D01*
X82263556Y-80273239D01*
X82264766Y-80389246D01*
X82266106Y-80487645D01*
X82267700Y-80570093D01*
X82269675Y-80638246D01*
X82272156Y-80693760D01*
X82275269Y-80738292D01*
X82279138Y-80773498D01*
X82283889Y-80801034D01*
X82289648Y-80822556D01*
X82296539Y-80839722D01*
X82304689Y-80854186D01*
X82314223Y-80867606D01*
X82325266Y-80881638D01*
X82329566Y-80887071D01*
X82345386Y-80909910D01*
X82352422Y-80925463D01*
X82352444Y-80925922D01*
X82341567Y-80928121D01*
X82310582Y-80930147D01*
X82261957Y-80931942D01*
X82198163Y-80933451D01*
X82121669Y-80934616D01*
X82034944Y-80935380D01*
X81940457Y-80935686D01*
X81929550Y-80935689D01*
X81506657Y-80935689D01*
X81503395Y-80839622D01*
X81500133Y-80743556D01*
X81438044Y-80794543D01*
X81340714Y-80862057D01*
X81230813Y-80916749D01*
X81144349Y-80946978D01*
X81075278Y-80961666D01*
X80991925Y-80971659D01*
X80902159Y-80976646D01*
X80813845Y-80976313D01*
X80734851Y-80970351D01*
X80698622Y-80964638D01*
X80558603Y-80926776D01*
X80432178Y-80871932D01*
X80320260Y-80800924D01*
X80223762Y-80714568D01*
X80143600Y-80613679D01*
X80080687Y-80499076D01*
X80036312Y-80372984D01*
X80023978Y-80316401D01*
X80016368Y-80254202D01*
X80012739Y-80179363D01*
X80012245Y-80145467D01*
X80012310Y-80142282D01*
X80772248Y-80142282D01*
X80781541Y-80217333D01*
X80809728Y-80281160D01*
X80858197Y-80336798D01*
X80863254Y-80341211D01*
X80911548Y-80376037D01*
X80963257Y-80398620D01*
X81023989Y-80410540D01*
X81099352Y-80413383D01*
X81117459Y-80412978D01*
X81171278Y-80410325D01*
X81211308Y-80404909D01*
X81246324Y-80394745D01*
X81285103Y-80377850D01*
X81295745Y-80372672D01*
X81356396Y-80336844D01*
X81403215Y-80294212D01*
X81415952Y-80278973D01*
X81460622Y-80222462D01*
X81460622Y-80026586D01*
X81460086Y-79947939D01*
X81458396Y-79889988D01*
X81455428Y-79850875D01*
X81451057Y-79828741D01*
X81446972Y-79822274D01*
X81431047Y-79819111D01*
X81397264Y-79816488D01*
X81350340Y-79814655D01*
X81294993Y-79813857D01*
X81286106Y-79813842D01*
X81165330Y-79819096D01*
X81062660Y-79835263D01*
X80976106Y-79862961D01*
X80903681Y-79902808D01*
X80848751Y-79949758D01*
X80804204Y-80007645D01*
X80779480Y-80070693D01*
X80772248Y-80142282D01*
X80012310Y-80142282D01*
X80014178Y-80051712D01*
X80022522Y-79972812D01*
X80038768Y-79901590D01*
X80064405Y-79830864D01*
X80088401Y-79778493D01*
X80147020Y-79683196D01*
X80225117Y-79595170D01*
X80320315Y-79516017D01*
X80430238Y-79447340D01*
X80552510Y-79390741D01*
X80684755Y-79347821D01*
X80749422Y-79332882D01*
X80885604Y-79310777D01*
X81034049Y-79296194D01*
X81185505Y-79289813D01*
X81312064Y-79291445D01*
X81473950Y-79298224D01*
X81466530Y-79239245D01*
X81447238Y-79140092D01*
X81416104Y-79059372D01*
X81372269Y-78996466D01*
X81314871Y-78950756D01*
X81243048Y-78921622D01*
X81155941Y-78908447D01*
X81052686Y-78910611D01*
X81014711Y-78914612D01*
X80873520Y-78939780D01*
X80736707Y-78980814D01*
X80642178Y-79018815D01*
X80597018Y-79038190D01*
X80558585Y-79053760D01*
X80532234Y-79063405D01*
X80524546Y-79065452D01*
X80514802Y-79056374D01*
X80498083Y-79027405D01*
X80474232Y-78978217D01*
X80443093Y-78908484D01*
X80404507Y-78817879D01*
X80397910Y-78802089D01*
X80367853Y-78729772D01*
X80340874Y-78664425D01*
X80318136Y-78608906D01*
X80300806Y-78566072D01*
X80290048Y-78538781D01*
X80286941Y-78529942D01*
X80296940Y-78525187D01*
X80323217Y-78519910D01*
X80351489Y-78516231D01*
X80381646Y-78511474D01*
X80429433Y-78502028D01*
X80490612Y-78488820D01*
X80560946Y-78472776D01*
X80636194Y-78454820D01*
X80664755Y-78447797D01*
X80769816Y-78422209D01*
X80857480Y-78402147D01*
X80932068Y-78386969D01*
X80997903Y-78376035D01*
X81059307Y-78368704D01*
X81120602Y-78364335D01*
X81186110Y-78362287D01*
X81244128Y-78361889D01*
X81413574Y-78368552D01*
G36*
X79068429Y-77451071D02*
G01*
X79228570Y-77472245D01*
X79392510Y-77512385D01*
X79562313Y-77571889D01*
X79740043Y-77651154D01*
X79751310Y-77656699D01*
X79809005Y-77684725D01*
X79860552Y-77708802D01*
X79902191Y-77727249D01*
X79930162Y-77738386D01*
X79939733Y-77740933D01*
X79958950Y-77745941D01*
X79963561Y-77750147D01*
X79958458Y-77760580D01*
X79942418Y-77786868D01*
X79917288Y-77826257D01*
X79884914Y-77875991D01*
X79847143Y-77933315D01*
X79805822Y-77995476D01*
X79762798Y-78059718D01*
X79719917Y-78123285D01*
X79679026Y-78183425D01*
X79641971Y-78237380D01*
X79610600Y-78282397D01*
X79586759Y-78315721D01*
X79572294Y-78334597D01*
X79570309Y-78336787D01*
X79560191Y-78332138D01*
X79537850Y-78314962D01*
X79507280Y-78288440D01*
X79491536Y-78273964D01*
X79395047Y-78198682D01*
X79288336Y-78143241D01*
X79172832Y-78108141D01*
X79049962Y-78093880D01*
X78980561Y-78095051D01*
X78859423Y-78112212D01*
X78750205Y-78148094D01*
X78652582Y-78202959D01*
X78566228Y-78277070D01*
X78490815Y-78370688D01*
X78426018Y-78484076D01*
X78388601Y-78570667D01*
X78344748Y-78706366D01*
X78312428Y-78853850D01*
X78291557Y-79009314D01*
X78282051Y-79168956D01*
X78283827Y-79328973D01*
X78296803Y-79485561D01*
X78320894Y-79634918D01*
X78356018Y-79773240D01*
X78402092Y-79896724D01*
X78418373Y-79930978D01*
X78486620Y-80045064D01*
X78567079Y-80141557D01*
X78658570Y-80219670D01*
X78759911Y-80278617D01*
X78869920Y-80317612D01*
X78987415Y-80335868D01*
X79028883Y-80337211D01*
X79150441Y-80326290D01*
X79270878Y-80293474D01*
X79388666Y-80239439D01*
X79502277Y-80164865D01*
X79593685Y-80086539D01*
X79640215Y-80042008D01*
X79821483Y-80339271D01*
X79866580Y-80413433D01*
X79907819Y-80481646D01*
X79943735Y-80541459D01*
X79972866Y-80590420D01*
X79993750Y-80626079D01*
X80004924Y-80645984D01*
X80006375Y-80649079D01*
X79998146Y-80658718D01*
X79972567Y-80675999D01*
X79932873Y-80699283D01*
X79882297Y-80726934D01*
X79824074Y-80757315D01*
X79761437Y-80788790D01*
X79697621Y-80819722D01*
X79635860Y-80848473D01*
X79579388Y-80873408D01*
X79531438Y-80892889D01*
X79507986Y-80901318D01*
X79374221Y-80939133D01*
X79236327Y-80964136D01*
X79088622Y-80977140D01*
X78961833Y-80979468D01*
X78893878Y-80978373D01*
X78828277Y-80976275D01*
X78770847Y-80973434D01*
X78727403Y-80970106D01*
X78713298Y-80968422D01*
X78574284Y-80939587D01*
X78432757Y-80894468D01*
X78295275Y-80835750D01*
X78168394Y-80766120D01*
X78090889Y-80713441D01*
X77963481Y-80605239D01*
X77845178Y-80478671D01*
X77738172Y-80336866D01*
X77644652Y-80182951D01*
X77566810Y-80020053D01*
X77522956Y-79902756D01*
X77472708Y-79719128D01*
X77439209Y-79524581D01*
X77422449Y-79323325D01*
X77422416Y-79119568D01*
X77439101Y-78917521D01*
X77472493Y-78721392D01*
X77522580Y-78535391D01*
X77526397Y-78523803D01*
X77589281Y-78361750D01*
X77666028Y-78213832D01*
X77759242Y-78075865D01*
X77871527Y-77943661D01*
X77915392Y-77898399D01*
X78051534Y-77774457D01*
X78191491Y-77671915D01*
X78337411Y-77589656D01*
X78491442Y-77526564D01*
X78655732Y-77481523D01*
X78751289Y-77464033D01*
X78910023Y-77448466D01*
X79068429Y-77451071D01*
G37*
X79068429Y-77451071D02*
X79228570Y-77472245D01*
X79392510Y-77512385D01*
X79562313Y-77571889D01*
X79740043Y-77651154D01*
X79751310Y-77656699D01*
X79809005Y-77684725D01*
X79860552Y-77708802D01*
X79902191Y-77727249D01*
X79930162Y-77738386D01*
X79939733Y-77740933D01*
X79958950Y-77745941D01*
X79963561Y-77750147D01*
X79958458Y-77760580D01*
X79942418Y-77786868D01*
X79917288Y-77826257D01*
X79884914Y-77875991D01*
X79847143Y-77933315D01*
X79805822Y-77995476D01*
X79762798Y-78059718D01*
X79719917Y-78123285D01*
X79679026Y-78183425D01*
X79641971Y-78237380D01*
X79610600Y-78282397D01*
X79586759Y-78315721D01*
X79572294Y-78334597D01*
X79570309Y-78336787D01*
X79560191Y-78332138D01*
X79537850Y-78314962D01*
X79507280Y-78288440D01*
X79491536Y-78273964D01*
X79395047Y-78198682D01*
X79288336Y-78143241D01*
X79172832Y-78108141D01*
X79049962Y-78093880D01*
X78980561Y-78095051D01*
X78859423Y-78112212D01*
X78750205Y-78148094D01*
X78652582Y-78202959D01*
X78566228Y-78277070D01*
X78490815Y-78370688D01*
X78426018Y-78484076D01*
X78388601Y-78570667D01*
X78344748Y-78706366D01*
X78312428Y-78853850D01*
X78291557Y-79009314D01*
X78282051Y-79168956D01*
X78283827Y-79328973D01*
X78296803Y-79485561D01*
X78320894Y-79634918D01*
X78356018Y-79773240D01*
X78402092Y-79896724D01*
X78418373Y-79930978D01*
X78486620Y-80045064D01*
X78567079Y-80141557D01*
X78658570Y-80219670D01*
X78759911Y-80278617D01*
X78869920Y-80317612D01*
X78987415Y-80335868D01*
X79028883Y-80337211D01*
X79150441Y-80326290D01*
X79270878Y-80293474D01*
X79388666Y-80239439D01*
X79502277Y-80164865D01*
X79593685Y-80086539D01*
X79640215Y-80042008D01*
X79821483Y-80339271D01*
X79866580Y-80413433D01*
X79907819Y-80481646D01*
X79943735Y-80541459D01*
X79972866Y-80590420D01*
X79993750Y-80626079D01*
X80004924Y-80645984D01*
X80006375Y-80649079D01*
X79998146Y-80658718D01*
X79972567Y-80675999D01*
X79932873Y-80699283D01*
X79882297Y-80726934D01*
X79824074Y-80757315D01*
X79761437Y-80788790D01*
X79697621Y-80819722D01*
X79635860Y-80848473D01*
X79579388Y-80873408D01*
X79531438Y-80892889D01*
X79507986Y-80901318D01*
X79374221Y-80939133D01*
X79236327Y-80964136D01*
X79088622Y-80977140D01*
X78961833Y-80979468D01*
X78893878Y-80978373D01*
X78828277Y-80976275D01*
X78770847Y-80973434D01*
X78727403Y-80970106D01*
X78713298Y-80968422D01*
X78574284Y-80939587D01*
X78432757Y-80894468D01*
X78295275Y-80835750D01*
X78168394Y-80766120D01*
X78090889Y-80713441D01*
X77963481Y-80605239D01*
X77845178Y-80478671D01*
X77738172Y-80336866D01*
X77644652Y-80182951D01*
X77566810Y-80020053D01*
X77522956Y-79902756D01*
X77472708Y-79719128D01*
X77439209Y-79524581D01*
X77422449Y-79323325D01*
X77422416Y-79119568D01*
X77439101Y-78917521D01*
X77472493Y-78721392D01*
X77522580Y-78535391D01*
X77526397Y-78523803D01*
X77589281Y-78361750D01*
X77666028Y-78213832D01*
X77759242Y-78075865D01*
X77871527Y-77943661D01*
X77915392Y-77898399D01*
X78051534Y-77774457D01*
X78191491Y-77671915D01*
X78337411Y-77589656D01*
X78491442Y-77526564D01*
X78655732Y-77481523D01*
X78751289Y-77464033D01*
X78910023Y-77448466D01*
X79068429Y-77451071D01*
G36*
X75793600Y-76991054D02*
G01*
X75804465Y-77104993D01*
X75836082Y-77212616D01*
X75886985Y-77311615D01*
X75955707Y-77399684D01*
X76040781Y-77474516D01*
X76137768Y-77532384D01*
X76244036Y-77572005D01*
X76351050Y-77590573D01*
X76456700Y-77589434D01*
X76558875Y-77569930D01*
X76655466Y-77533406D01*
X76744362Y-77481205D01*
X76823454Y-77414673D01*
X76890631Y-77335152D01*
X76943783Y-77243987D01*
X76980801Y-77142523D01*
X76999573Y-77032102D01*
X77001511Y-76982206D01*
X77001511Y-76894267D01*
X77053440Y-76894267D01*
X77089747Y-76897111D01*
X77116645Y-76908911D01*
X77143751Y-76932649D01*
X77182133Y-76971031D01*
X77182133Y-79162602D01*
X77182124Y-79424739D01*
X77182092Y-79665241D01*
X77182028Y-79885048D01*
X77181924Y-80085101D01*
X77181773Y-80266344D01*
X77181566Y-80429716D01*
X77181294Y-80576160D01*
X77180950Y-80706617D01*
X77180526Y-80822029D01*
X77180013Y-80923338D01*
X77179403Y-81011484D01*
X77178688Y-81087410D01*
X77177860Y-81152057D01*
X77176911Y-81206367D01*
X77175833Y-81251280D01*
X77174617Y-81287740D01*
X77173255Y-81316687D01*
X77171739Y-81339063D01*
X77170062Y-81355809D01*
X77168214Y-81367868D01*
X77166187Y-81376180D01*
X77163975Y-81381687D01*
X77162892Y-81383537D01*
X77158729Y-81390549D01*
X77155195Y-81396996D01*
X77151365Y-81402900D01*
X77146318Y-81408286D01*
X77139129Y-81413178D01*
X77128877Y-81417598D01*
X77114636Y-81421572D01*
X77095486Y-81425121D01*
X77070501Y-81428270D01*
X77038760Y-81431042D01*
X76999338Y-81433461D01*
X76951314Y-81435551D01*
X76893763Y-81437335D01*
X76825763Y-81438837D01*
X76746390Y-81440080D01*
X76654721Y-81441089D01*
X76549834Y-81441885D01*
X76430804Y-81442494D01*
X76296710Y-81442939D01*
X76146627Y-81443243D01*
X75979633Y-81443430D01*
X75794804Y-81443524D01*
X75591217Y-81443548D01*
X75367950Y-81443525D01*
X75124078Y-81443480D01*
X74858679Y-81443437D01*
X74820296Y-81443432D01*
X74553318Y-81443389D01*
X74307998Y-81443318D01*
X74083417Y-81443213D01*
X73878655Y-81443066D01*
X73692794Y-81442869D01*
X73524912Y-81442616D01*
X73374092Y-81442300D01*
X73239413Y-81441913D01*
X73119956Y-81441447D01*
X73014801Y-81440897D01*
X72923029Y-81440253D01*
X72843721Y-81439511D01*
X72775957Y-81438661D01*
X72718818Y-81437697D01*
X72671383Y-81436611D01*
X72632734Y-81435397D01*
X72601951Y-81434047D01*
X72578115Y-81432555D01*
X72560306Y-81430911D01*
X72547605Y-81429111D01*
X72539092Y-81427145D01*
X72534734Y-81425477D01*
X72526272Y-81421906D01*
X72518503Y-81419270D01*
X72511398Y-81416634D01*
X72504927Y-81413062D01*
X72499061Y-81407621D01*
X72493771Y-81399375D01*
X72489026Y-81387390D01*
X72484798Y-81370731D01*
X72481057Y-81348463D01*
X72477773Y-81319652D01*
X72474917Y-81283363D01*
X72472460Y-81238661D01*
X72470371Y-81184611D01*
X72468622Y-81120279D01*
X72467183Y-81044730D01*
X72466024Y-80957030D01*
X72465117Y-80856243D01*
X72464431Y-80741434D01*
X72463937Y-80611670D01*
X72463605Y-80466015D01*
X72463407Y-80303535D01*
X72463313Y-80123295D01*
X72463292Y-79924360D01*
X72463315Y-79705796D01*
X72463354Y-79466668D01*
X72463378Y-79206040D01*
X72463378Y-79163889D01*
X72463364Y-78900992D01*
X72463339Y-78659732D01*
X72463329Y-78439165D01*
X72463358Y-78238352D01*
X72463452Y-78056349D01*
X72463638Y-77892216D01*
X72463941Y-77745011D01*
X72464386Y-77613792D01*
X72464966Y-77503867D01*
X72767803Y-77503867D01*
X72807593Y-77561711D01*
X72818764Y-77577479D01*
X72828834Y-77591441D01*
X72837862Y-77604784D01*
X72845903Y-77618693D01*
X72853014Y-77634356D01*
X72859253Y-77652958D01*
X72864675Y-77675686D01*
X72869338Y-77703727D01*
X72873299Y-77738267D01*
X72876615Y-77780492D01*
X72879341Y-77831589D01*
X72881536Y-77892744D01*
X72883255Y-77965144D01*
X72884556Y-78049975D01*
X72885495Y-78148422D01*
X72886130Y-78261674D01*
X72886516Y-78390916D01*
X72886712Y-78537334D01*
X72886773Y-78702116D01*
X72886757Y-78886447D01*
X72886720Y-79091513D01*
X72886711Y-79214133D01*
X72886735Y-79431082D01*
X72886769Y-79626642D01*
X72886757Y-79801999D01*
X72886642Y-79958341D01*
X72886370Y-80096857D01*
X72885882Y-80218734D01*
X72885124Y-80325160D01*
X72884038Y-80417322D01*
X72882569Y-80496409D01*
X72880660Y-80563608D01*
X72878256Y-80620107D01*
X72875299Y-80667093D01*
X72871734Y-80705755D01*
X72867505Y-80737280D01*
X72862554Y-80762855D01*
X72856827Y-80783670D01*
X72850267Y-80800911D01*
X72842817Y-80815765D01*
X72834421Y-80829422D01*
X72825024Y-80843069D01*
X72814568Y-80857893D01*
X72808477Y-80866783D01*
X72769704Y-80924400D01*
X73301268Y-80924400D01*
X73424517Y-80924365D01*
X73527013Y-80924215D01*
X73610580Y-80923878D01*
X73677044Y-80923286D01*
X73728229Y-80922367D01*
X73765959Y-80921051D01*
X73792060Y-80919269D01*
X73808356Y-80916951D01*
X73816672Y-80914026D01*
X73818832Y-80910424D01*
X73816661Y-80906075D01*
X73815465Y-80904645D01*
X73790315Y-80867573D01*
X73764417Y-80814772D01*
X73740808Y-80752770D01*
X73732539Y-80726357D01*
X73727922Y-80708416D01*
X73724021Y-80687355D01*
X73720752Y-80661089D01*
X73718034Y-80627532D01*
X73715785Y-80584599D01*
X73713923Y-80530204D01*
X73712364Y-80462262D01*
X73711028Y-80378688D01*
X73709831Y-80277395D01*
X73708692Y-80156300D01*
X73708315Y-80111600D01*
X73707298Y-79986449D01*
X73706540Y-79882082D01*
X73706097Y-79796707D01*
X73706030Y-79728533D01*
X73706395Y-79675765D01*
X73707252Y-79636614D01*
X73708659Y-79609285D01*
X73710675Y-79591986D01*
X73713357Y-79582926D01*
X73716764Y-79580312D01*
X73720956Y-79582351D01*
X73725429Y-79586667D01*
X73735784Y-79599602D01*
X73757842Y-79628676D01*
X73790043Y-79671759D01*
X73830826Y-79726718D01*
X73878630Y-79791423D01*
X73931895Y-79863742D01*
X73989060Y-79941544D01*
X74048563Y-80022698D01*
X74108845Y-80105072D01*
X74168345Y-80186536D01*
X74225502Y-80264957D01*
X74278755Y-80338204D01*
X74326543Y-80404147D01*
X74367307Y-80460654D01*
X74399484Y-80505593D01*
X74421515Y-80536834D01*
X74426083Y-80543466D01*
X74449004Y-80580369D01*
X74475812Y-80628359D01*
X74501211Y-80677897D01*
X74504432Y-80684577D01*
X74526110Y-80732772D01*
X74538696Y-80770334D01*
X74544426Y-80806160D01*
X74545544Y-80848200D01*
X74544910Y-80924400D01*
X75699349Y-80924400D01*
X75608185Y-80830669D01*
X75561388Y-80780775D01*
X75511101Y-80724295D01*
X75465056Y-80670026D01*
X75444631Y-80644673D01*
X75414193Y-80605128D01*
X75374138Y-80551916D01*
X75325639Y-80486667D01*
X75269865Y-80411011D01*
X75207989Y-80326577D01*
X75141181Y-80234994D01*
X75070613Y-80137892D01*
X74997455Y-80036901D01*
X74922879Y-79933650D01*
X74848056Y-79829768D01*
X74774157Y-79726885D01*
X74702354Y-79626631D01*
X74633816Y-79530636D01*
X74569716Y-79440527D01*
X74511225Y-79357936D01*
X74459514Y-79284492D01*
X74415753Y-79221824D01*
X74381115Y-79171561D01*
X74356770Y-79135334D01*
X74343889Y-79114771D01*
X74342131Y-79110668D01*
X74350090Y-79099342D01*
X74370885Y-79072162D01*
X74403153Y-79030829D01*
X74445530Y-78977044D01*
X74496653Y-78912506D01*
X74555159Y-78838918D01*
X74619686Y-78757978D01*
X74688869Y-78671388D01*
X74761347Y-78580848D01*
X74835754Y-78488060D01*
X74895483Y-78413702D01*
X75906489Y-78413702D01*
X75912398Y-78426659D01*
X75926728Y-78448908D01*
X75927775Y-78450391D01*
X75946562Y-78480544D01*
X75966209Y-78517375D01*
X75970108Y-78525511D01*
X75973644Y-78533940D01*
X75976770Y-78544059D01*
X75979514Y-78557260D01*
X75981908Y-78574938D01*
X75983981Y-78598484D01*
X75985765Y-78629293D01*
X75987288Y-78668757D01*
X75988581Y-78718269D01*
X75989674Y-78779223D01*
X75990597Y-78853011D01*
X75991381Y-78941028D01*
X75992055Y-79044665D01*
X75992650Y-79165316D01*
X75993195Y-79304374D01*
X75993721Y-79463232D01*
X75994255Y-79642089D01*
X75994794Y-79827207D01*
X75995228Y-79991145D01*
X75995491Y-80135303D01*
X75995516Y-80261079D01*
X75995235Y-80369871D01*
X75994581Y-80463077D01*
X75993486Y-80542097D01*
X75991882Y-80608328D01*
X75989703Y-80663170D01*
X75986881Y-80708021D01*
X75983349Y-80744278D01*
X75979039Y-80773341D01*
X75973883Y-80796609D01*
X75967815Y-80815479D01*
X75960767Y-80831351D01*
X75952671Y-80845622D01*
X75943460Y-80859691D01*
X75934960Y-80872158D01*
X75917824Y-80898452D01*
X75907678Y-80916037D01*
X75906489Y-80919257D01*
X75917396Y-80920334D01*
X75948589Y-80921335D01*
X75997777Y-80922235D01*
X76062667Y-80923010D01*
X76140970Y-80923637D01*
X76230393Y-80924091D01*
X76328644Y-80924349D01*
X76397555Y-80924400D01*
X76502548Y-80924180D01*
X76599390Y-80923548D01*
X76685893Y-80922549D01*
X76759868Y-80921227D01*
X76819126Y-80919626D01*
X76861480Y-80917791D01*
X76884740Y-80915765D01*
X76888622Y-80914493D01*
X76880924Y-80899591D01*
X76872926Y-80891560D01*
X76859754Y-80874434D01*
X76842515Y-80844183D01*
X76830593Y-80819622D01*
X76803955Y-80760711D01*
X76800880Y-79583845D01*
X76797805Y-78406978D01*
X76352147Y-78406978D01*
X76254330Y-78407142D01*
X76163936Y-78407611D01*
X76083370Y-78408347D01*
X76015038Y-78409316D01*
X75961344Y-78410480D01*
X75924695Y-78411803D01*
X75907496Y-78413249D01*
X75906489Y-78413702D01*
X74895483Y-78413702D01*
X74910730Y-78394722D01*
X74984910Y-78302537D01*
X75056931Y-78213204D01*
X75125431Y-78128424D01*
X75189045Y-78049898D01*
X75246412Y-77979326D01*
X75296167Y-77918409D01*
X75336948Y-77868847D01*
X75354112Y-77848178D01*
X75440404Y-77747516D01*
X75517003Y-77664259D01*
X75585817Y-77596438D01*
X75648752Y-77542089D01*
X75658133Y-77534722D01*
X75697644Y-77504117D01*
X74565884Y-77503867D01*
X74571173Y-77551844D01*
X74567870Y-77609188D01*
X74546339Y-77677463D01*
X74506365Y-77757212D01*
X74461057Y-77829495D01*
X74444839Y-77852140D01*
X74416786Y-77889696D01*
X74378570Y-77940021D01*
X74331863Y-78000973D01*
X74278339Y-78070411D01*
X74219669Y-78146194D01*
X74157525Y-78226180D01*
X74093579Y-78308228D01*
X74029505Y-78390196D01*
X73966973Y-78469943D01*
X73907657Y-78545327D01*
X73853229Y-78614207D01*
X73805361Y-78674442D01*
X73765725Y-78723889D01*
X73735994Y-78760408D01*
X73717839Y-78781858D01*
X73714780Y-78785156D01*
X73711921Y-78777149D01*
X73709707Y-78746855D01*
X73708143Y-78694556D01*
X73707233Y-78620531D01*
X73706980Y-78525063D01*
X73707387Y-78408434D01*
X73708296Y-78288445D01*
X73709618Y-78156333D01*
X73711143Y-78044594D01*
X73713119Y-77951025D01*
X73715794Y-77873419D01*
X73719418Y-77809574D01*
X73724239Y-77757283D01*
X73730506Y-77714344D01*
X73738468Y-77678551D01*
X73748373Y-77647700D01*
X73760469Y-77619586D01*
X73775007Y-77592005D01*
X73789689Y-77566966D01*
X73827686Y-77503867D01*
X72767803Y-77503867D01*
X72464966Y-77503867D01*
X72464999Y-77497617D01*
X72465805Y-77395544D01*
X72466830Y-77306633D01*
X72468100Y-77229941D01*
X72469640Y-77164527D01*
X72471476Y-77109449D01*
X72473633Y-77063765D01*
X72476137Y-77026534D01*
X72479013Y-76996813D01*
X72482287Y-76973662D01*
X72485985Y-76956139D01*
X72490131Y-76943301D01*
X72494753Y-76934208D01*
X72499874Y-76927918D01*
X72505522Y-76923488D01*
X72511721Y-76919978D01*
X72518496Y-76916445D01*
X72524492Y-76912876D01*
X72529725Y-76910300D01*
X72537901Y-76907972D01*
X72550114Y-76905878D01*
X72567459Y-76904007D01*
X72591031Y-76902347D01*
X72621923Y-76900884D01*
X72661232Y-76899608D01*
X72710050Y-76898504D01*
X72769473Y-76897561D01*
X72840596Y-76896767D01*
X72924512Y-76896109D01*
X73022317Y-76895575D01*
X73135106Y-76895153D01*
X73263971Y-76894829D01*
X73410009Y-76894592D01*
X73574314Y-76894430D01*
X73757980Y-76894330D01*
X73962103Y-76894280D01*
X74173247Y-76894267D01*
X75793600Y-76894267D01*
X75793600Y-76991054D01*
G37*
X75793600Y-76991054D02*
X75804465Y-77104993D01*
X75836082Y-77212616D01*
X75886985Y-77311615D01*
X75955707Y-77399684D01*
X76040781Y-77474516D01*
X76137768Y-77532384D01*
X76244036Y-77572005D01*
X76351050Y-77590573D01*
X76456700Y-77589434D01*
X76558875Y-77569930D01*
X76655466Y-77533406D01*
X76744362Y-77481205D01*
X76823454Y-77414673D01*
X76890631Y-77335152D01*
X76943783Y-77243987D01*
X76980801Y-77142523D01*
X76999573Y-77032102D01*
X77001511Y-76982206D01*
X77001511Y-76894267D01*
X77053440Y-76894267D01*
X77089747Y-76897111D01*
X77116645Y-76908911D01*
X77143751Y-76932649D01*
X77182133Y-76971031D01*
X77182133Y-79162602D01*
X77182124Y-79424739D01*
X77182092Y-79665241D01*
X77182028Y-79885048D01*
X77181924Y-80085101D01*
X77181773Y-80266344D01*
X77181566Y-80429716D01*
X77181294Y-80576160D01*
X77180950Y-80706617D01*
X77180526Y-80822029D01*
X77180013Y-80923338D01*
X77179403Y-81011484D01*
X77178688Y-81087410D01*
X77177860Y-81152057D01*
X77176911Y-81206367D01*
X77175833Y-81251280D01*
X77174617Y-81287740D01*
X77173255Y-81316687D01*
X77171739Y-81339063D01*
X77170062Y-81355809D01*
X77168214Y-81367868D01*
X77166187Y-81376180D01*
X77163975Y-81381687D01*
X77162892Y-81383537D01*
X77158729Y-81390549D01*
X77155195Y-81396996D01*
X77151365Y-81402900D01*
X77146318Y-81408286D01*
X77139129Y-81413178D01*
X77128877Y-81417598D01*
X77114636Y-81421572D01*
X77095486Y-81425121D01*
X77070501Y-81428270D01*
X77038760Y-81431042D01*
X76999338Y-81433461D01*
X76951314Y-81435551D01*
X76893763Y-81437335D01*
X76825763Y-81438837D01*
X76746390Y-81440080D01*
X76654721Y-81441089D01*
X76549834Y-81441885D01*
X76430804Y-81442494D01*
X76296710Y-81442939D01*
X76146627Y-81443243D01*
X75979633Y-81443430D01*
X75794804Y-81443524D01*
X75591217Y-81443548D01*
X75367950Y-81443525D01*
X75124078Y-81443480D01*
X74858679Y-81443437D01*
X74820296Y-81443432D01*
X74553318Y-81443389D01*
X74307998Y-81443318D01*
X74083417Y-81443213D01*
X73878655Y-81443066D01*
X73692794Y-81442869D01*
X73524912Y-81442616D01*
X73374092Y-81442300D01*
X73239413Y-81441913D01*
X73119956Y-81441447D01*
X73014801Y-81440897D01*
X72923029Y-81440253D01*
X72843721Y-81439511D01*
X72775957Y-81438661D01*
X72718818Y-81437697D01*
X72671383Y-81436611D01*
X72632734Y-81435397D01*
X72601951Y-81434047D01*
X72578115Y-81432555D01*
X72560306Y-81430911D01*
X72547605Y-81429111D01*
X72539092Y-81427145D01*
X72534734Y-81425477D01*
X72526272Y-81421906D01*
X72518503Y-81419270D01*
X72511398Y-81416634D01*
X72504927Y-81413062D01*
X72499061Y-81407621D01*
X72493771Y-81399375D01*
X72489026Y-81387390D01*
X72484798Y-81370731D01*
X72481057Y-81348463D01*
X72477773Y-81319652D01*
X72474917Y-81283363D01*
X72472460Y-81238661D01*
X72470371Y-81184611D01*
X72468622Y-81120279D01*
X72467183Y-81044730D01*
X72466024Y-80957030D01*
X72465117Y-80856243D01*
X72464431Y-80741434D01*
X72463937Y-80611670D01*
X72463605Y-80466015D01*
X72463407Y-80303535D01*
X72463313Y-80123295D01*
X72463292Y-79924360D01*
X72463315Y-79705796D01*
X72463354Y-79466668D01*
X72463378Y-79206040D01*
X72463378Y-79163889D01*
X72463364Y-78900992D01*
X72463339Y-78659732D01*
X72463329Y-78439165D01*
X72463358Y-78238352D01*
X72463452Y-78056349D01*
X72463638Y-77892216D01*
X72463941Y-77745011D01*
X72464386Y-77613792D01*
X72464966Y-77503867D01*
X72767803Y-77503867D01*
X72807593Y-77561711D01*
X72818764Y-77577479D01*
X72828834Y-77591441D01*
X72837862Y-77604784D01*
X72845903Y-77618693D01*
X72853014Y-77634356D01*
X72859253Y-77652958D01*
X72864675Y-77675686D01*
X72869338Y-77703727D01*
X72873299Y-77738267D01*
X72876615Y-77780492D01*
X72879341Y-77831589D01*
X72881536Y-77892744D01*
X72883255Y-77965144D01*
X72884556Y-78049975D01*
X72885495Y-78148422D01*
X72886130Y-78261674D01*
X72886516Y-78390916D01*
X72886712Y-78537334D01*
X72886773Y-78702116D01*
X72886757Y-78886447D01*
X72886720Y-79091513D01*
X72886711Y-79214133D01*
X72886735Y-79431082D01*
X72886769Y-79626642D01*
X72886757Y-79801999D01*
X72886642Y-79958341D01*
X72886370Y-80096857D01*
X72885882Y-80218734D01*
X72885124Y-80325160D01*
X72884038Y-80417322D01*
X72882569Y-80496409D01*
X72880660Y-80563608D01*
X72878256Y-80620107D01*
X72875299Y-80667093D01*
X72871734Y-80705755D01*
X72867505Y-80737280D01*
X72862554Y-80762855D01*
X72856827Y-80783670D01*
X72850267Y-80800911D01*
X72842817Y-80815765D01*
X72834421Y-80829422D01*
X72825024Y-80843069D01*
X72814568Y-80857893D01*
X72808477Y-80866783D01*
X72769704Y-80924400D01*
X73301268Y-80924400D01*
X73424517Y-80924365D01*
X73527013Y-80924215D01*
X73610580Y-80923878D01*
X73677044Y-80923286D01*
X73728229Y-80922367D01*
X73765959Y-80921051D01*
X73792060Y-80919269D01*
X73808356Y-80916951D01*
X73816672Y-80914026D01*
X73818832Y-80910424D01*
X73816661Y-80906075D01*
X73815465Y-80904645D01*
X73790315Y-80867573D01*
X73764417Y-80814772D01*
X73740808Y-80752770D01*
X73732539Y-80726357D01*
X73727922Y-80708416D01*
X73724021Y-80687355D01*
X73720752Y-80661089D01*
X73718034Y-80627532D01*
X73715785Y-80584599D01*
X73713923Y-80530204D01*
X73712364Y-80462262D01*
X73711028Y-80378688D01*
X73709831Y-80277395D01*
X73708692Y-80156300D01*
X73708315Y-80111600D01*
X73707298Y-79986449D01*
X73706540Y-79882082D01*
X73706097Y-79796707D01*
X73706030Y-79728533D01*
X73706395Y-79675765D01*
X73707252Y-79636614D01*
X73708659Y-79609285D01*
X73710675Y-79591986D01*
X73713357Y-79582926D01*
X73716764Y-79580312D01*
X73720956Y-79582351D01*
X73725429Y-79586667D01*
X73735784Y-79599602D01*
X73757842Y-79628676D01*
X73790043Y-79671759D01*
X73830826Y-79726718D01*
X73878630Y-79791423D01*
X73931895Y-79863742D01*
X73989060Y-79941544D01*
X74048563Y-80022698D01*
X74108845Y-80105072D01*
X74168345Y-80186536D01*
X74225502Y-80264957D01*
X74278755Y-80338204D01*
X74326543Y-80404147D01*
X74367307Y-80460654D01*
X74399484Y-80505593D01*
X74421515Y-80536834D01*
X74426083Y-80543466D01*
X74449004Y-80580369D01*
X74475812Y-80628359D01*
X74501211Y-80677897D01*
X74504432Y-80684577D01*
X74526110Y-80732772D01*
X74538696Y-80770334D01*
X74544426Y-80806160D01*
X74545544Y-80848200D01*
X74544910Y-80924400D01*
X75699349Y-80924400D01*
X75608185Y-80830669D01*
X75561388Y-80780775D01*
X75511101Y-80724295D01*
X75465056Y-80670026D01*
X75444631Y-80644673D01*
X75414193Y-80605128D01*
X75374138Y-80551916D01*
X75325639Y-80486667D01*
X75269865Y-80411011D01*
X75207989Y-80326577D01*
X75141181Y-80234994D01*
X75070613Y-80137892D01*
X74997455Y-80036901D01*
X74922879Y-79933650D01*
X74848056Y-79829768D01*
X74774157Y-79726885D01*
X74702354Y-79626631D01*
X74633816Y-79530636D01*
X74569716Y-79440527D01*
X74511225Y-79357936D01*
X74459514Y-79284492D01*
X74415753Y-79221824D01*
X74381115Y-79171561D01*
X74356770Y-79135334D01*
X74343889Y-79114771D01*
X74342131Y-79110668D01*
X74350090Y-79099342D01*
X74370885Y-79072162D01*
X74403153Y-79030829D01*
X74445530Y-78977044D01*
X74496653Y-78912506D01*
X74555159Y-78838918D01*
X74619686Y-78757978D01*
X74688869Y-78671388D01*
X74761347Y-78580848D01*
X74835754Y-78488060D01*
X74895483Y-78413702D01*
X75906489Y-78413702D01*
X75912398Y-78426659D01*
X75926728Y-78448908D01*
X75927775Y-78450391D01*
X75946562Y-78480544D01*
X75966209Y-78517375D01*
X75970108Y-78525511D01*
X75973644Y-78533940D01*
X75976770Y-78544059D01*
X75979514Y-78557260D01*
X75981908Y-78574938D01*
X75983981Y-78598484D01*
X75985765Y-78629293D01*
X75987288Y-78668757D01*
X75988581Y-78718269D01*
X75989674Y-78779223D01*
X75990597Y-78853011D01*
X75991381Y-78941028D01*
X75992055Y-79044665D01*
X75992650Y-79165316D01*
X75993195Y-79304374D01*
X75993721Y-79463232D01*
X75994255Y-79642089D01*
X75994794Y-79827207D01*
X75995228Y-79991145D01*
X75995491Y-80135303D01*
X75995516Y-80261079D01*
X75995235Y-80369871D01*
X75994581Y-80463077D01*
X75993486Y-80542097D01*
X75991882Y-80608328D01*
X75989703Y-80663170D01*
X75986881Y-80708021D01*
X75983349Y-80744278D01*
X75979039Y-80773341D01*
X75973883Y-80796609D01*
X75967815Y-80815479D01*
X75960767Y-80831351D01*
X75952671Y-80845622D01*
X75943460Y-80859691D01*
X75934960Y-80872158D01*
X75917824Y-80898452D01*
X75907678Y-80916037D01*
X75906489Y-80919257D01*
X75917396Y-80920334D01*
X75948589Y-80921335D01*
X75997777Y-80922235D01*
X76062667Y-80923010D01*
X76140970Y-80923637D01*
X76230393Y-80924091D01*
X76328644Y-80924349D01*
X76397555Y-80924400D01*
X76502548Y-80924180D01*
X76599390Y-80923548D01*
X76685893Y-80922549D01*
X76759868Y-80921227D01*
X76819126Y-80919626D01*
X76861480Y-80917791D01*
X76884740Y-80915765D01*
X76888622Y-80914493D01*
X76880924Y-80899591D01*
X76872926Y-80891560D01*
X76859754Y-80874434D01*
X76842515Y-80844183D01*
X76830593Y-80819622D01*
X76803955Y-80760711D01*
X76800880Y-79583845D01*
X76797805Y-78406978D01*
X76352147Y-78406978D01*
X76254330Y-78407142D01*
X76163936Y-78407611D01*
X76083370Y-78408347D01*
X76015038Y-78409316D01*
X75961344Y-78410480D01*
X75924695Y-78411803D01*
X75907496Y-78413249D01*
X75906489Y-78413702D01*
X74895483Y-78413702D01*
X74910730Y-78394722D01*
X74984910Y-78302537D01*
X75056931Y-78213204D01*
X75125431Y-78128424D01*
X75189045Y-78049898D01*
X75246412Y-77979326D01*
X75296167Y-77918409D01*
X75336948Y-77868847D01*
X75354112Y-77848178D01*
X75440404Y-77747516D01*
X75517003Y-77664259D01*
X75585817Y-77596438D01*
X75648752Y-77542089D01*
X75658133Y-77534722D01*
X75697644Y-77504117D01*
X74565884Y-77503867D01*
X74571173Y-77551844D01*
X74567870Y-77609188D01*
X74546339Y-77677463D01*
X74506365Y-77757212D01*
X74461057Y-77829495D01*
X74444839Y-77852140D01*
X74416786Y-77889696D01*
X74378570Y-77940021D01*
X74331863Y-78000973D01*
X74278339Y-78070411D01*
X74219669Y-78146194D01*
X74157525Y-78226180D01*
X74093579Y-78308228D01*
X74029505Y-78390196D01*
X73966973Y-78469943D01*
X73907657Y-78545327D01*
X73853229Y-78614207D01*
X73805361Y-78674442D01*
X73765725Y-78723889D01*
X73735994Y-78760408D01*
X73717839Y-78781858D01*
X73714780Y-78785156D01*
X73711921Y-78777149D01*
X73709707Y-78746855D01*
X73708143Y-78694556D01*
X73707233Y-78620531D01*
X73706980Y-78525063D01*
X73707387Y-78408434D01*
X73708296Y-78288445D01*
X73709618Y-78156333D01*
X73711143Y-78044594D01*
X73713119Y-77951025D01*
X73715794Y-77873419D01*
X73719418Y-77809574D01*
X73724239Y-77757283D01*
X73730506Y-77714344D01*
X73738468Y-77678551D01*
X73748373Y-77647700D01*
X73760469Y-77619586D01*
X73775007Y-77592005D01*
X73789689Y-77566966D01*
X73827686Y-77503867D01*
X72767803Y-77503867D01*
X72464966Y-77503867D01*
X72464999Y-77497617D01*
X72465805Y-77395544D01*
X72466830Y-77306633D01*
X72468100Y-77229941D01*
X72469640Y-77164527D01*
X72471476Y-77109449D01*
X72473633Y-77063765D01*
X72476137Y-77026534D01*
X72479013Y-76996813D01*
X72482287Y-76973662D01*
X72485985Y-76956139D01*
X72490131Y-76943301D01*
X72494753Y-76934208D01*
X72499874Y-76927918D01*
X72505522Y-76923488D01*
X72511721Y-76919978D01*
X72518496Y-76916445D01*
X72524492Y-76912876D01*
X72529725Y-76910300D01*
X72537901Y-76907972D01*
X72550114Y-76905878D01*
X72567459Y-76904007D01*
X72591031Y-76902347D01*
X72621923Y-76900884D01*
X72661232Y-76899608D01*
X72710050Y-76898504D01*
X72769473Y-76897561D01*
X72840596Y-76896767D01*
X72924512Y-76896109D01*
X73022317Y-76895575D01*
X73135106Y-76895153D01*
X73263971Y-76894829D01*
X73410009Y-76894592D01*
X73574314Y-76894430D01*
X73757980Y-76894330D01*
X73962103Y-76894280D01*
X74173247Y-76894267D01*
X75793600Y-76894267D01*
X75793600Y-76991054D01*
D14*
X71409936Y-60050000D02*
X72614064Y-60050000D01*
X71409936Y-61870000D02*
X72614064Y-61870000D01*
X79396000Y-54261936D02*
X79396000Y-55466064D01*
X77576000Y-54261936D02*
X77576000Y-55466064D01*
X90354000Y-43044000D02*
X88534000Y-43044000D01*
X87234000Y-43044000D02*
X85414000Y-43044000D01*
X90354000Y-36204000D02*
X88534000Y-36204000D01*
X87234000Y-36204000D02*
X85414000Y-36204000D01*
X85414000Y-43044000D02*
X85414000Y-36204000D01*
X90354000Y-43044000D02*
X90354000Y-36204000D01*
X72158000Y-35566000D02*
X72158000Y-43601000D01*
X72158000Y-43601000D02*
X76178000Y-43601000D01*
X76178000Y-43601000D02*
X76178000Y-35566000D01*
X71403936Y-57510000D02*
X72608064Y-57510000D01*
X71403936Y-59330000D02*
X72608064Y-59330000D01*
X82782000Y-43601000D02*
X82782000Y-35566000D01*
X78762000Y-43601000D02*
X82782000Y-43601000D01*
X78762000Y-35566000D02*
X78762000Y-43601000D01*
D15*
X77178000Y-51546000D02*
X77178000Y-51746000D01*
X77178000Y-51746000D02*
X77478000Y-51746000D01*
X78478000Y-51746000D02*
X78778000Y-51746000D01*
X78778000Y-51746000D02*
X78778000Y-51446000D01*
X78478000Y-49346000D02*
X78778000Y-49346000D01*
X78778000Y-49346000D02*
X78778000Y-49646000D01*
X77578000Y-49346000D02*
X77178000Y-49346000D01*
X77178000Y-49346000D02*
X77178000Y-49546000D01*
X77178000Y-49546000D02*
X76978000Y-49546000D01*
X83042000Y-49746000D02*
X83042000Y-49546000D01*
X83242000Y-49746000D02*
X83042000Y-49746000D01*
X83242000Y-50146000D02*
X83242000Y-49746000D01*
X83242000Y-51346000D02*
X82942000Y-51346000D01*
X83242000Y-51046000D02*
X83242000Y-51346000D01*
X80842000Y-51346000D02*
X81142000Y-51346000D01*
X80842000Y-51046000D02*
X80842000Y-51346000D01*
X80842000Y-49746000D02*
X80842000Y-50046000D01*
X81042000Y-49746000D02*
X80842000Y-49746000D01*
D14*
X84476000Y-54261936D02*
X84476000Y-55466064D01*
X82656000Y-54261936D02*
X82656000Y-55466064D01*
X79396000Y-60292064D02*
X79396000Y-59087936D01*
X77576000Y-60292064D02*
X77576000Y-59087936D01*
X79153936Y-47392000D02*
X80358064Y-47392000D01*
X79153936Y-45572000D02*
X80358064Y-45572000D01*
X74352000Y-52696000D02*
X74352000Y-45856000D01*
X69412000Y-52696000D02*
X69412000Y-45856000D01*
X71232000Y-45856000D02*
X69412000Y-45856000D01*
X74352000Y-45856000D02*
X72532000Y-45856000D01*
X71232000Y-52696000D02*
X69412000Y-52696000D01*
X74352000Y-52696000D02*
X72532000Y-52696000D01*
D12*
X71969333Y-63444380D02*
X71636000Y-62968190D01*
X71397904Y-63444380D02*
X71397904Y-62444380D01*
X71778857Y-62444380D01*
X71874095Y-62492000D01*
X71921714Y-62539619D01*
X71969333Y-62634857D01*
X71969333Y-62777714D01*
X71921714Y-62872952D01*
X71874095Y-62920571D01*
X71778857Y-62968190D01*
X71397904Y-62968190D01*
X72921714Y-63444380D02*
X72350285Y-63444380D01*
X72636000Y-63444380D02*
X72636000Y-62444380D01*
X72540761Y-62587238D01*
X72445523Y-62682476D01*
X72350285Y-62730095D01*
X80605333Y-55316380D02*
X80272000Y-54840190D01*
X80033904Y-55316380D02*
X80033904Y-54316380D01*
X80414857Y-54316380D01*
X80510095Y-54364000D01*
X80557714Y-54411619D01*
X80605333Y-54506857D01*
X80605333Y-54649714D01*
X80557714Y-54744952D01*
X80510095Y-54792571D01*
X80414857Y-54840190D01*
X80033904Y-54840190D01*
X81510095Y-54316380D02*
X81033904Y-54316380D01*
X80986285Y-54792571D01*
X81033904Y-54744952D01*
X81129142Y-54697333D01*
X81367238Y-54697333D01*
X81462476Y-54744952D01*
X81510095Y-54792571D01*
X81557714Y-54887809D01*
X81557714Y-55125904D01*
X81510095Y-55221142D01*
X81462476Y-55268761D01*
X81367238Y-55316380D01*
X81129142Y-55316380D01*
X81033904Y-55268761D01*
X80986285Y-55221142D01*
X91527333Y-40076380D02*
X91194000Y-39600190D01*
X90955904Y-40076380D02*
X90955904Y-39076380D01*
X91336857Y-39076380D01*
X91432095Y-39124000D01*
X91479714Y-39171619D01*
X91527333Y-39266857D01*
X91527333Y-39409714D01*
X91479714Y-39504952D01*
X91432095Y-39552571D01*
X91336857Y-39600190D01*
X90955904Y-39600190D01*
X92384476Y-39076380D02*
X92194000Y-39076380D01*
X92098761Y-39124000D01*
X92051142Y-39171619D01*
X91955904Y-39314476D01*
X91908285Y-39504952D01*
X91908285Y-39885904D01*
X91955904Y-39981142D01*
X92003523Y-40028761D01*
X92098761Y-40076380D01*
X92289238Y-40076380D01*
X92384476Y-40028761D01*
X92432095Y-39981142D01*
X92479714Y-39885904D01*
X92479714Y-39647809D01*
X92432095Y-39552571D01*
X92384476Y-39504952D01*
X92289238Y-39457333D01*
X92098761Y-39457333D01*
X92003523Y-39504952D01*
X91955904Y-39552571D01*
X91908285Y-39647809D01*
X77303333Y-39473142D02*
X77255714Y-39520761D01*
X77112857Y-39568380D01*
X77017619Y-39568380D01*
X76874761Y-39520761D01*
X76779523Y-39425523D01*
X76731904Y-39330285D01*
X76684285Y-39139809D01*
X76684285Y-38996952D01*
X76731904Y-38806476D01*
X76779523Y-38711238D01*
X76874761Y-38616000D01*
X77017619Y-38568380D01*
X77112857Y-38568380D01*
X77255714Y-38616000D01*
X77303333Y-38663619D01*
X78255714Y-39568380D02*
X77684285Y-39568380D01*
X77970000Y-39568380D02*
X77970000Y-38568380D01*
X77874761Y-38711238D01*
X77779523Y-38806476D01*
X77684285Y-38854095D01*
X71969333Y-56999142D02*
X71921714Y-57046761D01*
X71778857Y-57094380D01*
X71683619Y-57094380D01*
X71540761Y-57046761D01*
X71445523Y-56951523D01*
X71397904Y-56856285D01*
X71350285Y-56665809D01*
X71350285Y-56522952D01*
X71397904Y-56332476D01*
X71445523Y-56237238D01*
X71540761Y-56142000D01*
X71683619Y-56094380D01*
X71778857Y-56094380D01*
X71921714Y-56142000D01*
X71969333Y-56189619D01*
X72302666Y-56094380D02*
X72921714Y-56094380D01*
X72588380Y-56475333D01*
X72731238Y-56475333D01*
X72826476Y-56522952D01*
X72874095Y-56570571D01*
X72921714Y-56665809D01*
X72921714Y-56903904D01*
X72874095Y-56999142D01*
X72826476Y-57046761D01*
X72731238Y-57094380D01*
X72445523Y-57094380D01*
X72350285Y-57046761D01*
X72302666Y-56999142D01*
X83907333Y-39473142D02*
X83859714Y-39520761D01*
X83716857Y-39568380D01*
X83621619Y-39568380D01*
X83478761Y-39520761D01*
X83383523Y-39425523D01*
X83335904Y-39330285D01*
X83288285Y-39139809D01*
X83288285Y-38996952D01*
X83335904Y-38806476D01*
X83383523Y-38711238D01*
X83478761Y-38616000D01*
X83621619Y-38568380D01*
X83716857Y-38568380D01*
X83859714Y-38616000D01*
X83907333Y-38663619D01*
X84288285Y-38663619D02*
X84335904Y-38616000D01*
X84431142Y-38568380D01*
X84669238Y-38568380D01*
X84764476Y-38616000D01*
X84812095Y-38663619D01*
X84859714Y-38758857D01*
X84859714Y-38854095D01*
X84812095Y-38996952D01*
X84240666Y-39568380D01*
X84859714Y-39568380D01*
X77882761Y-49061619D02*
X77787523Y-49014000D01*
X77692285Y-48918761D01*
X77549428Y-48775904D01*
X77454190Y-48728285D01*
X77358952Y-48728285D01*
X77406571Y-48966380D02*
X77311333Y-48918761D01*
X77216095Y-48823523D01*
X77168476Y-48633047D01*
X77168476Y-48299714D01*
X77216095Y-48109238D01*
X77311333Y-48014000D01*
X77406571Y-47966380D01*
X77597047Y-47966380D01*
X77692285Y-48014000D01*
X77787523Y-48109238D01*
X77835142Y-48299714D01*
X77835142Y-48633047D01*
X77787523Y-48823523D01*
X77692285Y-48918761D01*
X77597047Y-48966380D01*
X77406571Y-48966380D01*
X78787523Y-48966380D02*
X78216095Y-48966380D01*
X78501809Y-48966380D02*
X78501809Y-47966380D01*
X78406571Y-48109238D01*
X78311333Y-48204476D01*
X78216095Y-48252095D01*
X81946761Y-49061619D02*
X81851523Y-49014000D01*
X81756285Y-48918761D01*
X81613428Y-48775904D01*
X81518190Y-48728285D01*
X81422952Y-48728285D01*
X81470571Y-48966380D02*
X81375333Y-48918761D01*
X81280095Y-48823523D01*
X81232476Y-48633047D01*
X81232476Y-48299714D01*
X81280095Y-48109238D01*
X81375333Y-48014000D01*
X81470571Y-47966380D01*
X81661047Y-47966380D01*
X81756285Y-48014000D01*
X81851523Y-48109238D01*
X81899142Y-48299714D01*
X81899142Y-48633047D01*
X81851523Y-48823523D01*
X81756285Y-48918761D01*
X81661047Y-48966380D01*
X81470571Y-48966380D01*
X82280095Y-48061619D02*
X82327714Y-48014000D01*
X82422952Y-47966380D01*
X82661047Y-47966380D01*
X82756285Y-48014000D01*
X82803904Y-48061619D01*
X82851523Y-48156857D01*
X82851523Y-48252095D01*
X82803904Y-48394952D01*
X82232476Y-48966380D01*
X82851523Y-48966380D01*
X85685333Y-55316380D02*
X85352000Y-54840190D01*
X85113904Y-55316380D02*
X85113904Y-54316380D01*
X85494857Y-54316380D01*
X85590095Y-54364000D01*
X85637714Y-54411619D01*
X85685333Y-54506857D01*
X85685333Y-54649714D01*
X85637714Y-54744952D01*
X85590095Y-54792571D01*
X85494857Y-54840190D01*
X85113904Y-54840190D01*
X86066285Y-54411619D02*
X86113904Y-54364000D01*
X86209142Y-54316380D01*
X86447238Y-54316380D01*
X86542476Y-54364000D01*
X86590095Y-54411619D01*
X86637714Y-54506857D01*
X86637714Y-54602095D01*
X86590095Y-54744952D01*
X86018666Y-55316380D01*
X86637714Y-55316380D01*
X80605333Y-60142380D02*
X80272000Y-59666190D01*
X80033904Y-60142380D02*
X80033904Y-59142380D01*
X80414857Y-59142380D01*
X80510095Y-59190000D01*
X80557714Y-59237619D01*
X80605333Y-59332857D01*
X80605333Y-59475714D01*
X80557714Y-59570952D01*
X80510095Y-59618571D01*
X80414857Y-59666190D01*
X80033904Y-59666190D01*
X81462476Y-59475714D02*
X81462476Y-60142380D01*
X81224380Y-59094761D02*
X80986285Y-59809047D01*
X81605333Y-59809047D01*
X79589333Y-45156380D02*
X79256000Y-44680190D01*
X79017904Y-45156380D02*
X79017904Y-44156380D01*
X79398857Y-44156380D01*
X79494095Y-44204000D01*
X79541714Y-44251619D01*
X79589333Y-44346857D01*
X79589333Y-44489714D01*
X79541714Y-44584952D01*
X79494095Y-44632571D01*
X79398857Y-44680190D01*
X79017904Y-44680190D01*
X79922666Y-44156380D02*
X80541714Y-44156380D01*
X80208380Y-44537333D01*
X80351238Y-44537333D01*
X80446476Y-44584952D01*
X80494095Y-44632571D01*
X80541714Y-44727809D01*
X80541714Y-44965904D01*
X80494095Y-45061142D01*
X80446476Y-45108761D01*
X80351238Y-45156380D01*
X80065523Y-45156380D01*
X79970285Y-45108761D01*
X79922666Y-45061142D01*
X68159333Y-49728380D02*
X67826000Y-49252190D01*
X67587904Y-49728380D02*
X67587904Y-48728380D01*
X67968857Y-48728380D01*
X68064095Y-48776000D01*
X68111714Y-48823619D01*
X68159333Y-48918857D01*
X68159333Y-49061714D01*
X68111714Y-49156952D01*
X68064095Y-49204571D01*
X67968857Y-49252190D01*
X67587904Y-49252190D01*
X68492666Y-48728380D02*
X69159333Y-48728380D01*
X68730761Y-49728380D01*
M02*
